{
  "header": {
    "keySignatures": [
      {
        "key": "C",
        "scale": "major",
        "ticks": 0
      }
    ],
    "meta": [],
    "name": "Guitarra clásica",
    "ppq": 480,
    "tempos": [
      {
        "bpm": 140.00014000014,
        "ticks": 0
      }
    ],
    "timeSignatures": [
      {
        "ticks": 0,
        "timeSignature": [
          12,
          8
        ],
        "measures": 0
      }
    ]
  },
  "tracks": [
    {
      "channel": 0,
      "controlChanges": {
        "7": [
          {
            "number": 7,
            "ticks": 0,
            "time": 0,
            "value": 0.7874015748031497
          }
        ],
        "10": [
          {
            "number": 10,
            "ticks": 0,
            "time": 0,
            "value": 0.5039370078740157
          }
        ],
        "91": [
          {
            "number": 91,
            "ticks": 0,
            "time": 0,
            "value": 0
          }
        ],
        "93": [
          {
            "number": 93,
            "ticks": 0,
            "time": 0,
            "value": 0
          }
        ]
      },
      "pitchBends": [],
      "instrument": {
        "family": "guitar",
        "number": 24,
        "name": "acoustic guitar (nylon)"
      },
      "name": "",
      "notes": [
        {
          "duration": 0.21339264375000003,
          "durationTicks": 239,
          "midi": 67,
          "name": "G4",
          "ticks": 0,
          "time": 0,
          "velocity": 0.6299212598425197
        },
        {
          "duration": 2.57053314375,
          "durationTicks": 2879,
          "midi": 40,
          "name": "E2",
          "ticks": 0,
          "time": 0,
          "velocity": 0.6299212598425197
        },
        {
          "duration": 0.21339264375,
          "durationTicks": 239,
          "midi": 59,
          "name": "B3",
          "ticks": 240,
          "time": 0.21428550000000002,
          "velocity": 0.6299212598425197
        },
        {
          "duration": 0.21339264375,
          "durationTicks": 239,
          "midi": 55,
          "name": "G3",
          "ticks": 480,
          "time": 0.42857100000000004,
          "velocity": 0.6299212598425197
        },
        {
          "duration": 0.21339264375,
          "durationTicks": 239,
          "midi": 64,
          "name": "E4",
          "ticks": 720,
          "time": 0.6428565,
          "velocity": 0.6299212598425197
        },
        {
          "duration": 0.21339264375,
          "durationTicks": 239,
          "midi": 59,
          "name": "B3",
          "ticks": 960,
          "time": 0.8571420000000001,
          "velocity": 0.6299212598425197
        },
        {
          "duration": 0.21339264375000022,
          "durationTicks": 239,
          "midi": 55,
          "name": "G3",
          "ticks": 1200,
          "time": 1.0714275,
          "velocity": 0.6299212598425197
        },
        {
          "duration": 0.21339264375,
          "durationTicks": 239,
          "midi": 69,
          "name": "A4",
          "ticks": 1440,
          "time": 1.285713,
          "velocity": 0.6299212598425197
        },
        {
          "duration": 0.21339264375,
          "durationTicks": 239,
          "midi": 59,
          "name": "B3",
          "ticks": 1680,
          "time": 1.4999985000000002,
          "velocity": 0.6299212598425197
        },
        {
          "duration": 0.21339264375,
          "durationTicks": 239,
          "midi": 55,
          "name": "G3",
          "ticks": 1920,
          "time": 1.7142840000000001,
          "velocity": 0.6299212598425197
        },
        {
          "duration": 0.21339264375000022,
          "durationTicks": 239,
          "midi": 66,
          "name": "F#4",
          "ticks": 2160,
          "time": 1.9285695,
          "velocity": 0.6299212598425197
        },
        {
          "duration": 0.21339264375000022,
          "durationTicks": 239,
          "midi": 59,
          "name": "B3",
          "ticks": 2400,
          "time": 2.142855,
          "velocity": 0.6299212598425197
        },
        {
          "duration": 0.21339264374999978,
          "durationTicks": 239,
          "midi": 55,
          "name": "G3",
          "ticks": 2640,
          "time": 2.3571405000000003,
          "velocity": 0.6299212598425197
        },
        {
          "duration": 0.21339264375000022,
          "durationTicks": 239,
          "midi": 67,
          "name": "G4",
          "ticks": 2880,
          "time": 2.571426,
          "velocity": 0.6299212598425197
        },
        {
          "duration": 2.57053314375,
          "durationTicks": 2879,
          "midi": 40,
          "name": "E2",
          "ticks": 2880,
          "time": 2.571426,
          "velocity": 0.6299212598425197
        },
        {
          "duration": 0.21339264375000022,
          "durationTicks": 239,
          "midi": 59,
          "name": "B3",
          "ticks": 3120,
          "time": 2.7857115,
          "velocity": 0.6299212598425197
        },
        {
          "duration": 0.21339264374999978,
          "durationTicks": 239,
          "midi": 55,
          "name": "G3",
          "ticks": 3360,
          "time": 2.9999970000000005,
          "velocity": 0.6299212598425197
        },
        {
          "duration": 0.21339264374999978,
          "durationTicks": 239,
          "midi": 67,
          "name": "G4",
          "ticks": 3600,
          "time": 3.2142825000000004,
          "velocity": 0.6299212598425197
        },
        {
          "duration": 0.21339264375000022,
          "durationTicks": 239,
          "midi": 59,
          "name": "B3",
          "ticks": 3840,
          "time": 3.4285680000000003,
          "velocity": 0.6299212598425197
        },
        {
          "duration": 0.21339264375000022,
          "durationTicks": 239,
          "midi": 55,
          "name": "G3",
          "ticks": 4080,
          "time": 3.6428535,
          "velocity": 0.6299212598425197
        },
        {
          "duration": 0.21339264375000067,
          "durationTicks": 239,
          "midi": 67,
          "name": "G4",
          "ticks": 4320,
          "time": 3.857139,
          "velocity": 0.6299212598425197
        },
        {
          "duration": 0.21339264375000067,
          "durationTicks": 239,
          "midi": 59,
          "name": "B3",
          "ticks": 4560,
          "time": 4.0714245,
          "velocity": 0.6299212598425197
        },
        {
          "duration": 0.21339264375000067,
          "durationTicks": 239,
          "midi": 55,
          "name": "G3",
          "ticks": 4800,
          "time": 4.28571,
          "velocity": 0.6299212598425197
        },
        {
          "duration": 0.21339264374999978,
          "durationTicks": 239,
          "midi": 67,
          "name": "G4",
          "ticks": 5040,
          "time": 4.499995500000001,
          "velocity": 0.6299212598425197
        },
        {
          "duration": 0.21339264374999978,
          "durationTicks": 239,
          "midi": 59,
          "name": "B3",
          "ticks": 5280,
          "time": 4.714281000000001,
          "velocity": 0.6299212598425197
        },
        {
          "duration": 0.21339264374999978,
          "durationTicks": 239,
          "midi": 55,
          "name": "G3",
          "ticks": 5520,
          "time": 4.9285665000000005,
          "velocity": 0.6299212598425197
        },
        {
          "duration": 0.21339264374999978,
          "durationTicks": 239,
          "midi": 67,
          "name": "G4",
          "ticks": 5760,
          "time": 5.142852,
          "velocity": 0.6299212598425197
        },
        {
          "duration": 2.5705331437499996,
          "durationTicks": 2879,
          "midi": 40,
          "name": "E2",
          "ticks": 5760,
          "time": 5.142852,
          "velocity": 0.6299212598425197
        },
        {
          "duration": 0.21339264374999978,
          "durationTicks": 239,
          "midi": 59,
          "name": "B3",
          "ticks": 6000,
          "time": 5.3571375,
          "velocity": 0.6299212598425197
        },
        {
          "duration": 0.21339264375000067,
          "durationTicks": 239,
          "midi": 55,
          "name": "G3",
          "ticks": 6240,
          "time": 5.571423,
          "velocity": 0.6299212598425197
        },
        {
          "duration": 0.21339264375000067,
          "durationTicks": 239,
          "midi": 64,
          "name": "E4",
          "ticks": 6480,
          "time": 5.7857085,
          "velocity": 0.6299212598425197
        },
        {
          "duration": 0.21339264374999978,
          "durationTicks": 239,
          "midi": 59,
          "name": "B3",
          "ticks": 6720,
          "time": 5.999994000000001,
          "velocity": 0.6299212598425197
        },
        {
          "duration": 0.21339264374999978,
          "durationTicks": 239,
          "midi": 55,
          "name": "G3",
          "ticks": 6960,
          "time": 6.214279500000001,
          "velocity": 0.6299212598425197
        },
        {
          "duration": 0.21339264374999978,
          "durationTicks": 239,
          "midi": 69,
          "name": "A4",
          "ticks": 7200,
          "time": 6.428565000000001,
          "velocity": 0.6299212598425197
        },
        {
          "duration": 0.21339264374999978,
          "durationTicks": 239,
          "midi": 59,
          "name": "B3",
          "ticks": 7440,
          "time": 6.642850500000001,
          "velocity": 0.6299212598425197
        },
        {
          "duration": 0.2133926437499989,
          "durationTicks": 239,
          "midi": 55,
          "name": "G3",
          "ticks": 7680,
          "time": 6.857136000000001,
          "velocity": 0.6299212598425197
        },
        {
          "duration": 0.21339264374999978,
          "durationTicks": 239,
          "midi": 66,
          "name": "F#4",
          "ticks": 7920,
          "time": 7.0714215000000005,
          "velocity": 0.6299212598425197
        },
        {
          "duration": 0.21339264374999978,
          "durationTicks": 239,
          "midi": 59,
          "name": "B3",
          "ticks": 8160,
          "time": 7.285707,
          "velocity": 0.6299212598425197
        },
        {
          "duration": 0.21339264374999978,
          "durationTicks": 239,
          "midi": 55,
          "name": "G3",
          "ticks": 8400,
          "time": 7.4999925,
          "velocity": 0.6299212598425197
        },
        {
          "duration": 0.21339264374999978,
          "durationTicks": 239,
          "midi": 71,
          "name": "B4",
          "ticks": 8640,
          "time": 7.714278,
          "velocity": 0.6299212598425197
        },
        {
          "duration": 2.5705331437499996,
          "durationTicks": 2879,
          "midi": 40,
          "name": "E2",
          "ticks": 8640,
          "time": 7.714278,
          "velocity": 0.6299212598425197
        },
        {
          "duration": 0.21339264374999978,
          "durationTicks": 239,
          "midi": 59,
          "name": "B3",
          "ticks": 8880,
          "time": 7.928563500000001,
          "velocity": 0.6299212598425197
        },
        {
          "duration": 0.21339264374999978,
          "durationTicks": 239,
          "midi": 55,
          "name": "G3",
          "ticks": 9120,
          "time": 8.142849,
          "velocity": 0.6299212598425197
        },
        {
          "duration": 0.21339264374999978,
          "durationTicks": 239,
          "midi": 71,
          "name": "B4",
          "ticks": 9360,
          "time": 8.3571345,
          "velocity": 0.6299212598425197
        },
        {
          "duration": 0.21339264374999978,
          "durationTicks": 239,
          "midi": 59,
          "name": "B3",
          "ticks": 9600,
          "time": 8.57142,
          "velocity": 0.6299212598425197
        },
        {
          "duration": 0.21339264374999978,
          "durationTicks": 239,
          "midi": 55,
          "name": "G3",
          "ticks": 9840,
          "time": 8.7857055,
          "velocity": 0.6299212598425197
        },
        {
          "duration": 0.213392643749998,
          "durationTicks": 239,
          "midi": 71,
          "name": "B4",
          "ticks": 10080,
          "time": 8.999991000000001,
          "velocity": 0.6299212598425197
        },
        {
          "duration": 0.21339264374999978,
          "durationTicks": 239,
          "midi": 59,
          "name": "B3",
          "ticks": 10320,
          "time": 9.2142765,
          "velocity": 0.6299212598425197
        },
        {
          "duration": 0.213392643749998,
          "durationTicks": 239,
          "midi": 55,
          "name": "G3",
          "ticks": 10560,
          "time": 9.428562000000001,
          "velocity": 0.6299212598425197
        },
        {
          "duration": 0.21339264374999978,
          "durationTicks": 239,
          "midi": 71,
          "name": "B4",
          "ticks": 10800,
          "time": 9.6428475,
          "velocity": 0.6299212598425197
        },
        {
          "duration": 0.21339264374999978,
          "durationTicks": 239,
          "midi": 59,
          "name": "B3",
          "ticks": 11040,
          "time": 9.857133000000001,
          "velocity": 0.6299212598425197
        },
        {
          "duration": 0.21339264374999978,
          "durationTicks": 239,
          "midi": 55,
          "name": "G3",
          "ticks": 11280,
          "time": 10.0714185,
          "velocity": 0.6299212598425197
        },
        {
          "duration": 0.21339264374999978,
          "durationTicks": 239,
          "midi": 67,
          "name": "G4",
          "ticks": 11520,
          "time": 10.285704,
          "velocity": 0.6299212598425197
        },
        {
          "duration": 2.5705331437499996,
          "durationTicks": 2879,
          "midi": 40,
          "name": "E2",
          "ticks": 11520,
          "time": 10.285704,
          "velocity": 0.6299212598425197
        },
        {
          "duration": 0.213392643749998,
          "durationTicks": 239,
          "midi": 59,
          "name": "B3",
          "ticks": 11760,
          "time": 10.499989500000002,
          "velocity": 0.6299212598425197
        },
        {
          "duration": 0.21339264374999978,
          "durationTicks": 239,
          "midi": 55,
          "name": "G3",
          "ticks": 12000,
          "time": 10.714275,
          "velocity": 0.6299212598425197
        },
        {
          "duration": 0.213392643749998,
          "durationTicks": 239,
          "midi": 64,
          "name": "E4",
          "ticks": 12240,
          "time": 10.928560500000001,
          "velocity": 0.6299212598425197
        },
        {
          "duration": 0.21339264374999978,
          "durationTicks": 239,
          "midi": 59,
          "name": "B3",
          "ticks": 12480,
          "time": 11.142846,
          "velocity": 0.6299212598425197
        },
        {
          "duration": 0.21339264374999978,
          "durationTicks": 239,
          "midi": 55,
          "name": "G3",
          "ticks": 12720,
          "time": 11.357131500000001,
          "velocity": 0.6299212598425197
        },
        {
          "duration": 0.21339264374999978,
          "durationTicks": 239,
          "midi": 69,
          "name": "A4",
          "ticks": 12960,
          "time": 11.571417,
          "velocity": 0.6299212598425197
        },
        {
          "duration": 0.21339264374999978,
          "durationTicks": 239,
          "midi": 59,
          "name": "B3",
          "ticks": 13200,
          "time": 11.785702500000001,
          "velocity": 0.6299212598425197
        },
        {
          "duration": 0.213392643749998,
          "durationTicks": 239,
          "midi": 55,
          "name": "G3",
          "ticks": 13440,
          "time": 11.999988000000002,
          "velocity": 0.6299212598425197
        },
        {
          "duration": 0.21339264374999978,
          "durationTicks": 239,
          "midi": 66,
          "name": "F#4",
          "ticks": 13680,
          "time": 12.214273500000001,
          "velocity": 0.6299212598425197
        },
        {
          "duration": 0.213392643749998,
          "durationTicks": 239,
          "midi": 59,
          "name": "B3",
          "ticks": 13920,
          "time": 12.428559000000002,
          "velocity": 0.6299212598425197
        },
        {
          "duration": 0.21339264374999978,
          "durationTicks": 239,
          "midi": 55,
          "name": "G3",
          "ticks": 14160,
          "time": 12.6428445,
          "velocity": 0.6299212598425197
        },
        {
          "duration": 0.213392643749998,
          "durationTicks": 239,
          "midi": 67,
          "name": "G4",
          "ticks": 14400,
          "time": 12.857130000000002,
          "velocity": 0.6299212598425197
        },
        {
          "duration": 2.5705331437500014,
          "durationTicks": 2879,
          "midi": 40,
          "name": "E2",
          "ticks": 14400,
          "time": 12.857130000000002,
          "velocity": 0.6299212598425197
        },
        {
          "duration": 0.21339264374999978,
          "durationTicks": 239,
          "midi": 59,
          "name": "B3",
          "ticks": 14640,
          "time": 13.0714155,
          "velocity": 0.6299212598425197
        },
        {
          "duration": 0.21339264374999978,
          "durationTicks": 239,
          "midi": 55,
          "name": "G3",
          "ticks": 14880,
          "time": 13.285701000000001,
          "velocity": 0.6299212598425197
        },
        {
          "duration": 0.21339264374999978,
          "durationTicks": 239,
          "midi": 67,
          "name": "G4",
          "ticks": 15120,
          "time": 13.4999865,
          "velocity": 0.6299212598425197
        },
        {
          "duration": 0.21339264375000155,
          "durationTicks": 239,
          "midi": 59,
          "name": "B3",
          "ticks": 15360,
          "time": 13.714272000000001,
          "velocity": 0.6299212598425197
        },
        {
          "duration": 0.21339264374999978,
          "durationTicks": 239,
          "midi": 55,
          "name": "G3",
          "ticks": 15600,
          "time": 13.928557500000002,
          "velocity": 0.6299212598425197
        },
        {
          "duration": 0.21339264375000155,
          "durationTicks": 239,
          "midi": 67,
          "name": "G4",
          "ticks": 15840,
          "time": 14.142843000000001,
          "velocity": 0.6299212598425197
        },
        {
          "duration": 0.21339264374999978,
          "durationTicks": 239,
          "midi": 59,
          "name": "B3",
          "ticks": 16080,
          "time": 14.357128500000002,
          "velocity": 0.6299212598425197
        },
        {
          "duration": 0.21339264375000155,
          "durationTicks": 239,
          "midi": 55,
          "name": "G3",
          "ticks": 16320,
          "time": 14.571414,
          "velocity": 0.6299212598425197
        },
        {
          "duration": 0.21339264374999978,
          "durationTicks": 239,
          "midi": 67,
          "name": "G4",
          "ticks": 16560,
          "time": 14.785699500000002,
          "velocity": 0.6299212598425197
        },
        {
          "duration": 0.21339264375000155,
          "durationTicks": 239,
          "midi": 59,
          "name": "B3",
          "ticks": 16800,
          "time": 14.999985,
          "velocity": 0.6299212598425197
        },
        {
          "duration": 0.21339264375000155,
          "durationTicks": 239,
          "midi": 55,
          "name": "G3",
          "ticks": 17040,
          "time": 15.214270500000001,
          "velocity": 0.6299212598425197
        },
        {
          "duration": 0.21339264375000155,
          "durationTicks": 239,
          "midi": 70,
          "name": "A#4",
          "ticks": 17280,
          "time": 15.428556,
          "velocity": 0.6299212598425197
        },
        {
          "duration": 2.5705331437500014,
          "durationTicks": 2879,
          "midi": 40,
          "name": "E2",
          "ticks": 17280,
          "time": 15.428556,
          "velocity": 0.6299212598425197
        },
        {
          "duration": 0.21339264375000155,
          "durationTicks": 239,
          "midi": 59,
          "name": "B3",
          "ticks": 17520,
          "time": 15.642841500000001,
          "velocity": 0.6299212598425197
        },
        {
          "duration": 0.21339264375000155,
          "durationTicks": 239,
          "midi": 55,
          "name": "G3",
          "ticks": 17760,
          "time": 15.857127000000002,
          "velocity": 0.6299212598425197
        },
        {
          "duration": 0.21339264375000155,
          "durationTicks": 239,
          "midi": 69,
          "name": "A4",
          "ticks": 18000,
          "time": 16.0714125,
          "velocity": 0.6299212598425197
        },
        {
          "duration": 0.21339264375000155,
          "durationTicks": 239,
          "midi": 59,
          "name": "B3",
          "ticks": 18240,
          "time": 16.285698,
          "velocity": 0.6299212598425197
        },
        {
          "duration": 0.213392643749998,
          "durationTicks": 239,
          "midi": 55,
          "name": "G3",
          "ticks": 18480,
          "time": 16.499983500000003,
          "velocity": 0.6299212598425197
        },
        {
          "duration": 0.21339264375000155,
          "durationTicks": 239,
          "midi": 67,
          "name": "G4",
          "ticks": 18720,
          "time": 16.714269,
          "velocity": 0.6299212598425197
        },
        {
          "duration": 0.21339264375000155,
          "durationTicks": 239,
          "midi": 59,
          "name": "B3",
          "ticks": 18960,
          "time": 16.9285545,
          "velocity": 0.6299212598425197
        },
        {
          "duration": 0.21339264375000155,
          "durationTicks": 239,
          "midi": 55,
          "name": "G3",
          "ticks": 19200,
          "time": 17.14284,
          "velocity": 0.6299212598425197
        },
        {
          "duration": 0.21339264375000155,
          "durationTicks": 239,
          "midi": 64,
          "name": "E4",
          "ticks": 19440,
          "time": 17.357125500000002,
          "velocity": 0.6299212598425197
        },
        {
          "duration": 0.21339264375000155,
          "durationTicks": 239,
          "midi": 59,
          "name": "B3",
          "ticks": 19680,
          "time": 17.571411,
          "velocity": 0.6299212598425197
        },
        {
          "duration": 0.21339264375000155,
          "durationTicks": 239,
          "midi": 62,
          "name": "D4",
          "ticks": 19920,
          "time": 17.7856965,
          "velocity": 0.6299212598425197
        },
        {
          "duration": 0.213392643749998,
          "durationTicks": 239,
          "midi": 64,
          "name": "E4",
          "ticks": 20160,
          "time": 17.999982000000003,
          "velocity": 0.6299212598425197
        },
        {
          "duration": 2.5705331437500014,
          "durationTicks": 2879,
          "midi": 40,
          "name": "E2",
          "ticks": 20160,
          "time": 17.999982000000003,
          "velocity": 0.6299212598425197
        },
        {
          "duration": 0.21339264375000155,
          "durationTicks": 239,
          "midi": 59,
          "name": "B3",
          "ticks": 20400,
          "time": 18.214267500000002,
          "velocity": 0.6299212598425197
        },
        {
          "duration": 0.21339264375000155,
          "durationTicks": 239,
          "midi": 55,
          "name": "G3",
          "ticks": 20640,
          "time": 18.428553,
          "velocity": 0.6299212598425197
        },
        {
          "duration": 0.21339264375000155,
          "durationTicks": 239,
          "midi": 64,
          "name": "E4",
          "ticks": 20880,
          "time": 18.6428385,
          "velocity": 0.6299212598425197
        },
        {
          "duration": 0.21339264375000155,
          "durationTicks": 239,
          "midi": 59,
          "name": "B3",
          "ticks": 21120,
          "time": 18.857124000000002,
          "velocity": 0.6299212598425197
        },
        {
          "duration": 0.21339264375000155,
          "durationTicks": 239,
          "midi": 55,
          "name": "G3",
          "ticks": 21360,
          "time": 19.0714095,
          "velocity": 0.6299212598425197
        },
        {
          "duration": 0.21339264375000155,
          "durationTicks": 239,
          "midi": 64,
          "name": "E4",
          "ticks": 21600,
          "time": 19.285695,
          "velocity": 0.6299212598425197
        },
        {
          "duration": 0.213392643749998,
          "durationTicks": 239,
          "midi": 59,
          "name": "B3",
          "ticks": 21840,
          "time": 19.499980500000003,
          "velocity": 0.6299212598425197
        },
        {
          "duration": 0.21339264375000155,
          "durationTicks": 239,
          "midi": 55,
          "name": "G3",
          "ticks": 22080,
          "time": 19.714266000000002,
          "velocity": 0.6299212598425197
        },
        {
          "duration": 0.21339264375000155,
          "durationTicks": 239,
          "midi": 64,
          "name": "E4",
          "ticks": 22320,
          "time": 19.9285515,
          "velocity": 0.6299212598425197
        },
        {
          "duration": 0.21339264375000155,
          "durationTicks": 239,
          "midi": 59,
          "name": "B3",
          "ticks": 22560,
          "time": 20.142837,
          "velocity": 0.6299212598425197
        },
        {
          "duration": 0.21339264375000155,
          "durationTicks": 239,
          "midi": 55,
          "name": "G3",
          "ticks": 22800,
          "time": 20.357122500000003,
          "velocity": 0.6299212598425197
        },
        {
          "duration": 0.21339264375000155,
          "durationTicks": 239,
          "midi": 74,
          "name": "D5",
          "ticks": 23040,
          "time": 20.571408,
          "velocity": 0.6299212598425197
        },
        {
          "duration": 2.5705331437500014,
          "durationTicks": 2879,
          "midi": 40,
          "name": "E2",
          "ticks": 23040,
          "time": 20.571408,
          "velocity": 0.6299212598425197
        },
        {
          "duration": 0.21339264375000155,
          "durationTicks": 239,
          "midi": 59,
          "name": "B3",
          "ticks": 23280,
          "time": 20.7856935,
          "velocity": 0.6299212598425197
        },
        {
          "duration": 0.213392643749998,
          "durationTicks": 239,
          "midi": 55,
          "name": "G3",
          "ticks": 23520,
          "time": 20.999979000000003,
          "velocity": 0.6299212598425197
        },
        {
          "duration": 0.21339264375000155,
          "durationTicks": 239,
          "midi": 74,
          "name": "D5",
          "ticks": 23760,
          "time": 21.214264500000002,
          "velocity": 0.6299212598425197
        },
        {
          "duration": 0.21339264375000155,
          "durationTicks": 239,
          "midi": 59,
          "name": "B3",
          "ticks": 24000,
          "time": 21.42855,
          "velocity": 0.6299212598425197
        },
        {
          "duration": 0.21339264375000155,
          "durationTicks": 239,
          "midi": 55,
          "name": "G3",
          "ticks": 24240,
          "time": 21.6428355,
          "velocity": 0.6299212598425197
        },
        {
          "duration": 0.213392643749998,
          "durationTicks": 239,
          "midi": 74,
          "name": "D5",
          "ticks": 24480,
          "time": 21.857121000000003,
          "velocity": 0.6299212598425197
        },
        {
          "duration": 0.21339264375000155,
          "durationTicks": 239,
          "midi": 59,
          "name": "B3",
          "ticks": 24720,
          "time": 22.071406500000002,
          "velocity": 0.6299212598425197
        },
        {
          "duration": 0.21339264375000155,
          "durationTicks": 239,
          "midi": 55,
          "name": "G3",
          "ticks": 24960,
          "time": 22.285692,
          "velocity": 0.6299212598425197
        },
        {
          "duration": 0.213392643749998,
          "durationTicks": 239,
          "midi": 74,
          "name": "D5",
          "ticks": 25200,
          "time": 22.499977500000004,
          "velocity": 0.6299212598425197
        },
        {
          "duration": 0.21339264375000155,
          "durationTicks": 239,
          "midi": 59,
          "name": "B3",
          "ticks": 25440,
          "time": 22.714263000000003,
          "velocity": 0.6299212598425197
        },
        {
          "duration": 0.21339264375000155,
          "durationTicks": 239,
          "midi": 55,
          "name": "G3",
          "ticks": 25680,
          "time": 22.9285485,
          "velocity": 0.6299212598425197
        },
        {
          "duration": 0.21339264375000155,
          "durationTicks": 239,
          "midi": 73,
          "name": "C#5",
          "ticks": 25920,
          "time": 23.142834,
          "velocity": 0.6299212598425197
        },
        {
          "duration": 2.5705331437500014,
          "durationTicks": 2879,
          "midi": 45,
          "name": "A2",
          "ticks": 25920,
          "time": 23.142834,
          "velocity": 0.6299212598425197
        },
        {
          "duration": 0.213392643749998,
          "durationTicks": 239,
          "midi": 59,
          "name": "B3",
          "ticks": 26160,
          "time": 23.357119500000003,
          "velocity": 0.6299212598425197
        },
        {
          "duration": 0.21339264375000155,
          "durationTicks": 239,
          "midi": 55,
          "name": "G3",
          "ticks": 26400,
          "time": 23.571405000000002,
          "velocity": 0.6299212598425197
        },
        {
          "duration": 0.21339264375000155,
          "durationTicks": 239,
          "midi": 73,
          "name": "C#5",
          "ticks": 26640,
          "time": 23.7856905,
          "velocity": 0.6299212598425197
        },
        {
          "duration": 0.213392643749998,
          "durationTicks": 239,
          "midi": 59,
          "name": "B3",
          "ticks": 26880,
          "time": 23.999976000000004,
          "velocity": 0.6299212598425197
        },
        {
          "duration": 0.21339264375000155,
          "durationTicks": 239,
          "midi": 55,
          "name": "G3",
          "ticks": 27120,
          "time": 24.214261500000003,
          "velocity": 0.6299212598425197
        },
        {
          "duration": 0.21339264375000155,
          "durationTicks": 239,
          "midi": 73,
          "name": "C#5",
          "ticks": 27360,
          "time": 24.428547000000002,
          "velocity": 0.6299212598425197
        },
        {
          "duration": 0.21339264375000155,
          "durationTicks": 239,
          "midi": 59,
          "name": "B3",
          "ticks": 27600,
          "time": 24.6428325,
          "velocity": 0.6299212598425197
        },
        {
          "duration": 0.213392643749998,
          "durationTicks": 239,
          "midi": 55,
          "name": "G3",
          "ticks": 27840,
          "time": 24.857118000000003,
          "velocity": 0.6299212598425197
        },
        {
          "duration": 0.21339264375000155,
          "durationTicks": 239,
          "midi": 73,
          "name": "C#5",
          "ticks": 28080,
          "time": 25.071403500000002,
          "velocity": 0.6299212598425197
        },
        {
          "duration": 0.21339264375000155,
          "durationTicks": 239,
          "midi": 59,
          "name": "B3",
          "ticks": 28320,
          "time": 25.285689,
          "velocity": 0.6299212598425197
        },
        {
          "duration": 0.21339264375000155,
          "durationTicks": 239,
          "midi": 55,
          "name": "G3",
          "ticks": 28560,
          "time": 25.4999745,
          "velocity": 0.6299212598425197
        },
        {
          "duration": 0.21339264375000155,
          "durationTicks": 239,
          "midi": 72,
          "name": "C5",
          "ticks": 28800,
          "time": 25.714260000000003,
          "velocity": 0.6299212598425197
        },
        {
          "duration": 2.5705331437500014,
          "durationTicks": 2879,
          "midi": 45,
          "name": "A2",
          "ticks": 28800,
          "time": 25.714260000000003,
          "velocity": 0.6299212598425197
        },
        {
          "duration": 0.21339264375000155,
          "durationTicks": 239,
          "midi": 59,
          "name": "B3",
          "ticks": 29040,
          "time": 25.928545500000002,
          "velocity": 0.6299212598425197
        },
        {
          "duration": 0.21339264375000155,
          "durationTicks": 239,
          "midi": 55,
          "name": "G3",
          "ticks": 29280,
          "time": 26.142831,
          "velocity": 0.6299212598425197
        },
        {
          "duration": 0.213392643749998,
          "durationTicks": 239,
          "midi": 72,
          "name": "C5",
          "ticks": 29520,
          "time": 26.357116500000004,
          "velocity": 0.6299212598425197
        },
        {
          "duration": 0.21339264375000155,
          "durationTicks": 239,
          "midi": 59,
          "name": "B3",
          "ticks": 29760,
          "time": 26.571402000000003,
          "velocity": 0.6299212598425197
        },
        {
          "duration": 0.21339264375000155,
          "durationTicks": 239,
          "midi": 55,
          "name": "G3",
          "ticks": 30000,
          "time": 26.7856875,
          "velocity": 0.6299212598425197
        },
        {
          "duration": 0.21339264375000155,
          "durationTicks": 239,
          "midi": 72,
          "name": "C5",
          "ticks": 30240,
          "time": 26.999973,
          "velocity": 0.6299212598425197
        },
        {
          "duration": 0.21339264375000155,
          "durationTicks": 239,
          "midi": 59,
          "name": "B3",
          "ticks": 30480,
          "time": 27.214258500000003,
          "velocity": 0.6299212598425197
        },
        {
          "duration": 0.21339264375000155,
          "durationTicks": 239,
          "midi": 55,
          "name": "G3",
          "ticks": 30720,
          "time": 27.428544000000002,
          "velocity": 0.6299212598425197
        },
        {
          "duration": 0.21339264375000155,
          "durationTicks": 239,
          "midi": 72,
          "name": "C5",
          "ticks": 30960,
          "time": 27.6428295,
          "velocity": 0.6299212598425197
        },
        {
          "duration": 0.213392643749998,
          "durationTicks": 239,
          "midi": 59,
          "name": "B3",
          "ticks": 31200,
          "time": 27.857115000000004,
          "velocity": 0.6299212598425197
        },
        {
          "duration": 0.21339264375000155,
          "durationTicks": 239,
          "midi": 55,
          "name": "G3",
          "ticks": 31440,
          "time": 28.071400500000003,
          "velocity": 0.6299212598425197
        },
        {
          "duration": 0.21339264375000155,
          "durationTicks": 239,
          "midi": 71,
          "name": "B4",
          "ticks": 31680,
          "time": 28.285686000000002,
          "velocity": 0.6299212598425197
        },
        {
          "duration": 2.5705331437500014,
          "durationTicks": 2879,
          "midi": 40,
          "name": "E2",
          "ticks": 31680,
          "time": 28.285686000000002,
          "velocity": 0.6299212598425197
        },
        {
          "duration": 0.21339264375000155,
          "durationTicks": 239,
          "midi": 59,
          "name": "B3",
          "ticks": 31920,
          "time": 28.4999715,
          "velocity": 0.6299212598425197
        },
        {
          "duration": 0.213392643749998,
          "durationTicks": 239,
          "midi": 55,
          "name": "G3",
          "ticks": 32160,
          "time": 28.714257000000003,
          "velocity": 0.6299212598425197
        },
        {
          "duration": 0.21339264375000155,
          "durationTicks": 239,
          "midi": 71,
          "name": "B4",
          "ticks": 32400,
          "time": 28.928542500000002,
          "velocity": 0.6299212598425197
        },
        {
          "duration": 0.21339264375000155,
          "durationTicks": 239,
          "midi": 59,
          "name": "B3",
          "ticks": 32640,
          "time": 29.142828,
          "velocity": 0.6299212598425197
        },
        {
          "duration": 0.213392643749998,
          "durationTicks": 239,
          "midi": 55,
          "name": "G3",
          "ticks": 32880,
          "time": 29.357113500000004,
          "velocity": 0.6299212598425197
        },
        {
          "duration": 0.21339264375000155,
          "durationTicks": 239,
          "midi": 71,
          "name": "B4",
          "ticks": 33120,
          "time": 29.571399000000003,
          "velocity": 0.6299212598425197
        },
        {
          "duration": 0.21339264375000155,
          "durationTicks": 239,
          "midi": 59,
          "name": "B3",
          "ticks": 33360,
          "time": 29.785684500000002,
          "velocity": 0.6299212598425197
        },
        {
          "duration": 0.21339264375000155,
          "durationTicks": 239,
          "midi": 55,
          "name": "G3",
          "ticks": 33600,
          "time": 29.99997,
          "velocity": 0.6299212598425197
        },
        {
          "duration": 0.213392643749998,
          "durationTicks": 239,
          "midi": 71,
          "name": "B4",
          "ticks": 33840,
          "time": 30.214255500000004,
          "velocity": 0.6299212598425197
        },
        {
          "duration": 0.21339264375000155,
          "durationTicks": 239,
          "midi": 59,
          "name": "B3",
          "ticks": 34080,
          "time": 30.428541000000003,
          "velocity": 0.6299212598425197
        },
        {
          "duration": 0.21339264375000155,
          "durationTicks": 239,
          "midi": 55,
          "name": "G3",
          "ticks": 34320,
          "time": 30.6428265,
          "velocity": 0.6299212598425197
        },
        {
          "duration": 0.21339264375000155,
          "durationTicks": 239,
          "midi": 74,
          "name": "D5",
          "ticks": 34560,
          "time": 30.857112,
          "velocity": 0.6299212598425197
        },
        {
          "duration": 2.570533143750005,
          "durationTicks": 2879,
          "midi": 40,
          "name": "E2",
          "ticks": 34560,
          "time": 30.857112,
          "velocity": 0.6299212598425197
        },
        {
          "duration": 0.21339264375000155,
          "durationTicks": 239,
          "midi": 59,
          "name": "B3",
          "ticks": 34800,
          "time": 31.071397500000003,
          "velocity": 0.6299212598425197
        },
        {
          "duration": 0.21339264375000155,
          "durationTicks": 239,
          "midi": 55,
          "name": "G3",
          "ticks": 35040,
          "time": 31.285683000000002,
          "velocity": 0.6299212598425197
        },
        {
          "duration": 0.21339264375000155,
          "durationTicks": 239,
          "midi": 74,
          "name": "D5",
          "ticks": 35280,
          "time": 31.4999685,
          "velocity": 0.6299212598425197
        },
        {
          "duration": 0.213392643749998,
          "durationTicks": 239,
          "midi": 59,
          "name": "B3",
          "ticks": 35520,
          "time": 31.714254000000004,
          "velocity": 0.6299212598425197
        },
        {
          "duration": 0.21339264375000155,
          "durationTicks": 239,
          "midi": 55,
          "name": "G3",
          "ticks": 35760,
          "time": 31.928539500000003,
          "velocity": 0.6299212598425197
        },
        {
          "duration": 0.213392643749998,
          "durationTicks": 239,
          "midi": 74,
          "name": "D5",
          "ticks": 36000,
          "time": 32.142825,
          "velocity": 0.6299212598425197
        },
        {
          "duration": 0.213392643749998,
          "durationTicks": 239,
          "midi": 59,
          "name": "B3",
          "ticks": 36240,
          "time": 32.357110500000005,
          "velocity": 0.6299212598425197
        },
        {
          "duration": 0.2133926437500051,
          "durationTicks": 239,
          "midi": 55,
          "name": "G3",
          "ticks": 36480,
          "time": 32.571396,
          "velocity": 0.6299212598425197
        },
        {
          "duration": 0.213392643749998,
          "durationTicks": 239,
          "midi": 74,
          "name": "D5",
          "ticks": 36720,
          "time": 32.7856815,
          "velocity": 0.6299212598425197
        },
        {
          "duration": 0.213392643749998,
          "durationTicks": 239,
          "midi": 59,
          "name": "B3",
          "ticks": 36960,
          "time": 32.999967000000005,
          "velocity": 0.6299212598425197
        },
        {
          "duration": 0.2133926437500051,
          "durationTicks": 239,
          "midi": 55,
          "name": "G3",
          "ticks": 37200,
          "time": 33.2142525,
          "velocity": 0.6299212598425197
        },
        {
          "duration": 0.213392643749998,
          "durationTicks": 239,
          "midi": 73,
          "name": "C#5",
          "ticks": 37440,
          "time": 33.428538,
          "velocity": 0.6299212598425197
        },
        {
          "duration": 2.570533143749998,
          "durationTicks": 2879,
          "midi": 45,
          "name": "A2",
          "ticks": 37440,
          "time": 33.428538,
          "velocity": 0.6299212598425197
        },
        {
          "duration": 0.213392643749998,
          "durationTicks": 239,
          "midi": 59,
          "name": "B3",
          "ticks": 37680,
          "time": 33.642823500000006,
          "velocity": 0.6299212598425197
        },
        {
          "duration": 0.2133926437500051,
          "durationTicks": 239,
          "midi": 55,
          "name": "G3",
          "ticks": 37920,
          "time": 33.857109,
          "velocity": 0.6299212598425197
        },
        {
          "duration": 0.213392643749998,
          "durationTicks": 239,
          "midi": 73,
          "name": "C#5",
          "ticks": 38160,
          "time": 34.071394500000004,
          "velocity": 0.6299212598425197
        },
        {
          "duration": 0.2133926437500051,
          "durationTicks": 239,
          "midi": 59,
          "name": "B3",
          "ticks": 38400,
          "time": 34.28568,
          "velocity": 0.6299212598425197
        },
        {
          "duration": 0.2133926437500051,
          "durationTicks": 239,
          "midi": 55,
          "name": "G3",
          "ticks": 38640,
          "time": 34.4999655,
          "velocity": 0.6299212598425197
        },
        {
          "duration": 0.213392643749998,
          "durationTicks": 239,
          "midi": 73,
          "name": "C#5",
          "ticks": 38880,
          "time": 34.714251000000004,
          "velocity": 0.6299212598425197
        },
        {
          "duration": 0.2133926437500051,
          "durationTicks": 239,
          "midi": 59,
          "name": "B3",
          "ticks": 39120,
          "time": 34.9285365,
          "velocity": 0.6299212598425197
        },
        {
          "duration": 0.213392643749998,
          "durationTicks": 239,
          "midi": 55,
          "name": "G3",
          "ticks": 39360,
          "time": 35.142822,
          "velocity": 0.6299212598425197
        },
        {
          "duration": 0.213392643749998,
          "durationTicks": 239,
          "midi": 73,
          "name": "C#5",
          "ticks": 39600,
          "time": 35.357107500000005,
          "velocity": 0.6299212598425197
        },
        {
          "duration": 0.2133926437500051,
          "durationTicks": 239,
          "midi": 59,
          "name": "B3",
          "ticks": 39840,
          "time": 35.571393,
          "velocity": 0.6299212598425197
        },
        {
          "duration": 0.213392643749998,
          "durationTicks": 239,
          "midi": 55,
          "name": "G3",
          "ticks": 40080,
          "time": 35.7856785,
          "velocity": 0.6299212598425197
        },
        {
          "duration": 0.213392643749998,
          "durationTicks": 239,
          "midi": 72,
          "name": "C5",
          "ticks": 40320,
          "time": 35.999964000000006,
          "velocity": 0.6299212598425197
        },
        {
          "duration": 2.570533143749998,
          "durationTicks": 2879,
          "midi": 45,
          "name": "A2",
          "ticks": 40320,
          "time": 35.999964000000006,
          "velocity": 0.6299212598425197
        },
        {
          "duration": 0.2133926437500051,
          "durationTicks": 239,
          "midi": 59,
          "name": "B3",
          "ticks": 40560,
          "time": 36.2142495,
          "velocity": 0.6299212598425197
        },
        {
          "duration": 0.213392643749998,
          "durationTicks": 239,
          "midi": 55,
          "name": "G3",
          "ticks": 40800,
          "time": 36.428535000000004,
          "velocity": 0.6299212598425197
        },
        {
          "duration": 0.213392643749998,
          "durationTicks": 239,
          "midi": 72,
          "name": "C5",
          "ticks": 41040,
          "time": 36.642820500000006,
          "velocity": 0.6299212598425197
        },
        {
          "duration": 0.2133926437500051,
          "durationTicks": 239,
          "midi": 59,
          "name": "B3",
          "ticks": 41280,
          "time": 36.857106,
          "velocity": 0.6299212598425197
        },
        {
          "duration": 0.213392643749998,
          "durationTicks": 239,
          "midi": 55,
          "name": "G3",
          "ticks": 41520,
          "time": 37.071391500000004,
          "velocity": 0.6299212598425197
        },
        {
          "duration": 0.2133926437500051,
          "durationTicks": 239,
          "midi": 72,
          "name": "C5",
          "ticks": 41760,
          "time": 37.285677,
          "velocity": 0.6299212598425197
        },
        {
          "duration": 0.2133926437500051,
          "durationTicks": 239,
          "midi": 59,
          "name": "B3",
          "ticks": 42000,
          "time": 37.4999625,
          "velocity": 0.6299212598425197
        },
        {
          "duration": 0.213392643749998,
          "durationTicks": 239,
          "midi": 55,
          "name": "G3",
          "ticks": 42240,
          "time": 37.714248000000005,
          "velocity": 0.6299212598425197
        },
        {
          "duration": 0.2133926437500051,
          "durationTicks": 239,
          "midi": 72,
          "name": "C5",
          "ticks": 42480,
          "time": 37.9285335,
          "velocity": 0.6299212598425197
        },
        {
          "duration": 0.213392643749998,
          "durationTicks": 239,
          "midi": 59,
          "name": "B3",
          "ticks": 42720,
          "time": 38.142819,
          "velocity": 0.6299212598425197
        },
        {
          "duration": 0.213392643749998,
          "durationTicks": 239,
          "midi": 55,
          "name": "G3",
          "ticks": 42960,
          "time": 38.357104500000005,
          "velocity": 0.6299212598425197
        },
        {
          "duration": 0.2133926437500051,
          "durationTicks": 239,
          "midi": 71,
          "name": "B4",
          "ticks": 43200,
          "time": 38.57139,
          "velocity": 0.6299212598425197
        },
        {
          "duration": 2.570533143750005,
          "durationTicks": 2879,
          "midi": 40,
          "name": "E2",
          "ticks": 43200,
          "time": 38.57139,
          "velocity": 0.6299212598425197
        },
        {
          "duration": 0.213392643749998,
          "durationTicks": 239,
          "midi": 59,
          "name": "B3",
          "ticks": 43440,
          "time": 38.7856755,
          "velocity": 0.6299212598425197
        },
        {
          "duration": 0.213392643749998,
          "durationTicks": 239,
          "midi": 55,
          "name": "G3",
          "ticks": 43680,
          "time": 38.999961000000006,
          "velocity": 0.6299212598425197
        },
        {
          "duration": 0.2133926437500051,
          "durationTicks": 239,
          "midi": 71,
          "name": "B4",
          "ticks": 43920,
          "time": 39.2142465,
          "velocity": 0.6299212598425197
        },
        {
          "duration": 0.213392643749998,
          "durationTicks": 239,
          "midi": 59,
          "name": "B3",
          "ticks": 44160,
          "time": 39.428532000000004,
          "velocity": 0.6299212598425197
        },
        {
          "duration": 0.213392643749998,
          "durationTicks": 239,
          "midi": 55,
          "name": "G3",
          "ticks": 44400,
          "time": 39.64281750000001,
          "velocity": 0.6299212598425197
        },
        {
          "duration": 0.2133926437500051,
          "durationTicks": 239,
          "midi": 71,
          "name": "B4",
          "ticks": 44640,
          "time": 39.857103,
          "velocity": 0.6299212598425197
        },
        {
          "duration": 0.213392643749998,
          "durationTicks": 239,
          "midi": 59,
          "name": "B3",
          "ticks": 44880,
          "time": 40.071388500000005,
          "velocity": 0.6299212598425197
        },
        {
          "duration": 0.2133926437500051,
          "durationTicks": 239,
          "midi": 55,
          "name": "G3",
          "ticks": 45120,
          "time": 40.285674,
          "velocity": 0.6299212598425197
        },
        {
          "duration": 0.213392643749998,
          "durationTicks": 239,
          "midi": 71,
          "name": "B4",
          "ticks": 45360,
          "time": 40.4999595,
          "velocity": 0.6299212598425197
        },
        {
          "duration": 0.213392643749998,
          "durationTicks": 239,
          "midi": 59,
          "name": "B3",
          "ticks": 45600,
          "time": 40.714245000000005,
          "velocity": 0.6299212598425197
        },
        {
          "duration": 0.2133926437500051,
          "durationTicks": 239,
          "midi": 55,
          "name": "G3",
          "ticks": 45840,
          "time": 40.9285305,
          "velocity": 0.6299212598425197
        },
        {
          "duration": 0.213392643749998,
          "durationTicks": 239,
          "midi": 69,
          "name": "A4",
          "ticks": 46080,
          "time": 41.142816,
          "velocity": 0.6299212598425197
        },
        {
          "duration": 2.570533143749998,
          "durationTicks": 2879,
          "midi": 45,
          "name": "A2",
          "ticks": 46080,
          "time": 41.142816,
          "velocity": 0.6299212598425197
        },
        {
          "duration": 0.213392643749998,
          "durationTicks": 239,
          "midi": 64,
          "name": "E4",
          "ticks": 46320,
          "time": 41.357101500000006,
          "velocity": 0.6299212598425197
        },
        {
          "duration": 0.2133926437500051,
          "durationTicks": 239,
          "midi": 62,
          "name": "D4",
          "ticks": 46560,
          "time": 41.571387,
          "velocity": 0.6299212598425197
        },
        {
          "duration": 0.213392643749998,
          "durationTicks": 239,
          "midi": 69,
          "name": "A4",
          "ticks": 46800,
          "time": 41.785672500000004,
          "velocity": 0.6299212598425197
        },
        {
          "duration": 0.213392643749998,
          "durationTicks": 239,
          "midi": 64,
          "name": "E4",
          "ticks": 47040,
          "time": 41.99995800000001,
          "velocity": 0.6299212598425197
        },
        {
          "duration": 0.2133926437500051,
          "durationTicks": 239,
          "midi": 62,
          "name": "D4",
          "ticks": 47280,
          "time": 42.2142435,
          "velocity": 0.6299212598425197
        },
        {
          "duration": 0.213392643749998,
          "durationTicks": 239,
          "midi": 69,
          "name": "A4",
          "ticks": 47520,
          "time": 42.428529000000005,
          "velocity": 0.6299212598425197
        },
        {
          "duration": 0.2133926437500051,
          "durationTicks": 239,
          "midi": 64,
          "name": "E4",
          "ticks": 47760,
          "time": 42.6428145,
          "velocity": 0.6299212598425197
        },
        {
          "duration": 0.2133926437500051,
          "durationTicks": 239,
          "midi": 62,
          "name": "D4",
          "ticks": 48000,
          "time": 42.8571,
          "velocity": 0.6299212598425197
        },
        {
          "duration": 0.213392643749998,
          "durationTicks": 239,
          "midi": 69,
          "name": "A4",
          "ticks": 48240,
          "time": 43.071385500000005,
          "velocity": 0.6299212598425197
        },
        {
          "duration": 0.2133926437500051,
          "durationTicks": 239,
          "midi": 64,
          "name": "E4",
          "ticks": 48480,
          "time": 43.285671,
          "velocity": 0.6299212598425197
        },
        {
          "duration": 0.213392643749998,
          "durationTicks": 239,
          "midi": 62,
          "name": "D4",
          "ticks": 48720,
          "time": 43.4999565,
          "velocity": 0.6299212598425197
        },
        {
          "duration": 0.213392643749998,
          "durationTicks": 239,
          "midi": 69,
          "name": "A4",
          "ticks": 48960,
          "time": 43.714242000000006,
          "velocity": 0.6299212598425197
        },
        {
          "duration": 2.570533143749998,
          "durationTicks": 2879,
          "midi": 45,
          "name": "A2",
          "ticks": 48960,
          "time": 43.714242000000006,
          "velocity": 0.6299212598425197
        },
        {
          "duration": 0.2133926437500051,
          "durationTicks": 239,
          "midi": 64,
          "name": "E4",
          "ticks": 49200,
          "time": 43.9285275,
          "velocity": 0.6299212598425197
        },
        {
          "duration": 0.213392643749998,
          "durationTicks": 239,
          "midi": 61,
          "name": "C#4",
          "ticks": 49440,
          "time": 44.142813000000004,
          "velocity": 0.6299212598425197
        },
        {
          "duration": 0.213392643749998,
          "durationTicks": 239,
          "midi": 69,
          "name": "A4",
          "ticks": 49680,
          "time": 44.357098500000006,
          "velocity": 0.6299212598425197
        },
        {
          "duration": 0.2133926437500051,
          "durationTicks": 239,
          "midi": 64,
          "name": "E4",
          "ticks": 49920,
          "time": 44.571384,
          "velocity": 0.6299212598425197
        },
        {
          "duration": 0.213392643749998,
          "durationTicks": 239,
          "midi": 61,
          "name": "C#4",
          "ticks": 50160,
          "time": 44.785669500000004,
          "velocity": 0.6299212598425197
        },
        {
          "duration": 1.2848201437499966,
          "durationTicks": 1439,
          "midi": 69,
          "name": "A4",
          "ticks": 50400,
          "time": 44.99995500000001,
          "velocity": 0.6299212598425197
        },
        {
          "duration": 0.2133926437500051,
          "durationTicks": 239,
          "midi": 67,
          "name": "G4",
          "ticks": 51840,
          "time": 46.285668,
          "velocity": 0.6299212598425197
        },
        {
          "duration": 2.570533143750005,
          "durationTicks": 2879,
          "midi": 45,
          "name": "A2",
          "ticks": 51840,
          "time": 46.285668,
          "velocity": 0.6299212598425197
        },
        {
          "duration": 0.213392643749998,
          "durationTicks": 239,
          "midi": 60,
          "name": "C4",
          "ticks": 52080,
          "time": 46.499953500000004,
          "velocity": 0.6299212598425197
        },
        {
          "duration": 0.213392643749998,
          "durationTicks": 239,
          "midi": 55,
          "name": "G3",
          "ticks": 52320,
          "time": 46.714239000000006,
          "velocity": 0.6299212598425197
        },
        {
          "duration": 0.2133926437500051,
          "durationTicks": 239,
          "midi": 66,
          "name": "F#4",
          "ticks": 52560,
          "time": 46.9285245,
          "velocity": 0.6299212598425197
        },
        {
          "duration": 0.213392643749998,
          "durationTicks": 239,
          "midi": 60,
          "name": "C4",
          "ticks": 52800,
          "time": 47.142810000000004,
          "velocity": 0.6299212598425197
        },
        {
          "duration": 0.213392643749998,
          "durationTicks": 239,
          "midi": 55,
          "name": "G3",
          "ticks": 53040,
          "time": 47.35709550000001,
          "velocity": 0.6299212598425197
        },
        {
          "duration": 0.2133926437500051,
          "durationTicks": 239,
          "midi": 64,
          "name": "E4",
          "ticks": 53280,
          "time": 47.571381,
          "velocity": 0.6299212598425197
        },
        {
          "duration": 0.213392643749998,
          "durationTicks": 239,
          "midi": 60,
          "name": "C4",
          "ticks": 53520,
          "time": 47.785666500000005,
          "velocity": 0.6299212598425197
        },
        {
          "duration": 0.213392643749998,
          "durationTicks": 239,
          "midi": 55,
          "name": "G3",
          "ticks": 53760,
          "time": 47.99995200000001,
          "velocity": 0.6299212598425197
        },
        {
          "duration": 0.2133926437500051,
          "durationTicks": 239,
          "midi": 62,
          "name": "D4",
          "ticks": 54000,
          "time": 48.2142375,
          "velocity": 0.6299212598425197
        },
        {
          "duration": 0.213392643749998,
          "durationTicks": 239,
          "midi": 55,
          "name": "G3",
          "ticks": 54240,
          "time": 48.428523000000006,
          "velocity": 0.6299212598425197
        },
        {
          "duration": 0.2133926437500051,
          "durationTicks": 239,
          "midi": 50,
          "name": "D3",
          "ticks": 54480,
          "time": 48.6428085,
          "velocity": 0.6299212598425197
        },
        {
          "duration": 2.570533143750005,
          "durationTicks": 2879,
          "midi": 66,
          "name": "F#4",
          "ticks": 54720,
          "time": 48.857094000000004,
          "velocity": 0.6299212598425197
        },
        {
          "duration": 2.570533143750005,
          "durationTicks": 2879,
          "midi": 45,
          "name": "A2",
          "ticks": 54720,
          "time": 48.857094000000004,
          "velocity": 0.6299212598425197
        },
        {
          "duration": 0.213392643749998,
          "durationTicks": 239,
          "midi": 67,
          "name": "G4",
          "ticks": 57600,
          "time": 51.428520000000006,
          "velocity": 0.6299212598425197
        },
        {
          "duration": 2.570533143749998,
          "durationTicks": 2879,
          "midi": 40,
          "name": "E2",
          "ticks": 57600,
          "time": 51.428520000000006,
          "velocity": 0.6299212598425197
        },
        {
          "duration": 0.2133926437500051,
          "durationTicks": 239,
          "midi": 59,
          "name": "B3",
          "ticks": 57840,
          "time": 51.6428055,
          "velocity": 0.6299212598425197
        },
        {
          "duration": 0.213392643749998,
          "durationTicks": 239,
          "midi": 55,
          "name": "G3",
          "ticks": 58080,
          "time": 51.857091000000004,
          "velocity": 0.6299212598425197
        },
        {
          "duration": 1.7133911437500018,
          "durationTicks": 1919,
          "midi": 64,
          "name": "E4",
          "ticks": 58320,
          "time": 52.07137650000001,
          "velocity": 0.6299212598425197
        },
        {
          "duration": 0.2133926437500051,
          "durationTicks": 239,
          "midi": 67,
          "name": "G4",
          "ticks": 60480,
          "time": 53.999946,
          "velocity": 0.6299212598425197
        },
        {
          "duration": 2.570533143750005,
          "durationTicks": 2879,
          "midi": 40,
          "name": "E2",
          "ticks": 60480,
          "time": 53.999946,
          "velocity": 0.6299212598425197
        },
        {
          "duration": 0.213392643749998,
          "durationTicks": 239,
          "midi": 59,
          "name": "B3",
          "ticks": 60720,
          "time": 54.214231500000004,
          "velocity": 0.6299212598425197
        },
        {
          "duration": 0.213392643749998,
          "durationTicks": 239,
          "midi": 55,
          "name": "G3",
          "ticks": 60960,
          "time": 54.42851700000001,
          "velocity": 0.6299212598425197
        },
        {
          "duration": 1.7133911437500018,
          "durationTicks": 1919,
          "midi": 64,
          "name": "E4",
          "ticks": 61200,
          "time": 54.6428025,
          "velocity": 0.6299212598425197
        },
        {
          "duration": 0.2133926437500051,
          "durationTicks": 239,
          "midi": 67,
          "name": "G4",
          "ticks": 63360,
          "time": 56.571372000000004,
          "velocity": 0.6299212598425197
        },
        {
          "duration": 2.570533143750005,
          "durationTicks": 2879,
          "midi": 40,
          "name": "E2",
          "ticks": 63360,
          "time": 56.571372000000004,
          "velocity": 0.6299212598425197
        },
        {
          "duration": 0.213392643749998,
          "durationTicks": 239,
          "midi": 59,
          "name": "B3",
          "ticks": 63600,
          "time": 56.785657500000006,
          "velocity": 0.6299212598425197
        },
        {
          "duration": 0.2133926437500051,
          "durationTicks": 239,
          "midi": 55,
          "name": "G3",
          "ticks": 63840,
          "time": 56.999943,
          "velocity": 0.6299212598425197
        },
        {
          "duration": 0.213392643749998,
          "durationTicks": 239,
          "midi": 64,
          "name": "E4",
          "ticks": 64080,
          "time": 57.214228500000004,
          "velocity": 0.6299212598425197
        },
        {
          "duration": 0.213392643749998,
          "durationTicks": 239,
          "midi": 59,
          "name": "B3",
          "ticks": 64320,
          "time": 57.42851400000001,
          "velocity": 0.6299212598425197
        },
        {
          "duration": 0.2133926437500051,
          "durationTicks": 239,
          "midi": 55,
          "name": "G3",
          "ticks": 64560,
          "time": 57.6427995,
          "velocity": 0.6299212598425197
        },
        {
          "duration": 0.213392643749998,
          "durationTicks": 239,
          "midi": 69,
          "name": "A4",
          "ticks": 64800,
          "time": 57.857085000000005,
          "velocity": 0.6299212598425197
        },
        {
          "duration": 0.213392643749998,
          "durationTicks": 239,
          "midi": 59,
          "name": "B3",
          "ticks": 65040,
          "time": 58.07137050000001,
          "velocity": 0.6299212598425197
        },
        {
          "duration": 0.2133926437500051,
          "durationTicks": 239,
          "midi": 55,
          "name": "G3",
          "ticks": 65280,
          "time": 58.285656,
          "velocity": 0.6299212598425197
        },
        {
          "duration": 0.213392643749998,
          "durationTicks": 239,
          "midi": 66,
          "name": "F#4",
          "ticks": 65520,
          "time": 58.499941500000006,
          "velocity": 0.6299212598425197
        },
        {
          "duration": 0.213392643749998,
          "durationTicks": 239,
          "midi": 59,
          "name": "B3",
          "ticks": 65760,
          "time": 58.71422700000001,
          "velocity": 0.6299212598425197
        },
        {
          "duration": 0.2133926437500051,
          "durationTicks": 239,
          "midi": 55,
          "name": "G3",
          "ticks": 66000,
          "time": 58.928512500000004,
          "velocity": 0.6299212598425197
        },
        {
          "duration": 0.213392643749998,
          "durationTicks": 239,
          "midi": 67,
          "name": "G4",
          "ticks": 66240,
          "time": 59.142798000000006,
          "velocity": 0.6299212598425197
        },
        {
          "duration": 2.570533143749998,
          "durationTicks": 2879,
          "midi": 40,
          "name": "E2",
          "ticks": 66240,
          "time": 59.142798000000006,
          "velocity": 0.6299212598425197
        },
        {
          "duration": 0.2133926437500051,
          "durationTicks": 239,
          "midi": 59,
          "name": "B3",
          "ticks": 66480,
          "time": 59.3570835,
          "velocity": 0.6299212598425197
        },
        {
          "duration": 0.213392643749998,
          "durationTicks": 239,
          "midi": 55,
          "name": "G3",
          "ticks": 66720,
          "time": 59.571369000000004,
          "velocity": 0.6299212598425197
        },
        {
          "duration": 0.213392643749998,
          "durationTicks": 239,
          "midi": 67,
          "name": "G4",
          "ticks": 66960,
          "time": 59.78565450000001,
          "velocity": 0.6299212598425197
        },
        {
          "duration": 0.2133926437500051,
          "durationTicks": 239,
          "midi": 59,
          "name": "B3",
          "ticks": 67200,
          "time": 59.99994,
          "velocity": 0.6299212598425197
        },
        {
          "duration": 0.213392643749998,
          "durationTicks": 239,
          "midi": 55,
          "name": "G3",
          "ticks": 67440,
          "time": 60.214225500000005,
          "velocity": 0.6299212598425197
        },
        {
          "duration": 0.213392643749998,
          "durationTicks": 239,
          "midi": 67,
          "name": "G4",
          "ticks": 67680,
          "time": 60.42851100000001,
          "velocity": 0.6299212598425197
        },
        {
          "duration": 0.2133926437500051,
          "durationTicks": 239,
          "midi": 59,
          "name": "B3",
          "ticks": 67920,
          "time": 60.6427965,
          "velocity": 0.6299212598425197
        },
        {
          "duration": 0.213392643749998,
          "durationTicks": 239,
          "midi": 55,
          "name": "G3",
          "ticks": 68160,
          "time": 60.857082000000005,
          "velocity": 0.6299212598425197
        },
        {
          "duration": 0.213392643749998,
          "durationTicks": 239,
          "midi": 67,
          "name": "G4",
          "ticks": 68400,
          "time": 61.07136750000001,
          "velocity": 0.6299212598425197
        },
        {
          "duration": 0.2133926437500051,
          "durationTicks": 239,
          "midi": 59,
          "name": "B3",
          "ticks": 68640,
          "time": 61.285653,
          "velocity": 0.6299212598425197
        },
        {
          "duration": 0.213392643749998,
          "durationTicks": 239,
          "midi": 55,
          "name": "G3",
          "ticks": 68880,
          "time": 61.499938500000006,
          "velocity": 0.6299212598425197
        },
        {
          "duration": 0.2133926437500051,
          "durationTicks": 239,
          "midi": 67,
          "name": "G4",
          "ticks": 69120,
          "time": 61.714224,
          "velocity": 0.6299212598425197
        },
        {
          "duration": 2.570533143749998,
          "durationTicks": 2879,
          "midi": 40,
          "name": "E2",
          "ticks": 69120,
          "time": 61.714224,
          "velocity": 0.6299212598425197
        },
        {
          "duration": 0.2133926437500051,
          "durationTicks": 239,
          "midi": 59,
          "name": "B3",
          "ticks": 69360,
          "time": 61.928509500000004,
          "velocity": 0.6299212598425197
        },
        {
          "duration": 0.213392643749998,
          "durationTicks": 239,
          "midi": 55,
          "name": "G3",
          "ticks": 69600,
          "time": 62.14279500000001,
          "velocity": 0.6299212598425197
        },
        {
          "duration": 0.2133926437500051,
          "durationTicks": 239,
          "midi": 64,
          "name": "E4",
          "ticks": 69840,
          "time": 62.3570805,
          "velocity": 0.6299212598425197
        },
        {
          "duration": 0.213392643749998,
          "durationTicks": 239,
          "midi": 59,
          "name": "B3",
          "ticks": 70080,
          "time": 62.571366000000005,
          "velocity": 0.6299212598425197
        },
        {
          "duration": 0.213392643749998,
          "durationTicks": 239,
          "midi": 55,
          "name": "G3",
          "ticks": 70320,
          "time": 62.78565150000001,
          "velocity": 0.6299212598425197
        },
        {
          "duration": 0.2133926437500051,
          "durationTicks": 239,
          "midi": 69,
          "name": "A4",
          "ticks": 70560,
          "time": 62.999937,
          "velocity": 0.6299212598425197
        },
        {
          "duration": 0.213392643749998,
          "durationTicks": 239,
          "midi": 59,
          "name": "B3",
          "ticks": 70800,
          "time": 63.214222500000005,
          "velocity": 0.6299212598425197
        },
        {
          "duration": 0.213392643749998,
          "durationTicks": 239,
          "midi": 55,
          "name": "G3",
          "ticks": 71040,
          "time": 63.42850800000001,
          "velocity": 0.6299212598425197
        },
        {
          "duration": 0.2133926437500051,
          "durationTicks": 239,
          "midi": 66,
          "name": "F#4",
          "ticks": 71280,
          "time": 63.6427935,
          "velocity": 0.6299212598425197
        },
        {
          "duration": 0.2133926437500051,
          "durationTicks": 239,
          "midi": 59,
          "name": "B3",
          "ticks": 71520,
          "time": 63.857079000000006,
          "velocity": 0.6299212598425197
        },
        {
          "duration": 0.213392643749998,
          "durationTicks": 239,
          "midi": 55,
          "name": "G3",
          "ticks": 71760,
          "time": 64.0713645,
          "velocity": 0.6299212598425197
        },
        {
          "duration": 0.213392643749998,
          "durationTicks": 239,
          "midi": 71,
          "name": "B4",
          "ticks": 72000,
          "time": 64.28565,
          "velocity": 0.6299212598425197
        },
        {
          "duration": 2.570533143749998,
          "durationTicks": 2879,
          "midi": 40,
          "name": "E2",
          "ticks": 72000,
          "time": 64.28565,
          "velocity": 0.6299212598425197
        },
        {
          "duration": 0.213392643749998,
          "durationTicks": 239,
          "midi": 59,
          "name": "B3",
          "ticks": 72240,
          "time": 64.4999355,
          "velocity": 0.6299212598425197
        },
        {
          "duration": 0.213392643749998,
          "durationTicks": 239,
          "midi": 55,
          "name": "G3",
          "ticks": 72480,
          "time": 64.71422100000001,
          "velocity": 0.6299212598425197
        },
        {
          "duration": 0.213392643749998,
          "durationTicks": 239,
          "midi": 71,
          "name": "B4",
          "ticks": 72720,
          "time": 64.92850650000001,
          "velocity": 0.6299212598425197
        },
        {
          "duration": 0.2133926437500122,
          "durationTicks": 239,
          "midi": 59,
          "name": "B3",
          "ticks": 72960,
          "time": 65.142792,
          "velocity": 0.6299212598425197
        },
        {
          "duration": 0.213392643749998,
          "durationTicks": 239,
          "midi": 55,
          "name": "G3",
          "ticks": 73200,
          "time": 65.3570775,
          "velocity": 0.6299212598425197
        },
        {
          "duration": 0.213392643749998,
          "durationTicks": 239,
          "midi": 71,
          "name": "B4",
          "ticks": 73440,
          "time": 65.571363,
          "velocity": 0.6299212598425197
        },
        {
          "duration": 0.213392643749998,
          "durationTicks": 239,
          "midi": 59,
          "name": "B3",
          "ticks": 73680,
          "time": 65.78564850000001,
          "velocity": 0.6299212598425197
        },
        {
          "duration": 0.213392643749998,
          "durationTicks": 239,
          "midi": 55,
          "name": "G3",
          "ticks": 73920,
          "time": 65.99993400000001,
          "velocity": 0.6299212598425197
        },
        {
          "duration": 0.2133926437500122,
          "durationTicks": 239,
          "midi": 71,
          "name": "B4",
          "ticks": 74160,
          "time": 66.2142195,
          "velocity": 0.6299212598425197
        },
        {
          "duration": 0.213392643749998,
          "durationTicks": 239,
          "midi": 59,
          "name": "B3",
          "ticks": 74400,
          "time": 66.428505,
          "velocity": 0.6299212598425197
        },
        {
          "duration": 0.213392643749998,
          "durationTicks": 239,
          "midi": 55,
          "name": "G3",
          "ticks": 74640,
          "time": 66.6427905,
          "velocity": 0.6299212598425197
        },
        {
          "duration": 0.213392643749998,
          "durationTicks": 239,
          "midi": 67,
          "name": "G4",
          "ticks": 74880,
          "time": 66.857076,
          "velocity": 0.6299212598425197
        },
        {
          "duration": 2.570533143749998,
          "durationTicks": 2879,
          "midi": 40,
          "name": "E2",
          "ticks": 74880,
          "time": 66.857076,
          "velocity": 0.6299212598425197
        },
        {
          "duration": 0.213392643749998,
          "durationTicks": 239,
          "midi": 59,
          "name": "B3",
          "ticks": 75120,
          "time": 67.07136150000001,
          "velocity": 0.6299212598425197
        },
        {
          "duration": 0.213392643749998,
          "durationTicks": 239,
          "midi": 55,
          "name": "G3",
          "ticks": 75360,
          "time": 67.28564700000001,
          "velocity": 0.6299212598425197
        },
        {
          "duration": 0.2133926437500122,
          "durationTicks": 239,
          "midi": 64,
          "name": "E4",
          "ticks": 75600,
          "time": 67.4999325,
          "velocity": 0.6299212598425197
        },
        {
          "duration": 0.213392643749998,
          "durationTicks": 239,
          "midi": 59,
          "name": "B3",
          "ticks": 75840,
          "time": 67.714218,
          "velocity": 0.6299212598425197
        },
        {
          "duration": 0.213392643749998,
          "durationTicks": 239,
          "midi": 55,
          "name": "G3",
          "ticks": 76080,
          "time": 67.9285035,
          "velocity": 0.6299212598425197
        },
        {
          "duration": 0.213392643749998,
          "durationTicks": 239,
          "midi": 69,
          "name": "A4",
          "ticks": 76320,
          "time": 68.14278900000001,
          "velocity": 0.6299212598425197
        },
        {
          "duration": 0.213392643749998,
          "durationTicks": 239,
          "midi": 59,
          "name": "B3",
          "ticks": 76560,
          "time": 68.35707450000001,
          "velocity": 0.6299212598425197
        },
        {
          "duration": 0.2133926437500122,
          "durationTicks": 239,
          "midi": 55,
          "name": "G3",
          "ticks": 76800,
          "time": 68.57136,
          "velocity": 0.6299212598425197
        },
        {
          "duration": 0.2133926437500122,
          "durationTicks": 239,
          "midi": 66,
          "name": "F#4",
          "ticks": 77040,
          "time": 68.7856455,
          "velocity": 0.6299212598425197
        },
        {
          "duration": 0.213392643749998,
          "durationTicks": 239,
          "midi": 59,
          "name": "B3",
          "ticks": 77280,
          "time": 68.999931,
          "velocity": 0.6299212598425197
        },
        {
          "duration": 0.213392643749998,
          "durationTicks": 239,
          "midi": 55,
          "name": "G3",
          "ticks": 77520,
          "time": 69.2142165,
          "velocity": 0.6299212598425197
        },
        {
          "duration": 0.213392643749998,
          "durationTicks": 239,
          "midi": 67,
          "name": "G4",
          "ticks": 77760,
          "time": 69.42850200000001,
          "velocity": 0.6299212598425197
        },
        {
          "duration": 2.570533143749998,
          "durationTicks": 2879,
          "midi": 40,
          "name": "E2",
          "ticks": 77760,
          "time": 69.42850200000001,
          "velocity": 0.6299212598425197
        },
        {
          "duration": 0.213392643749998,
          "durationTicks": 239,
          "midi": 59,
          "name": "B3",
          "ticks": 78000,
          "time": 69.64278750000001,
          "velocity": 0.6299212598425197
        },
        {
          "duration": 0.2133926437500122,
          "durationTicks": 239,
          "midi": 55,
          "name": "G3",
          "ticks": 78240,
          "time": 69.857073,
          "velocity": 0.6299212598425197
        },
        {
          "duration": 0.213392643749998,
          "durationTicks": 239,
          "midi": 67,
          "name": "G4",
          "ticks": 78480,
          "time": 70.0713585,
          "velocity": 0.6299212598425197
        },
        {
          "duration": 0.213392643749998,
          "durationTicks": 239,
          "midi": 59,
          "name": "B3",
          "ticks": 78720,
          "time": 70.285644,
          "velocity": 0.6299212598425197
        },
        {
          "duration": 0.213392643749998,
          "durationTicks": 239,
          "midi": 55,
          "name": "G3",
          "ticks": 78960,
          "time": 70.49992950000001,
          "velocity": 0.6299212598425197
        },
        {
          "duration": 0.213392643749998,
          "durationTicks": 239,
          "midi": 67,
          "name": "G4",
          "ticks": 79200,
          "time": 70.71421500000001,
          "velocity": 0.6299212598425197
        },
        {
          "duration": 0.213392643749998,
          "durationTicks": 239,
          "midi": 59,
          "name": "B3",
          "ticks": 79440,
          "time": 70.92850050000001,
          "velocity": 0.6299212598425197
        },
        {
          "duration": 0.2133926437500122,
          "durationTicks": 239,
          "midi": 55,
          "name": "G3",
          "ticks": 79680,
          "time": 71.142786,
          "velocity": 0.6299212598425197
        },
        {
          "duration": 0.213392643749998,
          "durationTicks": 239,
          "midi": 67,
          "name": "G4",
          "ticks": 79920,
          "time": 71.3570715,
          "velocity": 0.6299212598425197
        },
        {
          "duration": 0.213392643749998,
          "durationTicks": 239,
          "midi": 59,
          "name": "B3",
          "ticks": 80160,
          "time": 71.571357,
          "velocity": 0.6299212598425197
        },
        {
          "duration": 0.213392643749998,
          "durationTicks": 239,
          "midi": 55,
          "name": "G3",
          "ticks": 80400,
          "time": 71.78564250000001,
          "velocity": 0.6299212598425197
        },
        {
          "duration": 0.213392643749998,
          "durationTicks": 239,
          "midi": 70,
          "name": "A#4",
          "ticks": 80640,
          "time": 71.99992800000001,
          "velocity": 0.6299212598425197
        },
        {
          "duration": 2.570533143749998,
          "durationTicks": 2879,
          "midi": 40,
          "name": "E2",
          "ticks": 80640,
          "time": 71.99992800000001,
          "velocity": 0.6299212598425197
        },
        {
          "duration": 0.2133926437500122,
          "durationTicks": 239,
          "midi": 59,
          "name": "B3",
          "ticks": 80880,
          "time": 72.2142135,
          "velocity": 0.6299212598425197
        },
        {
          "duration": 0.213392643749998,
          "durationTicks": 239,
          "midi": 55,
          "name": "G3",
          "ticks": 81120,
          "time": 72.428499,
          "velocity": 0.6299212598425197
        },
        {
          "duration": 0.213392643749998,
          "durationTicks": 239,
          "midi": 69,
          "name": "A4",
          "ticks": 81360,
          "time": 72.6427845,
          "velocity": 0.6299212598425197
        },
        {
          "duration": 0.213392643749998,
          "durationTicks": 239,
          "midi": 59,
          "name": "B3",
          "ticks": 81600,
          "time": 72.85707000000001,
          "velocity": 0.6299212598425197
        },
        {
          "duration": 0.213392643749998,
          "durationTicks": 239,
          "midi": 55,
          "name": "G3",
          "ticks": 81840,
          "time": 73.07135550000001,
          "velocity": 0.6299212598425197
        },
        {
          "duration": 0.213392643749998,
          "durationTicks": 239,
          "midi": 67,
          "name": "G4",
          "ticks": 82080,
          "time": 73.28564100000001,
          "velocity": 0.6299212598425197
        },
        {
          "duration": 0.2133926437500122,
          "durationTicks": 239,
          "midi": 59,
          "name": "B3",
          "ticks": 82320,
          "time": 73.4999265,
          "velocity": 0.6299212598425197
        },
        {
          "duration": 0.213392643749998,
          "durationTicks": 239,
          "midi": 55,
          "name": "G3",
          "ticks": 82560,
          "time": 73.714212,
          "velocity": 0.6299212598425197
        },
        {
          "duration": 0.213392643749998,
          "durationTicks": 239,
          "midi": 64,
          "name": "E4",
          "ticks": 82800,
          "time": 73.9284975,
          "velocity": 0.6299212598425197
        },
        {
          "duration": 0.213392643749998,
          "durationTicks": 239,
          "midi": 59,
          "name": "B3",
          "ticks": 83040,
          "time": 74.14278300000001,
          "velocity": 0.6299212598425197
        },
        {
          "duration": 0.213392643749998,
          "durationTicks": 239,
          "midi": 62,
          "name": "D4",
          "ticks": 83280,
          "time": 74.35706850000001,
          "velocity": 0.6299212598425197
        },
        {
          "duration": 0.2133926437500122,
          "durationTicks": 239,
          "midi": 64,
          "name": "E4",
          "ticks": 83520,
          "time": 74.571354,
          "velocity": 0.6299212598425197
        },
        {
          "duration": 2.570533143750012,
          "durationTicks": 2879,
          "midi": 40,
          "name": "E2",
          "ticks": 83520,
          "time": 74.571354,
          "velocity": 0.6299212598425197
        },
        {
          "duration": 0.213392643749998,
          "durationTicks": 239,
          "midi": 59,
          "name": "B3",
          "ticks": 83760,
          "time": 74.7856395,
          "velocity": 0.6299212598425197
        },
        {
          "duration": 0.213392643749998,
          "durationTicks": 239,
          "midi": 55,
          "name": "G3",
          "ticks": 84000,
          "time": 74.999925,
          "velocity": 0.6299212598425197
        },
        {
          "duration": 0.213392643749998,
          "durationTicks": 239,
          "midi": 64,
          "name": "E4",
          "ticks": 84240,
          "time": 75.21421050000001,
          "velocity": 0.6299212598425197
        },
        {
          "duration": 0.213392643749998,
          "durationTicks": 239,
          "midi": 59,
          "name": "B3",
          "ticks": 84480,
          "time": 75.42849600000001,
          "velocity": 0.6299212598425197
        },
        {
          "duration": 0.213392643749998,
          "durationTicks": 239,
          "midi": 55,
          "name": "G3",
          "ticks": 84720,
          "time": 75.64278150000001,
          "velocity": 0.6299212598425197
        },
        {
          "duration": 0.2133926437500122,
          "durationTicks": 239,
          "midi": 64,
          "name": "E4",
          "ticks": 84960,
          "time": 75.857067,
          "velocity": 0.6299212598425197
        },
        {
          "duration": 0.213392643749998,
          "durationTicks": 239,
          "midi": 59,
          "name": "B3",
          "ticks": 85200,
          "time": 76.0713525,
          "velocity": 0.6299212598425197
        },
        {
          "duration": 0.213392643749998,
          "durationTicks": 239,
          "midi": 55,
          "name": "G3",
          "ticks": 85440,
          "time": 76.285638,
          "velocity": 0.6299212598425197
        },
        {
          "duration": 0.213392643749998,
          "durationTicks": 239,
          "midi": 64,
          "name": "E4",
          "ticks": 85680,
          "time": 76.49992350000001,
          "velocity": 0.6299212598425197
        },
        {
          "duration": 0.213392643749998,
          "durationTicks": 239,
          "midi": 59,
          "name": "B3",
          "ticks": 85920,
          "time": 76.71420900000001,
          "velocity": 0.6299212598425197
        },
        {
          "duration": 0.2133926437500122,
          "durationTicks": 239,
          "midi": 55,
          "name": "G3",
          "ticks": 86160,
          "time": 76.9284945,
          "velocity": 0.6299212598425197
        },
        {
          "duration": 0.2133926437500122,
          "durationTicks": 239,
          "midi": 70,
          "name": "A#4",
          "ticks": 86400,
          "time": 77.14278,
          "velocity": 0.6299212598425197
        },
        {
          "duration": 2.570533143750012,
          "durationTicks": 2879,
          "midi": 40,
          "name": "E2",
          "ticks": 86400,
          "time": 77.14278,
          "velocity": 0.6299212598425197
        },
        {
          "duration": 0.213392643749998,
          "durationTicks": 239,
          "midi": 59,
          "name": "B3",
          "ticks": 86640,
          "time": 77.3570655,
          "velocity": 0.6299212598425197
        },
        {
          "duration": 0.213392643749998,
          "durationTicks": 239,
          "midi": 55,
          "name": "G3",
          "ticks": 86880,
          "time": 77.571351,
          "velocity": 0.6299212598425197
        },
        {
          "duration": 0.213392643749998,
          "durationTicks": 239,
          "midi": 69,
          "name": "A4",
          "ticks": 87120,
          "time": 77.78563650000001,
          "velocity": 0.6299212598425197
        },
        {
          "duration": 0.213392643749998,
          "durationTicks": 239,
          "midi": 59,
          "name": "B3",
          "ticks": 87360,
          "time": 77.99992200000001,
          "velocity": 0.6299212598425197
        },
        {
          "duration": 0.2133926437500122,
          "durationTicks": 239,
          "midi": 55,
          "name": "G3",
          "ticks": 87600,
          "time": 78.2142075,
          "velocity": 0.6299212598425197
        },
        {
          "duration": 0.213392643749998,
          "durationTicks": 239,
          "midi": 67,
          "name": "G4",
          "ticks": 87840,
          "time": 78.428493,
          "velocity": 0.6299212598425197
        },
        {
          "duration": 0.213392643749998,
          "durationTicks": 239,
          "midi": 59,
          "name": "B3",
          "ticks": 88080,
          "time": 78.6427785,
          "velocity": 0.6299212598425197
        },
        {
          "duration": 0.213392643749998,
          "durationTicks": 239,
          "midi": 55,
          "name": "G3",
          "ticks": 88320,
          "time": 78.85706400000001,
          "velocity": 0.6299212598425197
        },
        {
          "duration": 0.213392643749998,
          "durationTicks": 239,
          "midi": 64,
          "name": "E4",
          "ticks": 88560,
          "time": 79.07134950000001,
          "velocity": 0.6299212598425197
        },
        {
          "duration": 0.213392643749998,
          "durationTicks": 239,
          "midi": 59,
          "name": "B3",
          "ticks": 88800,
          "time": 79.28563500000001,
          "velocity": 0.6299212598425197
        },
        {
          "duration": 0.2133926437500122,
          "durationTicks": 239,
          "midi": 62,
          "name": "D4",
          "ticks": 89040,
          "time": 79.4999205,
          "velocity": 0.6299212598425197
        },
        {
          "duration": 0.213392643749998,
          "durationTicks": 239,
          "midi": 64,
          "name": "E4",
          "ticks": 89280,
          "time": 79.714206,
          "velocity": 0.6299212598425197
        },
        {
          "duration": 2.570533143749998,
          "durationTicks": 2879,
          "midi": 40,
          "name": "E2",
          "ticks": 89280,
          "time": 79.714206,
          "velocity": 0.6299212598425197
        },
        {
          "duration": 0.213392643749998,
          "durationTicks": 239,
          "midi": 59,
          "name": "B3",
          "ticks": 89520,
          "time": 79.9284915,
          "velocity": 0.6299212598425197
        },
        {
          "duration": 0.213392643749998,
          "durationTicks": 239,
          "midi": 55,
          "name": "G3",
          "ticks": 89760,
          "time": 80.14277700000001,
          "velocity": 0.6299212598425197
        },
        {
          "duration": 0.213392643749998,
          "durationTicks": 239,
          "midi": 64,
          "name": "E4",
          "ticks": 90000,
          "time": 80.35706250000001,
          "velocity": 0.6299212598425197
        },
        {
          "duration": 0.2133926437500122,
          "durationTicks": 239,
          "midi": 59,
          "name": "B3",
          "ticks": 90240,
          "time": 80.571348,
          "velocity": 0.6299212598425197
        },
        {
          "duration": 0.213392643749998,
          "durationTicks": 239,
          "midi": 55,
          "name": "G3",
          "ticks": 90480,
          "time": 80.7856335,
          "velocity": 0.6299212598425197
        },
        {
          "duration": 0.213392643749998,
          "durationTicks": 239,
          "midi": 64,
          "name": "E4",
          "ticks": 90720,
          "time": 80.999919,
          "velocity": 0.6299212598425197
        },
        {
          "duration": 0.213392643749998,
          "durationTicks": 239,
          "midi": 59,
          "name": "B3",
          "ticks": 90960,
          "time": 81.21420450000001,
          "velocity": 0.6299212598425197
        },
        {
          "duration": 0.213392643749998,
          "durationTicks": 239,
          "midi": 55,
          "name": "G3",
          "ticks": 91200,
          "time": 81.42849000000001,
          "velocity": 0.6299212598425197
        },
        {
          "duration": 0.213392643749998,
          "durationTicks": 239,
          "midi": 64,
          "name": "E4",
          "ticks": 91440,
          "time": 81.64277550000001,
          "velocity": 0.6299212598425197
        },
        {
          "duration": 0.2133926437500122,
          "durationTicks": 239,
          "midi": 59,
          "name": "B3",
          "ticks": 91680,
          "time": 81.857061,
          "velocity": 0.6299212598425197
        },
        {
          "duration": 0.213392643749998,
          "durationTicks": 239,
          "midi": 55,
          "name": "G3",
          "ticks": 91920,
          "time": 82.0713465,
          "velocity": 0.6299212598425197
        },
        {
          "duration": 0.213392643749998,
          "durationTicks": 239,
          "midi": 70,
          "name": "A#4",
          "ticks": 92160,
          "time": 82.285632,
          "velocity": 0.6299212598425197
        },
        {
          "duration": 2.570533143749998,
          "durationTicks": 2879,
          "midi": 40,
          "name": "E2",
          "ticks": 92160,
          "time": 82.285632,
          "velocity": 0.6299212598425197
        },
        {
          "duration": 0.213392643749998,
          "durationTicks": 239,
          "midi": 59,
          "name": "B3",
          "ticks": 92400,
          "time": 82.49991750000001,
          "velocity": 0.6299212598425197
        },
        {
          "duration": 0.213392643749998,
          "durationTicks": 239,
          "midi": 55,
          "name": "G3",
          "ticks": 92640,
          "time": 82.71420300000001,
          "velocity": 0.6299212598425197
        },
        {
          "duration": 0.2133926437500122,
          "durationTicks": 239,
          "midi": 69,
          "name": "A4",
          "ticks": 92880,
          "time": 82.9284885,
          "velocity": 0.6299212598425197
        },
        {
          "duration": 0.213392643749998,
          "durationTicks": 239,
          "midi": 59,
          "name": "B3",
          "ticks": 93120,
          "time": 83.142774,
          "velocity": 0.6299212598425197
        },
        {
          "duration": 0.213392643749998,
          "durationTicks": 239,
          "midi": 55,
          "name": "G3",
          "ticks": 93360,
          "time": 83.3570595,
          "velocity": 0.6299212598425197
        },
        {
          "duration": 1.2848201437499966,
          "durationTicks": 1439,
          "midi": 67,
          "name": "G4",
          "ticks": 93600,
          "time": 83.57134500000001,
          "velocity": 0.6299212598425197
        },
        {
          "duration": 0.4276781437500006,
          "durationTicks": 479,
          "midi": 47,
          "name": "B2",
          "ticks": 95040,
          "time": 84.85705800000001,
          "velocity": 0.6299212598425197
        },
        {
          "duration": 0.4276781437500006,
          "durationTicks": 479,
          "midi": 52,
          "name": "E3",
          "ticks": 95040,
          "time": 84.85705800000001,
          "velocity": 0.6299212598425197
        },
        {
          "duration": 0.4276781437500006,
          "durationTicks": 479,
          "midi": 55,
          "name": "G3",
          "ticks": 95040,
          "time": 84.85705800000001,
          "velocity": 0.6299212598425197
        },
        {
          "duration": 0.4276781437500006,
          "durationTicks": 479,
          "midi": 59,
          "name": "B3",
          "ticks": 95040,
          "time": 84.85705800000001,
          "velocity": 0.6299212598425197
        },
        {
          "duration": 0.4276781437500006,
          "durationTicks": 479,
          "midi": 64,
          "name": "E4",
          "ticks": 95040,
          "time": 84.85705800000001,
          "velocity": 0.6299212598425197
        },
        {
          "duration": 0.42857099999999093,
          "durationTicks": 480,
          "midi": 40,
          "name": "E2",
          "ticks": 95040,
          "time": 84.85705800000001,
          "velocity": 0.6299212598425197
        },
        {
          "duration": 0.21428550000000257,
          "durationTicks": 240,
          "midi": 40,
          "name": "E2",
          "ticks": 95520,
          "time": 85.285629,
          "velocity": 0.6299212598425197
        },
        {
          "duration": 0.2133926437500122,
          "durationTicks": 239,
          "midi": 47,
          "name": "B2",
          "ticks": 95520,
          "time": 85.285629,
          "velocity": 0.6299212598425197
        },
        {
          "duration": 0.2133926437500122,
          "durationTicks": 239,
          "midi": 52,
          "name": "E3",
          "ticks": 95520,
          "time": 85.285629,
          "velocity": 0.6299212598425197
        },
        {
          "duration": 0.2133926437500122,
          "durationTicks": 239,
          "midi": 55,
          "name": "G3",
          "ticks": 95520,
          "time": 85.285629,
          "velocity": 0.6299212598425197
        },
        {
          "duration": 0.2133926437500122,
          "durationTicks": 239,
          "midi": 59,
          "name": "B3",
          "ticks": 95520,
          "time": 85.285629,
          "velocity": 0.6299212598425197
        },
        {
          "duration": 0.2133926437500122,
          "durationTicks": 239,
          "midi": 64,
          "name": "E4",
          "ticks": 95520,
          "time": 85.285629,
          "velocity": 0.6299212598425197
        },
        {
          "duration": 0.21428550000000257,
          "durationTicks": 240,
          "midi": 40,
          "name": "E2",
          "ticks": 95760,
          "time": 85.4999145,
          "velocity": 0.6299212598425197
        },
        {
          "duration": 0.2133926437500122,
          "durationTicks": 239,
          "midi": 47,
          "name": "B2",
          "ticks": 95760,
          "time": 85.4999145,
          "velocity": 0.6299212598425197
        },
        {
          "duration": 0.2133926437500122,
          "durationTicks": 239,
          "midi": 52,
          "name": "E3",
          "ticks": 95760,
          "time": 85.4999145,
          "velocity": 0.6299212598425197
        },
        {
          "duration": 0.2133926437500122,
          "durationTicks": 239,
          "midi": 55,
          "name": "G3",
          "ticks": 95760,
          "time": 85.4999145,
          "velocity": 0.6299212598425197
        },
        {
          "duration": 0.2133926437500122,
          "durationTicks": 239,
          "midi": 59,
          "name": "B3",
          "ticks": 95760,
          "time": 85.4999145,
          "velocity": 0.6299212598425197
        },
        {
          "duration": 0.2133926437500122,
          "durationTicks": 239,
          "midi": 64,
          "name": "E4",
          "ticks": 95760,
          "time": 85.4999145,
          "velocity": 0.6299212598425197
        },
        {
          "duration": 0.21428550000000257,
          "durationTicks": 240,
          "midi": 40,
          "name": "E2",
          "ticks": 96000,
          "time": 85.7142,
          "velocity": 0.6299212598425197
        },
        {
          "duration": 0.213392643749998,
          "durationTicks": 239,
          "midi": 47,
          "name": "B2",
          "ticks": 96000,
          "time": 85.7142,
          "velocity": 0.6299212598425197
        },
        {
          "duration": 0.213392643749998,
          "durationTicks": 239,
          "midi": 52,
          "name": "E3",
          "ticks": 96000,
          "time": 85.7142,
          "velocity": 0.6299212598425197
        },
        {
          "duration": 0.213392643749998,
          "durationTicks": 239,
          "midi": 55,
          "name": "G3",
          "ticks": 96000,
          "time": 85.7142,
          "velocity": 0.6299212598425197
        },
        {
          "duration": 0.213392643749998,
          "durationTicks": 239,
          "midi": 59,
          "name": "B3",
          "ticks": 96000,
          "time": 85.7142,
          "velocity": 0.6299212598425197
        },
        {
          "duration": 0.213392643749998,
          "durationTicks": 239,
          "midi": 64,
          "name": "E4",
          "ticks": 96000,
          "time": 85.7142,
          "velocity": 0.6299212598425197
        },
        {
          "duration": 0.21428550000000257,
          "durationTicks": 240,
          "midi": 40,
          "name": "E2",
          "ticks": 96240,
          "time": 85.92848550000001,
          "velocity": 0.6299212598425197
        },
        {
          "duration": 0.213392643749998,
          "durationTicks": 239,
          "midi": 47,
          "name": "B2",
          "ticks": 96240,
          "time": 85.92848550000001,
          "velocity": 0.6299212598425197
        },
        {
          "duration": 0.213392643749998,
          "durationTicks": 239,
          "midi": 52,
          "name": "E3",
          "ticks": 96240,
          "time": 85.92848550000001,
          "velocity": 0.6299212598425197
        },
        {
          "duration": 0.213392643749998,
          "durationTicks": 239,
          "midi": 55,
          "name": "G3",
          "ticks": 96240,
          "time": 85.92848550000001,
          "velocity": 0.6299212598425197
        },
        {
          "duration": 0.213392643749998,
          "durationTicks": 239,
          "midi": 59,
          "name": "B3",
          "ticks": 96240,
          "time": 85.92848550000001,
          "velocity": 0.6299212598425197
        },
        {
          "duration": 0.213392643749998,
          "durationTicks": 239,
          "midi": 64,
          "name": "E4",
          "ticks": 96240,
          "time": 85.92848550000001,
          "velocity": 0.6299212598425197
        },
        {
          "duration": 0.42857099999999093,
          "durationTicks": 480,
          "midi": 40,
          "name": "E2",
          "ticks": 96480,
          "time": 86.14277100000001,
          "velocity": 0.6299212598425197
        },
        {
          "duration": 0.4276781437500006,
          "durationTicks": 479,
          "midi": 47,
          "name": "B2",
          "ticks": 96480,
          "time": 86.14277100000001,
          "velocity": 0.6299212598425197
        },
        {
          "duration": 0.4276781437500006,
          "durationTicks": 479,
          "midi": 52,
          "name": "E3",
          "ticks": 96480,
          "time": 86.14277100000001,
          "velocity": 0.6299212598425197
        },
        {
          "duration": 0.4276781437500006,
          "durationTicks": 479,
          "midi": 55,
          "name": "G3",
          "ticks": 96480,
          "time": 86.14277100000001,
          "velocity": 0.6299212598425197
        },
        {
          "duration": 0.4276781437500006,
          "durationTicks": 479,
          "midi": 59,
          "name": "B3",
          "ticks": 96480,
          "time": 86.14277100000001,
          "velocity": 0.6299212598425197
        },
        {
          "duration": 0.4276781437500006,
          "durationTicks": 479,
          "midi": 64,
          "name": "E4",
          "ticks": 96480,
          "time": 86.14277100000001,
          "velocity": 0.6299212598425197
        },
        {
          "duration": 0.21428550000000257,
          "durationTicks": 240,
          "midi": 40,
          "name": "E2",
          "ticks": 96960,
          "time": 86.571342,
          "velocity": 0.6299212598425197
        },
        {
          "duration": 0.2133926437500122,
          "durationTicks": 239,
          "midi": 47,
          "name": "B2",
          "ticks": 96960,
          "time": 86.571342,
          "velocity": 0.6299212598425197
        },
        {
          "duration": 0.2133926437500122,
          "durationTicks": 239,
          "midi": 52,
          "name": "E3",
          "ticks": 96960,
          "time": 86.571342,
          "velocity": 0.6299212598425197
        },
        {
          "duration": 0.2133926437500122,
          "durationTicks": 239,
          "midi": 55,
          "name": "G3",
          "ticks": 96960,
          "time": 86.571342,
          "velocity": 0.6299212598425197
        },
        {
          "duration": 0.2133926437500122,
          "durationTicks": 239,
          "midi": 59,
          "name": "B3",
          "ticks": 96960,
          "time": 86.571342,
          "velocity": 0.6299212598425197
        },
        {
          "duration": 0.2133926437500122,
          "durationTicks": 239,
          "midi": 64,
          "name": "E4",
          "ticks": 96960,
          "time": 86.571342,
          "velocity": 0.6299212598425197
        },
        {
          "duration": 0.21428550000000257,
          "durationTicks": 240,
          "midi": 40,
          "name": "E2",
          "ticks": 97200,
          "time": 86.7856275,
          "velocity": 0.6299212598425197
        },
        {
          "duration": 0.213392643749998,
          "durationTicks": 239,
          "midi": 47,
          "name": "B2",
          "ticks": 97200,
          "time": 86.7856275,
          "velocity": 0.6299212598425197
        },
        {
          "duration": 0.213392643749998,
          "durationTicks": 239,
          "midi": 52,
          "name": "E3",
          "ticks": 97200,
          "time": 86.7856275,
          "velocity": 0.6299212598425197
        },
        {
          "duration": 0.213392643749998,
          "durationTicks": 239,
          "midi": 55,
          "name": "G3",
          "ticks": 97200,
          "time": 86.7856275,
          "velocity": 0.6299212598425197
        },
        {
          "duration": 0.213392643749998,
          "durationTicks": 239,
          "midi": 59,
          "name": "B3",
          "ticks": 97200,
          "time": 86.7856275,
          "velocity": 0.6299212598425197
        },
        {
          "duration": 0.213392643749998,
          "durationTicks": 239,
          "midi": 64,
          "name": "E4",
          "ticks": 97200,
          "time": 86.7856275,
          "velocity": 0.6299212598425197
        },
        {
          "duration": 0.21428550000000257,
          "durationTicks": 240,
          "midi": 40,
          "name": "E2",
          "ticks": 97440,
          "time": 86.999913,
          "velocity": 0.6299212598425197
        },
        {
          "duration": 0.213392643749998,
          "durationTicks": 239,
          "midi": 47,
          "name": "B2",
          "ticks": 97440,
          "time": 86.999913,
          "velocity": 0.6299212598425197
        },
        {
          "duration": 0.213392643749998,
          "durationTicks": 239,
          "midi": 52,
          "name": "E3",
          "ticks": 97440,
          "time": 86.999913,
          "velocity": 0.6299212598425197
        },
        {
          "duration": 0.213392643749998,
          "durationTicks": 239,
          "midi": 55,
          "name": "G3",
          "ticks": 97440,
          "time": 86.999913,
          "velocity": 0.6299212598425197
        },
        {
          "duration": 0.213392643749998,
          "durationTicks": 239,
          "midi": 59,
          "name": "B3",
          "ticks": 97440,
          "time": 86.999913,
          "velocity": 0.6299212598425197
        },
        {
          "duration": 0.213392643749998,
          "durationTicks": 239,
          "midi": 64,
          "name": "E4",
          "ticks": 97440,
          "time": 86.999913,
          "velocity": 0.6299212598425197
        },
        {
          "duration": 0.213392643749998,
          "durationTicks": 239,
          "midi": 40,
          "name": "E2",
          "ticks": 97680,
          "time": 87.21419850000001,
          "velocity": 0.6299212598425197
        },
        {
          "duration": 0.213392643749998,
          "durationTicks": 239,
          "midi": 47,
          "name": "B2",
          "ticks": 97680,
          "time": 87.21419850000001,
          "velocity": 0.6299212598425197
        },
        {
          "duration": 0.213392643749998,
          "durationTicks": 239,
          "midi": 52,
          "name": "E3",
          "ticks": 97680,
          "time": 87.21419850000001,
          "velocity": 0.6299212598425197
        },
        {
          "duration": 0.213392643749998,
          "durationTicks": 239,
          "midi": 55,
          "name": "G3",
          "ticks": 97680,
          "time": 87.21419850000001,
          "velocity": 0.6299212598425197
        },
        {
          "duration": 0.213392643749998,
          "durationTicks": 239,
          "midi": 59,
          "name": "B3",
          "ticks": 97680,
          "time": 87.21419850000001,
          "velocity": 0.6299212598425197
        },
        {
          "duration": 0.213392643749998,
          "durationTicks": 239,
          "midi": 64,
          "name": "E4",
          "ticks": 97680,
          "time": 87.21419850000001,
          "velocity": 0.6299212598425197
        },
        {
          "duration": 2.570533143749998,
          "durationTicks": 2879,
          "midi": 40,
          "name": "E2",
          "ticks": 97920,
          "time": 87.42848400000001,
          "velocity": 0.6299212598425197
        },
        {
          "duration": 2.570533143749998,
          "durationTicks": 2879,
          "midi": 47,
          "name": "B2",
          "ticks": 97920,
          "time": 87.42848400000001,
          "velocity": 0.6299212598425197
        },
        {
          "duration": 2.570533143749998,
          "durationTicks": 2879,
          "midi": 52,
          "name": "E3",
          "ticks": 97920,
          "time": 87.42848400000001,
          "velocity": 0.6299212598425197
        },
        {
          "duration": 2.570533143749998,
          "durationTicks": 2879,
          "midi": 55,
          "name": "G3",
          "ticks": 97920,
          "time": 87.42848400000001,
          "velocity": 0.6299212598425197
        },
        {
          "duration": 2.570533143749998,
          "durationTicks": 2879,
          "midi": 59,
          "name": "B3",
          "ticks": 97920,
          "time": 87.42848400000001,
          "velocity": 0.6299212598425197
        },
        {
          "duration": 2.570533143749998,
          "durationTicks": 2879,
          "midi": 64,
          "name": "E4",
          "ticks": 97920,
          "time": 87.42848400000001,
          "velocity": 0.6299212598425197
        }
      ]
    },
    {
      "channel": 0,
      "controlChanges": {
        "121": [
          {
            "number": 121,
            "ticks": 0,
            "time": 0,
            "value": 0
          }
        ]
      },
      "pitchBends": [],
      "instrument": {
        "family": "piano",
        "number": 0,
        "name": "acoustic grand piano"
      },
      "name": "",
      "notes": []
    },
    {
      "channel": 0,
      "controlChanges": {
        "7": [
          {
            "number": 7,
            "ticks": 0,
            "time": 0,
            "value": 0.7874015748031497
          }
        ],
        "10": [
          {
            "number": 10,
            "ticks": 0,
            "time": 0,
            "value": 0.5039370078740157
          }
        ],
        "91": [
          {
            "number": 91,
            "ticks": 0,
            "time": 0,
            "value": 0
          }
        ],
        "93": [
          {
            "number": 93,
            "ticks": 0,
            "time": 0,
            "value": 0
          }
        ]
      },
      "pitchBends": [],
      "instrument": {
        "family": "guitar",
        "number": 28,
        "name": "electric guitar (muted)"
      },
      "name": "",
      "notes": []
    }
  ]
}