{
  "meta": {
    "title": "The Last of Us - String 1",
    "tempo": 140.00014000014,
    "timeSignature": [
      12,
      8
    ],
    "tuning": [
      40,
      45,
      50,
      55,
      59,
      64
    ]
  },
  "tracks": [
    {
      "name": "String 1",
      "notes": [
        {
          "duration": 0.21339264375,
          "durationTicks": 239,
          "midi": 67,
          "name": "G4",
          "ticks": 0,
          "time": 0.0,
          "velocity": 0.6299212598425197,
          "string": 1,
          "fret": 3
        },
        {
          "duration": 0.21339264375,
          "durationTicks": 239,
          "midi": 64,
          "name": "E4",
          "ticks": 720,
          "time": 0.6428565,
          "velocity": 0.6299212598425197,
          "string": 1,
          "fret": 0
        },
        {
          "duration": 0.21339264375,
          "durationTicks": 239,
          "midi": 69,
          "name": "A4",
          "ticks": 1440,
          "time": 1.2857129999999999,
          "velocity": 0.6299212598425197,
          "string": 1,
          "fret": 5
        },
        {
          "duration": 0.21339264375000022,
          "durationTicks": 239,
          "midi": 66,
          "name": "F#4",
          "ticks": 2160,
          "time": 1.9285694999999996,
          "velocity": 0.6299212598425197,
          "string": 1,
          "fret": 2
        },
        {
          "duration": 0.21339264374999978,
          "durationTicks": 239,
          "midi": 67,
          "name": "G4",
          "ticks": 2880,
          "time": 2.5714259999999998,
          "velocity": 0.6299212598425197,
          "string": 1,
          "fret": 3
        },
        {
          "duration": 0.21339264374999978,
          "durationTicks": 239,
          "midi": 67,
          "name": "G4",
          "ticks": 3600,
          "time": 3.2142824999999995,
          "velocity": 0.6299212598425197,
          "string": 1,
          "fret": 3
        },
        {
          "duration": 0.21339264374999978,
          "durationTicks": 239,
          "midi": 67,
          "name": "G4",
          "ticks": 4320,
          "time": 3.857138999999999,
          "velocity": 0.6299212598425197,
          "string": 1,
          "fret": 3
        },
        {
          "duration": 0.21339264374999978,
          "durationTicks": 239,
          "midi": 67,
          "name": "G4",
          "ticks": 5040,
          "time": 4.499995499999999,
          "velocity": 0.6299212598425197,
          "string": 1,
          "fret": 3
        },
        {
          "duration": 0.21339264374999978,
          "durationTicks": 239,
          "midi": 67,
          "name": "G4",
          "ticks": 5760,
          "time": 5.142851999999999,
          "velocity": 0.6299212598425197,
          "string": 1,
          "fret": 3
        },
        {
          "duration": 0.21339264374999978,
          "durationTicks": 239,
          "midi": 64,
          "name": "E4",
          "ticks": 6480,
          "time": 5.785708499999998,
          "velocity": 0.6299212598425197,
          "string": 1,
          "fret": 0
        },
        {
          "duration": 0.21339264374999978,
          "durationTicks": 239,
          "midi": 69,
          "name": "A4",
          "ticks": 7200,
          "time": 6.428564999999998,
          "velocity": 0.6299212598425197,
          "string": 1,
          "fret": 5
        },
        {
          "duration": 0.21339264374999978,
          "durationTicks": 239,
          "midi": 66,
          "name": "F#4",
          "ticks": 7920,
          "time": 7.071421499999998,
          "velocity": 0.6299212598425197,
          "string": 1,
          "fret": 2
        },
        {
          "duration": 0.21339264374999978,
          "durationTicks": 239,
          "midi": 71,
          "name": "B4",
          "ticks": 8640,
          "time": 7.7142779999999975,
          "velocity": 0.6299212598425197,
          "string": 1,
          "fret": 7
        },
        {
          "duration": 0.21339264374999978,
          "durationTicks": 239,
          "midi": 71,
          "name": "B4",
          "ticks": 9360,
          "time": 8.357134499999995,
          "velocity": 0.6299212598425197,
          "string": 1,
          "fret": 7
        },
        {
          "duration": 0.21339264374999978,
          "durationTicks": 239,
          "midi": 71,
          "name": "B4",
          "ticks": 10080,
          "time": 8.999990999999993,
          "velocity": 0.6299212598425197,
          "string": 1,
          "fret": 7
        },
        {
          "duration": 0.21339264374999978,
          "durationTicks": 239,
          "midi": 71,
          "name": "B4",
          "ticks": 10800,
          "time": 9.64284749999999,
          "velocity": 0.6299212598425197,
          "string": 1,
          "fret": 7
        },
        {
          "duration": 0.21339264374999978,
          "durationTicks": 239,
          "midi": 67,
          "name": "G4",
          "ticks": 11520,
          "time": 10.285703999999987,
          "velocity": 0.6299212598425197,
          "string": 1,
          "fret": 3
        },
        {
          "duration": 0.21339264374999978,
          "durationTicks": 239,
          "midi": 64,
          "name": "E4",
          "ticks": 12240,
          "time": 10.928560499999984,
          "velocity": 0.6299212598425197,
          "string": 1,
          "fret": 0
        },
        {
          "duration": 0.21339264374999978,
          "durationTicks": 239,
          "midi": 69,
          "name": "A4",
          "ticks": 12960,
          "time": 11.57141699999998,
          "velocity": 0.6299212598425197,
          "string": 1,
          "fret": 5
        },
        {
          "duration": 0.21339264374999978,
          "durationTicks": 239,
          "midi": 66,
          "name": "F#4",
          "ticks": 13680,
          "time": 12.214273499999978,
          "velocity": 0.6299212598425197,
          "string": 1,
          "fret": 2
        },
        {
          "duration": 0.21339264374999978,
          "durationTicks": 239,
          "midi": 67,
          "name": "G4",
          "ticks": 14400,
          "time": 12.857129999999975,
          "velocity": 0.6299212598425197,
          "string": 1,
          "fret": 3
        },
        {
          "duration": 0.21339264374999978,
          "durationTicks": 239,
          "midi": 67,
          "name": "G4",
          "ticks": 15120,
          "time": 13.499986499999972,
          "velocity": 0.6299212598425197,
          "string": 1,
          "fret": 3
        },
        {
          "duration": 0.21339264374999978,
          "durationTicks": 239,
          "midi": 67,
          "name": "G4",
          "ticks": 15840,
          "time": 14.142842999999969,
          "velocity": 0.6299212598425197,
          "string": 1,
          "fret": 3
        },
        {
          "duration": 0.21339264374999978,
          "durationTicks": 239,
          "midi": 67,
          "name": "G4",
          "ticks": 16560,
          "time": 14.785699499999966,
          "velocity": 0.6299212598425197,
          "string": 1,
          "fret": 3
        },
        {
          "duration": 0.21339264374999978,
          "durationTicks": 239,
          "midi": 70,
          "name": "A#4",
          "ticks": 17280,
          "time": 15.428555999999963,
          "velocity": 0.6299212598425197,
          "string": 1,
          "fret": 6
        },
        {
          "duration": 0.21339264375000155,
          "durationTicks": 239,
          "midi": 69,
          "name": "A4",
          "ticks": 18000,
          "time": 16.071412499999962,
          "velocity": 0.6299212598425197,
          "string": 1,
          "fret": 5
        },
        {
          "duration": 0.21339264375000155,
          "durationTicks": 239,
          "midi": 67,
          "name": "G4",
          "ticks": 18720,
          "time": 16.71426899999997,
          "velocity": 0.6299212598425197,
          "string": 1,
          "fret": 3
        },
        {
          "duration": 0.21339264375000155,
          "durationTicks": 239,
          "midi": 64,
          "name": "E4",
          "ticks": 19440,
          "time": 17.357125499999977,
          "velocity": 0.6299212598425197,
          "string": 1,
          "fret": 0
        },
        {
          "duration": 0.21339264375000155,
          "durationTicks": 239,
          "midi": 64,
          "name": "E4",
          "ticks": 20160,
          "time": 17.999981999999985,
          "velocity": 0.6299212598425197,
          "string": 1,
          "fret": 0
        },
        {
          "duration": 0.21339264375000155,
          "durationTicks": 239,
          "midi": 64,
          "name": "E4",
          "ticks": 20880,
          "time": 18.642838499999993,
          "velocity": 0.6299212598425197,
          "string": 1,
          "fret": 0
        },
        {
          "duration": 0.21339264375000155,
          "durationTicks": 239,
          "midi": 64,
          "name": "E4",
          "ticks": 21600,
          "time": 19.285695,
          "velocity": 0.6299212598425197,
          "string": 1,
          "fret": 0
        },
        {
          "duration": 0.21339264375000155,
          "durationTicks": 239,
          "midi": 64,
          "name": "E4",
          "ticks": 22320,
          "time": 19.928551500000008,
          "velocity": 0.6299212598425197,
          "string": 1,
          "fret": 0
        },
        {
          "duration": 0.21339264375000155,
          "durationTicks": 239,
          "midi": 74,
          "name": "D5",
          "ticks": 23040,
          "time": 20.571408000000016,
          "velocity": 0.6299212598425197,
          "string": 1,
          "fret": 10
        },
        {
          "duration": 0.21339264375000155,
          "durationTicks": 239,
          "midi": 74,
          "name": "D5",
          "ticks": 23760,
          "time": 21.214264500000024,
          "velocity": 0.6299212598425197,
          "string": 1,
          "fret": 10
        },
        {
          "duration": 0.21339264375000155,
          "durationTicks": 239,
          "midi": 74,
          "name": "D5",
          "ticks": 24480,
          "time": 21.85712100000003,
          "velocity": 0.6299212598425197,
          "string": 1,
          "fret": 10
        },
        {
          "duration": 0.21339264375000155,
          "durationTicks": 239,
          "midi": 74,
          "name": "D5",
          "ticks": 25200,
          "time": 22.49997750000004,
          "velocity": 0.6299212598425197,
          "string": 1,
          "fret": 10
        },
        {
          "duration": 0.21339264375000155,
          "durationTicks": 239,
          "midi": 73,
          "name": "C#5",
          "ticks": 25920,
          "time": 23.142834000000047,
          "velocity": 0.6299212598425197,
          "string": 1,
          "fret": 9
        },
        {
          "duration": 0.21339264375000155,
          "durationTicks": 239,
          "midi": 73,
          "name": "C#5",
          "ticks": 26640,
          "time": 23.785690500000054,
          "velocity": 0.6299212598425197,
          "string": 1,
          "fret": 9
        },
        {
          "duration": 0.21339264375000155,
          "durationTicks": 239,
          "midi": 73,
          "name": "C#5",
          "ticks": 27360,
          "time": 24.428547000000062,
          "velocity": 0.6299212598425197,
          "string": 1,
          "fret": 9
        },
        {
          "duration": 0.21339264375000155,
          "durationTicks": 239,
          "midi": 73,
          "name": "C#5",
          "ticks": 28080,
          "time": 25.07140350000007,
          "velocity": 0.6299212598425197,
          "string": 1,
          "fret": 9
        },
        {
          "duration": 0.21339264375000155,
          "durationTicks": 239,
          "midi": 72,
          "name": "C5",
          "ticks": 28800,
          "time": 25.714260000000078,
          "velocity": 0.6299212598425197,
          "string": 1,
          "fret": 8
        },
        {
          "duration": 0.21339264375000155,
          "durationTicks": 239,
          "midi": 72,
          "name": "C5",
          "ticks": 29520,
          "time": 26.357116500000085,
          "velocity": 0.6299212598425197,
          "string": 1,
          "fret": 8
        },
        {
          "duration": 0.21339264375000155,
          "durationTicks": 239,
          "midi": 72,
          "name": "C5",
          "ticks": 30240,
          "time": 26.999973000000093,
          "velocity": 0.6299212598425197,
          "string": 1,
          "fret": 8
        },
        {
          "duration": 0.21339264375000155,
          "durationTicks": 239,
          "midi": 72,
          "name": "C5",
          "ticks": 30960,
          "time": 27.6428295000001,
          "velocity": 0.6299212598425197,
          "string": 1,
          "fret": 8
        },
        {
          "duration": 0.21339264375000155,
          "durationTicks": 239,
          "midi": 71,
          "name": "B4",
          "ticks": 31680,
          "time": 28.28568600000011,
          "velocity": 0.6299212598425197,
          "string": 1,
          "fret": 7
        },
        {
          "duration": 0.21339264375000155,
          "durationTicks": 239,
          "midi": 71,
          "name": "B4",
          "ticks": 32400,
          "time": 28.928542500000116,
          "velocity": 0.6299212598425197,
          "string": 1,
          "fret": 7
        },
        {
          "duration": 0.21339264375000155,
          "durationTicks": 239,
          "midi": 71,
          "name": "B4",
          "ticks": 33120,
          "time": 29.571399000000124,
          "velocity": 0.6299212598425197,
          "string": 1,
          "fret": 7
        },
        {
          "duration": 0.21339264375000155,
          "durationTicks": 239,
          "midi": 71,
          "name": "B4",
          "ticks": 33840,
          "time": 30.21425550000013,
          "velocity": 0.6299212598425197,
          "string": 1,
          "fret": 7
        },
        {
          "duration": 0.21339264375000155,
          "durationTicks": 239,
          "midi": 74,
          "name": "D5",
          "ticks": 34560,
          "time": 30.85711200000014,
          "velocity": 0.6299212598425197,
          "string": 1,
          "fret": 10
        },
        {
          "duration": 0.21339264375000155,
          "durationTicks": 239,
          "midi": 74,
          "name": "D5",
          "ticks": 35280,
          "time": 31.499968500000147,
          "velocity": 0.6299212598425197,
          "string": 1,
          "fret": 10
        },
        {
          "duration": 0.213392643749998,
          "durationTicks": 239,
          "midi": 74,
          "name": "D5",
          "ticks": 36000,
          "time": 32.14282500000015,
          "velocity": 0.6299212598425197,
          "string": 1,
          "fret": 10
        },
        {
          "duration": 0.213392643749998,
          "durationTicks": 239,
          "midi": 74,
          "name": "D5",
          "ticks": 36720,
          "time": 32.78568150000014,
          "velocity": 0.6299212598425197,
          "string": 1,
          "fret": 10
        },
        {
          "duration": 0.213392643749998,
          "durationTicks": 239,
          "midi": 73,
          "name": "C#5",
          "ticks": 37440,
          "time": 33.428538000000124,
          "velocity": 0.6299212598425197,
          "string": 1,
          "fret": 9
        },
        {
          "duration": 0.213392643749998,
          "durationTicks": 239,
          "midi": 73,
          "name": "C#5",
          "ticks": 38160,
          "time": 34.07139450000011,
          "velocity": 0.6299212598425197,
          "string": 1,
          "fret": 9
        },
        {
          "duration": 0.213392643749998,
          "durationTicks": 239,
          "midi": 73,
          "name": "C#5",
          "ticks": 38880,
          "time": 34.7142510000001,
          "velocity": 0.6299212598425197,
          "string": 1,
          "fret": 9
        },
        {
          "duration": 0.213392643749998,
          "durationTicks": 239,
          "midi": 73,
          "name": "C#5",
          "ticks": 39600,
          "time": 35.35710750000008,
          "velocity": 0.6299212598425197,
          "string": 1,
          "fret": 9
        },
        {
          "duration": 0.213392643749998,
          "durationTicks": 239,
          "midi": 72,
          "name": "C5",
          "ticks": 40320,
          "time": 35.99996400000007,
          "velocity": 0.6299212598425197,
          "string": 1,
          "fret": 8
        },
        {
          "duration": 0.213392643749998,
          "durationTicks": 239,
          "midi": 72,
          "name": "C5",
          "ticks": 41040,
          "time": 36.642820500000056,
          "velocity": 0.6299212598425197,
          "string": 1,
          "fret": 8
        },
        {
          "duration": 0.213392643749998,
          "durationTicks": 239,
          "midi": 72,
          "name": "C5",
          "ticks": 41760,
          "time": 37.28567700000004,
          "velocity": 0.6299212598425197,
          "string": 1,
          "fret": 8
        },
        {
          "duration": 0.213392643749998,
          "durationTicks": 239,
          "midi": 72,
          "name": "C5",
          "ticks": 42480,
          "time": 37.92853350000003,
          "velocity": 0.6299212598425197,
          "string": 1,
          "fret": 8
        },
        {
          "duration": 0.213392643749998,
          "durationTicks": 239,
          "midi": 71,
          "name": "B4",
          "ticks": 43200,
          "time": 38.571390000000015,
          "velocity": 0.6299212598425197,
          "string": 1,
          "fret": 7
        },
        {
          "duration": 0.213392643749998,
          "durationTicks": 239,
          "midi": 71,
          "name": "B4",
          "ticks": 43920,
          "time": 39.2142465,
          "velocity": 0.6299212598425197,
          "string": 1,
          "fret": 7
        },
        {
          "duration": 0.213392643749998,
          "durationTicks": 239,
          "midi": 71,
          "name": "B4",
          "ticks": 44640,
          "time": 39.85710299999999,
          "velocity": 0.6299212598425197,
          "string": 1,
          "fret": 7
        },
        {
          "duration": 0.213392643749998,
          "durationTicks": 239,
          "midi": 71,
          "name": "B4",
          "ticks": 45360,
          "time": 40.499959499999974,
          "velocity": 0.6299212598425197,
          "string": 1,
          "fret": 7
        },
        {
          "duration": 0.213392643749998,
          "durationTicks": 239,
          "midi": 69,
          "name": "A4",
          "ticks": 46080,
          "time": 41.14281599999996,
          "velocity": 0.6299212598425197,
          "string": 1,
          "fret": 5
        },
        {
          "duration": 0.213392643749998,
          "durationTicks": 239,
          "midi": 64,
          "name": "E4",
          "ticks": 46320,
          "time": 41.357101499999956,
          "velocity": 0.6299212598425197,
          "string": 1,
          "fret": 0
        },
        {
          "duration": 0.213392643749998,
          "durationTicks": 239,
          "midi": 69,
          "name": "A4",
          "ticks": 46800,
          "time": 41.78567249999995,
          "velocity": 0.6299212598425197,
          "string": 1,
          "fret": 5
        },
        {
          "duration": 0.213392643749998,
          "durationTicks": 239,
          "midi": 64,
          "name": "E4",
          "ticks": 47040,
          "time": 41.99995799999994,
          "velocity": 0.6299212598425197,
          "string": 1,
          "fret": 0
        },
        {
          "duration": 0.213392643749998,
          "durationTicks": 239,
          "midi": 69,
          "name": "A4",
          "ticks": 47520,
          "time": 42.42852899999993,
          "velocity": 0.6299212598425197,
          "string": 1,
          "fret": 5
        },
        {
          "duration": 0.213392643749998,
          "durationTicks": 239,
          "midi": 64,
          "name": "E4",
          "ticks": 47760,
          "time": 42.64281449999993,
          "velocity": 0.6299212598425197,
          "string": 1,
          "fret": 0
        },
        {
          "duration": 0.213392643749998,
          "durationTicks": 239,
          "midi": 69,
          "name": "A4",
          "ticks": 48240,
          "time": 43.07138549999992,
          "velocity": 0.6299212598425197,
          "string": 1,
          "fret": 5
        },
        {
          "duration": 0.213392643749998,
          "durationTicks": 239,
          "midi": 64,
          "name": "E4",
          "ticks": 48480,
          "time": 43.285670999999915,
          "velocity": 0.6299212598425197,
          "string": 1,
          "fret": 0
        },
        {
          "duration": 0.213392643749998,
          "durationTicks": 239,
          "midi": 69,
          "name": "A4",
          "ticks": 48960,
          "time": 43.714241999999906,
          "velocity": 0.6299212598425197,
          "string": 1,
          "fret": 5
        },
        {
          "duration": 0.213392643749998,
          "durationTicks": 239,
          "midi": 64,
          "name": "E4",
          "ticks": 49200,
          "time": 43.9285274999999,
          "velocity": 0.6299212598425197,
          "string": 1,
          "fret": 0
        },
        {
          "duration": 0.213392643749998,
          "durationTicks": 239,
          "midi": 69,
          "name": "A4",
          "ticks": 49680,
          "time": 44.35709849999989,
          "velocity": 0.6299212598425197,
          "string": 1,
          "fret": 5
        },
        {
          "duration": 0.213392643749998,
          "durationTicks": 239,
          "midi": 64,
          "name": "E4",
          "ticks": 49920,
          "time": 44.57138399999989,
          "velocity": 0.6299212598425197,
          "string": 1,
          "fret": 0
        },
        {
          "duration": 1.2848201437499966,
          "durationTicks": 1439,
          "midi": 69,
          "name": "A4",
          "ticks": 50400,
          "time": 44.99995499999988,
          "velocity": 0.6299212598425197,
          "string": 1,
          "fret": 5
        },
        {
          "duration": 0.213392643749998,
          "durationTicks": 239,
          "midi": 67,
          "name": "G4",
          "ticks": 51840,
          "time": 46.28566799999987,
          "velocity": 0.6299212598425197,
          "string": 1,
          "fret": 3
        },
        {
          "duration": 0.213392643749998,
          "durationTicks": 239,
          "midi": 66,
          "name": "F#4",
          "ticks": 52560,
          "time": 46.92852449999986,
          "velocity": 0.6299212598425197,
          "string": 1,
          "fret": 2
        },
        {
          "duration": 0.213392643749998,
          "durationTicks": 239,
          "midi": 64,
          "name": "E4",
          "ticks": 53280,
          "time": 47.571380999999846,
          "velocity": 0.6299212598425197,
          "string": 1,
          "fret": 0
        },
        {
          "duration": 2.570533143749998,
          "durationTicks": 2879,
          "midi": 66,
          "name": "F#4",
          "ticks": 54720,
          "time": 48.85709399999982,
          "velocity": 0.6299212598425197,
          "string": 1,
          "fret": 2
        },
        {
          "duration": 0.213392643749998,
          "durationTicks": 239,
          "midi": 67,
          "name": "G4",
          "ticks": 57600,
          "time": 51.428519999999814,
          "velocity": 0.6299212598425197,
          "string": 1,
          "fret": 3
        },
        {
          "duration": 1.7133911437500018,
          "durationTicks": 1919,
          "midi": 64,
          "name": "E4",
          "ticks": 58320,
          "time": 52.0713764999998,
          "velocity": 0.6299212598425197,
          "string": 1,
          "fret": 0
        },
        {
          "duration": 0.213392643749998,
          "durationTicks": 239,
          "midi": 67,
          "name": "G4",
          "ticks": 60480,
          "time": 53.9999459999998,
          "velocity": 0.6299212598425197,
          "string": 1,
          "fret": 3
        },
        {
          "duration": 1.7133911437500018,
          "durationTicks": 1919,
          "midi": 64,
          "name": "E4",
          "ticks": 61200,
          "time": 54.64280249999979,
          "velocity": 0.6299212598425197,
          "string": 1,
          "fret": 0
        },
        {
          "duration": 0.213392643749998,
          "durationTicks": 239,
          "midi": 67,
          "name": "G4",
          "ticks": 63360,
          "time": 56.57137199999979,
          "velocity": 0.6299212598425197,
          "string": 1,
          "fret": 3
        },
        {
          "duration": 0.213392643749998,
          "durationTicks": 239,
          "midi": 64,
          "name": "E4",
          "ticks": 64080,
          "time": 57.21422849999978,
          "velocity": 0.6299212598425197,
          "string": 1,
          "fret": 0
        },
        {
          "duration": 0.213392643749998,
          "durationTicks": 239,
          "midi": 69,
          "name": "A4",
          "ticks": 64800,
          "time": 57.85708499999976,
          "velocity": 0.6299212598425197,
          "string": 1,
          "fret": 5
        },
        {
          "duration": 0.213392643749998,
          "durationTicks": 239,
          "midi": 66,
          "name": "F#4",
          "ticks": 65520,
          "time": 58.49994149999975,
          "velocity": 0.6299212598425197,
          "string": 1,
          "fret": 2
        },
        {
          "duration": 0.213392643749998,
          "durationTicks": 239,
          "midi": 67,
          "name": "G4",
          "ticks": 66240,
          "time": 59.142797999999736,
          "velocity": 0.6299212598425197,
          "string": 1,
          "fret": 3
        },
        {
          "duration": 0.213392643749998,
          "durationTicks": 239,
          "midi": 67,
          "name": "G4",
          "ticks": 66960,
          "time": 59.78565449999972,
          "velocity": 0.6299212598425197,
          "string": 1,
          "fret": 3
        },
        {
          "duration": 0.213392643749998,
          "durationTicks": 239,
          "midi": 67,
          "name": "G4",
          "ticks": 67680,
          "time": 60.42851099999971,
          "velocity": 0.6299212598425197,
          "string": 1,
          "fret": 3
        },
        {
          "duration": 0.213392643749998,
          "durationTicks": 239,
          "midi": 67,
          "name": "G4",
          "ticks": 68400,
          "time": 61.071367499999695,
          "velocity": 0.6299212598425197,
          "string": 1,
          "fret": 3
        },
        {
          "duration": 0.213392643749998,
          "durationTicks": 239,
          "midi": 67,
          "name": "G4",
          "ticks": 69120,
          "time": 61.71422399999968,
          "velocity": 0.6299212598425197,
          "string": 1,
          "fret": 3
        },
        {
          "duration": 0.213392643749998,
          "durationTicks": 239,
          "midi": 64,
          "name": "E4",
          "ticks": 69840,
          "time": 62.35708049999967,
          "velocity": 0.6299212598425197,
          "string": 1,
          "fret": 0
        },
        {
          "duration": 0.213392643749998,
          "durationTicks": 239,
          "midi": 69,
          "name": "A4",
          "ticks": 70560,
          "time": 62.999936999999655,
          "velocity": 0.6299212598425197,
          "string": 1,
          "fret": 5
        },
        {
          "duration": 0.213392643749998,
          "durationTicks": 239,
          "midi": 66,
          "name": "F#4",
          "ticks": 71280,
          "time": 63.64279349999964,
          "velocity": 0.6299212598425197,
          "string": 1,
          "fret": 2
        },
        {
          "duration": 0.213392643749998,
          "durationTicks": 239,
          "midi": 71,
          "name": "B4",
          "ticks": 72000,
          "time": 64.28564999999965,
          "velocity": 0.6299212598425197,
          "string": 1,
          "fret": 7
        },
        {
          "duration": 0.213392643749998,
          "durationTicks": 239,
          "midi": 71,
          "name": "B4",
          "ticks": 72720,
          "time": 64.92850649999966,
          "velocity": 0.6299212598425197,
          "string": 1,
          "fret": 7
        },
        {
          "duration": 0.213392643749998,
          "durationTicks": 239,
          "midi": 71,
          "name": "B4",
          "ticks": 73440,
          "time": 65.57136299999966,
          "velocity": 0.6299212598425197,
          "string": 1,
          "fret": 7
        },
        {
          "duration": 0.213392643749998,
          "durationTicks": 239,
          "midi": 71,
          "name": "B4",
          "ticks": 74160,
          "time": 66.21421949999967,
          "velocity": 0.6299212598425197,
          "string": 1,
          "fret": 7
        },
        {
          "duration": 0.213392643749998,
          "durationTicks": 239,
          "midi": 67,
          "name": "G4",
          "ticks": 74880,
          "time": 66.85707599999968,
          "velocity": 0.6299212598425197,
          "string": 1,
          "fret": 3
        },
        {
          "duration": 0.213392643749998,
          "durationTicks": 239,
          "midi": 64,
          "name": "E4",
          "ticks": 75600,
          "time": 67.49993249999969,
          "velocity": 0.6299212598425197,
          "string": 1,
          "fret": 0
        },
        {
          "duration": 0.213392643749998,
          "durationTicks": 239,
          "midi": 69,
          "name": "A4",
          "ticks": 76320,
          "time": 68.1427889999997,
          "velocity": 0.6299212598425197,
          "string": 1,
          "fret": 5
        },
        {
          "duration": 0.213392643749998,
          "durationTicks": 239,
          "midi": 66,
          "name": "F#4",
          "ticks": 77040,
          "time": 68.7856454999997,
          "velocity": 0.6299212598425197,
          "string": 1,
          "fret": 2
        },
        {
          "duration": 0.213392643749998,
          "durationTicks": 239,
          "midi": 67,
          "name": "G4",
          "ticks": 77760,
          "time": 69.42850199999971,
          "velocity": 0.6299212598425197,
          "string": 1,
          "fret": 3
        },
        {
          "duration": 0.213392643749998,
          "durationTicks": 239,
          "midi": 67,
          "name": "G4",
          "ticks": 78480,
          "time": 70.07135849999972,
          "velocity": 0.6299212598425197,
          "string": 1,
          "fret": 3
        },
        {
          "duration": 0.213392643749998,
          "durationTicks": 239,
          "midi": 67,
          "name": "G4",
          "ticks": 79200,
          "time": 70.71421499999973,
          "velocity": 0.6299212598425197,
          "string": 1,
          "fret": 3
        },
        {
          "duration": 0.213392643749998,
          "durationTicks": 239,
          "midi": 67,
          "name": "G4",
          "ticks": 79920,
          "time": 71.35707149999973,
          "velocity": 0.6299212598425197,
          "string": 1,
          "fret": 3
        },
        {
          "duration": 0.213392643749998,
          "durationTicks": 239,
          "midi": 70,
          "name": "A#4",
          "ticks": 80640,
          "time": 71.99992799999974,
          "velocity": 0.6299212598425197,
          "string": 1,
          "fret": 6
        },
        {
          "duration": 0.213392643749998,
          "durationTicks": 239,
          "midi": 69,
          "name": "A4",
          "ticks": 81360,
          "time": 72.64278449999975,
          "velocity": 0.6299212598425197,
          "string": 1,
          "fret": 5
        },
        {
          "duration": 0.213392643749998,
          "durationTicks": 239,
          "midi": 67,
          "name": "G4",
          "ticks": 82080,
          "time": 73.28564099999976,
          "velocity": 0.6299212598425197,
          "string": 1,
          "fret": 3
        },
        {
          "duration": 0.213392643749998,
          "durationTicks": 239,
          "midi": 64,
          "name": "E4",
          "ticks": 82800,
          "time": 73.92849749999976,
          "velocity": 0.6299212598425197,
          "string": 1,
          "fret": 0
        },
        {
          "duration": 0.213392643749998,
          "durationTicks": 239,
          "midi": 64,
          "name": "E4",
          "ticks": 83520,
          "time": 74.57135399999977,
          "velocity": 0.6299212598425197,
          "string": 1,
          "fret": 0
        },
        {
          "duration": 0.213392643749998,
          "durationTicks": 239,
          "midi": 64,
          "name": "E4",
          "ticks": 84240,
          "time": 75.21421049999978,
          "velocity": 0.6299212598425197,
          "string": 1,
          "fret": 0
        },
        {
          "duration": 0.213392643749998,
          "durationTicks": 239,
          "midi": 64,
          "name": "E4",
          "ticks": 84960,
          "time": 75.85706699999979,
          "velocity": 0.6299212598425197,
          "string": 1,
          "fret": 0
        },
        {
          "duration": 0.213392643749998,
          "durationTicks": 239,
          "midi": 64,
          "name": "E4",
          "ticks": 85680,
          "time": 76.4999234999998,
          "velocity": 0.6299212598425197,
          "string": 1,
          "fret": 0
        },
        {
          "duration": 0.213392643749998,
          "durationTicks": 239,
          "midi": 70,
          "name": "A#4",
          "ticks": 86400,
          "time": 77.1427799999998,
          "velocity": 0.6299212598425197,
          "string": 1,
          "fret": 6
        },
        {
          "duration": 0.213392643749998,
          "durationTicks": 239,
          "midi": 69,
          "name": "A4",
          "ticks": 87120,
          "time": 77.78563649999981,
          "velocity": 0.6299212598425197,
          "string": 1,
          "fret": 5
        },
        {
          "duration": 0.213392643749998,
          "durationTicks": 239,
          "midi": 67,
          "name": "G4",
          "ticks": 87840,
          "time": 78.42849299999982,
          "velocity": 0.6299212598425197,
          "string": 1,
          "fret": 3
        },
        {
          "duration": 0.213392643749998,
          "durationTicks": 239,
          "midi": 64,
          "name": "E4",
          "ticks": 88560,
          "time": 79.07134949999983,
          "velocity": 0.6299212598425197,
          "string": 1,
          "fret": 0
        },
        {
          "duration": 0.213392643749998,
          "durationTicks": 239,
          "midi": 64,
          "name": "E4",
          "ticks": 89280,
          "time": 79.71420599999983,
          "velocity": 0.6299212598425197,
          "string": 1,
          "fret": 0
        },
        {
          "duration": 0.213392643749998,
          "durationTicks": 239,
          "midi": 64,
          "name": "E4",
          "ticks": 90000,
          "time": 80.35706249999984,
          "velocity": 0.6299212598425197,
          "string": 1,
          "fret": 0
        },
        {
          "duration": 0.213392643749998,
          "durationTicks": 239,
          "midi": 64,
          "name": "E4",
          "ticks": 90720,
          "time": 80.99991899999985,
          "velocity": 0.6299212598425197,
          "string": 1,
          "fret": 0
        },
        {
          "duration": 0.213392643749998,
          "durationTicks": 239,
          "midi": 64,
          "name": "E4",
          "ticks": 91440,
          "time": 81.64277549999986,
          "velocity": 0.6299212598425197,
          "string": 1,
          "fret": 0
        },
        {
          "duration": 0.213392643749998,
          "durationTicks": 239,
          "midi": 70,
          "name": "A#4",
          "ticks": 92160,
          "time": 82.28563199999986,
          "velocity": 0.6299212598425197,
          "string": 1,
          "fret": 6
        },
        {
          "duration": 0.213392643749998,
          "durationTicks": 239,
          "midi": 69,
          "name": "A4",
          "ticks": 92880,
          "time": 82.92848849999987,
          "velocity": 0.6299212598425197,
          "string": 1,
          "fret": 5
        },
        {
          "duration": 1.2848201437499966,
          "durationTicks": 1439,
          "midi": 67,
          "name": "G4",
          "ticks": 93600,
          "time": 83.57134499999988,
          "velocity": 0.6299212598425197,
          "string": 1,
          "fret": 3
        },
        {
          "duration": 0.4276781437500006,
          "durationTicks": 479,
          "midi": 64,
          "name": "E4",
          "ticks": 95040,
          "time": 84.85705799999988,
          "velocity": 0.6299212598425197,
          "string": 1,
          "fret": 0
        },
        {
          "duration": 0.213392643749998,
          "durationTicks": 239,
          "midi": 64,
          "name": "E4",
          "ticks": 95520,
          "time": 85.28562899999989,
          "velocity": 0.6299212598425197,
          "string": 1,
          "fret": 0
        },
        {
          "duration": 0.213392643749998,
          "durationTicks": 239,
          "midi": 64,
          "name": "E4",
          "ticks": 95760,
          "time": 85.49991449999989,
          "velocity": 0.6299212598425197,
          "string": 1,
          "fret": 0
        },
        {
          "duration": 0.213392643749998,
          "durationTicks": 239,
          "midi": 64,
          "name": "E4",
          "ticks": 96000,
          "time": 85.71419999999989,
          "velocity": 0.6299212598425197,
          "string": 1,
          "fret": 0
        },
        {
          "duration": 0.213392643749998,
          "durationTicks": 239,
          "midi": 64,
          "name": "E4",
          "ticks": 96240,
          "time": 85.9284854999999,
          "velocity": 0.6299212598425197,
          "string": 1,
          "fret": 0
        },
        {
          "duration": 0.4276781437500006,
          "durationTicks": 479,
          "midi": 64,
          "name": "E4",
          "ticks": 96480,
          "time": 86.1427709999999,
          "velocity": 0.6299212598425197,
          "string": 1,
          "fret": 0
        },
        {
          "duration": 0.213392643749998,
          "durationTicks": 239,
          "midi": 64,
          "name": "E4",
          "ticks": 96960,
          "time": 86.5713419999999,
          "velocity": 0.6299212598425197,
          "string": 1,
          "fret": 0
        },
        {
          "duration": 0.213392643749998,
          "durationTicks": 239,
          "midi": 64,
          "name": "E4",
          "ticks": 97200,
          "time": 86.7856274999999,
          "velocity": 0.6299212598425197,
          "string": 1,
          "fret": 0
        },
        {
          "duration": 0.213392643749998,
          "durationTicks": 239,
          "midi": 64,
          "name": "E4",
          "ticks": 97440,
          "time": 86.9999129999999,
          "velocity": 0.6299212598425197,
          "string": 1,
          "fret": 0
        },
        {
          "duration": 0.213392643749998,
          "durationTicks": 239,
          "midi": 64,
          "name": "E4",
          "ticks": 97680,
          "time": 87.21419849999991,
          "velocity": 0.6299212598425197,
          "string": 1,
          "fret": 0
        },
        {
          "duration": 2.570533143749998,
          "durationTicks": 2879,
          "midi": 64,
          "name": "E4",
          "ticks": 97920,
          "time": 87.42848399999991,
          "velocity": 0.6299212598425197,
          "string": 1,
          "fret": 0
        }
      ]
    }
  ]
}