{
  "meta": {
    "title": "Guitarra cl\u00e1sica",
    "tempo": 140,
    "timeSignature": [
      12,
      8
    ],
    "tuning": [
      40,
      45,
      50,
      55,
      59,
      64
    ]
  },
  "tracks": [
    {
      "name": "",
      "notes": [
        {
          "id": 0,
          "duration": 0.21428571428571427,
          "midi": 67,
          "name": "G4",
          "time": 0.8571428571428571,
          "velocity": 0.49606299212598426,
          "string": 1,
          "fret": 3
        },
        {
          "id": 1,
          "duration": 0.21428571428571427,
          "midi": 40,
          "name": "E2",
          "time": 0.8571428571428571,
          "velocity": 0.49606299212598426,
          "string": 6,
          "fret": 0
        },
        {
          "id": 2,
          "duration": 0.21428571428571427,
          "midi": 59,
          "name": "B3",
          "time": 1.0714285714285714,
          "velocity": 0.49606299212598426,
          "string": 2,
          "fret": 0
        },
        {
          "id": 3,
          "duration": 0.21428571428571427,
          "midi": 40,
          "name": "E2",
          "time": 1.0714285714285714,
          "velocity": 0.49606299212598426,
          "string": 6,
          "fret": 0
        },
        {
          "id": 4,
          "duration": 0.21428571428571427,
          "midi": 55,
          "name": "G3",
          "time": 1.2857142857142856,
          "velocity": 0.49606299212598426,
          "string": 3,
          "fret": 0
        },
        {
          "id": 5,
          "duration": 0.21428571428571427,
          "midi": 40,
          "name": "E2",
          "time": 1.2857142857142856,
          "velocity": 0.49606299212598426,
          "string": 6,
          "fret": 0
        },
        {
          "id": 6,
          "duration": 0.21428571428571427,
          "midi": 64,
          "name": "E4",
          "time": 1.5,
          "velocity": 0.49606299212598426,
          "string": 1,
          "fret": 0
        },
        {
          "id": 7,
          "duration": 0.21428571428571427,
          "midi": 40,
          "name": "E2",
          "time": 1.5,
          "velocity": 0.49606299212598426,
          "string": 6,
          "fret": 0
        },
        {
          "id": 8,
          "duration": 0.21428571428571427,
          "midi": 59,
          "name": "B3",
          "time": 1.7142857142857142,
          "velocity": 0.49606299212598426,
          "string": 2,
          "fret": 0
        },
        {
          "id": 9,
          "duration": 0.21428571428571427,
          "midi": 40,
          "name": "E2",
          "time": 1.7142857142857142,
          "velocity": 0.49606299212598426,
          "string": 6,
          "fret": 0
        },
        {
          "id": 10,
          "duration": 0.21428571428571427,
          "midi": 55,
          "name": "G3",
          "time": 1.9285714285714284,
          "velocity": 0.49606299212598426,
          "string": 3,
          "fret": 0
        },
        {
          "id": 11,
          "duration": 0.21428571428571427,
          "midi": 40,
          "name": "E2",
          "time": 1.9285714285714284,
          "velocity": 0.49606299212598426,
          "string": 6,
          "fret": 0
        },
        {
          "id": 12,
          "duration": 0.21428571428571427,
          "midi": 69,
          "name": "A4",
          "time": 2.142857142857143,
          "velocity": 0.49606299212598426,
          "string": 1,
          "fret": 5
        },
        {
          "id": 13,
          "duration": 0.21428571428571427,
          "midi": 40,
          "name": "E2",
          "time": 2.142857142857143,
          "velocity": 0.49606299212598426,
          "string": 6,
          "fret": 0
        },
        {
          "id": 14,
          "duration": 0.21428571428571427,
          "midi": 59,
          "name": "B3",
          "time": 2.357142857142857,
          "velocity": 0.49606299212598426,
          "string": 2,
          "fret": 0
        },
        {
          "id": 15,
          "duration": 0.21428571428571427,
          "midi": 40,
          "name": "E2",
          "time": 2.357142857142857,
          "velocity": 0.49606299212598426,
          "string": 6,
          "fret": 0
        },
        {
          "id": 16,
          "duration": 0.21428571428571427,
          "midi": 55,
          "name": "G3",
          "time": 2.571428571428571,
          "velocity": 0.49606299212598426,
          "string": 3,
          "fret": 0
        },
        {
          "id": 17,
          "duration": 0.21428571428571427,
          "midi": 40,
          "name": "E2",
          "time": 2.571428571428571,
          "velocity": 0.49606299212598426,
          "string": 6,
          "fret": 0
        },
        {
          "id": 18,
          "duration": 0.21428571428571427,
          "midi": 66,
          "name": "F#4",
          "time": 2.7857142857142856,
          "velocity": 0.49606299212598426,
          "string": 1,
          "fret": 2
        },
        {
          "id": 19,
          "duration": 0.21428571428571427,
          "midi": 40,
          "name": "E2",
          "time": 2.7857142857142856,
          "velocity": 0.49606299212598426,
          "string": 6,
          "fret": 0
        },
        {
          "id": 20,
          "duration": 0.21428571428571427,
          "midi": 59,
          "name": "B3",
          "time": 3.0,
          "velocity": 0.49606299212598426,
          "string": 2,
          "fret": 0
        },
        {
          "id": 21,
          "duration": 0.21428571428571427,
          "midi": 40,
          "name": "E2",
          "time": 3.0,
          "velocity": 0.49606299212598426,
          "string": 6,
          "fret": 0
        },
        {
          "id": 22,
          "duration": 0.10714285714285714,
          "midi": 55,
          "name": "G3",
          "time": 3.214285714285714,
          "velocity": 0.49606299212598426,
          "string": 3,
          "fret": 0
        },
        {
          "id": 23,
          "duration": 0.10714285714285714,
          "midi": 40,
          "name": "E2",
          "time": 3.214285714285714,
          "velocity": 0.49606299212598426,
          "string": 6,
          "fret": 0
        },
        {
          "id": 24,
          "duration": 0.21428571428571427,
          "midi": 67,
          "name": "G4",
          "time": 6.0,
          "velocity": 0.49606299212598426,
          "string": 1,
          "fret": 3
        },
        {
          "id": 25,
          "duration": 0.21428571428571427,
          "midi": 40,
          "name": "E2",
          "time": 6.0,
          "velocity": 0.49606299212598426,
          "string": 6,
          "fret": 0
        },
        {
          "id": 26,
          "duration": 0.21428571428571427,
          "midi": 59,
          "name": "B3",
          "time": 6.2142857142857135,
          "velocity": 0.49606299212598426,
          "string": 2,
          "fret": 0
        },
        {
          "id": 27,
          "duration": 0.21428571428571427,
          "midi": 40,
          "name": "E2",
          "time": 6.2142857142857135,
          "velocity": 0.49606299212598426,
          "string": 6,
          "fret": 0
        },
        {
          "id": 28,
          "duration": 0.21428571428571427,
          "midi": 55,
          "name": "G3",
          "time": 6.428571428571428,
          "velocity": 0.49606299212598426,
          "string": 3,
          "fret": 0
        },
        {
          "id": 29,
          "duration": 0.21428571428571427,
          "midi": 40,
          "name": "E2",
          "time": 6.428571428571428,
          "velocity": 0.49606299212598426,
          "string": 6,
          "fret": 0
        },
        {
          "id": 30,
          "duration": 0.21428571428571427,
          "midi": 67,
          "name": "G4",
          "time": 6.642857142857142,
          "velocity": 0.49606299212598426,
          "string": 1,
          "fret": 3
        },
        {
          "id": 31,
          "duration": 0.21428571428571427,
          "midi": 40,
          "name": "E2",
          "time": 6.642857142857142,
          "velocity": 0.49606299212598426,
          "string": 6,
          "fret": 0
        },
        {
          "id": 32,
          "duration": 0.21428571428571427,
          "midi": 59,
          "name": "B3",
          "time": 6.857142857142857,
          "velocity": 0.49606299212598426,
          "string": 2,
          "fret": 0
        },
        {
          "id": 33,
          "duration": 0.21428571428571427,
          "midi": 40,
          "name": "E2",
          "time": 6.857142857142857,
          "velocity": 0.49606299212598426,
          "string": 6,
          "fret": 0
        },
        {
          "id": 34,
          "duration": 0.21428571428571427,
          "midi": 55,
          "name": "G3",
          "time": 7.071428571428571,
          "velocity": 0.49606299212598426,
          "string": 3,
          "fret": 0
        },
        {
          "id": 35,
          "duration": 0.21428571428571427,
          "midi": 40,
          "name": "E2",
          "time": 7.071428571428571,
          "velocity": 0.49606299212598426,
          "string": 6,
          "fret": 0
        },
        {
          "id": 36,
          "duration": 0.21428571428571427,
          "midi": 67,
          "name": "G4",
          "time": 7.285714285714286,
          "velocity": 0.49606299212598426,
          "string": 1,
          "fret": 3
        },
        {
          "id": 37,
          "duration": 0.21428571428571427,
          "midi": 40,
          "name": "E2",
          "time": 7.285714285714286,
          "velocity": 0.49606299212598426,
          "string": 6,
          "fret": 0
        },
        {
          "id": 38,
          "duration": 0.21428571428571427,
          "midi": 59,
          "name": "B3",
          "time": 7.5,
          "velocity": 0.49606299212598426,
          "string": 2,
          "fret": 0
        },
        {
          "id": 39,
          "duration": 0.21428571428571427,
          "midi": 40,
          "name": "E2",
          "time": 7.5,
          "velocity": 0.49606299212598426,
          "string": 6,
          "fret": 0
        },
        {
          "id": 40,
          "duration": 0.21428571428571427,
          "midi": 55,
          "name": "G3",
          "time": 7.7142857142857135,
          "velocity": 0.49606299212598426,
          "string": 3,
          "fret": 0
        },
        {
          "id": 41,
          "duration": 0.21428571428571427,
          "midi": 40,
          "name": "E2",
          "time": 7.7142857142857135,
          "velocity": 0.49606299212598426,
          "string": 6,
          "fret": 0
        },
        {
          "id": 42,
          "duration": 0.21428571428571427,
          "midi": 67,
          "name": "G4",
          "time": 7.928571428571428,
          "velocity": 0.49606299212598426,
          "string": 1,
          "fret": 3
        },
        {
          "id": 43,
          "duration": 0.21428571428571427,
          "midi": 40,
          "name": "E2",
          "time": 7.928571428571428,
          "velocity": 0.49606299212598426,
          "string": 6,
          "fret": 0
        },
        {
          "id": 44,
          "duration": 0.21428571428571427,
          "midi": 59,
          "name": "B3",
          "time": 8.142857142857142,
          "velocity": 0.49606299212598426,
          "string": 2,
          "fret": 0
        },
        {
          "id": 45,
          "duration": 0.21428571428571427,
          "midi": 40,
          "name": "E2",
          "time": 8.142857142857142,
          "velocity": 0.49606299212598426,
          "string": 6,
          "fret": 0
        },
        {
          "id": 46,
          "duration": 0.10714285714285714,
          "midi": 55,
          "name": "G3",
          "time": 8.357142857142856,
          "velocity": 0.49606299212598426,
          "string": 3,
          "fret": 0
        },
        {
          "id": 47,
          "duration": 0.10714285714285714,
          "midi": 40,
          "name": "E2",
          "time": 8.357142857142856,
          "velocity": 0.49606299212598426,
          "string": 6,
          "fret": 0
        },
        {
          "id": 48,
          "duration": 0.21428571428571427,
          "midi": 67,
          "name": "G4",
          "time": 11.142857142857142,
          "velocity": 0.49606299212598426,
          "string": 1,
          "fret": 3
        },
        {
          "id": 49,
          "duration": 0.21428571428571427,
          "midi": 40,
          "name": "E2",
          "time": 11.142857142857142,
          "velocity": 0.49606299212598426,
          "string": 6,
          "fret": 0
        },
        {
          "id": 50,
          "duration": 0.21428571428571427,
          "midi": 59,
          "name": "B3",
          "time": 11.357142857142856,
          "velocity": 0.49606299212598426,
          "string": 2,
          "fret": 0
        },
        {
          "id": 51,
          "duration": 0.21428571428571427,
          "midi": 40,
          "name": "E2",
          "time": 11.357142857142856,
          "velocity": 0.49606299212598426,
          "string": 6,
          "fret": 0
        },
        {
          "id": 52,
          "duration": 0.21428571428571427,
          "midi": 55,
          "name": "G3",
          "time": 11.571428571428571,
          "velocity": 0.49606299212598426,
          "string": 3,
          "fret": 0
        },
        {
          "id": 53,
          "duration": 0.21428571428571427,
          "midi": 40,
          "name": "E2",
          "time": 11.571428571428571,
          "velocity": 0.49606299212598426,
          "string": 6,
          "fret": 0
        },
        {
          "id": 54,
          "duration": 0.21428571428571427,
          "midi": 64,
          "name": "E4",
          "time": 11.785714285714285,
          "velocity": 0.49606299212598426,
          "string": 1,
          "fret": 0
        },
        {
          "id": 55,
          "duration": 0.21428571428571427,
          "midi": 40,
          "name": "E2",
          "time": 11.785714285714285,
          "velocity": 0.49606299212598426,
          "string": 6,
          "fret": 0
        },
        {
          "id": 56,
          "duration": 0.21428571428571427,
          "midi": 59,
          "name": "B3",
          "time": 12.0,
          "velocity": 0.49606299212598426,
          "string": 2,
          "fret": 0
        },
        {
          "id": 57,
          "duration": 0.21428571428571427,
          "midi": 40,
          "name": "E2",
          "time": 12.0,
          "velocity": 0.49606299212598426,
          "string": 6,
          "fret": 0
        },
        {
          "id": 58,
          "duration": 0.21428571428571427,
          "midi": 55,
          "name": "G3",
          "time": 12.214285714285714,
          "velocity": 0.49606299212598426,
          "string": 3,
          "fret": 0
        },
        {
          "id": 59,
          "duration": 0.21428571428571427,
          "midi": 40,
          "name": "E2",
          "time": 12.214285714285714,
          "velocity": 0.49606299212598426,
          "string": 6,
          "fret": 0
        },
        {
          "id": 60,
          "duration": 0.21428571428571427,
          "midi": 69,
          "name": "A4",
          "time": 12.428571428571427,
          "velocity": 0.49606299212598426,
          "string": 1,
          "fret": 5
        },
        {
          "id": 61,
          "duration": 0.21428571428571427,
          "midi": 40,
          "name": "E2",
          "time": 12.428571428571427,
          "velocity": 0.49606299212598426,
          "string": 6,
          "fret": 0
        },
        {
          "id": 62,
          "duration": 0.21428571428571427,
          "midi": 59,
          "name": "B3",
          "time": 12.642857142857142,
          "velocity": 0.49606299212598426,
          "string": 2,
          "fret": 0
        },
        {
          "id": 63,
          "duration": 0.21428571428571427,
          "midi": 40,
          "name": "E2",
          "time": 12.642857142857142,
          "velocity": 0.49606299212598426,
          "string": 6,
          "fret": 0
        },
        {
          "id": 64,
          "duration": 0.21428571428571427,
          "midi": 55,
          "name": "G3",
          "time": 12.857142857142856,
          "velocity": 0.49606299212598426,
          "string": 3,
          "fret": 0
        },
        {
          "id": 65,
          "duration": 0.21428571428571427,
          "midi": 40,
          "name": "E2",
          "time": 12.857142857142856,
          "velocity": 0.49606299212598426,
          "string": 6,
          "fret": 0
        },
        {
          "id": 66,
          "duration": 0.21428571428571427,
          "midi": 66,
          "name": "F#4",
          "time": 13.071428571428571,
          "velocity": 0.49606299212598426,
          "string": 1,
          "fret": 2
        },
        {
          "id": 67,
          "duration": 0.21428571428571427,
          "midi": 40,
          "name": "E2",
          "time": 13.071428571428571,
          "velocity": 0.49606299212598426,
          "string": 6,
          "fret": 0
        },
        {
          "id": 68,
          "duration": 0.21428571428571427,
          "midi": 59,
          "name": "B3",
          "time": 13.285714285714285,
          "velocity": 0.49606299212598426,
          "string": 2,
          "fret": 0
        },
        {
          "id": 69,
          "duration": 0.21428571428571427,
          "midi": 40,
          "name": "E2",
          "time": 13.285714285714285,
          "velocity": 0.49606299212598426,
          "string": 6,
          "fret": 0
        },
        {
          "id": 70,
          "duration": 0.10714285714285714,
          "midi": 55,
          "name": "G3",
          "time": 13.5,
          "velocity": 0.49606299212598426,
          "string": 3,
          "fret": 0
        },
        {
          "id": 71,
          "duration": 0.10714285714285714,
          "midi": 40,
          "name": "E2",
          "time": 13.5,
          "velocity": 0.49606299212598426,
          "string": 6,
          "fret": 0
        },
        {
          "id": 72,
          "duration": 0.21428571428571427,
          "midi": 71,
          "name": "B4",
          "time": 16.285714285714285,
          "velocity": 0.49606299212598426,
          "string": 1,
          "fret": 7
        },
        {
          "id": 73,
          "duration": 0.21428571428571427,
          "midi": 40,
          "name": "E2",
          "time": 16.285714285714285,
          "velocity": 0.49606299212598426,
          "string": 6,
          "fret": 0
        },
        {
          "id": 74,
          "duration": 0.21428571428571427,
          "midi": 59,
          "name": "B3",
          "time": 16.5,
          "velocity": 0.49606299212598426,
          "string": 2,
          "fret": 0
        },
        {
          "id": 75,
          "duration": 0.21428571428571427,
          "midi": 40,
          "name": "E2",
          "time": 16.5,
          "velocity": 0.49606299212598426,
          "string": 6,
          "fret": 0
        },
        {
          "id": 76,
          "duration": 0.21428571428571427,
          "midi": 55,
          "name": "G3",
          "time": 16.71428571428571,
          "velocity": 0.49606299212598426,
          "string": 3,
          "fret": 0
        },
        {
          "id": 77,
          "duration": 0.21428571428571427,
          "midi": 40,
          "name": "E2",
          "time": 16.71428571428571,
          "velocity": 0.49606299212598426,
          "string": 6,
          "fret": 0
        },
        {
          "id": 78,
          "duration": 0.21428571428571427,
          "midi": 71,
          "name": "B4",
          "time": 16.928571428571427,
          "velocity": 0.49606299212598426,
          "string": 1,
          "fret": 7
        },
        {
          "id": 79,
          "duration": 0.21428571428571427,
          "midi": 40,
          "name": "E2",
          "time": 16.928571428571427,
          "velocity": 0.49606299212598426,
          "string": 6,
          "fret": 0
        },
        {
          "id": 80,
          "duration": 0.21428571428571427,
          "midi": 59,
          "name": "B3",
          "time": 17.142857142857142,
          "velocity": 0.49606299212598426,
          "string": 2,
          "fret": 0
        },
        {
          "id": 81,
          "duration": 0.21428571428571427,
          "midi": 40,
          "name": "E2",
          "time": 17.142857142857142,
          "velocity": 0.49606299212598426,
          "string": 6,
          "fret": 0
        },
        {
          "id": 82,
          "duration": 0.21428571428571427,
          "midi": 55,
          "name": "G3",
          "time": 17.357142857142858,
          "velocity": 0.49606299212598426,
          "string": 3,
          "fret": 0
        },
        {
          "id": 83,
          "duration": 0.21428571428571427,
          "midi": 40,
          "name": "E2",
          "time": 17.357142857142858,
          "velocity": 0.49606299212598426,
          "string": 6,
          "fret": 0
        },
        {
          "id": 84,
          "duration": 0.21428571428571427,
          "midi": 71,
          "name": "B4",
          "time": 17.57142857142857,
          "velocity": 0.49606299212598426,
          "string": 1,
          "fret": 7
        },
        {
          "id": 85,
          "duration": 0.21428571428571427,
          "midi": 40,
          "name": "E2",
          "time": 17.57142857142857,
          "velocity": 0.49606299212598426,
          "string": 6,
          "fret": 0
        },
        {
          "id": 86,
          "duration": 0.21428571428571427,
          "midi": 59,
          "name": "B3",
          "time": 17.785714285714285,
          "velocity": 0.49606299212598426,
          "string": 2,
          "fret": 0
        },
        {
          "id": 87,
          "duration": 0.21428571428571427,
          "midi": 40,
          "name": "E2",
          "time": 17.785714285714285,
          "velocity": 0.49606299212598426,
          "string": 6,
          "fret": 0
        },
        {
          "id": 88,
          "duration": 0.21428571428571427,
          "midi": 55,
          "name": "G3",
          "time": 18.0,
          "velocity": 0.49606299212598426,
          "string": 3,
          "fret": 0
        },
        {
          "id": 89,
          "duration": 0.21428571428571427,
          "midi": 40,
          "name": "E2",
          "time": 18.0,
          "velocity": 0.49606299212598426,
          "string": 6,
          "fret": 0
        },
        {
          "id": 90,
          "duration": 0.21428571428571427,
          "midi": 71,
          "name": "B4",
          "time": 18.21428571428571,
          "velocity": 0.49606299212598426,
          "string": 1,
          "fret": 7
        },
        {
          "id": 91,
          "duration": 0.21428571428571427,
          "midi": 40,
          "name": "E2",
          "time": 18.21428571428571,
          "velocity": 0.49606299212598426,
          "string": 6,
          "fret": 0
        },
        {
          "id": 92,
          "duration": 0.21428571428571427,
          "midi": 59,
          "name": "B3",
          "time": 18.428571428571427,
          "velocity": 0.49606299212598426,
          "string": 2,
          "fret": 0
        },
        {
          "id": 93,
          "duration": 0.21428571428571427,
          "midi": 40,
          "name": "E2",
          "time": 18.428571428571427,
          "velocity": 0.49606299212598426,
          "string": 6,
          "fret": 0
        },
        {
          "id": 94,
          "duration": 0.10714285714285714,
          "midi": 55,
          "name": "G3",
          "time": 18.642857142857142,
          "velocity": 0.49606299212598426,
          "string": 3,
          "fret": 0
        },
        {
          "id": 95,
          "duration": 0.10714285714285714,
          "midi": 40,
          "name": "E2",
          "time": 18.642857142857142,
          "velocity": 0.49606299212598426,
          "string": 6,
          "fret": 0
        },
        {
          "id": 96,
          "duration": 0.21428571428571427,
          "midi": 67,
          "name": "G4",
          "time": 21.428571428571427,
          "velocity": 0.49606299212598426,
          "string": 1,
          "fret": 3
        },
        {
          "id": 97,
          "duration": 0.21428571428571427,
          "midi": 40,
          "name": "E2",
          "time": 21.428571428571427,
          "velocity": 0.49606299212598426,
          "string": 6,
          "fret": 0
        },
        {
          "id": 98,
          "duration": 0.21428571428571427,
          "midi": 59,
          "name": "B3",
          "time": 21.642857142857142,
          "velocity": 0.49606299212598426,
          "string": 2,
          "fret": 0
        },
        {
          "id": 99,
          "duration": 0.21428571428571427,
          "midi": 40,
          "name": "E2",
          "time": 21.642857142857142,
          "velocity": 0.49606299212598426,
          "string": 6,
          "fret": 0
        },
        {
          "id": 100,
          "duration": 0.21428571428571427,
          "midi": 55,
          "name": "G3",
          "time": 21.857142857142858,
          "velocity": 0.49606299212598426,
          "string": 3,
          "fret": 0
        },
        {
          "id": 101,
          "duration": 0.21428571428571427,
          "midi": 40,
          "name": "E2",
          "time": 21.857142857142858,
          "velocity": 0.49606299212598426,
          "string": 6,
          "fret": 0
        },
        {
          "id": 102,
          "duration": 0.21428571428571427,
          "midi": 64,
          "name": "E4",
          "time": 22.07142857142857,
          "velocity": 0.49606299212598426,
          "string": 1,
          "fret": 0
        },
        {
          "id": 103,
          "duration": 0.21428571428571427,
          "midi": 40,
          "name": "E2",
          "time": 22.07142857142857,
          "velocity": 0.49606299212598426,
          "string": 6,
          "fret": 0
        },
        {
          "id": 104,
          "duration": 0.21428571428571427,
          "midi": 59,
          "name": "B3",
          "time": 22.285714285714285,
          "velocity": 0.49606299212598426,
          "string": 2,
          "fret": 0
        },
        {
          "id": 105,
          "duration": 0.21428571428571427,
          "midi": 40,
          "name": "E2",
          "time": 22.285714285714285,
          "velocity": 0.49606299212598426,
          "string": 6,
          "fret": 0
        },
        {
          "id": 106,
          "duration": 0.21428571428571427,
          "midi": 55,
          "name": "G3",
          "time": 22.5,
          "velocity": 0.49606299212598426,
          "string": 3,
          "fret": 0
        },
        {
          "id": 107,
          "duration": 0.21428571428571427,
          "midi": 40,
          "name": "E2",
          "time": 22.5,
          "velocity": 0.49606299212598426,
          "string": 6,
          "fret": 0
        },
        {
          "id": 108,
          "duration": 0.21428571428571427,
          "midi": 69,
          "name": "A4",
          "time": 22.71428571428571,
          "velocity": 0.49606299212598426,
          "string": 1,
          "fret": 5
        },
        {
          "id": 109,
          "duration": 0.21428571428571427,
          "midi": 40,
          "name": "E2",
          "time": 22.71428571428571,
          "velocity": 0.49606299212598426,
          "string": 6,
          "fret": 0
        },
        {
          "id": 110,
          "duration": 0.21428571428571427,
          "midi": 59,
          "name": "B3",
          "time": 22.928571428571427,
          "velocity": 0.49606299212598426,
          "string": 2,
          "fret": 0
        },
        {
          "id": 111,
          "duration": 0.21428571428571427,
          "midi": 40,
          "name": "E2",
          "time": 22.928571428571427,
          "velocity": 0.49606299212598426,
          "string": 6,
          "fret": 0
        },
        {
          "id": 112,
          "duration": 0.21428571428571427,
          "midi": 55,
          "name": "G3",
          "time": 23.142857142857142,
          "velocity": 0.49606299212598426,
          "string": 3,
          "fret": 0
        },
        {
          "id": 113,
          "duration": 0.21428571428571427,
          "midi": 40,
          "name": "E2",
          "time": 23.142857142857142,
          "velocity": 0.49606299212598426,
          "string": 6,
          "fret": 0
        },
        {
          "id": 114,
          "duration": 0.21428571428571427,
          "midi": 66,
          "name": "F#4",
          "time": 23.357142857142854,
          "velocity": 0.49606299212598426,
          "string": 1,
          "fret": 2
        },
        {
          "id": 115,
          "duration": 0.21428571428571427,
          "midi": 40,
          "name": "E2",
          "time": 23.357142857142854,
          "velocity": 0.49606299212598426,
          "string": 6,
          "fret": 0
        },
        {
          "id": 116,
          "duration": 0.21428571428571427,
          "midi": 59,
          "name": "B3",
          "time": 23.57142857142857,
          "velocity": 0.49606299212598426,
          "string": 2,
          "fret": 0
        },
        {
          "id": 117,
          "duration": 0.21428571428571427,
          "midi": 40,
          "name": "E2",
          "time": 23.57142857142857,
          "velocity": 0.49606299212598426,
          "string": 6,
          "fret": 0
        },
        {
          "id": 118,
          "duration": 0.10714285714285714,
          "midi": 55,
          "name": "G3",
          "time": 23.785714285714285,
          "velocity": 0.49606299212598426,
          "string": 3,
          "fret": 0
        },
        {
          "id": 119,
          "duration": 0.10714285714285714,
          "midi": 40,
          "name": "E2",
          "time": 23.785714285714285,
          "velocity": 0.49606299212598426,
          "string": 6,
          "fret": 0
        },
        {
          "id": 120,
          "duration": 0.21428571428571427,
          "midi": 67,
          "name": "G4",
          "time": 26.57142857142857,
          "velocity": 0.49606299212598426,
          "string": 1,
          "fret": 3
        },
        {
          "id": 121,
          "duration": 0.21428571428571427,
          "midi": 40,
          "name": "E2",
          "time": 26.57142857142857,
          "velocity": 0.49606299212598426,
          "string": 6,
          "fret": 0
        },
        {
          "id": 122,
          "duration": 0.21428571428571427,
          "midi": 59,
          "name": "B3",
          "time": 26.785714285714285,
          "velocity": 0.49606299212598426,
          "string": 2,
          "fret": 0
        },
        {
          "id": 123,
          "duration": 0.21428571428571427,
          "midi": 40,
          "name": "E2",
          "time": 26.785714285714285,
          "velocity": 0.49606299212598426,
          "string": 6,
          "fret": 0
        },
        {
          "id": 124,
          "duration": 0.21428571428571427,
          "midi": 55,
          "name": "G3",
          "time": 27.0,
          "velocity": 0.49606299212598426,
          "string": 3,
          "fret": 0
        },
        {
          "id": 125,
          "duration": 0.21428571428571427,
          "midi": 40,
          "name": "E2",
          "time": 27.0,
          "velocity": 0.49606299212598426,
          "string": 6,
          "fret": 0
        },
        {
          "id": 126,
          "duration": 0.21428571428571427,
          "midi": 67,
          "name": "G4",
          "time": 27.21428571428571,
          "velocity": 0.49606299212598426,
          "string": 1,
          "fret": 3
        },
        {
          "id": 127,
          "duration": 0.21428571428571427,
          "midi": 40,
          "name": "E2",
          "time": 27.21428571428571,
          "velocity": 0.49606299212598426,
          "string": 6,
          "fret": 0
        },
        {
          "id": 128,
          "duration": 0.21428571428571427,
          "midi": 59,
          "name": "B3",
          "time": 27.428571428571427,
          "velocity": 0.49606299212598426,
          "string": 2,
          "fret": 0
        },
        {
          "id": 129,
          "duration": 0.21428571428571427,
          "midi": 40,
          "name": "E2",
          "time": 27.428571428571427,
          "velocity": 0.49606299212598426,
          "string": 6,
          "fret": 0
        },
        {
          "id": 130,
          "duration": 0.21428571428571427,
          "midi": 55,
          "name": "G3",
          "time": 27.642857142857142,
          "velocity": 0.49606299212598426,
          "string": 3,
          "fret": 0
        },
        {
          "id": 131,
          "duration": 0.21428571428571427,
          "midi": 40,
          "name": "E2",
          "time": 27.642857142857142,
          "velocity": 0.49606299212598426,
          "string": 6,
          "fret": 0
        },
        {
          "id": 132,
          "duration": 0.21428571428571427,
          "midi": 67,
          "name": "G4",
          "time": 27.857142857142854,
          "velocity": 0.49606299212598426,
          "string": 1,
          "fret": 3
        },
        {
          "id": 133,
          "duration": 0.21428571428571427,
          "midi": 40,
          "name": "E2",
          "time": 27.857142857142854,
          "velocity": 0.49606299212598426,
          "string": 6,
          "fret": 0
        },
        {
          "id": 134,
          "duration": 0.21428571428571427,
          "midi": 59,
          "name": "B3",
          "time": 28.07142857142857,
          "velocity": 0.49606299212598426,
          "string": 2,
          "fret": 0
        },
        {
          "id": 135,
          "duration": 0.21428571428571427,
          "midi": 40,
          "name": "E2",
          "time": 28.07142857142857,
          "velocity": 0.49606299212598426,
          "string": 6,
          "fret": 0
        },
        {
          "id": 136,
          "duration": 0.21428571428571427,
          "midi": 55,
          "name": "G3",
          "time": 28.285714285714285,
          "velocity": 0.49606299212598426,
          "string": 3,
          "fret": 0
        },
        {
          "id": 137,
          "duration": 0.21428571428571427,
          "midi": 40,
          "name": "E2",
          "time": 28.285714285714285,
          "velocity": 0.49606299212598426,
          "string": 6,
          "fret": 0
        },
        {
          "id": 138,
          "duration": 0.21428571428571427,
          "midi": 67,
          "name": "G4",
          "time": 28.5,
          "velocity": 0.49606299212598426,
          "string": 1,
          "fret": 3
        },
        {
          "id": 139,
          "duration": 0.21428571428571427,
          "midi": 40,
          "name": "E2",
          "time": 28.5,
          "velocity": 0.49606299212598426,
          "string": 6,
          "fret": 0
        },
        {
          "id": 140,
          "duration": 0.21428571428571427,
          "midi": 59,
          "name": "B3",
          "time": 28.71428571428571,
          "velocity": 0.49606299212598426,
          "string": 2,
          "fret": 0
        },
        {
          "id": 141,
          "duration": 0.21428571428571427,
          "midi": 40,
          "name": "E2",
          "time": 28.71428571428571,
          "velocity": 0.49606299212598426,
          "string": 6,
          "fret": 0
        },
        {
          "id": 142,
          "duration": 0.10714285714285714,
          "midi": 55,
          "name": "G3",
          "time": 28.928571428571427,
          "velocity": 0.49606299212598426,
          "string": 3,
          "fret": 0
        },
        {
          "id": 143,
          "duration": 0.10714285714285714,
          "midi": 40,
          "name": "E2",
          "time": 28.928571428571427,
          "velocity": 0.49606299212598426,
          "string": 6,
          "fret": 0
        },
        {
          "id": 144,
          "duration": 0.21428571428571427,
          "midi": 70,
          "name": "A#4",
          "time": 31.71428571428571,
          "velocity": 0.49606299212598426,
          "string": 1,
          "fret": 6
        },
        {
          "id": 145,
          "duration": 0.21428571428571427,
          "midi": 40,
          "name": "E2",
          "time": 31.71428571428571,
          "velocity": 0.49606299212598426,
          "string": 6,
          "fret": 0
        },
        {
          "id": 146,
          "duration": 0.21428571428571427,
          "midi": 59,
          "name": "B3",
          "time": 31.928571428571427,
          "velocity": 0.49606299212598426,
          "string": 2,
          "fret": 0
        },
        {
          "id": 147,
          "duration": 0.21428571428571427,
          "midi": 40,
          "name": "E2",
          "time": 31.928571428571427,
          "velocity": 0.49606299212598426,
          "string": 6,
          "fret": 0
        },
        {
          "id": 148,
          "duration": 0.21428571428571427,
          "midi": 55,
          "name": "G3",
          "time": 32.14285714285714,
          "velocity": 0.49606299212598426,
          "string": 3,
          "fret": 0
        },
        {
          "id": 149,
          "duration": 0.21428571428571427,
          "midi": 40,
          "name": "E2",
          "time": 32.14285714285714,
          "velocity": 0.49606299212598426,
          "string": 6,
          "fret": 0
        },
        {
          "id": 150,
          "duration": 0.21428571428571427,
          "midi": 69,
          "name": "A4",
          "time": 32.357142857142854,
          "velocity": 0.49606299212598426,
          "string": 1,
          "fret": 5
        },
        {
          "id": 151,
          "duration": 0.21428571428571427,
          "midi": 40,
          "name": "E2",
          "time": 32.357142857142854,
          "velocity": 0.49606299212598426,
          "string": 6,
          "fret": 0
        },
        {
          "id": 152,
          "duration": 0.21428571428571427,
          "midi": 59,
          "name": "B3",
          "time": 32.57142857142857,
          "velocity": 0.49606299212598426,
          "string": 2,
          "fret": 0
        },
        {
          "id": 153,
          "duration": 0.21428571428571427,
          "midi": 40,
          "name": "E2",
          "time": 32.57142857142857,
          "velocity": 0.49606299212598426,
          "string": 6,
          "fret": 0
        },
        {
          "id": 154,
          "duration": 0.21428571428571427,
          "midi": 55,
          "name": "G3",
          "time": 32.785714285714285,
          "velocity": 0.49606299212598426,
          "string": 3,
          "fret": 0
        },
        {
          "id": 155,
          "duration": 0.21428571428571427,
          "midi": 40,
          "name": "E2",
          "time": 32.785714285714285,
          "velocity": 0.49606299212598426,
          "string": 6,
          "fret": 0
        },
        {
          "id": 156,
          "duration": 0.21428571428571427,
          "midi": 67,
          "name": "G4",
          "time": 33.0,
          "velocity": 0.49606299212598426,
          "string": 1,
          "fret": 3
        },
        {
          "id": 157,
          "duration": 0.21428571428571427,
          "midi": 40,
          "name": "E2",
          "time": 33.0,
          "velocity": 0.49606299212598426,
          "string": 6,
          "fret": 0
        },
        {
          "id": 158,
          "duration": 0.21428571428571427,
          "midi": 59,
          "name": "B3",
          "time": 33.214285714285715,
          "velocity": 0.49606299212598426,
          "string": 2,
          "fret": 0
        },
        {
          "id": 159,
          "duration": 0.21428571428571427,
          "midi": 40,
          "name": "E2",
          "time": 33.214285714285715,
          "velocity": 0.49606299212598426,
          "string": 6,
          "fret": 0
        },
        {
          "id": 160,
          "duration": 0.21428571428571427,
          "midi": 55,
          "name": "G3",
          "time": 33.42857142857142,
          "velocity": 0.49606299212598426,
          "string": 3,
          "fret": 0
        },
        {
          "id": 161,
          "duration": 0.21428571428571427,
          "midi": 40,
          "name": "E2",
          "time": 33.42857142857142,
          "velocity": 0.49606299212598426,
          "string": 6,
          "fret": 0
        },
        {
          "id": 162,
          "duration": 0.21428571428571427,
          "midi": 64,
          "name": "E4",
          "time": 33.64285714285714,
          "velocity": 0.49606299212598426,
          "string": 1,
          "fret": 0
        },
        {
          "id": 163,
          "duration": 0.21428571428571427,
          "midi": 40,
          "name": "E2",
          "time": 33.64285714285714,
          "velocity": 0.49606299212598426,
          "string": 6,
          "fret": 0
        },
        {
          "id": 164,
          "duration": 0.21428571428571427,
          "midi": 59,
          "name": "B3",
          "time": 33.857142857142854,
          "velocity": 0.49606299212598426,
          "string": 2,
          "fret": 0
        },
        {
          "id": 165,
          "duration": 0.21428571428571427,
          "midi": 40,
          "name": "E2",
          "time": 33.857142857142854,
          "velocity": 0.49606299212598426,
          "string": 6,
          "fret": 0
        },
        {
          "id": 166,
          "duration": 0.10714285714285714,
          "midi": 62,
          "name": "D4",
          "time": 34.07142857142857,
          "velocity": 0.49606299212598426,
          "string": 2,
          "fret": 3
        },
        {
          "id": 167,
          "duration": 0.10714285714285714,
          "midi": 40,
          "name": "E2",
          "time": 34.07142857142857,
          "velocity": 0.49606299212598426,
          "string": 6,
          "fret": 0
        },
        {
          "id": 168,
          "duration": 0.21428571428571427,
          "midi": 64,
          "name": "E4",
          "time": 36.857142857142854,
          "velocity": 0.49606299212598426,
          "string": 1,
          "fret": 0
        },
        {
          "id": 169,
          "duration": 0.21428571428571427,
          "midi": 40,
          "name": "E2",
          "time": 36.857142857142854,
          "velocity": 0.49606299212598426,
          "string": 6,
          "fret": 0
        },
        {
          "id": 170,
          "duration": 0.21428571428571427,
          "midi": 59,
          "name": "B3",
          "time": 37.07142857142857,
          "velocity": 0.49606299212598426,
          "string": 2,
          "fret": 0
        },
        {
          "id": 171,
          "duration": 0.21428571428571427,
          "midi": 40,
          "name": "E2",
          "time": 37.07142857142857,
          "velocity": 0.49606299212598426,
          "string": 6,
          "fret": 0
        },
        {
          "id": 172,
          "duration": 0.21428571428571427,
          "midi": 55,
          "name": "G3",
          "time": 37.285714285714285,
          "velocity": 0.49606299212598426,
          "string": 3,
          "fret": 0
        },
        {
          "id": 173,
          "duration": 0.21428571428571427,
          "midi": 40,
          "name": "E2",
          "time": 37.285714285714285,
          "velocity": 0.49606299212598426,
          "string": 6,
          "fret": 0
        },
        {
          "id": 174,
          "duration": 0.21428571428571427,
          "midi": 64,
          "name": "E4",
          "time": 37.5,
          "velocity": 0.49606299212598426,
          "string": 1,
          "fret": 0
        },
        {
          "id": 175,
          "duration": 0.21428571428571427,
          "midi": 40,
          "name": "E2",
          "time": 37.5,
          "velocity": 0.49606299212598426,
          "string": 6,
          "fret": 0
        },
        {
          "id": 176,
          "duration": 0.21428571428571427,
          "midi": 59,
          "name": "B3",
          "time": 37.714285714285715,
          "velocity": 0.49606299212598426,
          "string": 2,
          "fret": 0
        },
        {
          "id": 177,
          "duration": 0.21428571428571427,
          "midi": 40,
          "name": "E2",
          "time": 37.714285714285715,
          "velocity": 0.49606299212598426,
          "string": 6,
          "fret": 0
        },
        {
          "id": 178,
          "duration": 0.21428571428571427,
          "midi": 55,
          "name": "G3",
          "time": 37.92857142857142,
          "velocity": 0.49606299212598426,
          "string": 3,
          "fret": 0
        },
        {
          "id": 179,
          "duration": 0.21428571428571427,
          "midi": 40,
          "name": "E2",
          "time": 37.92857142857142,
          "velocity": 0.49606299212598426,
          "string": 6,
          "fret": 0
        },
        {
          "id": 180,
          "duration": 0.21428571428571427,
          "midi": 64,
          "name": "E4",
          "time": 38.14285714285714,
          "velocity": 0.49606299212598426,
          "string": 1,
          "fret": 0
        },
        {
          "id": 181,
          "duration": 0.21428571428571427,
          "midi": 40,
          "name": "E2",
          "time": 38.14285714285714,
          "velocity": 0.49606299212598426,
          "string": 6,
          "fret": 0
        },
        {
          "id": 182,
          "duration": 0.21428571428571427,
          "midi": 59,
          "name": "B3",
          "time": 38.357142857142854,
          "velocity": 0.49606299212598426,
          "string": 2,
          "fret": 0
        },
        {
          "id": 183,
          "duration": 0.21428571428571427,
          "midi": 40,
          "name": "E2",
          "time": 38.357142857142854,
          "velocity": 0.49606299212598426,
          "string": 6,
          "fret": 0
        },
        {
          "id": 184,
          "duration": 0.21428571428571427,
          "midi": 55,
          "name": "G3",
          "time": 38.57142857142857,
          "velocity": 0.49606299212598426,
          "string": 3,
          "fret": 0
        },
        {
          "id": 185,
          "duration": 0.21428571428571427,
          "midi": 40,
          "name": "E2",
          "time": 38.57142857142857,
          "velocity": 0.49606299212598426,
          "string": 6,
          "fret": 0
        },
        {
          "id": 186,
          "duration": 0.21428571428571427,
          "midi": 64,
          "name": "E4",
          "time": 38.785714285714285,
          "velocity": 0.49606299212598426,
          "string": 1,
          "fret": 0
        },
        {
          "id": 187,
          "duration": 0.21428571428571427,
          "midi": 40,
          "name": "E2",
          "time": 38.785714285714285,
          "velocity": 0.49606299212598426,
          "string": 6,
          "fret": 0
        },
        {
          "id": 188,
          "duration": 0.21428571428571427,
          "midi": 59,
          "name": "B3",
          "time": 39.0,
          "velocity": 0.49606299212598426,
          "string": 2,
          "fret": 0
        },
        {
          "id": 189,
          "duration": 0.21428571428571427,
          "midi": 40,
          "name": "E2",
          "time": 39.0,
          "velocity": 0.49606299212598426,
          "string": 6,
          "fret": 0
        },
        {
          "id": 190,
          "duration": 0.10714285714285714,
          "midi": 55,
          "name": "G3",
          "time": 39.214285714285715,
          "velocity": 0.49606299212598426,
          "string": 3,
          "fret": 0
        },
        {
          "id": 191,
          "duration": 0.10714285714285714,
          "midi": 40,
          "name": "E2",
          "time": 39.214285714285715,
          "velocity": 0.49606299212598426,
          "string": 6,
          "fret": 0
        },
        {
          "id": 192,
          "duration": 0.21428571428571427,
          "midi": 74,
          "name": "D5",
          "time": 42.0,
          "velocity": 0.49606299212598426,
          "string": 1,
          "fret": 10
        },
        {
          "id": 193,
          "duration": 0.21428571428571427,
          "midi": 40,
          "name": "E2",
          "time": 42.0,
          "velocity": 0.49606299212598426,
          "string": 6,
          "fret": 0
        },
        {
          "id": 194,
          "duration": 0.21428571428571427,
          "midi": 59,
          "name": "B3",
          "time": 42.214285714285715,
          "velocity": 0.49606299212598426,
          "string": 2,
          "fret": 0
        },
        {
          "id": 195,
          "duration": 0.21428571428571427,
          "midi": 40,
          "name": "E2",
          "time": 42.214285714285715,
          "velocity": 0.49606299212598426,
          "string": 6,
          "fret": 0
        },
        {
          "id": 196,
          "duration": 0.21428571428571427,
          "midi": 55,
          "name": "G3",
          "time": 42.42857142857142,
          "velocity": 0.49606299212598426,
          "string": 3,
          "fret": 0
        },
        {
          "id": 197,
          "duration": 0.21428571428571427,
          "midi": 40,
          "name": "E2",
          "time": 42.42857142857142,
          "velocity": 0.49606299212598426,
          "string": 6,
          "fret": 0
        },
        {
          "id": 198,
          "duration": 0.21428571428571427,
          "midi": 74,
          "name": "D5",
          "time": 42.64285714285714,
          "velocity": 0.49606299212598426,
          "string": 1,
          "fret": 10
        },
        {
          "id": 199,
          "duration": 0.21428571428571427,
          "midi": 40,
          "name": "E2",
          "time": 42.64285714285714,
          "velocity": 0.49606299212598426,
          "string": 6,
          "fret": 0
        },
        {
          "id": 200,
          "duration": 0.21428571428571427,
          "midi": 59,
          "name": "B3",
          "time": 42.857142857142854,
          "velocity": 0.49606299212598426,
          "string": 2,
          "fret": 0
        },
        {
          "id": 201,
          "duration": 0.21428571428571427,
          "midi": 40,
          "name": "E2",
          "time": 42.857142857142854,
          "velocity": 0.49606299212598426,
          "string": 6,
          "fret": 0
        },
        {
          "id": 202,
          "duration": 0.21428571428571427,
          "midi": 55,
          "name": "G3",
          "time": 43.07142857142857,
          "velocity": 0.49606299212598426,
          "string": 3,
          "fret": 0
        },
        {
          "id": 203,
          "duration": 0.21428571428571427,
          "midi": 40,
          "name": "E2",
          "time": 43.07142857142857,
          "velocity": 0.49606299212598426,
          "string": 6,
          "fret": 0
        },
        {
          "id": 204,
          "duration": 0.21428571428571427,
          "midi": 74,
          "name": "D5",
          "time": 43.285714285714285,
          "velocity": 0.49606299212598426,
          "string": 1,
          "fret": 10
        },
        {
          "id": 205,
          "duration": 0.21428571428571427,
          "midi": 40,
          "name": "E2",
          "time": 43.285714285714285,
          "velocity": 0.49606299212598426,
          "string": 6,
          "fret": 0
        },
        {
          "id": 206,
          "duration": 0.21428571428571427,
          "midi": 59,
          "name": "B3",
          "time": 43.5,
          "velocity": 0.49606299212598426,
          "string": 2,
          "fret": 0
        },
        {
          "id": 207,
          "duration": 0.21428571428571427,
          "midi": 40,
          "name": "E2",
          "time": 43.5,
          "velocity": 0.49606299212598426,
          "string": 6,
          "fret": 0
        },
        {
          "id": 208,
          "duration": 0.21428571428571427,
          "midi": 55,
          "name": "G3",
          "time": 43.714285714285715,
          "velocity": 0.49606299212598426,
          "string": 3,
          "fret": 0
        },
        {
          "id": 209,
          "duration": 0.21428571428571427,
          "midi": 40,
          "name": "E2",
          "time": 43.714285714285715,
          "velocity": 0.49606299212598426,
          "string": 6,
          "fret": 0
        },
        {
          "id": 210,
          "duration": 0.21428571428571427,
          "midi": 74,
          "name": "D5",
          "time": 43.92857142857142,
          "velocity": 0.49606299212598426,
          "string": 1,
          "fret": 10
        },
        {
          "id": 211,
          "duration": 0.21428571428571427,
          "midi": 40,
          "name": "E2",
          "time": 43.92857142857142,
          "velocity": 0.49606299212598426,
          "string": 6,
          "fret": 0
        },
        {
          "id": 212,
          "duration": 0.21428571428571427,
          "midi": 59,
          "name": "B3",
          "time": 44.14285714285714,
          "velocity": 0.49606299212598426,
          "string": 2,
          "fret": 0
        },
        {
          "id": 213,
          "duration": 0.21428571428571427,
          "midi": 40,
          "name": "E2",
          "time": 44.14285714285714,
          "velocity": 0.49606299212598426,
          "string": 6,
          "fret": 0
        },
        {
          "id": 214,
          "duration": 0.10714285714285714,
          "midi": 55,
          "name": "G3",
          "time": 44.357142857142854,
          "velocity": 0.49606299212598426,
          "string": 3,
          "fret": 0
        },
        {
          "id": 215,
          "duration": 0.10714285714285714,
          "midi": 40,
          "name": "E2",
          "time": 44.357142857142854,
          "velocity": 0.49606299212598426,
          "string": 6,
          "fret": 0
        },
        {
          "id": 216,
          "duration": 0.21428571428571427,
          "midi": 73,
          "name": "C#5",
          "time": 47.14285714285714,
          "velocity": 0.49606299212598426,
          "string": 1,
          "fret": 9
        },
        {
          "id": 217,
          "duration": 0.21428571428571427,
          "midi": 45,
          "name": "A2",
          "time": 47.14285714285714,
          "velocity": 0.49606299212598426,
          "string": 5,
          "fret": 0
        },
        {
          "id": 218,
          "duration": 0.21428571428571427,
          "midi": 59,
          "name": "B3",
          "time": 47.357142857142854,
          "velocity": 0.49606299212598426,
          "string": 2,
          "fret": 0
        },
        {
          "id": 219,
          "duration": 0.21428571428571427,
          "midi": 45,
          "name": "A2",
          "time": 47.357142857142854,
          "velocity": 0.49606299212598426,
          "string": 5,
          "fret": 0
        },
        {
          "id": 220,
          "duration": 0.21428571428571427,
          "midi": 55,
          "name": "G3",
          "time": 47.57142857142857,
          "velocity": 0.49606299212598426,
          "string": 3,
          "fret": 0
        },
        {
          "id": 221,
          "duration": 0.21428571428571427,
          "midi": 45,
          "name": "A2",
          "time": 47.57142857142857,
          "velocity": 0.49606299212598426,
          "string": 5,
          "fret": 0
        },
        {
          "id": 222,
          "duration": 0.21428571428571427,
          "midi": 73,
          "name": "C#5",
          "time": 47.785714285714285,
          "velocity": 0.49606299212598426,
          "string": 1,
          "fret": 9
        },
        {
          "id": 223,
          "duration": 0.21428571428571427,
          "midi": 45,
          "name": "A2",
          "time": 47.785714285714285,
          "velocity": 0.49606299212598426,
          "string": 5,
          "fret": 0
        },
        {
          "id": 224,
          "duration": 0.21428571428571427,
          "midi": 59,
          "name": "B3",
          "time": 48.0,
          "velocity": 0.49606299212598426,
          "string": 2,
          "fret": 0
        },
        {
          "id": 225,
          "duration": 0.21428571428571427,
          "midi": 45,
          "name": "A2",
          "time": 48.0,
          "velocity": 0.49606299212598426,
          "string": 5,
          "fret": 0
        },
        {
          "id": 226,
          "duration": 0.21428571428571427,
          "midi": 55,
          "name": "G3",
          "time": 48.21428571428571,
          "velocity": 0.49606299212598426,
          "string": 3,
          "fret": 0
        },
        {
          "id": 227,
          "duration": 0.21428571428571427,
          "midi": 45,
          "name": "A2",
          "time": 48.21428571428571,
          "velocity": 0.49606299212598426,
          "string": 5,
          "fret": 0
        },
        {
          "id": 228,
          "duration": 0.21428571428571427,
          "midi": 73,
          "name": "C#5",
          "time": 48.42857142857142,
          "velocity": 0.49606299212598426,
          "string": 1,
          "fret": 9
        },
        {
          "id": 229,
          "duration": 0.21428571428571427,
          "midi": 45,
          "name": "A2",
          "time": 48.42857142857142,
          "velocity": 0.49606299212598426,
          "string": 5,
          "fret": 0
        },
        {
          "id": 230,
          "duration": 0.21428571428571427,
          "midi": 59,
          "name": "B3",
          "time": 48.64285714285714,
          "velocity": 0.49606299212598426,
          "string": 2,
          "fret": 0
        },
        {
          "id": 231,
          "duration": 0.21428571428571427,
          "midi": 45,
          "name": "A2",
          "time": 48.64285714285714,
          "velocity": 0.49606299212598426,
          "string": 5,
          "fret": 0
        },
        {
          "id": 232,
          "duration": 0.21428571428571427,
          "midi": 55,
          "name": "G3",
          "time": 48.857142857142854,
          "velocity": 0.49606299212598426,
          "string": 3,
          "fret": 0
        },
        {
          "id": 233,
          "duration": 0.21428571428571427,
          "midi": 45,
          "name": "A2",
          "time": 48.857142857142854,
          "velocity": 0.49606299212598426,
          "string": 5,
          "fret": 0
        },
        {
          "id": 234,
          "duration": 0.21428571428571427,
          "midi": 73,
          "name": "C#5",
          "time": 49.07142857142857,
          "velocity": 0.49606299212598426,
          "string": 1,
          "fret": 9
        },
        {
          "id": 235,
          "duration": 0.21428571428571427,
          "midi": 45,
          "name": "A2",
          "time": 49.07142857142857,
          "velocity": 0.49606299212598426,
          "string": 5,
          "fret": 0
        },
        {
          "id": 236,
          "duration": 0.21428571428571427,
          "midi": 59,
          "name": "B3",
          "time": 49.285714285714285,
          "velocity": 0.49606299212598426,
          "string": 2,
          "fret": 0
        },
        {
          "id": 237,
          "duration": 0.21428571428571427,
          "midi": 45,
          "name": "A2",
          "time": 49.285714285714285,
          "velocity": 0.49606299212598426,
          "string": 5,
          "fret": 0
        },
        {
          "id": 238,
          "duration": 0.10714285714285714,
          "midi": 55,
          "name": "G3",
          "time": 49.5,
          "velocity": 0.49606299212598426,
          "string": 3,
          "fret": 0
        },
        {
          "id": 239,
          "duration": 0.10714285714285714,
          "midi": 45,
          "name": "A2",
          "time": 49.5,
          "velocity": 0.49606299212598426,
          "string": 5,
          "fret": 0
        },
        {
          "id": 240,
          "duration": 0.21428571428571427,
          "midi": 72,
          "name": "C5",
          "time": 52.285714285714285,
          "velocity": 0.49606299212598426,
          "string": 1,
          "fret": 8
        },
        {
          "id": 241,
          "duration": 0.21428571428571427,
          "midi": 45,
          "name": "A2",
          "time": 52.285714285714285,
          "velocity": 0.49606299212598426,
          "string": 5,
          "fret": 0
        },
        {
          "id": 242,
          "duration": 0.21428571428571427,
          "midi": 59,
          "name": "B3",
          "time": 52.5,
          "velocity": 0.49606299212598426,
          "string": 2,
          "fret": 0
        },
        {
          "id": 243,
          "duration": 0.21428571428571427,
          "midi": 45,
          "name": "A2",
          "time": 52.5,
          "velocity": 0.49606299212598426,
          "string": 5,
          "fret": 0
        },
        {
          "id": 244,
          "duration": 0.21428571428571427,
          "midi": 55,
          "name": "G3",
          "time": 52.71428571428571,
          "velocity": 0.49606299212598426,
          "string": 3,
          "fret": 0
        },
        {
          "id": 245,
          "duration": 0.21428571428571427,
          "midi": 45,
          "name": "A2",
          "time": 52.71428571428571,
          "velocity": 0.49606299212598426,
          "string": 5,
          "fret": 0
        },
        {
          "id": 246,
          "duration": 0.21428571428571427,
          "midi": 72,
          "name": "C5",
          "time": 52.92857142857142,
          "velocity": 0.49606299212598426,
          "string": 1,
          "fret": 8
        },
        {
          "id": 247,
          "duration": 0.21428571428571427,
          "midi": 45,
          "name": "A2",
          "time": 52.92857142857142,
          "velocity": 0.49606299212598426,
          "string": 5,
          "fret": 0
        },
        {
          "id": 248,
          "duration": 0.21428571428571427,
          "midi": 59,
          "name": "B3",
          "time": 53.14285714285714,
          "velocity": 0.49606299212598426,
          "string": 2,
          "fret": 0
        },
        {
          "id": 249,
          "duration": 0.21428571428571427,
          "midi": 45,
          "name": "A2",
          "time": 53.14285714285714,
          "velocity": 0.49606299212598426,
          "string": 5,
          "fret": 0
        },
        {
          "id": 250,
          "duration": 0.21428571428571427,
          "midi": 55,
          "name": "G3",
          "time": 53.357142857142854,
          "velocity": 0.49606299212598426,
          "string": 3,
          "fret": 0
        },
        {
          "id": 251,
          "duration": 0.21428571428571427,
          "midi": 45,
          "name": "A2",
          "time": 53.357142857142854,
          "velocity": 0.49606299212598426,
          "string": 5,
          "fret": 0
        },
        {
          "id": 252,
          "duration": 0.21428571428571427,
          "midi": 72,
          "name": "C5",
          "time": 53.57142857142857,
          "velocity": 0.49606299212598426,
          "string": 1,
          "fret": 8
        },
        {
          "id": 253,
          "duration": 0.21428571428571427,
          "midi": 45,
          "name": "A2",
          "time": 53.57142857142857,
          "velocity": 0.49606299212598426,
          "string": 5,
          "fret": 0
        },
        {
          "id": 254,
          "duration": 0.21428571428571427,
          "midi": 59,
          "name": "B3",
          "time": 53.785714285714285,
          "velocity": 0.49606299212598426,
          "string": 2,
          "fret": 0
        },
        {
          "id": 255,
          "duration": 0.21428571428571427,
          "midi": 45,
          "name": "A2",
          "time": 53.785714285714285,
          "velocity": 0.49606299212598426,
          "string": 5,
          "fret": 0
        },
        {
          "id": 256,
          "duration": 0.21428571428571427,
          "midi": 55,
          "name": "G3",
          "time": 54.0,
          "velocity": 0.49606299212598426,
          "string": 3,
          "fret": 0
        },
        {
          "id": 257,
          "duration": 0.21428571428571427,
          "midi": 45,
          "name": "A2",
          "time": 54.0,
          "velocity": 0.49606299212598426,
          "string": 5,
          "fret": 0
        },
        {
          "id": 258,
          "duration": 0.21428571428571427,
          "midi": 72,
          "name": "C5",
          "time": 54.21428571428571,
          "velocity": 0.49606299212598426,
          "string": 1,
          "fret": 8
        },
        {
          "id": 259,
          "duration": 0.21428571428571427,
          "midi": 45,
          "name": "A2",
          "time": 54.21428571428571,
          "velocity": 0.49606299212598426,
          "string": 5,
          "fret": 0
        },
        {
          "id": 260,
          "duration": 0.21428571428571427,
          "midi": 59,
          "name": "B3",
          "time": 54.42857142857142,
          "velocity": 0.49606299212598426,
          "string": 2,
          "fret": 0
        },
        {
          "id": 261,
          "duration": 0.21428571428571427,
          "midi": 45,
          "name": "A2",
          "time": 54.42857142857142,
          "velocity": 0.49606299212598426,
          "string": 5,
          "fret": 0
        },
        {
          "id": 262,
          "duration": 0.10714285714285714,
          "midi": 55,
          "name": "G3",
          "time": 54.64285714285714,
          "velocity": 0.49606299212598426,
          "string": 3,
          "fret": 0
        },
        {
          "id": 263,
          "duration": 0.10714285714285714,
          "midi": 45,
          "name": "A2",
          "time": 54.64285714285714,
          "velocity": 0.49606299212598426,
          "string": 5,
          "fret": 0
        },
        {
          "id": 264,
          "duration": 0.21428571428571427,
          "midi": 71,
          "name": "B4",
          "time": 57.42857142857142,
          "velocity": 0.49606299212598426,
          "string": 1,
          "fret": 7
        },
        {
          "id": 265,
          "duration": 0.21428571428571427,
          "midi": 40,
          "name": "E2",
          "time": 57.42857142857142,
          "velocity": 0.49606299212598426,
          "string": 6,
          "fret": 0
        },
        {
          "id": 266,
          "duration": 0.21428571428571427,
          "midi": 59,
          "name": "B3",
          "time": 57.64285714285714,
          "velocity": 0.49606299212598426,
          "string": 2,
          "fret": 0
        },
        {
          "id": 267,
          "duration": 0.21428571428571427,
          "midi": 40,
          "name": "E2",
          "time": 57.64285714285714,
          "velocity": 0.49606299212598426,
          "string": 6,
          "fret": 0
        },
        {
          "id": 268,
          "duration": 0.21428571428571427,
          "midi": 55,
          "name": "G3",
          "time": 57.857142857142854,
          "velocity": 0.49606299212598426,
          "string": 3,
          "fret": 0
        },
        {
          "id": 269,
          "duration": 0.21428571428571427,
          "midi": 40,
          "name": "E2",
          "time": 57.857142857142854,
          "velocity": 0.49606299212598426,
          "string": 6,
          "fret": 0
        },
        {
          "id": 270,
          "duration": 0.21428571428571427,
          "midi": 71,
          "name": "B4",
          "time": 58.07142857142857,
          "velocity": 0.49606299212598426,
          "string": 1,
          "fret": 7
        },
        {
          "id": 271,
          "duration": 0.21428571428571427,
          "midi": 40,
          "name": "E2",
          "time": 58.07142857142857,
          "velocity": 0.49606299212598426,
          "string": 6,
          "fret": 0
        },
        {
          "id": 272,
          "duration": 0.21428571428571427,
          "midi": 59,
          "name": "B3",
          "time": 58.285714285714285,
          "velocity": 0.49606299212598426,
          "string": 2,
          "fret": 0
        },
        {
          "id": 273,
          "duration": 0.21428571428571427,
          "midi": 40,
          "name": "E2",
          "time": 58.285714285714285,
          "velocity": 0.49606299212598426,
          "string": 6,
          "fret": 0
        },
        {
          "id": 274,
          "duration": 0.21428571428571427,
          "midi": 55,
          "name": "G3",
          "time": 58.5,
          "velocity": 0.49606299212598426,
          "string": 3,
          "fret": 0
        },
        {
          "id": 275,
          "duration": 0.21428571428571427,
          "midi": 40,
          "name": "E2",
          "time": 58.5,
          "velocity": 0.49606299212598426,
          "string": 6,
          "fret": 0
        },
        {
          "id": 276,
          "duration": 0.21428571428571427,
          "midi": 71,
          "name": "B4",
          "time": 58.71428571428571,
          "velocity": 0.49606299212598426,
          "string": 1,
          "fret": 7
        },
        {
          "id": 277,
          "duration": 0.21428571428571427,
          "midi": 40,
          "name": "E2",
          "time": 58.71428571428571,
          "velocity": 0.49606299212598426,
          "string": 6,
          "fret": 0
        },
        {
          "id": 278,
          "duration": 0.21428571428571427,
          "midi": 59,
          "name": "B3",
          "time": 58.92857142857142,
          "velocity": 0.49606299212598426,
          "string": 2,
          "fret": 0
        },
        {
          "id": 279,
          "duration": 0.21428571428571427,
          "midi": 40,
          "name": "E2",
          "time": 58.92857142857142,
          "velocity": 0.49606299212598426,
          "string": 6,
          "fret": 0
        },
        {
          "id": 280,
          "duration": 0.21428571428571427,
          "midi": 55,
          "name": "G3",
          "time": 59.14285714285714,
          "velocity": 0.49606299212598426,
          "string": 3,
          "fret": 0
        },
        {
          "id": 281,
          "duration": 0.21428571428571427,
          "midi": 40,
          "name": "E2",
          "time": 59.14285714285714,
          "velocity": 0.49606299212598426,
          "string": 6,
          "fret": 0
        },
        {
          "id": 282,
          "duration": 0.21428571428571427,
          "midi": 71,
          "name": "B4",
          "time": 59.357142857142854,
          "velocity": 0.49606299212598426,
          "string": 1,
          "fret": 7
        },
        {
          "id": 283,
          "duration": 0.21428571428571427,
          "midi": 40,
          "name": "E2",
          "time": 59.357142857142854,
          "velocity": 0.49606299212598426,
          "string": 6,
          "fret": 0
        },
        {
          "id": 284,
          "duration": 0.21428571428571427,
          "midi": 59,
          "name": "B3",
          "time": 59.57142857142857,
          "velocity": 0.49606299212598426,
          "string": 2,
          "fret": 0
        },
        {
          "id": 285,
          "duration": 0.21428571428571427,
          "midi": 40,
          "name": "E2",
          "time": 59.57142857142857,
          "velocity": 0.49606299212598426,
          "string": 6,
          "fret": 0
        },
        {
          "id": 286,
          "duration": 0.10714285714285714,
          "midi": 55,
          "name": "G3",
          "time": 59.785714285714285,
          "velocity": 0.49606299212598426,
          "string": 3,
          "fret": 0
        },
        {
          "id": 287,
          "duration": 0.10714285714285714,
          "midi": 40,
          "name": "E2",
          "time": 59.785714285714285,
          "velocity": 0.49606299212598426,
          "string": 6,
          "fret": 0
        },
        {
          "id": 288,
          "duration": 0.21428571428571427,
          "midi": 74,
          "name": "D5",
          "time": 62.57142857142857,
          "velocity": 0.49606299212598426,
          "string": 1,
          "fret": 10
        },
        {
          "id": 289,
          "duration": 0.21428571428571427,
          "midi": 40,
          "name": "E2",
          "time": 62.57142857142857,
          "velocity": 0.49606299212598426,
          "string": 6,
          "fret": 0
        },
        {
          "id": 290,
          "duration": 0.21428571428571427,
          "midi": 59,
          "name": "B3",
          "time": 62.785714285714285,
          "velocity": 0.49606299212598426,
          "string": 2,
          "fret": 0
        },
        {
          "id": 291,
          "duration": 0.21428571428571427,
          "midi": 40,
          "name": "E2",
          "time": 62.785714285714285,
          "velocity": 0.49606299212598426,
          "string": 6,
          "fret": 0
        },
        {
          "id": 292,
          "duration": 0.21428571428571427,
          "midi": 55,
          "name": "G3",
          "time": 63.0,
          "velocity": 0.49606299212598426,
          "string": 3,
          "fret": 0
        },
        {
          "id": 293,
          "duration": 0.21428571428571427,
          "midi": 40,
          "name": "E2",
          "time": 63.0,
          "velocity": 0.49606299212598426,
          "string": 6,
          "fret": 0
        },
        {
          "id": 294,
          "duration": 0.21428571428571427,
          "midi": 74,
          "name": "D5",
          "time": 63.21428571428571,
          "velocity": 0.49606299212598426,
          "string": 1,
          "fret": 10
        },
        {
          "id": 295,
          "duration": 0.21428571428571427,
          "midi": 40,
          "name": "E2",
          "time": 63.21428571428571,
          "velocity": 0.49606299212598426,
          "string": 6,
          "fret": 0
        },
        {
          "id": 296,
          "duration": 0.21428571428571427,
          "midi": 59,
          "name": "B3",
          "time": 63.42857142857142,
          "velocity": 0.49606299212598426,
          "string": 2,
          "fret": 0
        },
        {
          "id": 297,
          "duration": 0.21428571428571427,
          "midi": 40,
          "name": "E2",
          "time": 63.42857142857142,
          "velocity": 0.49606299212598426,
          "string": 6,
          "fret": 0
        },
        {
          "id": 298,
          "duration": 0.21428571428571427,
          "midi": 55,
          "name": "G3",
          "time": 63.64285714285714,
          "velocity": 0.49606299212598426,
          "string": 3,
          "fret": 0
        },
        {
          "id": 299,
          "duration": 0.21428571428571427,
          "midi": 40,
          "name": "E2",
          "time": 63.64285714285714,
          "velocity": 0.49606299212598426,
          "string": 6,
          "fret": 0
        },
        {
          "id": 300,
          "duration": 0.21428571428571427,
          "midi": 74,
          "name": "D5",
          "time": 63.857142857142854,
          "velocity": 0.49606299212598426,
          "string": 1,
          "fret": 10
        },
        {
          "id": 301,
          "duration": 0.21428571428571427,
          "midi": 40,
          "name": "E2",
          "time": 63.857142857142854,
          "velocity": 0.49606299212598426,
          "string": 6,
          "fret": 0
        },
        {
          "id": 302,
          "duration": 0.21428571428571427,
          "midi": 59,
          "name": "B3",
          "time": 64.07142857142857,
          "velocity": 0.49606299212598426,
          "string": 2,
          "fret": 0
        },
        {
          "id": 303,
          "duration": 0.21428571428571427,
          "midi": 40,
          "name": "E2",
          "time": 64.07142857142857,
          "velocity": 0.49606299212598426,
          "string": 6,
          "fret": 0
        },
        {
          "id": 304,
          "duration": 0.21428571428571427,
          "midi": 55,
          "name": "G3",
          "time": 64.28571428571428,
          "velocity": 0.49606299212598426,
          "string": 3,
          "fret": 0
        },
        {
          "id": 305,
          "duration": 0.21428571428571427,
          "midi": 40,
          "name": "E2",
          "time": 64.28571428571428,
          "velocity": 0.49606299212598426,
          "string": 6,
          "fret": 0
        },
        {
          "id": 306,
          "duration": 0.21428571428571427,
          "midi": 74,
          "name": "D5",
          "time": 64.5,
          "velocity": 0.49606299212598426,
          "string": 1,
          "fret": 10
        },
        {
          "id": 307,
          "duration": 0.21428571428571427,
          "midi": 40,
          "name": "E2",
          "time": 64.5,
          "velocity": 0.49606299212598426,
          "string": 6,
          "fret": 0
        },
        {
          "id": 308,
          "duration": 0.21428571428571427,
          "midi": 59,
          "name": "B3",
          "time": 64.71428571428571,
          "velocity": 0.49606299212598426,
          "string": 2,
          "fret": 0
        },
        {
          "id": 309,
          "duration": 0.21428571428571427,
          "midi": 40,
          "name": "E2",
          "time": 64.71428571428571,
          "velocity": 0.49606299212598426,
          "string": 6,
          "fret": 0
        },
        {
          "id": 310,
          "duration": 0.10714285714285714,
          "midi": 55,
          "name": "G3",
          "time": 64.92857142857143,
          "velocity": 0.49606299212598426,
          "string": 3,
          "fret": 0
        },
        {
          "id": 311,
          "duration": 0.10714285714285714,
          "midi": 40,
          "name": "E2",
          "time": 64.92857142857143,
          "velocity": 0.49606299212598426,
          "string": 6,
          "fret": 0
        },
        {
          "id": 312,
          "duration": 0.21428571428571427,
          "midi": 73,
          "name": "C#5",
          "time": 67.71428571428571,
          "velocity": 0.49606299212598426,
          "string": 1,
          "fret": 9
        },
        {
          "id": 313,
          "duration": 0.21428571428571427,
          "midi": 45,
          "name": "A2",
          "time": 67.71428571428571,
          "velocity": 0.49606299212598426,
          "string": 5,
          "fret": 0
        },
        {
          "id": 314,
          "duration": 0.21428571428571427,
          "midi": 59,
          "name": "B3",
          "time": 67.92857142857143,
          "velocity": 0.49606299212598426,
          "string": 2,
          "fret": 0
        },
        {
          "id": 315,
          "duration": 0.21428571428571427,
          "midi": 45,
          "name": "A2",
          "time": 67.92857142857143,
          "velocity": 0.49606299212598426,
          "string": 5,
          "fret": 0
        },
        {
          "id": 316,
          "duration": 0.21428571428571427,
          "midi": 55,
          "name": "G3",
          "time": 68.14285714285714,
          "velocity": 0.49606299212598426,
          "string": 3,
          "fret": 0
        },
        {
          "id": 317,
          "duration": 0.21428571428571427,
          "midi": 45,
          "name": "A2",
          "time": 68.14285714285714,
          "velocity": 0.49606299212598426,
          "string": 5,
          "fret": 0
        },
        {
          "id": 318,
          "duration": 0.21428571428571427,
          "midi": 73,
          "name": "C#5",
          "time": 68.35714285714285,
          "velocity": 0.49606299212598426,
          "string": 1,
          "fret": 9
        },
        {
          "id": 319,
          "duration": 0.21428571428571427,
          "midi": 45,
          "name": "A2",
          "time": 68.35714285714285,
          "velocity": 0.49606299212598426,
          "string": 5,
          "fret": 0
        },
        {
          "id": 320,
          "duration": 0.21428571428571427,
          "midi": 59,
          "name": "B3",
          "time": 68.57142857142857,
          "velocity": 0.49606299212598426,
          "string": 2,
          "fret": 0
        },
        {
          "id": 321,
          "duration": 0.21428571428571427,
          "midi": 45,
          "name": "A2",
          "time": 68.57142857142857,
          "velocity": 0.49606299212598426,
          "string": 5,
          "fret": 0
        },
        {
          "id": 322,
          "duration": 0.21428571428571427,
          "midi": 55,
          "name": "G3",
          "time": 68.78571428571428,
          "velocity": 0.49606299212598426,
          "string": 3,
          "fret": 0
        },
        {
          "id": 323,
          "duration": 0.21428571428571427,
          "midi": 45,
          "name": "A2",
          "time": 68.78571428571428,
          "velocity": 0.49606299212598426,
          "string": 5,
          "fret": 0
        },
        {
          "id": 324,
          "duration": 0.21428571428571427,
          "midi": 73,
          "name": "C#5",
          "time": 69.0,
          "velocity": 0.49606299212598426,
          "string": 1,
          "fret": 9
        },
        {
          "id": 325,
          "duration": 0.21428571428571427,
          "midi": 45,
          "name": "A2",
          "time": 69.0,
          "velocity": 0.49606299212598426,
          "string": 5,
          "fret": 0
        },
        {
          "id": 326,
          "duration": 0.21428571428571427,
          "midi": 59,
          "name": "B3",
          "time": 69.21428571428571,
          "velocity": 0.49606299212598426,
          "string": 2,
          "fret": 0
        },
        {
          "id": 327,
          "duration": 0.21428571428571427,
          "midi": 45,
          "name": "A2",
          "time": 69.21428571428571,
          "velocity": 0.49606299212598426,
          "string": 5,
          "fret": 0
        },
        {
          "id": 328,
          "duration": 0.21428571428571427,
          "midi": 55,
          "name": "G3",
          "time": 69.42857142857143,
          "velocity": 0.49606299212598426,
          "string": 3,
          "fret": 0
        },
        {
          "id": 329,
          "duration": 0.21428571428571427,
          "midi": 45,
          "name": "A2",
          "time": 69.42857142857143,
          "velocity": 0.49606299212598426,
          "string": 5,
          "fret": 0
        },
        {
          "id": 330,
          "duration": 0.21428571428571427,
          "midi": 73,
          "name": "C#5",
          "time": 69.64285714285714,
          "velocity": 0.49606299212598426,
          "string": 1,
          "fret": 9
        },
        {
          "id": 331,
          "duration": 0.21428571428571427,
          "midi": 45,
          "name": "A2",
          "time": 69.64285714285714,
          "velocity": 0.49606299212598426,
          "string": 5,
          "fret": 0
        },
        {
          "id": 332,
          "duration": 0.21428571428571427,
          "midi": 59,
          "name": "B3",
          "time": 69.85714285714285,
          "velocity": 0.49606299212598426,
          "string": 2,
          "fret": 0
        },
        {
          "id": 333,
          "duration": 0.21428571428571427,
          "midi": 45,
          "name": "A2",
          "time": 69.85714285714285,
          "velocity": 0.49606299212598426,
          "string": 5,
          "fret": 0
        },
        {
          "id": 334,
          "duration": 0.10714285714285714,
          "midi": 55,
          "name": "G3",
          "time": 70.07142857142857,
          "velocity": 0.49606299212598426,
          "string": 3,
          "fret": 0
        },
        {
          "id": 335,
          "duration": 0.10714285714285714,
          "midi": 45,
          "name": "A2",
          "time": 70.07142857142857,
          "velocity": 0.49606299212598426,
          "string": 5,
          "fret": 0
        },
        {
          "id": 336,
          "duration": 0.21428571428571427,
          "midi": 72,
          "name": "C5",
          "time": 72.85714285714285,
          "velocity": 0.49606299212598426,
          "string": 1,
          "fret": 8
        },
        {
          "id": 337,
          "duration": 0.21428571428571427,
          "midi": 45,
          "name": "A2",
          "time": 72.85714285714285,
          "velocity": 0.49606299212598426,
          "string": 5,
          "fret": 0
        },
        {
          "id": 338,
          "duration": 0.21428571428571427,
          "midi": 59,
          "name": "B3",
          "time": 73.07142857142857,
          "velocity": 0.49606299212598426,
          "string": 2,
          "fret": 0
        },
        {
          "id": 339,
          "duration": 0.21428571428571427,
          "midi": 45,
          "name": "A2",
          "time": 73.07142857142857,
          "velocity": 0.49606299212598426,
          "string": 5,
          "fret": 0
        },
        {
          "id": 340,
          "duration": 0.21428571428571427,
          "midi": 55,
          "name": "G3",
          "time": 73.28571428571428,
          "velocity": 0.49606299212598426,
          "string": 3,
          "fret": 0
        },
        {
          "id": 341,
          "duration": 0.21428571428571427,
          "midi": 45,
          "name": "A2",
          "time": 73.28571428571428,
          "velocity": 0.49606299212598426,
          "string": 5,
          "fret": 0
        },
        {
          "id": 342,
          "duration": 0.21428571428571427,
          "midi": 72,
          "name": "C5",
          "time": 73.5,
          "velocity": 0.49606299212598426,
          "string": 1,
          "fret": 8
        },
        {
          "id": 343,
          "duration": 0.21428571428571427,
          "midi": 45,
          "name": "A2",
          "time": 73.5,
          "velocity": 0.49606299212598426,
          "string": 5,
          "fret": 0
        },
        {
          "id": 344,
          "duration": 0.21428571428571427,
          "midi": 59,
          "name": "B3",
          "time": 73.71428571428571,
          "velocity": 0.49606299212598426,
          "string": 2,
          "fret": 0
        },
        {
          "id": 345,
          "duration": 0.21428571428571427,
          "midi": 45,
          "name": "A2",
          "time": 73.71428571428571,
          "velocity": 0.49606299212598426,
          "string": 5,
          "fret": 0
        },
        {
          "id": 346,
          "duration": 0.21428571428571427,
          "midi": 55,
          "name": "G3",
          "time": 73.92857142857143,
          "velocity": 0.49606299212598426,
          "string": 3,
          "fret": 0
        },
        {
          "id": 347,
          "duration": 0.21428571428571427,
          "midi": 45,
          "name": "A2",
          "time": 73.92857142857143,
          "velocity": 0.49606299212598426,
          "string": 5,
          "fret": 0
        },
        {
          "id": 348,
          "duration": 0.21428571428571427,
          "midi": 72,
          "name": "C5",
          "time": 74.14285714285714,
          "velocity": 0.49606299212598426,
          "string": 1,
          "fret": 8
        },
        {
          "id": 349,
          "duration": 0.21428571428571427,
          "midi": 45,
          "name": "A2",
          "time": 74.14285714285714,
          "velocity": 0.49606299212598426,
          "string": 5,
          "fret": 0
        },
        {
          "id": 350,
          "duration": 0.21428571428571427,
          "midi": 59,
          "name": "B3",
          "time": 74.35714285714285,
          "velocity": 0.49606299212598426,
          "string": 2,
          "fret": 0
        },
        {
          "id": 351,
          "duration": 0.21428571428571427,
          "midi": 45,
          "name": "A2",
          "time": 74.35714285714285,
          "velocity": 0.49606299212598426,
          "string": 5,
          "fret": 0
        },
        {
          "id": 352,
          "duration": 0.21428571428571427,
          "midi": 55,
          "name": "G3",
          "time": 74.57142857142857,
          "velocity": 0.49606299212598426,
          "string": 3,
          "fret": 0
        },
        {
          "id": 353,
          "duration": 0.21428571428571427,
          "midi": 45,
          "name": "A2",
          "time": 74.57142857142857,
          "velocity": 0.49606299212598426,
          "string": 5,
          "fret": 0
        },
        {
          "id": 354,
          "duration": 0.21428571428571427,
          "midi": 72,
          "name": "C5",
          "time": 74.78571428571428,
          "velocity": 0.49606299212598426,
          "string": 1,
          "fret": 8
        },
        {
          "id": 355,
          "duration": 0.21428571428571427,
          "midi": 45,
          "name": "A2",
          "time": 74.78571428571428,
          "velocity": 0.49606299212598426,
          "string": 5,
          "fret": 0
        },
        {
          "id": 356,
          "duration": 0.21428571428571427,
          "midi": 59,
          "name": "B3",
          "time": 75.0,
          "velocity": 0.49606299212598426,
          "string": 2,
          "fret": 0
        },
        {
          "id": 357,
          "duration": 0.21428571428571427,
          "midi": 45,
          "name": "A2",
          "time": 75.0,
          "velocity": 0.49606299212598426,
          "string": 5,
          "fret": 0
        },
        {
          "id": 358,
          "duration": 0.10714285714285714,
          "midi": 55,
          "name": "G3",
          "time": 75.21428571428571,
          "velocity": 0.49606299212598426,
          "string": 3,
          "fret": 0
        },
        {
          "id": 359,
          "duration": 0.10714285714285714,
          "midi": 45,
          "name": "A2",
          "time": 75.21428571428571,
          "velocity": 0.49606299212598426,
          "string": 5,
          "fret": 0
        },
        {
          "id": 360,
          "duration": 0.21428571428571427,
          "midi": 71,
          "name": "B4",
          "time": 78.0,
          "velocity": 0.49606299212598426,
          "string": 1,
          "fret": 7
        },
        {
          "id": 361,
          "duration": 0.21428571428571427,
          "midi": 40,
          "name": "E2",
          "time": 78.0,
          "velocity": 0.49606299212598426,
          "string": 6,
          "fret": 0
        },
        {
          "id": 362,
          "duration": 0.21428571428571427,
          "midi": 59,
          "name": "B3",
          "time": 78.21428571428571,
          "velocity": 0.49606299212598426,
          "string": 2,
          "fret": 0
        },
        {
          "id": 363,
          "duration": 0.21428571428571427,
          "midi": 40,
          "name": "E2",
          "time": 78.21428571428571,
          "velocity": 0.49606299212598426,
          "string": 6,
          "fret": 0
        },
        {
          "id": 364,
          "duration": 0.21428571428571427,
          "midi": 55,
          "name": "G3",
          "time": 78.42857142857143,
          "velocity": 0.49606299212598426,
          "string": 3,
          "fret": 0
        },
        {
          "id": 365,
          "duration": 0.21428571428571427,
          "midi": 40,
          "name": "E2",
          "time": 78.42857142857143,
          "velocity": 0.49606299212598426,
          "string": 6,
          "fret": 0
        },
        {
          "id": 366,
          "duration": 0.21428571428571427,
          "midi": 71,
          "name": "B4",
          "time": 78.64285714285714,
          "velocity": 0.49606299212598426,
          "string": 1,
          "fret": 7
        },
        {
          "id": 367,
          "duration": 0.21428571428571427,
          "midi": 40,
          "name": "E2",
          "time": 78.64285714285714,
          "velocity": 0.49606299212598426,
          "string": 6,
          "fret": 0
        },
        {
          "id": 368,
          "duration": 0.21428571428571427,
          "midi": 59,
          "name": "B3",
          "time": 78.85714285714285,
          "velocity": 0.49606299212598426,
          "string": 2,
          "fret": 0
        },
        {
          "id": 369,
          "duration": 0.21428571428571427,
          "midi": 40,
          "name": "E2",
          "time": 78.85714285714285,
          "velocity": 0.49606299212598426,
          "string": 6,
          "fret": 0
        },
        {
          "id": 370,
          "duration": 0.21428571428571427,
          "midi": 55,
          "name": "G3",
          "time": 79.07142857142857,
          "velocity": 0.49606299212598426,
          "string": 3,
          "fret": 0
        },
        {
          "id": 371,
          "duration": 0.21428571428571427,
          "midi": 40,
          "name": "E2",
          "time": 79.07142857142857,
          "velocity": 0.49606299212598426,
          "string": 6,
          "fret": 0
        },
        {
          "id": 372,
          "duration": 0.21428571428571427,
          "midi": 71,
          "name": "B4",
          "time": 79.28571428571428,
          "velocity": 0.49606299212598426,
          "string": 1,
          "fret": 7
        },
        {
          "id": 373,
          "duration": 0.21428571428571427,
          "midi": 40,
          "name": "E2",
          "time": 79.28571428571428,
          "velocity": 0.49606299212598426,
          "string": 6,
          "fret": 0
        },
        {
          "id": 374,
          "duration": 0.21428571428571427,
          "midi": 59,
          "name": "B3",
          "time": 79.5,
          "velocity": 0.49606299212598426,
          "string": 2,
          "fret": 0
        },
        {
          "id": 375,
          "duration": 0.21428571428571427,
          "midi": 40,
          "name": "E2",
          "time": 79.5,
          "velocity": 0.49606299212598426,
          "string": 6,
          "fret": 0
        },
        {
          "id": 376,
          "duration": 0.21428571428571427,
          "midi": 55,
          "name": "G3",
          "time": 79.71428571428571,
          "velocity": 0.49606299212598426,
          "string": 3,
          "fret": 0
        },
        {
          "id": 377,
          "duration": 0.21428571428571427,
          "midi": 40,
          "name": "E2",
          "time": 79.71428571428571,
          "velocity": 0.49606299212598426,
          "string": 6,
          "fret": 0
        },
        {
          "id": 378,
          "duration": 0.21428571428571427,
          "midi": 71,
          "name": "B4",
          "time": 79.92857142857143,
          "velocity": 0.49606299212598426,
          "string": 1,
          "fret": 7
        },
        {
          "id": 379,
          "duration": 0.21428571428571427,
          "midi": 40,
          "name": "E2",
          "time": 79.92857142857143,
          "velocity": 0.49606299212598426,
          "string": 6,
          "fret": 0
        },
        {
          "id": 380,
          "duration": 0.21428571428571427,
          "midi": 59,
          "name": "B3",
          "time": 80.14285714285714,
          "velocity": 0.49606299212598426,
          "string": 2,
          "fret": 0
        },
        {
          "id": 381,
          "duration": 0.21428571428571427,
          "midi": 40,
          "name": "E2",
          "time": 80.14285714285714,
          "velocity": 0.49606299212598426,
          "string": 6,
          "fret": 0
        },
        {
          "id": 382,
          "duration": 0.10714285714285714,
          "midi": 55,
          "name": "G3",
          "time": 80.35714285714285,
          "velocity": 0.49606299212598426,
          "string": 3,
          "fret": 0
        },
        {
          "id": 383,
          "duration": 0.10714285714285714,
          "midi": 40,
          "name": "E2",
          "time": 80.35714285714285,
          "velocity": 0.49606299212598426,
          "string": 6,
          "fret": 0
        },
        {
          "id": 384,
          "duration": 0.21428571428571427,
          "midi": 69,
          "name": "A4",
          "time": 83.14285714285714,
          "velocity": 0.49606299212598426,
          "string": 1,
          "fret": 5
        },
        {
          "id": 385,
          "duration": 0.21428571428571427,
          "midi": 45,
          "name": "A2",
          "time": 83.14285714285714,
          "velocity": 0.49606299212598426,
          "string": 5,
          "fret": 0
        },
        {
          "id": 386,
          "duration": 0.21428571428571427,
          "midi": 64,
          "name": "E4",
          "time": 83.35714285714285,
          "velocity": 0.49606299212598426,
          "string": 1,
          "fret": 0
        },
        {
          "id": 387,
          "duration": 0.21428571428571427,
          "midi": 45,
          "name": "A2",
          "time": 83.35714285714285,
          "velocity": 0.49606299212598426,
          "string": 5,
          "fret": 0
        },
        {
          "id": 388,
          "duration": 0.21428571428571427,
          "midi": 62,
          "name": "D4",
          "time": 83.57142857142857,
          "velocity": 0.49606299212598426,
          "string": 2,
          "fret": 3
        },
        {
          "id": 389,
          "duration": 0.21428571428571427,
          "midi": 45,
          "name": "A2",
          "time": 83.57142857142857,
          "velocity": 0.49606299212598426,
          "string": 5,
          "fret": 0
        },
        {
          "id": 390,
          "duration": 0.21428571428571427,
          "midi": 69,
          "name": "A4",
          "time": 83.78571428571428,
          "velocity": 0.49606299212598426,
          "string": 1,
          "fret": 5
        },
        {
          "id": 391,
          "duration": 0.21428571428571427,
          "midi": 45,
          "name": "A2",
          "time": 83.78571428571428,
          "velocity": 0.49606299212598426,
          "string": 5,
          "fret": 0
        },
        {
          "id": 392,
          "duration": 0.21428571428571427,
          "midi": 64,
          "name": "E4",
          "time": 84.0,
          "velocity": 0.49606299212598426,
          "string": 1,
          "fret": 0
        },
        {
          "id": 393,
          "duration": 0.21428571428571427,
          "midi": 45,
          "name": "A2",
          "time": 84.0,
          "velocity": 0.49606299212598426,
          "string": 5,
          "fret": 0
        },
        {
          "id": 394,
          "duration": 0.21428571428571427,
          "midi": 62,
          "name": "D4",
          "time": 84.21428571428571,
          "velocity": 0.49606299212598426,
          "string": 2,
          "fret": 3
        },
        {
          "id": 395,
          "duration": 0.21428571428571427,
          "midi": 45,
          "name": "A2",
          "time": 84.21428571428571,
          "velocity": 0.49606299212598426,
          "string": 5,
          "fret": 0
        },
        {
          "id": 396,
          "duration": 0.21428571428571427,
          "midi": 69,
          "name": "A4",
          "time": 84.42857142857143,
          "velocity": 0.49606299212598426,
          "string": 1,
          "fret": 5
        },
        {
          "id": 397,
          "duration": 0.21428571428571427,
          "midi": 45,
          "name": "A2",
          "time": 84.42857142857143,
          "velocity": 0.49606299212598426,
          "string": 5,
          "fret": 0
        },
        {
          "id": 398,
          "duration": 0.21428571428571427,
          "midi": 64,
          "name": "E4",
          "time": 84.64285714285714,
          "velocity": 0.49606299212598426,
          "string": 1,
          "fret": 0
        },
        {
          "id": 399,
          "duration": 0.21428571428571427,
          "midi": 45,
          "name": "A2",
          "time": 84.64285714285714,
          "velocity": 0.49606299212598426,
          "string": 5,
          "fret": 0
        },
        {
          "id": 400,
          "duration": 0.21428571428571427,
          "midi": 62,
          "name": "D4",
          "time": 84.85714285714285,
          "velocity": 0.49606299212598426,
          "string": 2,
          "fret": 3
        },
        {
          "id": 401,
          "duration": 0.21428571428571427,
          "midi": 45,
          "name": "A2",
          "time": 84.85714285714285,
          "velocity": 0.49606299212598426,
          "string": 5,
          "fret": 0
        },
        {
          "id": 402,
          "duration": 0.21428571428571427,
          "midi": 69,
          "name": "A4",
          "time": 85.07142857142857,
          "velocity": 0.49606299212598426,
          "string": 1,
          "fret": 5
        },
        {
          "id": 403,
          "duration": 0.21428571428571427,
          "midi": 45,
          "name": "A2",
          "time": 85.07142857142857,
          "velocity": 0.49606299212598426,
          "string": 5,
          "fret": 0
        },
        {
          "id": 404,
          "duration": 0.21428571428571427,
          "midi": 64,
          "name": "E4",
          "time": 85.28571428571428,
          "velocity": 0.49606299212598426,
          "string": 1,
          "fret": 0
        },
        {
          "id": 405,
          "duration": 0.21428571428571427,
          "midi": 45,
          "name": "A2",
          "time": 85.28571428571428,
          "velocity": 0.49606299212598426,
          "string": 5,
          "fret": 0
        },
        {
          "id": 406,
          "duration": 0.10714285714285714,
          "midi": 62,
          "name": "D4",
          "time": 85.5,
          "velocity": 0.49606299212598426,
          "string": 2,
          "fret": 3
        },
        {
          "id": 407,
          "duration": 0.10714285714285714,
          "midi": 45,
          "name": "A2",
          "time": 85.5,
          "velocity": 0.49606299212598426,
          "string": 5,
          "fret": 0
        },
        {
          "id": 408,
          "duration": 0.21428571428571427,
          "midi": 69,
          "name": "A4",
          "time": 88.28571428571428,
          "velocity": 0.49606299212598426,
          "string": 1,
          "fret": 5
        },
        {
          "id": 409,
          "duration": 0.21428571428571427,
          "midi": 45,
          "name": "A2",
          "time": 88.28571428571428,
          "velocity": 0.49606299212598426,
          "string": 5,
          "fret": 0
        },
        {
          "id": 410,
          "duration": 0.21428571428571427,
          "midi": 64,
          "name": "E4",
          "time": 88.5,
          "velocity": 0.49606299212598426,
          "string": 1,
          "fret": 0
        },
        {
          "id": 411,
          "duration": 0.21428571428571427,
          "midi": 45,
          "name": "A2",
          "time": 88.5,
          "velocity": 0.49606299212598426,
          "string": 5,
          "fret": 0
        },
        {
          "id": 412,
          "duration": 0.21428571428571427,
          "midi": 61,
          "name": "C#4",
          "time": 88.71428571428571,
          "velocity": 0.49606299212598426,
          "string": 2,
          "fret": 2
        },
        {
          "id": 413,
          "duration": 0.21428571428571427,
          "midi": 45,
          "name": "A2",
          "time": 88.71428571428571,
          "velocity": 0.49606299212598426,
          "string": 5,
          "fret": 0
        },
        {
          "id": 414,
          "duration": 0.21428571428571427,
          "midi": 69,
          "name": "A4",
          "time": 88.92857142857143,
          "velocity": 0.49606299212598426,
          "string": 1,
          "fret": 5
        },
        {
          "id": 415,
          "duration": 0.21428571428571427,
          "midi": 45,
          "name": "A2",
          "time": 88.92857142857143,
          "velocity": 0.49606299212598426,
          "string": 5,
          "fret": 0
        },
        {
          "id": 416,
          "duration": 0.21428571428571427,
          "midi": 64,
          "name": "E4",
          "time": 89.14285714285714,
          "velocity": 0.49606299212598426,
          "string": 1,
          "fret": 0
        },
        {
          "id": 417,
          "duration": 0.21428571428571427,
          "midi": 45,
          "name": "A2",
          "time": 89.14285714285714,
          "velocity": 0.49606299212598426,
          "string": 5,
          "fret": 0
        },
        {
          "id": 418,
          "duration": 0.21428571428571427,
          "midi": 61,
          "name": "C#4",
          "time": 89.35714285714285,
          "velocity": 0.49606299212598426,
          "string": 2,
          "fret": 2
        },
        {
          "id": 419,
          "duration": 0.21428571428571427,
          "midi": 45,
          "name": "A2",
          "time": 89.35714285714285,
          "velocity": 0.49606299212598426,
          "string": 5,
          "fret": 0
        },
        {
          "id": 420,
          "duration": 0.8571428571428571,
          "midi": 69,
          "name": "A4",
          "time": 89.57142857142857,
          "velocity": 0.49606299212598426,
          "string": 1,
          "fret": 5
        },
        {
          "id": 421,
          "duration": 0.8571428571428571,
          "midi": 45,
          "name": "A2",
          "time": 89.57142857142857,
          "velocity": 0.49606299212598426,
          "string": 5,
          "fret": 0
        },
        {
          "id": 422,
          "duration": 0.21428571428571427,
          "midi": 67,
          "name": "G4",
          "time": 93.42857142857142,
          "velocity": 0.49606299212598426,
          "string": 1,
          "fret": 3
        },
        {
          "id": 423,
          "duration": 0.21428571428571427,
          "midi": 45,
          "name": "A2",
          "time": 93.42857142857142,
          "velocity": 0.49606299212598426,
          "string": 5,
          "fret": 0
        },
        {
          "id": 424,
          "duration": 0.21428571428571427,
          "midi": 60,
          "name": "C4",
          "time": 93.64285714285714,
          "velocity": 0.49606299212598426,
          "string": 2,
          "fret": 1
        },
        {
          "id": 425,
          "duration": 0.21428571428571427,
          "midi": 45,
          "name": "A2",
          "time": 93.64285714285714,
          "velocity": 0.49606299212598426,
          "string": 5,
          "fret": 0
        },
        {
          "id": 426,
          "duration": 0.21428571428571427,
          "midi": 55,
          "name": "G3",
          "time": 93.85714285714285,
          "velocity": 0.49606299212598426,
          "string": 3,
          "fret": 0
        },
        {
          "id": 427,
          "duration": 0.21428571428571427,
          "midi": 45,
          "name": "A2",
          "time": 93.85714285714285,
          "velocity": 0.49606299212598426,
          "string": 5,
          "fret": 0
        },
        {
          "id": 428,
          "duration": 0.21428571428571427,
          "midi": 66,
          "name": "F#4",
          "time": 94.07142857142857,
          "velocity": 0.49606299212598426,
          "string": 1,
          "fret": 2
        },
        {
          "id": 429,
          "duration": 0.21428571428571427,
          "midi": 45,
          "name": "A2",
          "time": 94.07142857142857,
          "velocity": 0.49606299212598426,
          "string": 5,
          "fret": 0
        },
        {
          "id": 430,
          "duration": 0.21428571428571427,
          "midi": 60,
          "name": "C4",
          "time": 94.28571428571428,
          "velocity": 0.49606299212598426,
          "string": 2,
          "fret": 1
        },
        {
          "id": 431,
          "duration": 0.21428571428571427,
          "midi": 45,
          "name": "A2",
          "time": 94.28571428571428,
          "velocity": 0.49606299212598426,
          "string": 5,
          "fret": 0
        },
        {
          "id": 432,
          "duration": 0.21428571428571427,
          "midi": 55,
          "name": "G3",
          "time": 94.5,
          "velocity": 0.49606299212598426,
          "string": 3,
          "fret": 0
        },
        {
          "id": 433,
          "duration": 0.21428571428571427,
          "midi": 45,
          "name": "A2",
          "time": 94.5,
          "velocity": 0.49606299212598426,
          "string": 5,
          "fret": 0
        },
        {
          "id": 434,
          "duration": 0.21428571428571427,
          "midi": 64,
          "name": "E4",
          "time": 94.71428571428571,
          "velocity": 0.49606299212598426,
          "string": 1,
          "fret": 0
        },
        {
          "id": 435,
          "duration": 0.21428571428571427,
          "midi": 45,
          "name": "A2",
          "time": 94.71428571428571,
          "velocity": 0.49606299212598426,
          "string": 5,
          "fret": 0
        },
        {
          "id": 436,
          "duration": 0.21428571428571427,
          "midi": 60,
          "name": "C4",
          "time": 94.92857142857142,
          "velocity": 0.49606299212598426,
          "string": 2,
          "fret": 1
        },
        {
          "id": 437,
          "duration": 0.21428571428571427,
          "midi": 45,
          "name": "A2",
          "time": 94.92857142857142,
          "velocity": 0.49606299212598426,
          "string": 5,
          "fret": 0
        },
        {
          "id": 438,
          "duration": 0.21428571428571427,
          "midi": 55,
          "name": "G3",
          "time": 95.14285714285714,
          "velocity": 0.49606299212598426,
          "string": 3,
          "fret": 0
        },
        {
          "id": 439,
          "duration": 0.21428571428571427,
          "midi": 45,
          "name": "A2",
          "time": 95.14285714285714,
          "velocity": 0.49606299212598426,
          "string": 5,
          "fret": 0
        },
        {
          "id": 440,
          "duration": 0.21428571428571427,
          "midi": 62,
          "name": "D4",
          "time": 95.35714285714285,
          "velocity": 0.49606299212598426,
          "string": 2,
          "fret": 3
        },
        {
          "id": 441,
          "duration": 0.21428571428571427,
          "midi": 45,
          "name": "A2",
          "time": 95.35714285714285,
          "velocity": 0.49606299212598426,
          "string": 5,
          "fret": 0
        },
        {
          "id": 442,
          "duration": 0.21428571428571427,
          "midi": 55,
          "name": "G3",
          "time": 95.57142857142857,
          "velocity": 0.49606299212598426,
          "string": 3,
          "fret": 0
        },
        {
          "id": 443,
          "duration": 0.21428571428571427,
          "midi": 45,
          "name": "A2",
          "time": 95.57142857142857,
          "velocity": 0.49606299212598426,
          "string": 5,
          "fret": 0
        },
        {
          "id": 444,
          "duration": 0.10714285714285714,
          "midi": 50,
          "name": "D3",
          "time": 95.78571428571428,
          "velocity": 0.49606299212598426,
          "string": 4,
          "fret": 0
        },
        {
          "id": 445,
          "duration": 0.10714285714285714,
          "midi": 45,
          "name": "A2",
          "time": 95.78571428571428,
          "velocity": 0.49606299212598426,
          "string": 5,
          "fret": 0
        },
        {
          "id": 446,
          "duration": 1.7142857142857142,
          "midi": 66,
          "name": "F#4",
          "time": 98.57142857142857,
          "velocity": 0.49606299212598426,
          "string": 1,
          "fret": 2
        },
        {
          "id": 447,
          "duration": 1.7142857142857142,
          "midi": 45,
          "name": "A2",
          "time": 98.57142857142857,
          "velocity": 0.49606299212598426,
          "string": 5,
          "fret": 0
        },
        {
          "id": 448,
          "duration": 0.21428571428571427,
          "midi": 67,
          "name": "G4",
          "time": 103.71428571428571,
          "velocity": 0.49606299212598426,
          "string": 1,
          "fret": 3
        },
        {
          "id": 449,
          "duration": 0.21428571428571427,
          "midi": 40,
          "name": "E2",
          "time": 103.71428571428571,
          "velocity": 0.49606299212598426,
          "string": 6,
          "fret": 0
        },
        {
          "id": 450,
          "duration": 0.21428571428571427,
          "midi": 59,
          "name": "B3",
          "time": 103.92857142857142,
          "velocity": 0.49606299212598426,
          "string": 2,
          "fret": 0
        },
        {
          "id": 451,
          "duration": 0.21428571428571427,
          "midi": 40,
          "name": "E2",
          "time": 103.92857142857142,
          "velocity": 0.49606299212598426,
          "string": 6,
          "fret": 0
        },
        {
          "id": 452,
          "duration": 0.21428571428571427,
          "midi": 55,
          "name": "G3",
          "time": 104.14285714285714,
          "velocity": 0.49606299212598426,
          "string": 3,
          "fret": 0
        },
        {
          "id": 453,
          "duration": 0.21428571428571427,
          "midi": 40,
          "name": "E2",
          "time": 104.14285714285714,
          "velocity": 0.49606299212598426,
          "string": 6,
          "fret": 0
        },
        {
          "id": 454,
          "duration": 1.7142857142857142,
          "midi": 64,
          "name": "E4",
          "time": 104.35714285714285,
          "velocity": 0.49606299212598426,
          "string": 1,
          "fret": 0
        },
        {
          "id": 455,
          "duration": 1.7142857142857142,
          "midi": 40,
          "name": "E2",
          "time": 104.35714285714285,
          "velocity": 0.49606299212598426,
          "string": 6,
          "fret": 0
        },
        {
          "id": 456,
          "duration": 0.21428571428571427,
          "midi": 67,
          "name": "G4",
          "time": 108.85714285714285,
          "velocity": 0.49606299212598426,
          "string": 1,
          "fret": 3
        },
        {
          "id": 457,
          "duration": 0.21428571428571427,
          "midi": 40,
          "name": "E2",
          "time": 108.85714285714285,
          "velocity": 0.49606299212598426,
          "string": 6,
          "fret": 0
        },
        {
          "id": 458,
          "duration": 0.21428571428571427,
          "midi": 59,
          "name": "B3",
          "time": 109.07142857142857,
          "velocity": 0.49606299212598426,
          "string": 2,
          "fret": 0
        },
        {
          "id": 459,
          "duration": 0.21428571428571427,
          "midi": 40,
          "name": "E2",
          "time": 109.07142857142857,
          "velocity": 0.49606299212598426,
          "string": 6,
          "fret": 0
        },
        {
          "id": 460,
          "duration": 0.21428571428571427,
          "midi": 55,
          "name": "G3",
          "time": 109.28571428571428,
          "velocity": 0.49606299212598426,
          "string": 3,
          "fret": 0
        },
        {
          "id": 461,
          "duration": 0.21428571428571427,
          "midi": 40,
          "name": "E2",
          "time": 109.28571428571428,
          "velocity": 0.49606299212598426,
          "string": 6,
          "fret": 0
        },
        {
          "id": 462,
          "duration": 1.7142857142857142,
          "midi": 64,
          "name": "E4",
          "time": 109.5,
          "velocity": 0.49606299212598426,
          "string": 1,
          "fret": 0
        },
        {
          "id": 463,
          "duration": 1.7142857142857142,
          "midi": 40,
          "name": "E2",
          "time": 109.5,
          "velocity": 0.49606299212598426,
          "string": 6,
          "fret": 0
        },
        {
          "id": 464,
          "duration": 0.21428571428571427,
          "midi": 67,
          "name": "G4",
          "time": 114.0,
          "velocity": 0.49606299212598426,
          "string": 1,
          "fret": 3
        },
        {
          "id": 465,
          "duration": 0.21428571428571427,
          "midi": 40,
          "name": "E2",
          "time": 114.0,
          "velocity": 0.49606299212598426,
          "string": 6,
          "fret": 0
        },
        {
          "id": 466,
          "duration": 0.21428571428571427,
          "midi": 59,
          "name": "B3",
          "time": 114.21428571428571,
          "velocity": 0.49606299212598426,
          "string": 2,
          "fret": 0
        },
        {
          "id": 467,
          "duration": 0.21428571428571427,
          "midi": 40,
          "name": "E2",
          "time": 114.21428571428571,
          "velocity": 0.49606299212598426,
          "string": 6,
          "fret": 0
        },
        {
          "id": 468,
          "duration": 0.21428571428571427,
          "midi": 55,
          "name": "G3",
          "time": 114.42857142857142,
          "velocity": 0.49606299212598426,
          "string": 3,
          "fret": 0
        },
        {
          "id": 469,
          "duration": 0.21428571428571427,
          "midi": 40,
          "name": "E2",
          "time": 114.42857142857142,
          "velocity": 0.49606299212598426,
          "string": 6,
          "fret": 0
        },
        {
          "id": 470,
          "duration": 0.21428571428571427,
          "midi": 64,
          "name": "E4",
          "time": 114.64285714285714,
          "velocity": 0.49606299212598426,
          "string": 1,
          "fret": 0
        },
        {
          "id": 471,
          "duration": 0.21428571428571427,
          "midi": 40,
          "name": "E2",
          "time": 114.64285714285714,
          "velocity": 0.49606299212598426,
          "string": 6,
          "fret": 0
        },
        {
          "id": 472,
          "duration": 0.21428571428571427,
          "midi": 59,
          "name": "B3",
          "time": 114.85714285714285,
          "velocity": 0.49606299212598426,
          "string": 2,
          "fret": 0
        },
        {
          "id": 473,
          "duration": 0.21428571428571427,
          "midi": 40,
          "name": "E2",
          "time": 114.85714285714285,
          "velocity": 0.49606299212598426,
          "string": 6,
          "fret": 0
        },
        {
          "id": 474,
          "duration": 0.21428571428571427,
          "midi": 55,
          "name": "G3",
          "time": 115.07142857142857,
          "velocity": 0.49606299212598426,
          "string": 3,
          "fret": 0
        },
        {
          "id": 475,
          "duration": 0.21428571428571427,
          "midi": 40,
          "name": "E2",
          "time": 115.07142857142857,
          "velocity": 0.49606299212598426,
          "string": 6,
          "fret": 0
        },
        {
          "id": 476,
          "duration": 0.21428571428571427,
          "midi": 69,
          "name": "A4",
          "time": 115.28571428571428,
          "velocity": 0.49606299212598426,
          "string": 1,
          "fret": 5
        },
        {
          "id": 477,
          "duration": 0.21428571428571427,
          "midi": 40,
          "name": "E2",
          "time": 115.28571428571428,
          "velocity": 0.49606299212598426,
          "string": 6,
          "fret": 0
        },
        {
          "id": 478,
          "duration": 0.21428571428571427,
          "midi": 59,
          "name": "B3",
          "time": 115.5,
          "velocity": 0.49606299212598426,
          "string": 2,
          "fret": 0
        },
        {
          "id": 479,
          "duration": 0.21428571428571427,
          "midi": 40,
          "name": "E2",
          "time": 115.5,
          "velocity": 0.49606299212598426,
          "string": 6,
          "fret": 0
        },
        {
          "id": 480,
          "duration": 0.21428571428571427,
          "midi": 55,
          "name": "G3",
          "time": 115.71428571428571,
          "velocity": 0.49606299212598426,
          "string": 3,
          "fret": 0
        },
        {
          "id": 481,
          "duration": 0.21428571428571427,
          "midi": 40,
          "name": "E2",
          "time": 115.71428571428571,
          "velocity": 0.49606299212598426,
          "string": 6,
          "fret": 0
        },
        {
          "id": 482,
          "duration": 0.21428571428571427,
          "midi": 66,
          "name": "F#4",
          "time": 115.92857142857142,
          "velocity": 0.49606299212598426,
          "string": 1,
          "fret": 2
        },
        {
          "id": 483,
          "duration": 0.21428571428571427,
          "midi": 40,
          "name": "E2",
          "time": 115.92857142857142,
          "velocity": 0.49606299212598426,
          "string": 6,
          "fret": 0
        },
        {
          "id": 484,
          "duration": 0.21428571428571427,
          "midi": 59,
          "name": "B3",
          "time": 116.14285714285714,
          "velocity": 0.49606299212598426,
          "string": 2,
          "fret": 0
        },
        {
          "id": 485,
          "duration": 0.21428571428571427,
          "midi": 40,
          "name": "E2",
          "time": 116.14285714285714,
          "velocity": 0.49606299212598426,
          "string": 6,
          "fret": 0
        },
        {
          "id": 486,
          "duration": 0.10714285714285714,
          "midi": 55,
          "name": "G3",
          "time": 116.35714285714285,
          "velocity": 0.49606299212598426,
          "string": 3,
          "fret": 0
        },
        {
          "id": 487,
          "duration": 0.10714285714285714,
          "midi": 40,
          "name": "E2",
          "time": 116.35714285714285,
          "velocity": 0.49606299212598426,
          "string": 6,
          "fret": 0
        },
        {
          "id": 488,
          "duration": 0.21428571428571427,
          "midi": 67,
          "name": "G4",
          "time": 119.14285714285714,
          "velocity": 0.49606299212598426,
          "string": 1,
          "fret": 3
        },
        {
          "id": 489,
          "duration": 0.21428571428571427,
          "midi": 40,
          "name": "E2",
          "time": 119.14285714285714,
          "velocity": 0.49606299212598426,
          "string": 6,
          "fret": 0
        },
        {
          "id": 490,
          "duration": 0.21428571428571427,
          "midi": 59,
          "name": "B3",
          "time": 119.35714285714285,
          "velocity": 0.49606299212598426,
          "string": 2,
          "fret": 0
        },
        {
          "id": 491,
          "duration": 0.21428571428571427,
          "midi": 40,
          "name": "E2",
          "time": 119.35714285714285,
          "velocity": 0.49606299212598426,
          "string": 6,
          "fret": 0
        },
        {
          "id": 492,
          "duration": 0.21428571428571427,
          "midi": 55,
          "name": "G3",
          "time": 119.57142857142857,
          "velocity": 0.49606299212598426,
          "string": 3,
          "fret": 0
        },
        {
          "id": 493,
          "duration": 0.21428571428571427,
          "midi": 40,
          "name": "E2",
          "time": 119.57142857142857,
          "velocity": 0.49606299212598426,
          "string": 6,
          "fret": 0
        },
        {
          "id": 494,
          "duration": 0.21428571428571427,
          "midi": 67,
          "name": "G4",
          "time": 119.78571428571428,
          "velocity": 0.49606299212598426,
          "string": 1,
          "fret": 3
        },
        {
          "id": 495,
          "duration": 0.21428571428571427,
          "midi": 40,
          "name": "E2",
          "time": 119.78571428571428,
          "velocity": 0.49606299212598426,
          "string": 6,
          "fret": 0
        },
        {
          "id": 496,
          "duration": 0.21428571428571427,
          "midi": 59,
          "name": "B3",
          "time": 120.0,
          "velocity": 0.49606299212598426,
          "string": 2,
          "fret": 0
        },
        {
          "id": 497,
          "duration": 0.21428571428571427,
          "midi": 40,
          "name": "E2",
          "time": 120.0,
          "velocity": 0.49606299212598426,
          "string": 6,
          "fret": 0
        },
        {
          "id": 498,
          "duration": 0.21428571428571427,
          "midi": 55,
          "name": "G3",
          "time": 120.21428571428571,
          "velocity": 0.49606299212598426,
          "string": 3,
          "fret": 0
        },
        {
          "id": 499,
          "duration": 0.21428571428571427,
          "midi": 40,
          "name": "E2",
          "time": 120.21428571428571,
          "velocity": 0.49606299212598426,
          "string": 6,
          "fret": 0
        },
        {
          "id": 500,
          "duration": 0.21428571428571427,
          "midi": 67,
          "name": "G4",
          "time": 120.42857142857142,
          "velocity": 0.49606299212598426,
          "string": 1,
          "fret": 3
        },
        {
          "id": 501,
          "duration": 0.21428571428571427,
          "midi": 40,
          "name": "E2",
          "time": 120.42857142857142,
          "velocity": 0.49606299212598426,
          "string": 6,
          "fret": 0
        },
        {
          "id": 502,
          "duration": 0.21428571428571427,
          "midi": 59,
          "name": "B3",
          "time": 120.64285714285714,
          "velocity": 0.49606299212598426,
          "string": 2,
          "fret": 0
        },
        {
          "id": 503,
          "duration": 0.21428571428571427,
          "midi": 40,
          "name": "E2",
          "time": 120.64285714285714,
          "velocity": 0.49606299212598426,
          "string": 6,
          "fret": 0
        },
        {
          "id": 504,
          "duration": 0.21428571428571427,
          "midi": 55,
          "name": "G3",
          "time": 120.85714285714285,
          "velocity": 0.49606299212598426,
          "string": 3,
          "fret": 0
        },
        {
          "id": 505,
          "duration": 0.21428571428571427,
          "midi": 40,
          "name": "E2",
          "time": 120.85714285714285,
          "velocity": 0.49606299212598426,
          "string": 6,
          "fret": 0
        },
        {
          "id": 506,
          "duration": 0.21428571428571427,
          "midi": 67,
          "name": "G4",
          "time": 121.07142857142857,
          "velocity": 0.49606299212598426,
          "string": 1,
          "fret": 3
        },
        {
          "id": 507,
          "duration": 0.21428571428571427,
          "midi": 40,
          "name": "E2",
          "time": 121.07142857142857,
          "velocity": 0.49606299212598426,
          "string": 6,
          "fret": 0
        },
        {
          "id": 508,
          "duration": 0.21428571428571427,
          "midi": 59,
          "name": "B3",
          "time": 121.28571428571428,
          "velocity": 0.49606299212598426,
          "string": 2,
          "fret": 0
        },
        {
          "id": 509,
          "duration": 0.21428571428571427,
          "midi": 40,
          "name": "E2",
          "time": 121.28571428571428,
          "velocity": 0.49606299212598426,
          "string": 6,
          "fret": 0
        },
        {
          "id": 510,
          "duration": 0.10714285714285714,
          "midi": 55,
          "name": "G3",
          "time": 121.5,
          "velocity": 0.49606299212598426,
          "string": 3,
          "fret": 0
        },
        {
          "id": 511,
          "duration": 0.10714285714285714,
          "midi": 40,
          "name": "E2",
          "time": 121.5,
          "velocity": 0.49606299212598426,
          "string": 6,
          "fret": 0
        },
        {
          "id": 512,
          "duration": 0.21428571428571427,
          "midi": 67,
          "name": "G4",
          "time": 124.28571428571428,
          "velocity": 0.49606299212598426,
          "string": 1,
          "fret": 3
        },
        {
          "id": 513,
          "duration": 0.21428571428571427,
          "midi": 40,
          "name": "E2",
          "time": 124.28571428571428,
          "velocity": 0.49606299212598426,
          "string": 6,
          "fret": 0
        },
        {
          "id": 514,
          "duration": 0.21428571428571427,
          "midi": 59,
          "name": "B3",
          "time": 124.5,
          "velocity": 0.49606299212598426,
          "string": 2,
          "fret": 0
        },
        {
          "id": 515,
          "duration": 0.21428571428571427,
          "midi": 40,
          "name": "E2",
          "time": 124.5,
          "velocity": 0.49606299212598426,
          "string": 6,
          "fret": 0
        },
        {
          "id": 516,
          "duration": 0.21428571428571427,
          "midi": 55,
          "name": "G3",
          "time": 124.71428571428571,
          "velocity": 0.49606299212598426,
          "string": 3,
          "fret": 0
        },
        {
          "id": 517,
          "duration": 0.21428571428571427,
          "midi": 40,
          "name": "E2",
          "time": 124.71428571428571,
          "velocity": 0.49606299212598426,
          "string": 6,
          "fret": 0
        },
        {
          "id": 518,
          "duration": 0.21428571428571427,
          "midi": 64,
          "name": "E4",
          "time": 124.92857142857142,
          "velocity": 0.49606299212598426,
          "string": 1,
          "fret": 0
        },
        {
          "id": 519,
          "duration": 0.21428571428571427,
          "midi": 40,
          "name": "E2",
          "time": 124.92857142857142,
          "velocity": 0.49606299212598426,
          "string": 6,
          "fret": 0
        },
        {
          "id": 520,
          "duration": 0.21428571428571427,
          "midi": 59,
          "name": "B3",
          "time": 125.14285714285714,
          "velocity": 0.49606299212598426,
          "string": 2,
          "fret": 0
        },
        {
          "id": 521,
          "duration": 0.21428571428571427,
          "midi": 40,
          "name": "E2",
          "time": 125.14285714285714,
          "velocity": 0.49606299212598426,
          "string": 6,
          "fret": 0
        },
        {
          "id": 522,
          "duration": 0.21428571428571427,
          "midi": 55,
          "name": "G3",
          "time": 125.35714285714285,
          "velocity": 0.49606299212598426,
          "string": 3,
          "fret": 0
        },
        {
          "id": 523,
          "duration": 0.21428571428571427,
          "midi": 40,
          "name": "E2",
          "time": 125.35714285714285,
          "velocity": 0.49606299212598426,
          "string": 6,
          "fret": 0
        },
        {
          "id": 524,
          "duration": 0.21428571428571427,
          "midi": 69,
          "name": "A4",
          "time": 125.57142857142857,
          "velocity": 0.49606299212598426,
          "string": 1,
          "fret": 5
        },
        {
          "id": 525,
          "duration": 0.21428571428571427,
          "midi": 40,
          "name": "E2",
          "time": 125.57142857142857,
          "velocity": 0.49606299212598426,
          "string": 6,
          "fret": 0
        },
        {
          "id": 526,
          "duration": 0.21428571428571427,
          "midi": 59,
          "name": "B3",
          "time": 125.78571428571428,
          "velocity": 0.49606299212598426,
          "string": 2,
          "fret": 0
        },
        {
          "id": 527,
          "duration": 0.21428571428571427,
          "midi": 40,
          "name": "E2",
          "time": 125.78571428571428,
          "velocity": 0.49606299212598426,
          "string": 6,
          "fret": 0
        },
        {
          "id": 528,
          "duration": 0.21428571428571427,
          "midi": 55,
          "name": "G3",
          "time": 126.0,
          "velocity": 0.49606299212598426,
          "string": 3,
          "fret": 0
        },
        {
          "id": 529,
          "duration": 0.21428571428571427,
          "midi": 40,
          "name": "E2",
          "time": 126.0,
          "velocity": 0.49606299212598426,
          "string": 6,
          "fret": 0
        },
        {
          "id": 530,
          "duration": 0.21428571428571427,
          "midi": 66,
          "name": "F#4",
          "time": 126.21428571428571,
          "velocity": 0.49606299212598426,
          "string": 1,
          "fret": 2
        },
        {
          "id": 531,
          "duration": 0.21428571428571427,
          "midi": 40,
          "name": "E2",
          "time": 126.21428571428571,
          "velocity": 0.49606299212598426,
          "string": 6,
          "fret": 0
        },
        {
          "id": 532,
          "duration": 0.21428571428571427,
          "midi": 59,
          "name": "B3",
          "time": 126.42857142857142,
          "velocity": 0.49606299212598426,
          "string": 2,
          "fret": 0
        },
        {
          "id": 533,
          "duration": 0.21428571428571427,
          "midi": 40,
          "name": "E2",
          "time": 126.42857142857142,
          "velocity": 0.49606299212598426,
          "string": 6,
          "fret": 0
        },
        {
          "id": 534,
          "duration": 0.10714285714285714,
          "midi": 55,
          "name": "G3",
          "time": 126.64285714285714,
          "velocity": 0.49606299212598426,
          "string": 3,
          "fret": 0
        },
        {
          "id": 535,
          "duration": 0.10714285714285714,
          "midi": 40,
          "name": "E2",
          "time": 126.64285714285714,
          "velocity": 0.49606299212598426,
          "string": 6,
          "fret": 0
        },
        {
          "id": 536,
          "duration": 0.21428571428571427,
          "midi": 71,
          "name": "B4",
          "time": 129.42857142857142,
          "velocity": 0.49606299212598426,
          "string": 1,
          "fret": 7
        },
        {
          "id": 537,
          "duration": 0.21428571428571427,
          "midi": 40,
          "name": "E2",
          "time": 129.42857142857142,
          "velocity": 0.49606299212598426,
          "string": 6,
          "fret": 0
        },
        {
          "id": 538,
          "duration": 0.21428571428571427,
          "midi": 59,
          "name": "B3",
          "time": 129.64285714285714,
          "velocity": 0.49606299212598426,
          "string": 2,
          "fret": 0
        },
        {
          "id": 539,
          "duration": 0.21428571428571427,
          "midi": 40,
          "name": "E2",
          "time": 129.64285714285714,
          "velocity": 0.49606299212598426,
          "string": 6,
          "fret": 0
        },
        {
          "id": 540,
          "duration": 0.21428571428571427,
          "midi": 55,
          "name": "G3",
          "time": 129.85714285714286,
          "velocity": 0.49606299212598426,
          "string": 3,
          "fret": 0
        },
        {
          "id": 541,
          "duration": 0.21428571428571427,
          "midi": 40,
          "name": "E2",
          "time": 129.85714285714286,
          "velocity": 0.49606299212598426,
          "string": 6,
          "fret": 0
        },
        {
          "id": 542,
          "duration": 0.21428571428571427,
          "midi": 71,
          "name": "B4",
          "time": 130.07142857142856,
          "velocity": 0.49606299212598426,
          "string": 1,
          "fret": 7
        },
        {
          "id": 543,
          "duration": 0.21428571428571427,
          "midi": 40,
          "name": "E2",
          "time": 130.07142857142856,
          "velocity": 0.49606299212598426,
          "string": 6,
          "fret": 0
        },
        {
          "id": 544,
          "duration": 0.21428571428571427,
          "midi": 59,
          "name": "B3",
          "time": 130.28571428571428,
          "velocity": 0.49606299212598426,
          "string": 2,
          "fret": 0
        },
        {
          "id": 545,
          "duration": 0.21428571428571427,
          "midi": 40,
          "name": "E2",
          "time": 130.28571428571428,
          "velocity": 0.49606299212598426,
          "string": 6,
          "fret": 0
        },
        {
          "id": 546,
          "duration": 0.21428571428571427,
          "midi": 55,
          "name": "G3",
          "time": 130.5,
          "velocity": 0.49606299212598426,
          "string": 3,
          "fret": 0
        },
        {
          "id": 547,
          "duration": 0.21428571428571427,
          "midi": 40,
          "name": "E2",
          "time": 130.5,
          "velocity": 0.49606299212598426,
          "string": 6,
          "fret": 0
        },
        {
          "id": 548,
          "duration": 0.21428571428571427,
          "midi": 71,
          "name": "B4",
          "time": 130.7142857142857,
          "velocity": 0.49606299212598426,
          "string": 1,
          "fret": 7
        },
        {
          "id": 549,
          "duration": 0.21428571428571427,
          "midi": 40,
          "name": "E2",
          "time": 130.7142857142857,
          "velocity": 0.49606299212598426,
          "string": 6,
          "fret": 0
        },
        {
          "id": 550,
          "duration": 0.21428571428571427,
          "midi": 59,
          "name": "B3",
          "time": 130.92857142857142,
          "velocity": 0.49606299212598426,
          "string": 2,
          "fret": 0
        },
        {
          "id": 551,
          "duration": 0.21428571428571427,
          "midi": 40,
          "name": "E2",
          "time": 130.92857142857142,
          "velocity": 0.49606299212598426,
          "string": 6,
          "fret": 0
        },
        {
          "id": 552,
          "duration": 0.21428571428571427,
          "midi": 55,
          "name": "G3",
          "time": 131.14285714285714,
          "velocity": 0.49606299212598426,
          "string": 3,
          "fret": 0
        },
        {
          "id": 553,
          "duration": 0.21428571428571427,
          "midi": 40,
          "name": "E2",
          "time": 131.14285714285714,
          "velocity": 0.49606299212598426,
          "string": 6,
          "fret": 0
        },
        {
          "id": 554,
          "duration": 0.21428571428571427,
          "midi": 71,
          "name": "B4",
          "time": 131.35714285714286,
          "velocity": 0.49606299212598426,
          "string": 1,
          "fret": 7
        },
        {
          "id": 555,
          "duration": 0.21428571428571427,
          "midi": 40,
          "name": "E2",
          "time": 131.35714285714286,
          "velocity": 0.49606299212598426,
          "string": 6,
          "fret": 0
        },
        {
          "id": 556,
          "duration": 0.21428571428571427,
          "midi": 59,
          "name": "B3",
          "time": 131.57142857142856,
          "velocity": 0.49606299212598426,
          "string": 2,
          "fret": 0
        },
        {
          "id": 557,
          "duration": 0.21428571428571427,
          "midi": 40,
          "name": "E2",
          "time": 131.57142857142856,
          "velocity": 0.49606299212598426,
          "string": 6,
          "fret": 0
        },
        {
          "id": 558,
          "duration": 0.10714285714285714,
          "midi": 55,
          "name": "G3",
          "time": 131.78571428571428,
          "velocity": 0.49606299212598426,
          "string": 3,
          "fret": 0
        },
        {
          "id": 559,
          "duration": 0.10714285714285714,
          "midi": 40,
          "name": "E2",
          "time": 131.78571428571428,
          "velocity": 0.49606299212598426,
          "string": 6,
          "fret": 0
        },
        {
          "id": 560,
          "duration": 0.21428571428571427,
          "midi": 67,
          "name": "G4",
          "time": 134.57142857142856,
          "velocity": 0.49606299212598426,
          "string": 1,
          "fret": 3
        },
        {
          "id": 561,
          "duration": 0.21428571428571427,
          "midi": 40,
          "name": "E2",
          "time": 134.57142857142856,
          "velocity": 0.49606299212598426,
          "string": 6,
          "fret": 0
        },
        {
          "id": 562,
          "duration": 0.21428571428571427,
          "midi": 59,
          "name": "B3",
          "time": 134.78571428571428,
          "velocity": 0.49606299212598426,
          "string": 2,
          "fret": 0
        },
        {
          "id": 563,
          "duration": 0.21428571428571427,
          "midi": 40,
          "name": "E2",
          "time": 134.78571428571428,
          "velocity": 0.49606299212598426,
          "string": 6,
          "fret": 0
        },
        {
          "id": 564,
          "duration": 0.21428571428571427,
          "midi": 55,
          "name": "G3",
          "time": 135.0,
          "velocity": 0.49606299212598426,
          "string": 3,
          "fret": 0
        },
        {
          "id": 565,
          "duration": 0.21428571428571427,
          "midi": 40,
          "name": "E2",
          "time": 135.0,
          "velocity": 0.49606299212598426,
          "string": 6,
          "fret": 0
        },
        {
          "id": 566,
          "duration": 0.21428571428571427,
          "midi": 64,
          "name": "E4",
          "time": 135.2142857142857,
          "velocity": 0.49606299212598426,
          "string": 1,
          "fret": 0
        },
        {
          "id": 567,
          "duration": 0.21428571428571427,
          "midi": 40,
          "name": "E2",
          "time": 135.2142857142857,
          "velocity": 0.49606299212598426,
          "string": 6,
          "fret": 0
        },
        {
          "id": 568,
          "duration": 0.21428571428571427,
          "midi": 59,
          "name": "B3",
          "time": 135.42857142857142,
          "velocity": 0.49606299212598426,
          "string": 2,
          "fret": 0
        },
        {
          "id": 569,
          "duration": 0.21428571428571427,
          "midi": 40,
          "name": "E2",
          "time": 135.42857142857142,
          "velocity": 0.49606299212598426,
          "string": 6,
          "fret": 0
        },
        {
          "id": 570,
          "duration": 0.21428571428571427,
          "midi": 55,
          "name": "G3",
          "time": 135.64285714285714,
          "velocity": 0.49606299212598426,
          "string": 3,
          "fret": 0
        },
        {
          "id": 571,
          "duration": 0.21428571428571427,
          "midi": 40,
          "name": "E2",
          "time": 135.64285714285714,
          "velocity": 0.49606299212598426,
          "string": 6,
          "fret": 0
        },
        {
          "id": 572,
          "duration": 0.21428571428571427,
          "midi": 69,
          "name": "A4",
          "time": 135.85714285714286,
          "velocity": 0.49606299212598426,
          "string": 1,
          "fret": 5
        },
        {
          "id": 573,
          "duration": 0.21428571428571427,
          "midi": 40,
          "name": "E2",
          "time": 135.85714285714286,
          "velocity": 0.49606299212598426,
          "string": 6,
          "fret": 0
        },
        {
          "id": 574,
          "duration": 0.21428571428571427,
          "midi": 59,
          "name": "B3",
          "time": 136.07142857142856,
          "velocity": 0.49606299212598426,
          "string": 2,
          "fret": 0
        },
        {
          "id": 575,
          "duration": 0.21428571428571427,
          "midi": 40,
          "name": "E2",
          "time": 136.07142857142856,
          "velocity": 0.49606299212598426,
          "string": 6,
          "fret": 0
        },
        {
          "id": 576,
          "duration": 0.21428571428571427,
          "midi": 55,
          "name": "G3",
          "time": 136.28571428571428,
          "velocity": 0.49606299212598426,
          "string": 3,
          "fret": 0
        },
        {
          "id": 577,
          "duration": 0.21428571428571427,
          "midi": 40,
          "name": "E2",
          "time": 136.28571428571428,
          "velocity": 0.49606299212598426,
          "string": 6,
          "fret": 0
        },
        {
          "id": 578,
          "duration": 0.21428571428571427,
          "midi": 66,
          "name": "F#4",
          "time": 136.5,
          "velocity": 0.49606299212598426,
          "string": 1,
          "fret": 2
        },
        {
          "id": 579,
          "duration": 0.21428571428571427,
          "midi": 40,
          "name": "E2",
          "time": 136.5,
          "velocity": 0.49606299212598426,
          "string": 6,
          "fret": 0
        },
        {
          "id": 580,
          "duration": 0.21428571428571427,
          "midi": 59,
          "name": "B3",
          "time": 136.7142857142857,
          "velocity": 0.49606299212598426,
          "string": 2,
          "fret": 0
        },
        {
          "id": 581,
          "duration": 0.21428571428571427,
          "midi": 40,
          "name": "E2",
          "time": 136.7142857142857,
          "velocity": 0.49606299212598426,
          "string": 6,
          "fret": 0
        },
        {
          "id": 582,
          "duration": 0.10714285714285714,
          "midi": 55,
          "name": "G3",
          "time": 136.92857142857142,
          "velocity": 0.49606299212598426,
          "string": 3,
          "fret": 0
        },
        {
          "id": 583,
          "duration": 0.10714285714285714,
          "midi": 40,
          "name": "E2",
          "time": 136.92857142857142,
          "velocity": 0.49606299212598426,
          "string": 6,
          "fret": 0
        },
        {
          "id": 584,
          "duration": 0.21428571428571427,
          "midi": 67,
          "name": "G4",
          "time": 139.7142857142857,
          "velocity": 0.49606299212598426,
          "string": 1,
          "fret": 3
        },
        {
          "id": 585,
          "duration": 0.21428571428571427,
          "midi": 40,
          "name": "E2",
          "time": 139.7142857142857,
          "velocity": 0.49606299212598426,
          "string": 6,
          "fret": 0
        },
        {
          "id": 586,
          "duration": 0.21428571428571427,
          "midi": 59,
          "name": "B3",
          "time": 139.92857142857142,
          "velocity": 0.49606299212598426,
          "string": 2,
          "fret": 0
        },
        {
          "id": 587,
          "duration": 0.21428571428571427,
          "midi": 40,
          "name": "E2",
          "time": 139.92857142857142,
          "velocity": 0.49606299212598426,
          "string": 6,
          "fret": 0
        },
        {
          "id": 588,
          "duration": 0.21428571428571427,
          "midi": 55,
          "name": "G3",
          "time": 140.14285714285714,
          "velocity": 0.49606299212598426,
          "string": 3,
          "fret": 0
        },
        {
          "id": 589,
          "duration": 0.21428571428571427,
          "midi": 40,
          "name": "E2",
          "time": 140.14285714285714,
          "velocity": 0.49606299212598426,
          "string": 6,
          "fret": 0
        },
        {
          "id": 590,
          "duration": 0.21428571428571427,
          "midi": 67,
          "name": "G4",
          "time": 140.35714285714286,
          "velocity": 0.49606299212598426,
          "string": 1,
          "fret": 3
        },
        {
          "id": 591,
          "duration": 0.21428571428571427,
          "midi": 40,
          "name": "E2",
          "time": 140.35714285714286,
          "velocity": 0.49606299212598426,
          "string": 6,
          "fret": 0
        },
        {
          "id": 592,
          "duration": 0.21428571428571427,
          "midi": 59,
          "name": "B3",
          "time": 140.57142857142856,
          "velocity": 0.49606299212598426,
          "string": 2,
          "fret": 0
        },
        {
          "id": 593,
          "duration": 0.21428571428571427,
          "midi": 40,
          "name": "E2",
          "time": 140.57142857142856,
          "velocity": 0.49606299212598426,
          "string": 6,
          "fret": 0
        },
        {
          "id": 594,
          "duration": 0.21428571428571427,
          "midi": 55,
          "name": "G3",
          "time": 140.78571428571428,
          "velocity": 0.49606299212598426,
          "string": 3,
          "fret": 0
        },
        {
          "id": 595,
          "duration": 0.21428571428571427,
          "midi": 40,
          "name": "E2",
          "time": 140.78571428571428,
          "velocity": 0.49606299212598426,
          "string": 6,
          "fret": 0
        },
        {
          "id": 596,
          "duration": 0.21428571428571427,
          "midi": 67,
          "name": "G4",
          "time": 141.0,
          "velocity": 0.49606299212598426,
          "string": 1,
          "fret": 3
        },
        {
          "id": 597,
          "duration": 0.21428571428571427,
          "midi": 40,
          "name": "E2",
          "time": 141.0,
          "velocity": 0.49606299212598426,
          "string": 6,
          "fret": 0
        },
        {
          "id": 598,
          "duration": 0.21428571428571427,
          "midi": 59,
          "name": "B3",
          "time": 141.2142857142857,
          "velocity": 0.49606299212598426,
          "string": 2,
          "fret": 0
        },
        {
          "id": 599,
          "duration": 0.21428571428571427,
          "midi": 40,
          "name": "E2",
          "time": 141.2142857142857,
          "velocity": 0.49606299212598426,
          "string": 6,
          "fret": 0
        },
        {
          "id": 600,
          "duration": 0.21428571428571427,
          "midi": 55,
          "name": "G3",
          "time": 141.42857142857142,
          "velocity": 0.49606299212598426,
          "string": 3,
          "fret": 0
        },
        {
          "id": 601,
          "duration": 0.21428571428571427,
          "midi": 40,
          "name": "E2",
          "time": 141.42857142857142,
          "velocity": 0.49606299212598426,
          "string": 6,
          "fret": 0
        },
        {
          "id": 602,
          "duration": 0.21428571428571427,
          "midi": 67,
          "name": "G4",
          "time": 141.64285714285714,
          "velocity": 0.49606299212598426,
          "string": 1,
          "fret": 3
        },
        {
          "id": 603,
          "duration": 0.21428571428571427,
          "midi": 40,
          "name": "E2",
          "time": 141.64285714285714,
          "velocity": 0.49606299212598426,
          "string": 6,
          "fret": 0
        },
        {
          "id": 604,
          "duration": 0.21428571428571427,
          "midi": 59,
          "name": "B3",
          "time": 141.85714285714286,
          "velocity": 0.49606299212598426,
          "string": 2,
          "fret": 0
        },
        {
          "id": 605,
          "duration": 0.21428571428571427,
          "midi": 40,
          "name": "E2",
          "time": 141.85714285714286,
          "velocity": 0.49606299212598426,
          "string": 6,
          "fret": 0
        },
        {
          "id": 606,
          "duration": 0.10714285714285714,
          "midi": 55,
          "name": "G3",
          "time": 142.07142857142856,
          "velocity": 0.49606299212598426,
          "string": 3,
          "fret": 0
        },
        {
          "id": 607,
          "duration": 0.10714285714285714,
          "midi": 40,
          "name": "E2",
          "time": 142.07142857142856,
          "velocity": 0.49606299212598426,
          "string": 6,
          "fret": 0
        },
        {
          "id": 608,
          "duration": 0.21428571428571427,
          "midi": 70,
          "name": "A#4",
          "time": 144.85714285714286,
          "velocity": 0.49606299212598426,
          "string": 1,
          "fret": 6
        },
        {
          "id": 609,
          "duration": 0.21428571428571427,
          "midi": 40,
          "name": "E2",
          "time": 144.85714285714286,
          "velocity": 0.49606299212598426,
          "string": 6,
          "fret": 0
        },
        {
          "id": 610,
          "duration": 0.21428571428571427,
          "midi": 59,
          "name": "B3",
          "time": 145.07142857142856,
          "velocity": 0.49606299212598426,
          "string": 2,
          "fret": 0
        },
        {
          "id": 611,
          "duration": 0.21428571428571427,
          "midi": 40,
          "name": "E2",
          "time": 145.07142857142856,
          "velocity": 0.49606299212598426,
          "string": 6,
          "fret": 0
        },
        {
          "id": 612,
          "duration": 0.21428571428571427,
          "midi": 55,
          "name": "G3",
          "time": 145.28571428571428,
          "velocity": 0.49606299212598426,
          "string": 3,
          "fret": 0
        },
        {
          "id": 613,
          "duration": 0.21428571428571427,
          "midi": 40,
          "name": "E2",
          "time": 145.28571428571428,
          "velocity": 0.49606299212598426,
          "string": 6,
          "fret": 0
        },
        {
          "id": 614,
          "duration": 0.21428571428571427,
          "midi": 69,
          "name": "A4",
          "time": 145.5,
          "velocity": 0.49606299212598426,
          "string": 1,
          "fret": 5
        },
        {
          "id": 615,
          "duration": 0.21428571428571427,
          "midi": 40,
          "name": "E2",
          "time": 145.5,
          "velocity": 0.49606299212598426,
          "string": 6,
          "fret": 0
        },
        {
          "id": 616,
          "duration": 0.21428571428571427,
          "midi": 59,
          "name": "B3",
          "time": 145.7142857142857,
          "velocity": 0.49606299212598426,
          "string": 2,
          "fret": 0
        },
        {
          "id": 617,
          "duration": 0.21428571428571427,
          "midi": 40,
          "name": "E2",
          "time": 145.7142857142857,
          "velocity": 0.49606299212598426,
          "string": 6,
          "fret": 0
        },
        {
          "id": 618,
          "duration": 0.21428571428571427,
          "midi": 55,
          "name": "G3",
          "time": 145.92857142857142,
          "velocity": 0.49606299212598426,
          "string": 3,
          "fret": 0
        },
        {
          "id": 619,
          "duration": 0.21428571428571427,
          "midi": 40,
          "name": "E2",
          "time": 145.92857142857142,
          "velocity": 0.49606299212598426,
          "string": 6,
          "fret": 0
        },
        {
          "id": 620,
          "duration": 0.21428571428571427,
          "midi": 67,
          "name": "G4",
          "time": 146.14285714285714,
          "velocity": 0.49606299212598426,
          "string": 1,
          "fret": 3
        },
        {
          "id": 621,
          "duration": 0.21428571428571427,
          "midi": 40,
          "name": "E2",
          "time": 146.14285714285714,
          "velocity": 0.49606299212598426,
          "string": 6,
          "fret": 0
        },
        {
          "id": 622,
          "duration": 0.21428571428571427,
          "midi": 59,
          "name": "B3",
          "time": 146.35714285714286,
          "velocity": 0.49606299212598426,
          "string": 2,
          "fret": 0
        },
        {
          "id": 623,
          "duration": 0.21428571428571427,
          "midi": 40,
          "name": "E2",
          "time": 146.35714285714286,
          "velocity": 0.49606299212598426,
          "string": 6,
          "fret": 0
        },
        {
          "id": 624,
          "duration": 0.21428571428571427,
          "midi": 55,
          "name": "G3",
          "time": 146.57142857142856,
          "velocity": 0.49606299212598426,
          "string": 3,
          "fret": 0
        },
        {
          "id": 625,
          "duration": 0.21428571428571427,
          "midi": 40,
          "name": "E2",
          "time": 146.57142857142856,
          "velocity": 0.49606299212598426,
          "string": 6,
          "fret": 0
        },
        {
          "id": 626,
          "duration": 0.21428571428571427,
          "midi": 64,
          "name": "E4",
          "time": 146.78571428571428,
          "velocity": 0.49606299212598426,
          "string": 1,
          "fret": 0
        },
        {
          "id": 627,
          "duration": 0.21428571428571427,
          "midi": 40,
          "name": "E2",
          "time": 146.78571428571428,
          "velocity": 0.49606299212598426,
          "string": 6,
          "fret": 0
        },
        {
          "id": 628,
          "duration": 0.21428571428571427,
          "midi": 59,
          "name": "B3",
          "time": 147.0,
          "velocity": 0.49606299212598426,
          "string": 2,
          "fret": 0
        },
        {
          "id": 629,
          "duration": 0.21428571428571427,
          "midi": 40,
          "name": "E2",
          "time": 147.0,
          "velocity": 0.49606299212598426,
          "string": 6,
          "fret": 0
        },
        {
          "id": 630,
          "duration": 0.10714285714285714,
          "midi": 62,
          "name": "D4",
          "time": 147.2142857142857,
          "velocity": 0.49606299212598426,
          "string": 2,
          "fret": 3
        },
        {
          "id": 631,
          "duration": 0.10714285714285714,
          "midi": 40,
          "name": "E2",
          "time": 147.2142857142857,
          "velocity": 0.49606299212598426,
          "string": 6,
          "fret": 0
        },
        {
          "id": 632,
          "duration": 0.21428571428571427,
          "midi": 64,
          "name": "E4",
          "time": 150.0,
          "velocity": 0.49606299212598426,
          "string": 1,
          "fret": 0
        },
        {
          "id": 633,
          "duration": 0.21428571428571427,
          "midi": 40,
          "name": "E2",
          "time": 150.0,
          "velocity": 0.49606299212598426,
          "string": 6,
          "fret": 0
        },
        {
          "id": 634,
          "duration": 0.21428571428571427,
          "midi": 59,
          "name": "B3",
          "time": 150.2142857142857,
          "velocity": 0.49606299212598426,
          "string": 2,
          "fret": 0
        },
        {
          "id": 635,
          "duration": 0.21428571428571427,
          "midi": 40,
          "name": "E2",
          "time": 150.2142857142857,
          "velocity": 0.49606299212598426,
          "string": 6,
          "fret": 0
        },
        {
          "id": 636,
          "duration": 0.21428571428571427,
          "midi": 55,
          "name": "G3",
          "time": 150.42857142857142,
          "velocity": 0.49606299212598426,
          "string": 3,
          "fret": 0
        },
        {
          "id": 637,
          "duration": 0.21428571428571427,
          "midi": 40,
          "name": "E2",
          "time": 150.42857142857142,
          "velocity": 0.49606299212598426,
          "string": 6,
          "fret": 0
        },
        {
          "id": 638,
          "duration": 0.21428571428571427,
          "midi": 64,
          "name": "E4",
          "time": 150.64285714285714,
          "velocity": 0.49606299212598426,
          "string": 1,
          "fret": 0
        },
        {
          "id": 639,
          "duration": 0.21428571428571427,
          "midi": 40,
          "name": "E2",
          "time": 150.64285714285714,
          "velocity": 0.49606299212598426,
          "string": 6,
          "fret": 0
        },
        {
          "id": 640,
          "duration": 0.21428571428571427,
          "midi": 59,
          "name": "B3",
          "time": 150.85714285714286,
          "velocity": 0.49606299212598426,
          "string": 2,
          "fret": 0
        },
        {
          "id": 641,
          "duration": 0.21428571428571427,
          "midi": 40,
          "name": "E2",
          "time": 150.85714285714286,
          "velocity": 0.49606299212598426,
          "string": 6,
          "fret": 0
        },
        {
          "id": 642,
          "duration": 0.21428571428571427,
          "midi": 55,
          "name": "G3",
          "time": 151.07142857142856,
          "velocity": 0.49606299212598426,
          "string": 3,
          "fret": 0
        },
        {
          "id": 643,
          "duration": 0.21428571428571427,
          "midi": 40,
          "name": "E2",
          "time": 151.07142857142856,
          "velocity": 0.49606299212598426,
          "string": 6,
          "fret": 0
        },
        {
          "id": 644,
          "duration": 0.21428571428571427,
          "midi": 64,
          "name": "E4",
          "time": 151.28571428571428,
          "velocity": 0.49606299212598426,
          "string": 1,
          "fret": 0
        },
        {
          "id": 645,
          "duration": 0.21428571428571427,
          "midi": 40,
          "name": "E2",
          "time": 151.28571428571428,
          "velocity": 0.49606299212598426,
          "string": 6,
          "fret": 0
        },
        {
          "id": 646,
          "duration": 0.21428571428571427,
          "midi": 59,
          "name": "B3",
          "time": 151.5,
          "velocity": 0.49606299212598426,
          "string": 2,
          "fret": 0
        },
        {
          "id": 647,
          "duration": 0.21428571428571427,
          "midi": 40,
          "name": "E2",
          "time": 151.5,
          "velocity": 0.49606299212598426,
          "string": 6,
          "fret": 0
        },
        {
          "id": 648,
          "duration": 0.21428571428571427,
          "midi": 55,
          "name": "G3",
          "time": 151.7142857142857,
          "velocity": 0.49606299212598426,
          "string": 3,
          "fret": 0
        },
        {
          "id": 649,
          "duration": 0.21428571428571427,
          "midi": 40,
          "name": "E2",
          "time": 151.7142857142857,
          "velocity": 0.49606299212598426,
          "string": 6,
          "fret": 0
        },
        {
          "id": 650,
          "duration": 0.21428571428571427,
          "midi": 64,
          "name": "E4",
          "time": 151.92857142857142,
          "velocity": 0.49606299212598426,
          "string": 1,
          "fret": 0
        },
        {
          "id": 651,
          "duration": 0.21428571428571427,
          "midi": 40,
          "name": "E2",
          "time": 151.92857142857142,
          "velocity": 0.49606299212598426,
          "string": 6,
          "fret": 0
        },
        {
          "id": 652,
          "duration": 0.21428571428571427,
          "midi": 59,
          "name": "B3",
          "time": 152.14285714285714,
          "velocity": 0.49606299212598426,
          "string": 2,
          "fret": 0
        },
        {
          "id": 653,
          "duration": 0.21428571428571427,
          "midi": 40,
          "name": "E2",
          "time": 152.14285714285714,
          "velocity": 0.49606299212598426,
          "string": 6,
          "fret": 0
        },
        {
          "id": 654,
          "duration": 0.10714285714285714,
          "midi": 55,
          "name": "G3",
          "time": 152.35714285714286,
          "velocity": 0.49606299212598426,
          "string": 3,
          "fret": 0
        },
        {
          "id": 655,
          "duration": 0.10714285714285714,
          "midi": 40,
          "name": "E2",
          "time": 152.35714285714286,
          "velocity": 0.49606299212598426,
          "string": 6,
          "fret": 0
        },
        {
          "id": 656,
          "duration": 0.21428571428571427,
          "midi": 70,
          "name": "A#4",
          "time": 155.14285714285714,
          "velocity": 0.49606299212598426,
          "string": 1,
          "fret": 6
        },
        {
          "id": 657,
          "duration": 0.21428571428571427,
          "midi": 40,
          "name": "E2",
          "time": 155.14285714285714,
          "velocity": 0.49606299212598426,
          "string": 6,
          "fret": 0
        },
        {
          "id": 658,
          "duration": 0.21428571428571427,
          "midi": 59,
          "name": "B3",
          "time": 155.35714285714286,
          "velocity": 0.49606299212598426,
          "string": 2,
          "fret": 0
        },
        {
          "id": 659,
          "duration": 0.21428571428571427,
          "midi": 40,
          "name": "E2",
          "time": 155.35714285714286,
          "velocity": 0.49606299212598426,
          "string": 6,
          "fret": 0
        },
        {
          "id": 660,
          "duration": 0.21428571428571427,
          "midi": 55,
          "name": "G3",
          "time": 155.57142857142856,
          "velocity": 0.49606299212598426,
          "string": 3,
          "fret": 0
        },
        {
          "id": 661,
          "duration": 0.21428571428571427,
          "midi": 40,
          "name": "E2",
          "time": 155.57142857142856,
          "velocity": 0.49606299212598426,
          "string": 6,
          "fret": 0
        },
        {
          "id": 662,
          "duration": 0.21428571428571427,
          "midi": 69,
          "name": "A4",
          "time": 155.78571428571428,
          "velocity": 0.49606299212598426,
          "string": 1,
          "fret": 5
        },
        {
          "id": 663,
          "duration": 0.21428571428571427,
          "midi": 40,
          "name": "E2",
          "time": 155.78571428571428,
          "velocity": 0.49606299212598426,
          "string": 6,
          "fret": 0
        },
        {
          "id": 664,
          "duration": 0.21428571428571427,
          "midi": 59,
          "name": "B3",
          "time": 156.0,
          "velocity": 0.49606299212598426,
          "string": 2,
          "fret": 0
        },
        {
          "id": 665,
          "duration": 0.21428571428571427,
          "midi": 40,
          "name": "E2",
          "time": 156.0,
          "velocity": 0.49606299212598426,
          "string": 6,
          "fret": 0
        },
        {
          "id": 666,
          "duration": 0.21428571428571427,
          "midi": 55,
          "name": "G3",
          "time": 156.2142857142857,
          "velocity": 0.49606299212598426,
          "string": 3,
          "fret": 0
        },
        {
          "id": 667,
          "duration": 0.21428571428571427,
          "midi": 40,
          "name": "E2",
          "time": 156.2142857142857,
          "velocity": 0.49606299212598426,
          "string": 6,
          "fret": 0
        },
        {
          "id": 668,
          "duration": 0.21428571428571427,
          "midi": 67,
          "name": "G4",
          "time": 156.42857142857142,
          "velocity": 0.49606299212598426,
          "string": 1,
          "fret": 3
        },
        {
          "id": 669,
          "duration": 0.21428571428571427,
          "midi": 40,
          "name": "E2",
          "time": 156.42857142857142,
          "velocity": 0.49606299212598426,
          "string": 6,
          "fret": 0
        },
        {
          "id": 670,
          "duration": 0.21428571428571427,
          "midi": 59,
          "name": "B3",
          "time": 156.64285714285714,
          "velocity": 0.49606299212598426,
          "string": 2,
          "fret": 0
        },
        {
          "id": 671,
          "duration": 0.21428571428571427,
          "midi": 40,
          "name": "E2",
          "time": 156.64285714285714,
          "velocity": 0.49606299212598426,
          "string": 6,
          "fret": 0
        },
        {
          "id": 672,
          "duration": 0.21428571428571427,
          "midi": 55,
          "name": "G3",
          "time": 156.85714285714286,
          "velocity": 0.49606299212598426,
          "string": 3,
          "fret": 0
        },
        {
          "id": 673,
          "duration": 0.21428571428571427,
          "midi": 40,
          "name": "E2",
          "time": 156.85714285714286,
          "velocity": 0.49606299212598426,
          "string": 6,
          "fret": 0
        },
        {
          "id": 674,
          "duration": 0.21428571428571427,
          "midi": 64,
          "name": "E4",
          "time": 157.07142857142856,
          "velocity": 0.49606299212598426,
          "string": 1,
          "fret": 0
        },
        {
          "id": 675,
          "duration": 0.21428571428571427,
          "midi": 40,
          "name": "E2",
          "time": 157.07142857142856,
          "velocity": 0.49606299212598426,
          "string": 6,
          "fret": 0
        },
        {
          "id": 676,
          "duration": 0.21428571428571427,
          "midi": 59,
          "name": "B3",
          "time": 157.28571428571428,
          "velocity": 0.49606299212598426,
          "string": 2,
          "fret": 0
        },
        {
          "id": 677,
          "duration": 0.21428571428571427,
          "midi": 40,
          "name": "E2",
          "time": 157.28571428571428,
          "velocity": 0.49606299212598426,
          "string": 6,
          "fret": 0
        },
        {
          "id": 678,
          "duration": 0.10714285714285714,
          "midi": 62,
          "name": "D4",
          "time": 157.5,
          "velocity": 0.49606299212598426,
          "string": 2,
          "fret": 3
        },
        {
          "id": 679,
          "duration": 0.10714285714285714,
          "midi": 40,
          "name": "E2",
          "time": 157.5,
          "velocity": 0.49606299212598426,
          "string": 6,
          "fret": 0
        },
        {
          "id": 680,
          "duration": 0.21428571428571427,
          "midi": 64,
          "name": "E4",
          "time": 160.28571428571428,
          "velocity": 0.49606299212598426,
          "string": 1,
          "fret": 0
        },
        {
          "id": 681,
          "duration": 0.21428571428571427,
          "midi": 40,
          "name": "E2",
          "time": 160.28571428571428,
          "velocity": 0.49606299212598426,
          "string": 6,
          "fret": 0
        },
        {
          "id": 682,
          "duration": 0.21428571428571427,
          "midi": 59,
          "name": "B3",
          "time": 160.5,
          "velocity": 0.49606299212598426,
          "string": 2,
          "fret": 0
        },
        {
          "id": 683,
          "duration": 0.21428571428571427,
          "midi": 40,
          "name": "E2",
          "time": 160.5,
          "velocity": 0.49606299212598426,
          "string": 6,
          "fret": 0
        },
        {
          "id": 684,
          "duration": 0.21428571428571427,
          "midi": 55,
          "name": "G3",
          "time": 160.7142857142857,
          "velocity": 0.49606299212598426,
          "string": 3,
          "fret": 0
        },
        {
          "id": 685,
          "duration": 0.21428571428571427,
          "midi": 40,
          "name": "E2",
          "time": 160.7142857142857,
          "velocity": 0.49606299212598426,
          "string": 6,
          "fret": 0
        },
        {
          "id": 686,
          "duration": 0.21428571428571427,
          "midi": 64,
          "name": "E4",
          "time": 160.92857142857142,
          "velocity": 0.49606299212598426,
          "string": 1,
          "fret": 0
        },
        {
          "id": 687,
          "duration": 0.21428571428571427,
          "midi": 40,
          "name": "E2",
          "time": 160.92857142857142,
          "velocity": 0.49606299212598426,
          "string": 6,
          "fret": 0
        },
        {
          "id": 688,
          "duration": 0.21428571428571427,
          "midi": 59,
          "name": "B3",
          "time": 161.14285714285714,
          "velocity": 0.49606299212598426,
          "string": 2,
          "fret": 0
        },
        {
          "id": 689,
          "duration": 0.21428571428571427,
          "midi": 40,
          "name": "E2",
          "time": 161.14285714285714,
          "velocity": 0.49606299212598426,
          "string": 6,
          "fret": 0
        },
        {
          "id": 690,
          "duration": 0.21428571428571427,
          "midi": 55,
          "name": "G3",
          "time": 161.35714285714286,
          "velocity": 0.49606299212598426,
          "string": 3,
          "fret": 0
        },
        {
          "id": 691,
          "duration": 0.21428571428571427,
          "midi": 40,
          "name": "E2",
          "time": 161.35714285714286,
          "velocity": 0.49606299212598426,
          "string": 6,
          "fret": 0
        },
        {
          "id": 692,
          "duration": 0.21428571428571427,
          "midi": 64,
          "name": "E4",
          "time": 161.57142857142856,
          "velocity": 0.49606299212598426,
          "string": 1,
          "fret": 0
        },
        {
          "id": 693,
          "duration": 0.21428571428571427,
          "midi": 40,
          "name": "E2",
          "time": 161.57142857142856,
          "velocity": 0.49606299212598426,
          "string": 6,
          "fret": 0
        },
        {
          "id": 694,
          "duration": 0.21428571428571427,
          "midi": 59,
          "name": "B3",
          "time": 161.78571428571428,
          "velocity": 0.49606299212598426,
          "string": 2,
          "fret": 0
        },
        {
          "id": 695,
          "duration": 0.21428571428571427,
          "midi": 40,
          "name": "E2",
          "time": 161.78571428571428,
          "velocity": 0.49606299212598426,
          "string": 6,
          "fret": 0
        },
        {
          "id": 696,
          "duration": 0.21428571428571427,
          "midi": 55,
          "name": "G3",
          "time": 162.0,
          "velocity": 0.49606299212598426,
          "string": 3,
          "fret": 0
        },
        {
          "id": 697,
          "duration": 0.21428571428571427,
          "midi": 40,
          "name": "E2",
          "time": 162.0,
          "velocity": 0.49606299212598426,
          "string": 6,
          "fret": 0
        },
        {
          "id": 698,
          "duration": 0.21428571428571427,
          "midi": 64,
          "name": "E4",
          "time": 162.2142857142857,
          "velocity": 0.49606299212598426,
          "string": 1,
          "fret": 0
        },
        {
          "id": 699,
          "duration": 0.21428571428571427,
          "midi": 40,
          "name": "E2",
          "time": 162.2142857142857,
          "velocity": 0.49606299212598426,
          "string": 6,
          "fret": 0
        },
        {
          "id": 700,
          "duration": 0.21428571428571427,
          "midi": 59,
          "name": "B3",
          "time": 162.42857142857142,
          "velocity": 0.49606299212598426,
          "string": 2,
          "fret": 0
        },
        {
          "id": 701,
          "duration": 0.21428571428571427,
          "midi": 40,
          "name": "E2",
          "time": 162.42857142857142,
          "velocity": 0.49606299212598426,
          "string": 6,
          "fret": 0
        },
        {
          "id": 702,
          "duration": 0.10714285714285714,
          "midi": 55,
          "name": "G3",
          "time": 162.64285714285714,
          "velocity": 0.49606299212598426,
          "string": 3,
          "fret": 0
        },
        {
          "id": 703,
          "duration": 0.10714285714285714,
          "midi": 40,
          "name": "E2",
          "time": 162.64285714285714,
          "velocity": 0.49606299212598426,
          "string": 6,
          "fret": 0
        },
        {
          "id": 704,
          "duration": 0.21428571428571427,
          "midi": 70,
          "name": "A#4",
          "time": 165.42857142857142,
          "velocity": 0.49606299212598426,
          "string": 1,
          "fret": 6
        },
        {
          "id": 705,
          "duration": 0.21428571428571427,
          "midi": 40,
          "name": "E2",
          "time": 165.42857142857142,
          "velocity": 0.49606299212598426,
          "string": 6,
          "fret": 0
        },
        {
          "id": 706,
          "duration": 0.21428571428571427,
          "midi": 59,
          "name": "B3",
          "time": 165.64285714285714,
          "velocity": 0.49606299212598426,
          "string": 2,
          "fret": 0
        },
        {
          "id": 707,
          "duration": 0.21428571428571427,
          "midi": 40,
          "name": "E2",
          "time": 165.64285714285714,
          "velocity": 0.49606299212598426,
          "string": 6,
          "fret": 0
        },
        {
          "id": 708,
          "duration": 0.21428571428571427,
          "midi": 55,
          "name": "G3",
          "time": 165.85714285714286,
          "velocity": 0.49606299212598426,
          "string": 3,
          "fret": 0
        },
        {
          "id": 709,
          "duration": 0.21428571428571427,
          "midi": 40,
          "name": "E2",
          "time": 165.85714285714286,
          "velocity": 0.49606299212598426,
          "string": 6,
          "fret": 0
        },
        {
          "id": 710,
          "duration": 0.21428571428571427,
          "midi": 69,
          "name": "A4",
          "time": 166.07142857142856,
          "velocity": 0.49606299212598426,
          "string": 1,
          "fret": 5
        },
        {
          "id": 711,
          "duration": 0.21428571428571427,
          "midi": 40,
          "name": "E2",
          "time": 166.07142857142856,
          "velocity": 0.49606299212598426,
          "string": 6,
          "fret": 0
        },
        {
          "id": 712,
          "duration": 0.21428571428571427,
          "midi": 59,
          "name": "B3",
          "time": 166.28571428571428,
          "velocity": 0.49606299212598426,
          "string": 2,
          "fret": 0
        },
        {
          "id": 713,
          "duration": 0.21428571428571427,
          "midi": 40,
          "name": "E2",
          "time": 166.28571428571428,
          "velocity": 0.49606299212598426,
          "string": 6,
          "fret": 0
        },
        {
          "id": 714,
          "duration": 0.21428571428571427,
          "midi": 55,
          "name": "G3",
          "time": 166.5,
          "velocity": 0.49606299212598426,
          "string": 3,
          "fret": 0
        },
        {
          "id": 715,
          "duration": 0.21428571428571427,
          "midi": 40,
          "name": "E2",
          "time": 166.5,
          "velocity": 0.49606299212598426,
          "string": 6,
          "fret": 0
        },
        {
          "id": 716,
          "duration": 0.8571428571428571,
          "midi": 67,
          "name": "G4",
          "time": 166.7142857142857,
          "velocity": 0.49606299212598426,
          "string": 1,
          "fret": 3
        },
        {
          "id": 717,
          "duration": 0.8571428571428571,
          "midi": 40,
          "name": "E2",
          "time": 166.7142857142857,
          "velocity": 0.49606299212598426,
          "string": 6,
          "fret": 0
        },
        {
          "id": 718,
          "duration": 0.42857142857142855,
          "midi": 64,
          "name": "E4",
          "time": 170.57142857142856,
          "velocity": 0.49606299212598426,
          "string": 1,
          "fret": 0
        },
        {
          "id": 719,
          "duration": 0.42857142857142855,
          "midi": 59,
          "name": "B3",
          "time": 170.57142857142856,
          "velocity": 0.49606299212598426,
          "string": 2,
          "fret": 0
        },
        {
          "id": 720,
          "duration": 0.42857142857142855,
          "midi": 55,
          "name": "G3",
          "time": 170.57142857142856,
          "velocity": 0.49606299212598426,
          "string": 3,
          "fret": 0
        },
        {
          "id": 721,
          "duration": 0.42857142857142855,
          "midi": 52,
          "name": "E3",
          "time": 170.57142857142856,
          "velocity": 0.49606299212598426,
          "string": 4,
          "fret": 2
        },
        {
          "id": 722,
          "duration": 0.42857142857142855,
          "midi": 47,
          "name": "B2",
          "time": 170.57142857142856,
          "velocity": 0.49606299212598426,
          "string": 5,
          "fret": 2
        },
        {
          "id": 723,
          "duration": 0.42857142857142855,
          "midi": 40,
          "name": "E2",
          "time": 170.57142857142856,
          "velocity": 0.49606299212598426,
          "string": 6,
          "fret": 0
        },
        {
          "id": 724,
          "duration": 0.21428571428571427,
          "midi": 64,
          "name": "E4",
          "time": 171.0,
          "velocity": 0.49606299212598426,
          "string": 1,
          "fret": 0
        },
        {
          "id": 725,
          "duration": 0.21428571428571427,
          "midi": 59,
          "name": "B3",
          "time": 171.0,
          "velocity": 0.49606299212598426,
          "string": 2,
          "fret": 0
        },
        {
          "id": 726,
          "duration": 0.21428571428571427,
          "midi": 55,
          "name": "G3",
          "time": 171.0,
          "velocity": 0.49606299212598426,
          "string": 3,
          "fret": 0
        },
        {
          "id": 727,
          "duration": 0.21428571428571427,
          "midi": 52,
          "name": "E3",
          "time": 171.0,
          "velocity": 0.49606299212598426,
          "string": 4,
          "fret": 2
        },
        {
          "id": 728,
          "duration": 0.21428571428571427,
          "midi": 47,
          "name": "B2",
          "time": 171.0,
          "velocity": 0.49606299212598426,
          "string": 5,
          "fret": 2
        },
        {
          "id": 729,
          "duration": 0.21428571428571427,
          "midi": 40,
          "name": "E2",
          "time": 171.0,
          "velocity": 0.49606299212598426,
          "string": 6,
          "fret": 0
        },
        {
          "id": 730,
          "duration": 0.21428571428571427,
          "midi": 64,
          "name": "E4",
          "time": 171.2142857142857,
          "velocity": 0.49606299212598426,
          "string": 1,
          "fret": 0
        },
        {
          "id": 731,
          "duration": 0.21428571428571427,
          "midi": 59,
          "name": "B3",
          "time": 171.2142857142857,
          "velocity": 0.49606299212598426,
          "string": 2,
          "fret": 0
        },
        {
          "id": 732,
          "duration": 0.21428571428571427,
          "midi": 55,
          "name": "G3",
          "time": 171.2142857142857,
          "velocity": 0.49606299212598426,
          "string": 3,
          "fret": 0
        },
        {
          "id": 733,
          "duration": 0.21428571428571427,
          "midi": 52,
          "name": "E3",
          "time": 171.2142857142857,
          "velocity": 0.49606299212598426,
          "string": 4,
          "fret": 2
        },
        {
          "id": 734,
          "duration": 0.21428571428571427,
          "midi": 47,
          "name": "B2",
          "time": 171.2142857142857,
          "velocity": 0.49606299212598426,
          "string": 5,
          "fret": 2
        },
        {
          "id": 735,
          "duration": 0.21428571428571427,
          "midi": 40,
          "name": "E2",
          "time": 171.2142857142857,
          "velocity": 0.49606299212598426,
          "string": 6,
          "fret": 0
        },
        {
          "id": 736,
          "duration": 0.21428571428571427,
          "midi": 64,
          "name": "E4",
          "time": 171.42857142857142,
          "velocity": 0.49606299212598426,
          "string": 1,
          "fret": 0
        },
        {
          "id": 737,
          "duration": 0.21428571428571427,
          "midi": 59,
          "name": "B3",
          "time": 171.42857142857142,
          "velocity": 0.49606299212598426,
          "string": 2,
          "fret": 0
        },
        {
          "id": 738,
          "duration": 0.21428571428571427,
          "midi": 55,
          "name": "G3",
          "time": 171.42857142857142,
          "velocity": 0.49606299212598426,
          "string": 3,
          "fret": 0
        },
        {
          "id": 739,
          "duration": 0.21428571428571427,
          "midi": 52,
          "name": "E3",
          "time": 171.42857142857142,
          "velocity": 0.49606299212598426,
          "string": 4,
          "fret": 2
        },
        {
          "id": 740,
          "duration": 0.21428571428571427,
          "midi": 47,
          "name": "B2",
          "time": 171.42857142857142,
          "velocity": 0.49606299212598426,
          "string": 5,
          "fret": 2
        },
        {
          "id": 741,
          "duration": 0.21428571428571427,
          "midi": 40,
          "name": "E2",
          "time": 171.42857142857142,
          "velocity": 0.49606299212598426,
          "string": 6,
          "fret": 0
        },
        {
          "id": 742,
          "duration": 0.21428571428571427,
          "midi": 64,
          "name": "E4",
          "time": 171.64285714285714,
          "velocity": 0.49606299212598426,
          "string": 1,
          "fret": 0
        },
        {
          "id": 743,
          "duration": 0.21428571428571427,
          "midi": 59,
          "name": "B3",
          "time": 171.64285714285714,
          "velocity": 0.49606299212598426,
          "string": 2,
          "fret": 0
        },
        {
          "id": 744,
          "duration": 0.21428571428571427,
          "midi": 55,
          "name": "G3",
          "time": 171.64285714285714,
          "velocity": 0.49606299212598426,
          "string": 3,
          "fret": 0
        },
        {
          "id": 745,
          "duration": 0.21428571428571427,
          "midi": 52,
          "name": "E3",
          "time": 171.64285714285714,
          "velocity": 0.49606299212598426,
          "string": 4,
          "fret": 2
        },
        {
          "id": 746,
          "duration": 0.21428571428571427,
          "midi": 47,
          "name": "B2",
          "time": 171.64285714285714,
          "velocity": 0.49606299212598426,
          "string": 5,
          "fret": 2
        },
        {
          "id": 747,
          "duration": 0.21428571428571427,
          "midi": 40,
          "name": "E2",
          "time": 171.64285714285714,
          "velocity": 0.49606299212598426,
          "string": 6,
          "fret": 0
        },
        {
          "id": 748,
          "duration": 0.42857142857142855,
          "midi": 64,
          "name": "E4",
          "time": 171.85714285714286,
          "velocity": 0.49606299212598426,
          "string": 1,
          "fret": 0
        },
        {
          "id": 749,
          "duration": 0.42857142857142855,
          "midi": 59,
          "name": "B3",
          "time": 171.85714285714286,
          "velocity": 0.49606299212598426,
          "string": 2,
          "fret": 0
        },
        {
          "id": 750,
          "duration": 0.42857142857142855,
          "midi": 55,
          "name": "G3",
          "time": 171.85714285714286,
          "velocity": 0.49606299212598426,
          "string": 3,
          "fret": 0
        },
        {
          "id": 751,
          "duration": 0.42857142857142855,
          "midi": 52,
          "name": "E3",
          "time": 171.85714285714286,
          "velocity": 0.49606299212598426,
          "string": 4,
          "fret": 2
        },
        {
          "id": 752,
          "duration": 0.42857142857142855,
          "midi": 47,
          "name": "B2",
          "time": 171.85714285714286,
          "velocity": 0.49606299212598426,
          "string": 5,
          "fret": 2
        },
        {
          "id": 753,
          "duration": 0.42857142857142855,
          "midi": 40,
          "name": "E2",
          "time": 171.85714285714286,
          "velocity": 0.49606299212598426,
          "string": 6,
          "fret": 0
        },
        {
          "id": 754,
          "duration": 0.21428571428571427,
          "midi": 64,
          "name": "E4",
          "time": 172.28571428571428,
          "velocity": 0.49606299212598426,
          "string": 1,
          "fret": 0
        },
        {
          "id": 755,
          "duration": 0.21428571428571427,
          "midi": 59,
          "name": "B3",
          "time": 172.28571428571428,
          "velocity": 0.49606299212598426,
          "string": 2,
          "fret": 0
        },
        {
          "id": 756,
          "duration": 0.21428571428571427,
          "midi": 55,
          "name": "G3",
          "time": 172.28571428571428,
          "velocity": 0.49606299212598426,
          "string": 3,
          "fret": 0
        },
        {
          "id": 757,
          "duration": 0.21428571428571427,
          "midi": 52,
          "name": "E3",
          "time": 172.28571428571428,
          "velocity": 0.49606299212598426,
          "string": 4,
          "fret": 2
        },
        {
          "id": 758,
          "duration": 0.21428571428571427,
          "midi": 47,
          "name": "B2",
          "time": 172.28571428571428,
          "velocity": 0.49606299212598426,
          "string": 5,
          "fret": 2
        },
        {
          "id": 759,
          "duration": 0.21428571428571427,
          "midi": 40,
          "name": "E2",
          "time": 172.28571428571428,
          "velocity": 0.49606299212598426,
          "string": 6,
          "fret": 0
        },
        {
          "id": 760,
          "duration": 0.21428571428571427,
          "midi": 64,
          "name": "E4",
          "time": 172.5,
          "velocity": 0.49606299212598426,
          "string": 1,
          "fret": 0
        },
        {
          "id": 761,
          "duration": 0.21428571428571427,
          "midi": 59,
          "name": "B3",
          "time": 172.5,
          "velocity": 0.49606299212598426,
          "string": 2,
          "fret": 0
        },
        {
          "id": 762,
          "duration": 0.21428571428571427,
          "midi": 55,
          "name": "G3",
          "time": 172.5,
          "velocity": 0.49606299212598426,
          "string": 3,
          "fret": 0
        },
        {
          "id": 763,
          "duration": 0.21428571428571427,
          "midi": 52,
          "name": "E3",
          "time": 172.5,
          "velocity": 0.49606299212598426,
          "string": 4,
          "fret": 2
        },
        {
          "id": 764,
          "duration": 0.21428571428571427,
          "midi": 47,
          "name": "B2",
          "time": 172.5,
          "velocity": 0.49606299212598426,
          "string": 5,
          "fret": 2
        },
        {
          "id": 765,
          "duration": 0.21428571428571427,
          "midi": 40,
          "name": "E2",
          "time": 172.5,
          "velocity": 0.49606299212598426,
          "string": 6,
          "fret": 0
        },
        {
          "id": 766,
          "duration": 0.21428571428571427,
          "midi": 64,
          "name": "E4",
          "time": 172.7142857142857,
          "velocity": 0.49606299212598426,
          "string": 1,
          "fret": 0
        },
        {
          "id": 767,
          "duration": 0.21428571428571427,
          "midi": 59,
          "name": "B3",
          "time": 172.7142857142857,
          "velocity": 0.49606299212598426,
          "string": 2,
          "fret": 0
        },
        {
          "id": 768,
          "duration": 0.21428571428571427,
          "midi": 55,
          "name": "G3",
          "time": 172.7142857142857,
          "velocity": 0.49606299212598426,
          "string": 3,
          "fret": 0
        },
        {
          "id": 769,
          "duration": 0.21428571428571427,
          "midi": 52,
          "name": "E3",
          "time": 172.7142857142857,
          "velocity": 0.49606299212598426,
          "string": 4,
          "fret": 2
        },
        {
          "id": 770,
          "duration": 0.21428571428571427,
          "midi": 47,
          "name": "B2",
          "time": 172.7142857142857,
          "velocity": 0.49606299212598426,
          "string": 5,
          "fret": 2
        },
        {
          "id": 771,
          "duration": 0.21428571428571427,
          "midi": 40,
          "name": "E2",
          "time": 172.7142857142857,
          "velocity": 0.49606299212598426,
          "string": 6,
          "fret": 0
        },
        {
          "id": 772,
          "duration": 0.10714285714285714,
          "midi": 64,
          "name": "E4",
          "time": 172.92857142857142,
          "velocity": 0.49606299212598426,
          "string": 1,
          "fret": 0
        },
        {
          "id": 773,
          "duration": 0.10714285714285714,
          "midi": 59,
          "name": "B3",
          "time": 172.92857142857142,
          "velocity": 0.49606299212598426,
          "string": 2,
          "fret": 0
        },
        {
          "id": 774,
          "duration": 0.10714285714285714,
          "midi": 55,
          "name": "G3",
          "time": 172.92857142857142,
          "velocity": 0.49606299212598426,
          "string": 3,
          "fret": 0
        },
        {
          "id": 775,
          "duration": 0.10714285714285714,
          "midi": 52,
          "name": "E3",
          "time": 172.92857142857142,
          "velocity": 0.49606299212598426,
          "string": 4,
          "fret": 2
        },
        {
          "id": 776,
          "duration": 0.10714285714285714,
          "midi": 47,
          "name": "B2",
          "time": 172.92857142857142,
          "velocity": 0.49606299212598426,
          "string": 5,
          "fret": 2
        },
        {
          "id": 777,
          "duration": 0.10714285714285714,
          "midi": 40,
          "name": "E2",
          "time": 172.92857142857142,
          "velocity": 0.49606299212598426,
          "string": 6,
          "fret": 0
        },
        {
          "id": 778,
          "duration": 1.7142857142857142,
          "midi": 64,
          "name": "E4",
          "time": 175.7142857142857,
          "velocity": 0.49606299212598426,
          "string": 1,
          "fret": 0
        },
        {
          "id": 779,
          "duration": 1.7142857142857142,
          "midi": 59,
          "name": "B3",
          "time": 175.7142857142857,
          "velocity": 0.49606299212598426,
          "string": 2,
          "fret": 0
        },
        {
          "id": 780,
          "duration": 1.7142857142857142,
          "midi": 55,
          "name": "G3",
          "time": 175.7142857142857,
          "velocity": 0.49606299212598426,
          "string": 3,
          "fret": 0
        },
        {
          "id": 781,
          "duration": 1.7142857142857142,
          "midi": 52,
          "name": "E3",
          "time": 175.7142857142857,
          "velocity": 0.49606299212598426,
          "string": 4,
          "fret": 2
        },
        {
          "id": 782,
          "duration": 1.7142857142857142,
          "midi": 47,
          "name": "B2",
          "time": 175.7142857142857,
          "velocity": 0.49606299212598426,
          "string": 5,
          "fret": 2
        },
        {
          "id": 783,
          "duration": 1.7142857142857142,
          "midi": 40,
          "name": "E2",
          "time": 175.7142857142857,
          "velocity": 0.49606299212598426,
          "string": 6,
          "fret": 0
        }
      ]
    }
  ]
}