{
  "meta": {
    "title": "the-last-of-us-tab",
    "tempo": 140.00014000014,
    "timeSignature": [
      12,
      8
    ],
    "tuning": [
      40,
      45,
      50,
      55,
      59,
      64
    ]
  },
  "tracks": [
    {
      "name": "Unnamed Track",
      "notes": []
    },
    {
      "name": "Unnamed Track",
      "notes": [
        {
          "duration": 0.25,
          "midi": 67,
          "name": "G4",
          "time": 0.0,
          "velocity": 0.5039370078740157,
          "string": 1,
          "fret": 3
        },
        {
          "duration": 2.875,
          "midi": 40,
          "name": "E2",
          "time": 0.0,
          "velocity": 0.5039370078740157,
          "string": 6,
          "fret": 0
        },
        {
          "duration": 0.25,
          "midi": 59,
          "name": "B3",
          "time": 0.25,
          "velocity": 0.5039370078740157,
          "string": 2,
          "fret": 0
        },
        {
          "duration": 0.25,
          "midi": 55,
          "name": "G3",
          "time": 0.5,
          "velocity": 0.5039370078740157,
          "string": 3,
          "fret": 0
        },
        {
          "duration": 0.25,
          "midi": 64,
          "name": "E4",
          "time": 0.75,
          "velocity": 0.5039370078740157,
          "string": 1,
          "fret": 0
        },
        {
          "duration": 0.25,
          "midi": 59,
          "name": "B3",
          "time": 1.0,
          "velocity": 0.5039370078740157,
          "string": 2,
          "fret": 0
        },
        {
          "duration": 0.25,
          "midi": 55,
          "name": "G3",
          "time": 1.25,
          "velocity": 0.5039370078740157,
          "string": 3,
          "fret": 0
        },
        {
          "duration": 0.25,
          "midi": 69,
          "name": "A4",
          "time": 1.5,
          "velocity": 0.5039370078740157,
          "string": 1,
          "fret": 5
        },
        {
          "duration": 0.25,
          "midi": 59,
          "name": "B3",
          "time": 1.75,
          "velocity": 0.5039370078740157,
          "string": 2,
          "fret": 0
        },
        {
          "duration": 0.25,
          "midi": 55,
          "name": "G3",
          "time": 2.0,
          "velocity": 0.5039370078740157,
          "string": 3,
          "fret": 0
        },
        {
          "duration": 0.25,
          "midi": 66,
          "name": "F#4",
          "time": 2.25,
          "velocity": 0.5039370078740157,
          "string": 1,
          "fret": 2
        },
        {
          "duration": 0.25,
          "midi": 59,
          "name": "B3",
          "time": 2.5,
          "velocity": 0.5039370078740157,
          "string": 2,
          "fret": 0
        },
        {
          "duration": 0.125,
          "midi": 55,
          "name": "G3",
          "time": 2.75,
          "velocity": 0.5039370078740157,
          "string": 3,
          "fret": 0
        },
        {
          "duration": 0.25,
          "midi": 67,
          "name": "G4",
          "time": 3.0,
          "velocity": 0.5039370078740157,
          "string": 1,
          "fret": 3
        },
        {
          "duration": 2.875,
          "midi": 40,
          "name": "E2",
          "time": 3.0,
          "velocity": 0.5039370078740157,
          "string": 6,
          "fret": 0
        },
        {
          "duration": 0.25,
          "midi": 59,
          "name": "B3",
          "time": 3.25,
          "velocity": 0.5039370078740157,
          "string": 2,
          "fret": 0
        },
        {
          "duration": 0.25,
          "midi": 55,
          "name": "G3",
          "time": 3.5,
          "velocity": 0.5039370078740157,
          "string": 3,
          "fret": 0
        },
        {
          "duration": 0.25,
          "midi": 67,
          "name": "G4",
          "time": 3.75,
          "velocity": 0.5039370078740157,
          "string": 1,
          "fret": 3
        },
        {
          "duration": 0.25,
          "midi": 59,
          "name": "B3",
          "time": 4.0,
          "velocity": 0.5039370078740157,
          "string": 2,
          "fret": 0
        },
        {
          "duration": 0.25,
          "midi": 55,
          "name": "G3",
          "time": 4.25,
          "velocity": 0.5039370078740157,
          "string": 3,
          "fret": 0
        },
        {
          "duration": 0.25,
          "midi": 67,
          "name": "G4",
          "time": 4.5,
          "velocity": 0.5039370078740157,
          "string": 1,
          "fret": 3
        },
        {
          "duration": 0.25,
          "midi": 59,
          "name": "B3",
          "time": 4.75,
          "velocity": 0.5039370078740157,
          "string": 2,
          "fret": 0
        },
        {
          "duration": 0.25,
          "midi": 55,
          "name": "G3",
          "time": 5.0,
          "velocity": 0.5039370078740157,
          "string": 3,
          "fret": 0
        },
        {
          "duration": 0.25,
          "midi": 67,
          "name": "G4",
          "time": 5.25,
          "velocity": 0.5039370078740157,
          "string": 1,
          "fret": 3
        },
        {
          "duration": 0.25,
          "midi": 59,
          "name": "B3",
          "time": 5.5,
          "velocity": 0.5039370078740157,
          "string": 2,
          "fret": 0
        },
        {
          "duration": 0.125,
          "midi": 55,
          "name": "G3",
          "time": 5.75,
          "velocity": 0.5039370078740157,
          "string": 3,
          "fret": 0
        },
        {
          "duration": 0.25,
          "midi": 67,
          "name": "G4",
          "time": 6.0,
          "velocity": 0.5039370078740157,
          "string": 1,
          "fret": 3
        },
        {
          "duration": 2.875,
          "midi": 40,
          "name": "E2",
          "time": 6.0,
          "velocity": 0.5039370078740157,
          "string": 6,
          "fret": 0
        },
        {
          "duration": 0.25,
          "midi": 59,
          "name": "B3",
          "time": 6.25,
          "velocity": 0.5039370078740157,
          "string": 2,
          "fret": 0
        },
        {
          "duration": 0.25,
          "midi": 55,
          "name": "G3",
          "time": 6.5,
          "velocity": 0.5039370078740157,
          "string": 3,
          "fret": 0
        },
        {
          "duration": 0.25,
          "midi": 64,
          "name": "E4",
          "time": 6.75,
          "velocity": 0.5039370078740157,
          "string": 1,
          "fret": 0
        },
        {
          "duration": 0.25,
          "midi": 59,
          "name": "B3",
          "time": 7.0,
          "velocity": 0.5039370078740157,
          "string": 2,
          "fret": 0
        },
        {
          "duration": 0.25,
          "midi": 55,
          "name": "G3",
          "time": 7.25,
          "velocity": 0.5039370078740157,
          "string": 3,
          "fret": 0
        },
        {
          "duration": 0.25,
          "midi": 69,
          "name": "A4",
          "time": 7.5,
          "velocity": 0.5039370078740157,
          "string": 1,
          "fret": 5
        },
        {
          "duration": 0.25,
          "midi": 59,
          "name": "B3",
          "time": 7.75,
          "velocity": 0.5039370078740157,
          "string": 2,
          "fret": 0
        },
        {
          "duration": 0.25,
          "midi": 55,
          "name": "G3",
          "time": 8.0,
          "velocity": 0.5039370078740157,
          "string": 3,
          "fret": 0
        },
        {
          "duration": 0.25,
          "midi": 66,
          "name": "F#4",
          "time": 8.25,
          "velocity": 0.5039370078740157,
          "string": 1,
          "fret": 2
        },
        {
          "duration": 0.25,
          "midi": 59,
          "name": "B3",
          "time": 8.5,
          "velocity": 0.5039370078740157,
          "string": 2,
          "fret": 0
        },
        {
          "duration": 0.125,
          "midi": 55,
          "name": "G3",
          "time": 8.75,
          "velocity": 0.5039370078740157,
          "string": 3,
          "fret": 0
        },
        {
          "duration": 0.25,
          "midi": 71,
          "name": "B4",
          "time": 9.0,
          "velocity": 0.5039370078740157,
          "string": 1,
          "fret": 7
        },
        {
          "duration": 2.875,
          "midi": 40,
          "name": "E2",
          "time": 9.0,
          "velocity": 0.5039370078740157,
          "string": 6,
          "fret": 0
        },
        {
          "duration": 0.25,
          "midi": 59,
          "name": "B3",
          "time": 9.25,
          "velocity": 0.5039370078740157,
          "string": 2,
          "fret": 0
        },
        {
          "duration": 0.25,
          "midi": 55,
          "name": "G3",
          "time": 9.5,
          "velocity": 0.5039370078740157,
          "string": 3,
          "fret": 0
        },
        {
          "duration": 0.25,
          "midi": 71,
          "name": "B4",
          "time": 9.75,
          "velocity": 0.5039370078740157,
          "string": 1,
          "fret": 7
        },
        {
          "duration": 0.25,
          "midi": 59,
          "name": "B3",
          "time": 10.0,
          "velocity": 0.5039370078740157,
          "string": 2,
          "fret": 0
        },
        {
          "duration": 0.25,
          "midi": 55,
          "name": "G3",
          "time": 10.25,
          "velocity": 0.5039370078740157,
          "string": 3,
          "fret": 0
        },
        {
          "duration": 0.25,
          "midi": 71,
          "name": "B4",
          "time": 10.5,
          "velocity": 0.5039370078740157,
          "string": 1,
          "fret": 7
        },
        {
          "duration": 0.25,
          "midi": 59,
          "name": "B3",
          "time": 10.75,
          "velocity": 0.5039370078740157,
          "string": 2,
          "fret": 0
        },
        {
          "duration": 0.25,
          "midi": 55,
          "name": "G3",
          "time": 11.0,
          "velocity": 0.5039370078740157,
          "string": 3,
          "fret": 0
        },
        {
          "duration": 0.25,
          "midi": 71,
          "name": "B4",
          "time": 11.25,
          "velocity": 0.5039370078740157,
          "string": 1,
          "fret": 7
        },
        {
          "duration": 0.25,
          "midi": 59,
          "name": "B3",
          "time": 11.5,
          "velocity": 0.5039370078740157,
          "string": 2,
          "fret": 0
        },
        {
          "duration": 0.125,
          "midi": 55,
          "name": "G3",
          "time": 11.75,
          "velocity": 0.5039370078740157,
          "string": 3,
          "fret": 0
        },
        {
          "duration": 0.25,
          "midi": 67,
          "name": "G4",
          "time": 12.0,
          "velocity": 0.5039370078740157,
          "string": 1,
          "fret": 3
        },
        {
          "duration": 2.875,
          "midi": 40,
          "name": "E2",
          "time": 12.0,
          "velocity": 0.5039370078740157,
          "string": 6,
          "fret": 0
        },
        {
          "duration": 0.25,
          "midi": 59,
          "name": "B3",
          "time": 12.25,
          "velocity": 0.5039370078740157,
          "string": 2,
          "fret": 0
        },
        {
          "duration": 0.25,
          "midi": 55,
          "name": "G3",
          "time": 12.5,
          "velocity": 0.5039370078740157,
          "string": 3,
          "fret": 0
        },
        {
          "duration": 0.25,
          "midi": 64,
          "name": "E4",
          "time": 12.75,
          "velocity": 0.5039370078740157,
          "string": 1,
          "fret": 0
        },
        {
          "duration": 0.25,
          "midi": 59,
          "name": "B3",
          "time": 13.0,
          "velocity": 0.5039370078740157,
          "string": 2,
          "fret": 0
        },
        {
          "duration": 0.25,
          "midi": 55,
          "name": "G3",
          "time": 13.25,
          "velocity": 0.5039370078740157,
          "string": 3,
          "fret": 0
        },
        {
          "duration": 0.25,
          "midi": 69,
          "name": "A4",
          "time": 13.5,
          "velocity": 0.5039370078740157,
          "string": 1,
          "fret": 5
        },
        {
          "duration": 0.25,
          "midi": 59,
          "name": "B3",
          "time": 13.75,
          "velocity": 0.5039370078740157,
          "string": 2,
          "fret": 0
        },
        {
          "duration": 0.25,
          "midi": 55,
          "name": "G3",
          "time": 14.0,
          "velocity": 0.5039370078740157,
          "string": 3,
          "fret": 0
        },
        {
          "duration": 0.25,
          "midi": 66,
          "name": "F#4",
          "time": 14.25,
          "velocity": 0.5039370078740157,
          "string": 1,
          "fret": 2
        },
        {
          "duration": 0.25,
          "midi": 59,
          "name": "B3",
          "time": 14.5,
          "velocity": 0.5039370078740157,
          "string": 2,
          "fret": 0
        },
        {
          "duration": 0.125,
          "midi": 55,
          "name": "G3",
          "time": 14.75,
          "velocity": 0.5039370078740157,
          "string": 3,
          "fret": 0
        },
        {
          "duration": 0.25,
          "midi": 67,
          "name": "G4",
          "time": 15.0,
          "velocity": 0.5039370078740157,
          "string": 1,
          "fret": 3
        },
        {
          "duration": 2.875,
          "midi": 40,
          "name": "E2",
          "time": 15.0,
          "velocity": 0.5039370078740157,
          "string": 6,
          "fret": 0
        },
        {
          "duration": 0.25,
          "midi": 59,
          "name": "B3",
          "time": 15.25,
          "velocity": 0.5039370078740157,
          "string": 2,
          "fret": 0
        },
        {
          "duration": 0.25,
          "midi": 55,
          "name": "G3",
          "time": 15.5,
          "velocity": 0.5039370078740157,
          "string": 3,
          "fret": 0
        },
        {
          "duration": 0.25,
          "midi": 67,
          "name": "G4",
          "time": 15.75,
          "velocity": 0.5039370078740157,
          "string": 1,
          "fret": 3
        },
        {
          "duration": 0.25,
          "midi": 59,
          "name": "B3",
          "time": 16.0,
          "velocity": 0.5039370078740157,
          "string": 2,
          "fret": 0
        },
        {
          "duration": 0.25,
          "midi": 55,
          "name": "G3",
          "time": 16.25,
          "velocity": 0.5039370078740157,
          "string": 3,
          "fret": 0
        },
        {
          "duration": 0.25,
          "midi": 67,
          "name": "G4",
          "time": 16.5,
          "velocity": 0.5039370078740157,
          "string": 1,
          "fret": 3
        },
        {
          "duration": 0.25,
          "midi": 59,
          "name": "B3",
          "time": 16.75,
          "velocity": 0.5039370078740157,
          "string": 2,
          "fret": 0
        },
        {
          "duration": 0.25,
          "midi": 55,
          "name": "G3",
          "time": 17.0,
          "velocity": 0.5039370078740157,
          "string": 3,
          "fret": 0
        },
        {
          "duration": 0.25,
          "midi": 67,
          "name": "G4",
          "time": 17.25,
          "velocity": 0.5039370078740157,
          "string": 1,
          "fret": 3
        },
        {
          "duration": 0.25,
          "midi": 59,
          "name": "B3",
          "time": 17.5,
          "velocity": 0.5039370078740157,
          "string": 2,
          "fret": 0
        },
        {
          "duration": 0.125,
          "midi": 55,
          "name": "G3",
          "time": 17.75,
          "velocity": 0.5039370078740157,
          "string": 3,
          "fret": 0
        },
        {
          "duration": 0.25,
          "midi": 70,
          "name": "A#4",
          "time": 18.0,
          "velocity": 0.5039370078740157,
          "string": 1,
          "fret": 6
        },
        {
          "duration": 2.875,
          "midi": 40,
          "name": "E2",
          "time": 18.0,
          "velocity": 0.5039370078740157,
          "string": 6,
          "fret": 0
        },
        {
          "duration": 0.25,
          "midi": 59,
          "name": "B3",
          "time": 18.25,
          "velocity": 0.5039370078740157,
          "string": 2,
          "fret": 0
        },
        {
          "duration": 0.25,
          "midi": 55,
          "name": "G3",
          "time": 18.5,
          "velocity": 0.5039370078740157,
          "string": 3,
          "fret": 0
        },
        {
          "duration": 0.25,
          "midi": 69,
          "name": "A4",
          "time": 18.75,
          "velocity": 0.5039370078740157,
          "string": 1,
          "fret": 5
        },
        {
          "duration": 0.25,
          "midi": 59,
          "name": "B3",
          "time": 19.0,
          "velocity": 0.5039370078740157,
          "string": 2,
          "fret": 0
        },
        {
          "duration": 0.25,
          "midi": 55,
          "name": "G3",
          "time": 19.25,
          "velocity": 0.5039370078740157,
          "string": 3,
          "fret": 0
        },
        {
          "duration": 0.25,
          "midi": 67,
          "name": "G4",
          "time": 19.5,
          "velocity": 0.5039370078740157,
          "string": 1,
          "fret": 3
        },
        {
          "duration": 0.25,
          "midi": 59,
          "name": "B3",
          "time": 19.75,
          "velocity": 0.5039370078740157,
          "string": 2,
          "fret": 0
        },
        {
          "duration": 0.25,
          "midi": 55,
          "name": "G3",
          "time": 20.0,
          "velocity": 0.5039370078740157,
          "string": 3,
          "fret": 0
        },
        {
          "duration": 0.25,
          "midi": 64,
          "name": "E4",
          "time": 20.25,
          "velocity": 0.5039370078740157,
          "string": 1,
          "fret": 0
        },
        {
          "duration": 0.25,
          "midi": 59,
          "name": "B3",
          "time": 20.5,
          "velocity": 0.5039370078740157,
          "string": 2,
          "fret": 0
        },
        {
          "duration": 0.125,
          "midi": 62,
          "name": "D4",
          "time": 20.75,
          "velocity": 0.5039370078740157,
          "string": 2,
          "fret": 3
        },
        {
          "duration": 0.25,
          "midi": 64,
          "name": "E4",
          "time": 21.0,
          "velocity": 0.5039370078740157,
          "string": 1,
          "fret": 0
        },
        {
          "duration": 2.875,
          "midi": 40,
          "name": "E2",
          "time": 21.0,
          "velocity": 0.5039370078740157,
          "string": 6,
          "fret": 0
        },
        {
          "duration": 0.25,
          "midi": 59,
          "name": "B3",
          "time": 21.25,
          "velocity": 0.5039370078740157,
          "string": 2,
          "fret": 0
        },
        {
          "duration": 0.25,
          "midi": 55,
          "name": "G3",
          "time": 21.5,
          "velocity": 0.5039370078740157,
          "string": 3,
          "fret": 0
        },
        {
          "duration": 0.25,
          "midi": 64,
          "name": "E4",
          "time": 21.75,
          "velocity": 0.5039370078740157,
          "string": 1,
          "fret": 0
        },
        {
          "duration": 0.25,
          "midi": 59,
          "name": "B3",
          "time": 22.0,
          "velocity": 0.5039370078740157,
          "string": 2,
          "fret": 0
        },
        {
          "duration": 0.25,
          "midi": 55,
          "name": "G3",
          "time": 22.25,
          "velocity": 0.5039370078740157,
          "string": 3,
          "fret": 0
        },
        {
          "duration": 0.25,
          "midi": 64,
          "name": "E4",
          "time": 22.5,
          "velocity": 0.5039370078740157,
          "string": 1,
          "fret": 0
        },
        {
          "duration": 0.25,
          "midi": 59,
          "name": "B3",
          "time": 22.75,
          "velocity": 0.5039370078740157,
          "string": 2,
          "fret": 0
        },
        {
          "duration": 0.25,
          "midi": 55,
          "name": "G3",
          "time": 23.0,
          "velocity": 0.5039370078740157,
          "string": 3,
          "fret": 0
        },
        {
          "duration": 0.25,
          "midi": 64,
          "name": "E4",
          "time": 23.25,
          "velocity": 0.5039370078740157,
          "string": 1,
          "fret": 0
        },
        {
          "duration": 0.25,
          "midi": 59,
          "name": "B3",
          "time": 23.5,
          "velocity": 0.5039370078740157,
          "string": 2,
          "fret": 0
        },
        {
          "duration": 0.125,
          "midi": 55,
          "name": "G3",
          "time": 23.75,
          "velocity": 0.5039370078740157,
          "string": 3,
          "fret": 0
        },
        {
          "duration": 0.25,
          "midi": 74,
          "name": "D5",
          "time": 24.0,
          "velocity": 0.5039370078740157,
          "string": 1,
          "fret": 10
        },
        {
          "duration": 2.875,
          "midi": 40,
          "name": "E2",
          "time": 24.0,
          "velocity": 0.5039370078740157,
          "string": 6,
          "fret": 0
        },
        {
          "duration": 0.25,
          "midi": 59,
          "name": "B3",
          "time": 24.25,
          "velocity": 0.5039370078740157,
          "string": 2,
          "fret": 0
        },
        {
          "duration": 0.25,
          "midi": 55,
          "name": "G3",
          "time": 24.5,
          "velocity": 0.5039370078740157,
          "string": 3,
          "fret": 0
        },
        {
          "duration": 0.25,
          "midi": 74,
          "name": "D5",
          "time": 24.75,
          "velocity": 0.5039370078740157,
          "string": 1,
          "fret": 10
        },
        {
          "duration": 0.25,
          "midi": 59,
          "name": "B3",
          "time": 25.0,
          "velocity": 0.5039370078740157,
          "string": 2,
          "fret": 0
        },
        {
          "duration": 0.25,
          "midi": 55,
          "name": "G3",
          "time": 25.25,
          "velocity": 0.5039370078740157,
          "string": 3,
          "fret": 0
        },
        {
          "duration": 0.25,
          "midi": 74,
          "name": "D5",
          "time": 25.5,
          "velocity": 0.5039370078740157,
          "string": 1,
          "fret": 10
        },
        {
          "duration": 0.25,
          "midi": 59,
          "name": "B3",
          "time": 25.75,
          "velocity": 0.5039370078740157,
          "string": 2,
          "fret": 0
        },
        {
          "duration": 0.25,
          "midi": 55,
          "name": "G3",
          "time": 26.0,
          "velocity": 0.5039370078740157,
          "string": 3,
          "fret": 0
        },
        {
          "duration": 0.25,
          "midi": 74,
          "name": "D5",
          "time": 26.25,
          "velocity": 0.5039370078740157,
          "string": 1,
          "fret": 10
        },
        {
          "duration": 0.25,
          "midi": 59,
          "name": "B3",
          "time": 26.5,
          "velocity": 0.5039370078740157,
          "string": 2,
          "fret": 0
        },
        {
          "duration": 0.125,
          "midi": 55,
          "name": "G3",
          "time": 26.75,
          "velocity": 0.5039370078740157,
          "string": 3,
          "fret": 0
        },
        {
          "duration": 0.25,
          "midi": 73,
          "name": "C#5",
          "time": 27.0,
          "velocity": 0.5039370078740157,
          "string": 1,
          "fret": 9
        },
        {
          "duration": 2.875,
          "midi": 45,
          "name": "A2",
          "time": 27.0,
          "velocity": 0.5039370078740157,
          "string": 5,
          "fret": 0
        },
        {
          "duration": 0.25,
          "midi": 59,
          "name": "B3",
          "time": 27.25,
          "velocity": 0.5039370078740157,
          "string": 2,
          "fret": 0
        },
        {
          "duration": 0.25,
          "midi": 55,
          "name": "G3",
          "time": 27.5,
          "velocity": 0.5039370078740157,
          "string": 3,
          "fret": 0
        },
        {
          "duration": 0.25,
          "midi": 73,
          "name": "C#5",
          "time": 27.75,
          "velocity": 0.5039370078740157,
          "string": 1,
          "fret": 9
        },
        {
          "duration": 0.25,
          "midi": 59,
          "name": "B3",
          "time": 28.0,
          "velocity": 0.5039370078740157,
          "string": 2,
          "fret": 0
        },
        {
          "duration": 0.25,
          "midi": 55,
          "name": "G3",
          "time": 28.25,
          "velocity": 0.5039370078740157,
          "string": 3,
          "fret": 0
        },
        {
          "duration": 0.25,
          "midi": 73,
          "name": "C#5",
          "time": 28.5,
          "velocity": 0.5039370078740157,
          "string": 1,
          "fret": 9
        },
        {
          "duration": 0.25,
          "midi": 59,
          "name": "B3",
          "time": 28.75,
          "velocity": 0.5039370078740157,
          "string": 2,
          "fret": 0
        },
        {
          "duration": 0.25,
          "midi": 55,
          "name": "G3",
          "time": 29.0,
          "velocity": 0.5039370078740157,
          "string": 3,
          "fret": 0
        },
        {
          "duration": 0.25,
          "midi": 73,
          "name": "C#5",
          "time": 29.25,
          "velocity": 0.5039370078740157,
          "string": 1,
          "fret": 9
        },
        {
          "duration": 0.25,
          "midi": 59,
          "name": "B3",
          "time": 29.5,
          "velocity": 0.5039370078740157,
          "string": 2,
          "fret": 0
        },
        {
          "duration": 0.125,
          "midi": 55,
          "name": "G3",
          "time": 29.75,
          "velocity": 0.5039370078740157,
          "string": 3,
          "fret": 0
        },
        {
          "duration": 0.25,
          "midi": 72,
          "name": "C5",
          "time": 30.0,
          "velocity": 0.5039370078740157,
          "string": 1,
          "fret": 8
        },
        {
          "duration": 2.875,
          "midi": 45,
          "name": "A2",
          "time": 30.0,
          "velocity": 0.5039370078740157,
          "string": 5,
          "fret": 0
        },
        {
          "duration": 0.25,
          "midi": 59,
          "name": "B3",
          "time": 30.25,
          "velocity": 0.5039370078740157,
          "string": 2,
          "fret": 0
        },
        {
          "duration": 0.25,
          "midi": 55,
          "name": "G3",
          "time": 30.5,
          "velocity": 0.5039370078740157,
          "string": 3,
          "fret": 0
        },
        {
          "duration": 0.25,
          "midi": 72,
          "name": "C5",
          "time": 30.75,
          "velocity": 0.5039370078740157,
          "string": 1,
          "fret": 8
        },
        {
          "duration": 0.25,
          "midi": 59,
          "name": "B3",
          "time": 31.0,
          "velocity": 0.5039370078740157,
          "string": 2,
          "fret": 0
        },
        {
          "duration": 0.25,
          "midi": 55,
          "name": "G3",
          "time": 31.25,
          "velocity": 0.5039370078740157,
          "string": 3,
          "fret": 0
        },
        {
          "duration": 0.25,
          "midi": 72,
          "name": "C5",
          "time": 31.5,
          "velocity": 0.5039370078740157,
          "string": 1,
          "fret": 8
        },
        {
          "duration": 0.25,
          "midi": 59,
          "name": "B3",
          "time": 31.75,
          "velocity": 0.5039370078740157,
          "string": 2,
          "fret": 0
        },
        {
          "duration": 0.25,
          "midi": 55,
          "name": "G3",
          "time": 32.0,
          "velocity": 0.5039370078740157,
          "string": 3,
          "fret": 0
        },
        {
          "duration": 0.25,
          "midi": 72,
          "name": "C5",
          "time": 32.25,
          "velocity": 0.5039370078740157,
          "string": 1,
          "fret": 8
        },
        {
          "duration": 0.25,
          "midi": 59,
          "name": "B3",
          "time": 32.5,
          "velocity": 0.5039370078740157,
          "string": 2,
          "fret": 0
        },
        {
          "duration": 0.125,
          "midi": 55,
          "name": "G3",
          "time": 32.75,
          "velocity": 0.5039370078740157,
          "string": 3,
          "fret": 0
        },
        {
          "duration": 0.25,
          "midi": 71,
          "name": "B4",
          "time": 33.0,
          "velocity": 0.5039370078740157,
          "string": 1,
          "fret": 7
        },
        {
          "duration": 2.875,
          "midi": 40,
          "name": "E2",
          "time": 33.0,
          "velocity": 0.5039370078740157,
          "string": 6,
          "fret": 0
        },
        {
          "duration": 0.25,
          "midi": 59,
          "name": "B3",
          "time": 33.25,
          "velocity": 0.5039370078740157,
          "string": 2,
          "fret": 0
        },
        {
          "duration": 0.25,
          "midi": 55,
          "name": "G3",
          "time": 33.5,
          "velocity": 0.5039370078740157,
          "string": 3,
          "fret": 0
        },
        {
          "duration": 0.25,
          "midi": 71,
          "name": "B4",
          "time": 33.75,
          "velocity": 0.5039370078740157,
          "string": 1,
          "fret": 7
        },
        {
          "duration": 0.25,
          "midi": 59,
          "name": "B3",
          "time": 34.0,
          "velocity": 0.5039370078740157,
          "string": 2,
          "fret": 0
        },
        {
          "duration": 0.25,
          "midi": 55,
          "name": "G3",
          "time": 34.25,
          "velocity": 0.5039370078740157,
          "string": 3,
          "fret": 0
        },
        {
          "duration": 0.25,
          "midi": 71,
          "name": "B4",
          "time": 34.5,
          "velocity": 0.5039370078740157,
          "string": 1,
          "fret": 7
        },
        {
          "duration": 0.25,
          "midi": 59,
          "name": "B3",
          "time": 34.75,
          "velocity": 0.5039370078740157,
          "string": 2,
          "fret": 0
        },
        {
          "duration": 0.25,
          "midi": 55,
          "name": "G3",
          "time": 35.0,
          "velocity": 0.5039370078740157,
          "string": 3,
          "fret": 0
        },
        {
          "duration": 0.25,
          "midi": 71,
          "name": "B4",
          "time": 35.25,
          "velocity": 0.5039370078740157,
          "string": 1,
          "fret": 7
        },
        {
          "duration": 0.25,
          "midi": 59,
          "name": "B3",
          "time": 35.5,
          "velocity": 0.5039370078740157,
          "string": 2,
          "fret": 0
        },
        {
          "duration": 0.125,
          "midi": 55,
          "name": "G3",
          "time": 35.75,
          "velocity": 0.5039370078740157,
          "string": 3,
          "fret": 0
        },
        {
          "duration": 0.25,
          "midi": 74,
          "name": "D5",
          "time": 36.0,
          "velocity": 0.5039370078740157,
          "string": 1,
          "fret": 10
        },
        {
          "duration": 2.875,
          "midi": 40,
          "name": "E2",
          "time": 36.0,
          "velocity": 0.5039370078740157,
          "string": 6,
          "fret": 0
        },
        {
          "duration": 0.25,
          "midi": 59,
          "name": "B3",
          "time": 36.25,
          "velocity": 0.5039370078740157,
          "string": 2,
          "fret": 0
        },
        {
          "duration": 0.25,
          "midi": 55,
          "name": "G3",
          "time": 36.5,
          "velocity": 0.5039370078740157,
          "string": 3,
          "fret": 0
        },
        {
          "duration": 0.25,
          "midi": 74,
          "name": "D5",
          "time": 36.75,
          "velocity": 0.5039370078740157,
          "string": 1,
          "fret": 10
        },
        {
          "duration": 0.25,
          "midi": 59,
          "name": "B3",
          "time": 37.0,
          "velocity": 0.5039370078740157,
          "string": 2,
          "fret": 0
        },
        {
          "duration": 0.25,
          "midi": 55,
          "name": "G3",
          "time": 37.25,
          "velocity": 0.5039370078740157,
          "string": 3,
          "fret": 0
        },
        {
          "duration": 0.25,
          "midi": 74,
          "name": "D5",
          "time": 37.5,
          "velocity": 0.5039370078740157,
          "string": 1,
          "fret": 10
        },
        {
          "duration": 0.25,
          "midi": 59,
          "name": "B3",
          "time": 37.75,
          "velocity": 0.5039370078740157,
          "string": 2,
          "fret": 0
        },
        {
          "duration": 0.25,
          "midi": 55,
          "name": "G3",
          "time": 38.0,
          "velocity": 0.5039370078740157,
          "string": 3,
          "fret": 0
        },
        {
          "duration": 0.25,
          "midi": 74,
          "name": "D5",
          "time": 38.25,
          "velocity": 0.5039370078740157,
          "string": 1,
          "fret": 10
        },
        {
          "duration": 0.25,
          "midi": 59,
          "name": "B3",
          "time": 38.5,
          "velocity": 0.5039370078740157,
          "string": 2,
          "fret": 0
        },
        {
          "duration": 0.125,
          "midi": 55,
          "name": "G3",
          "time": 38.75,
          "velocity": 0.5039370078740157,
          "string": 3,
          "fret": 0
        },
        {
          "duration": 0.25,
          "midi": 73,
          "name": "C#5",
          "time": 39.0,
          "velocity": 0.5039370078740157,
          "string": 1,
          "fret": 9
        },
        {
          "duration": 2.875,
          "midi": 45,
          "name": "A2",
          "time": 39.0,
          "velocity": 0.5039370078740157,
          "string": 5,
          "fret": 0
        },
        {
          "duration": 0.25,
          "midi": 59,
          "name": "B3",
          "time": 39.25,
          "velocity": 0.5039370078740157,
          "string": 2,
          "fret": 0
        },
        {
          "duration": 0.25,
          "midi": 55,
          "name": "G3",
          "time": 39.5,
          "velocity": 0.5039370078740157,
          "string": 3,
          "fret": 0
        },
        {
          "duration": 0.25,
          "midi": 73,
          "name": "C#5",
          "time": 39.75,
          "velocity": 0.5039370078740157,
          "string": 1,
          "fret": 9
        },
        {
          "duration": 0.25,
          "midi": 59,
          "name": "B3",
          "time": 40.0,
          "velocity": 0.5039370078740157,
          "string": 2,
          "fret": 0
        },
        {
          "duration": 0.25,
          "midi": 55,
          "name": "G3",
          "time": 40.25,
          "velocity": 0.5039370078740157,
          "string": 3,
          "fret": 0
        },
        {
          "duration": 0.25,
          "midi": 73,
          "name": "C#5",
          "time": 40.5,
          "velocity": 0.5039370078740157,
          "string": 1,
          "fret": 9
        },
        {
          "duration": 0.25,
          "midi": 59,
          "name": "B3",
          "time": 40.75,
          "velocity": 0.5039370078740157,
          "string": 2,
          "fret": 0
        },
        {
          "duration": 0.25,
          "midi": 55,
          "name": "G3",
          "time": 41.0,
          "velocity": 0.5039370078740157,
          "string": 3,
          "fret": 0
        },
        {
          "duration": 0.25,
          "midi": 73,
          "name": "C#5",
          "time": 41.25,
          "velocity": 0.5039370078740157,
          "string": 1,
          "fret": 9
        },
        {
          "duration": 0.25,
          "midi": 59,
          "name": "B3",
          "time": 41.5,
          "velocity": 0.5039370078740157,
          "string": 2,
          "fret": 0
        },
        {
          "duration": 0.125,
          "midi": 55,
          "name": "G3",
          "time": 41.75,
          "velocity": 0.5039370078740157,
          "string": 3,
          "fret": 0
        },
        {
          "duration": 0.25,
          "midi": 72,
          "name": "C5",
          "time": 42.0,
          "velocity": 0.5039370078740157,
          "string": 1,
          "fret": 8
        },
        {
          "duration": 2.875,
          "midi": 45,
          "name": "A2",
          "time": 42.0,
          "velocity": 0.5039370078740157,
          "string": 5,
          "fret": 0
        },
        {
          "duration": 0.25,
          "midi": 59,
          "name": "B3",
          "time": 42.25,
          "velocity": 0.5039370078740157,
          "string": 2,
          "fret": 0
        },
        {
          "duration": 0.25,
          "midi": 55,
          "name": "G3",
          "time": 42.5,
          "velocity": 0.5039370078740157,
          "string": 3,
          "fret": 0
        },
        {
          "duration": 0.25,
          "midi": 72,
          "name": "C5",
          "time": 42.75,
          "velocity": 0.5039370078740157,
          "string": 1,
          "fret": 8
        },
        {
          "duration": 0.25,
          "midi": 59,
          "name": "B3",
          "time": 43.0,
          "velocity": 0.5039370078740157,
          "string": 2,
          "fret": 0
        },
        {
          "duration": 0.25,
          "midi": 55,
          "name": "G3",
          "time": 43.25,
          "velocity": 0.5039370078740157,
          "string": 3,
          "fret": 0
        },
        {
          "duration": 0.25,
          "midi": 72,
          "name": "C5",
          "time": 43.5,
          "velocity": 0.5039370078740157,
          "string": 1,
          "fret": 8
        },
        {
          "duration": 0.25,
          "midi": 59,
          "name": "B3",
          "time": 43.75,
          "velocity": 0.5039370078740157,
          "string": 2,
          "fret": 0
        },
        {
          "duration": 0.25,
          "midi": 55,
          "name": "G3",
          "time": 44.0,
          "velocity": 0.5039370078740157,
          "string": 3,
          "fret": 0
        },
        {
          "duration": 0.25,
          "midi": 72,
          "name": "C5",
          "time": 44.25,
          "velocity": 0.5039370078740157,
          "string": 1,
          "fret": 8
        },
        {
          "duration": 0.25,
          "midi": 59,
          "name": "B3",
          "time": 44.5,
          "velocity": 0.5039370078740157,
          "string": 2,
          "fret": 0
        },
        {
          "duration": 0.125,
          "midi": 55,
          "name": "G3",
          "time": 44.75,
          "velocity": 0.5039370078740157,
          "string": 3,
          "fret": 0
        },
        {
          "duration": 0.25,
          "midi": 71,
          "name": "B4",
          "time": 45.0,
          "velocity": 0.5039370078740157,
          "string": 1,
          "fret": 7
        },
        {
          "duration": 2.875,
          "midi": 40,
          "name": "E2",
          "time": 45.0,
          "velocity": 0.5039370078740157,
          "string": 6,
          "fret": 0
        },
        {
          "duration": 0.25,
          "midi": 59,
          "name": "B3",
          "time": 45.25,
          "velocity": 0.5039370078740157,
          "string": 2,
          "fret": 0
        },
        {
          "duration": 0.25,
          "midi": 55,
          "name": "G3",
          "time": 45.5,
          "velocity": 0.5039370078740157,
          "string": 3,
          "fret": 0
        },
        {
          "duration": 0.25,
          "midi": 71,
          "name": "B4",
          "time": 45.75,
          "velocity": 0.5039370078740157,
          "string": 1,
          "fret": 7
        },
        {
          "duration": 0.25,
          "midi": 59,
          "name": "B3",
          "time": 46.0,
          "velocity": 0.5039370078740157,
          "string": 2,
          "fret": 0
        },
        {
          "duration": 0.25,
          "midi": 55,
          "name": "G3",
          "time": 46.25,
          "velocity": 0.5039370078740157,
          "string": 3,
          "fret": 0
        },
        {
          "duration": 0.25,
          "midi": 71,
          "name": "B4",
          "time": 46.5,
          "velocity": 0.5039370078740157,
          "string": 1,
          "fret": 7
        },
        {
          "duration": 0.25,
          "midi": 59,
          "name": "B3",
          "time": 46.75,
          "velocity": 0.5039370078740157,
          "string": 2,
          "fret": 0
        },
        {
          "duration": 0.25,
          "midi": 55,
          "name": "G3",
          "time": 47.0,
          "velocity": 0.5039370078740157,
          "string": 3,
          "fret": 0
        },
        {
          "duration": 0.25,
          "midi": 71,
          "name": "B4",
          "time": 47.25,
          "velocity": 0.5039370078740157,
          "string": 1,
          "fret": 7
        },
        {
          "duration": 0.25,
          "midi": 59,
          "name": "B3",
          "time": 47.5,
          "velocity": 0.5039370078740157,
          "string": 2,
          "fret": 0
        },
        {
          "duration": 0.125,
          "midi": 55,
          "name": "G3",
          "time": 47.75,
          "velocity": 0.5039370078740157,
          "string": 3,
          "fret": 0
        },
        {
          "duration": 0.25,
          "midi": 69,
          "name": "A4",
          "time": 48.0,
          "velocity": 0.5039370078740157,
          "string": 1,
          "fret": 5
        },
        {
          "duration": 2.875,
          "midi": 45,
          "name": "A2",
          "time": 48.0,
          "velocity": 0.5039370078740157,
          "string": 5,
          "fret": 0
        },
        {
          "duration": 0.25,
          "midi": 64,
          "name": "E4",
          "time": 48.25,
          "velocity": 0.5039370078740157,
          "string": 1,
          "fret": 0
        },
        {
          "duration": 0.25,
          "midi": 62,
          "name": "D4",
          "time": 48.5,
          "velocity": 0.5039370078740157,
          "string": 2,
          "fret": 3
        },
        {
          "duration": 0.25,
          "midi": 69,
          "name": "A4",
          "time": 48.75,
          "velocity": 0.5039370078740157,
          "string": 1,
          "fret": 5
        },
        {
          "duration": 0.25,
          "midi": 64,
          "name": "E4",
          "time": 49.0,
          "velocity": 0.5039370078740157,
          "string": 1,
          "fret": 0
        },
        {
          "duration": 0.25,
          "midi": 62,
          "name": "D4",
          "time": 49.25,
          "velocity": 0.5039370078740157,
          "string": 2,
          "fret": 3
        },
        {
          "duration": 0.25,
          "midi": 69,
          "name": "A4",
          "time": 49.5,
          "velocity": 0.5039370078740157,
          "string": 1,
          "fret": 5
        },
        {
          "duration": 0.25,
          "midi": 64,
          "name": "E4",
          "time": 49.75,
          "velocity": 0.5039370078740157,
          "string": 1,
          "fret": 0
        },
        {
          "duration": 0.25,
          "midi": 62,
          "name": "D4",
          "time": 50.0,
          "velocity": 0.5039370078740157,
          "string": 2,
          "fret": 3
        },
        {
          "duration": 0.25,
          "midi": 69,
          "name": "A4",
          "time": 50.25,
          "velocity": 0.5039370078740157,
          "string": 1,
          "fret": 5
        },
        {
          "duration": 0.25,
          "midi": 64,
          "name": "E4",
          "time": 50.5,
          "velocity": 0.5039370078740157,
          "string": 1,
          "fret": 0
        },
        {
          "duration": 0.125,
          "midi": 62,
          "name": "D4",
          "time": 50.75,
          "velocity": 0.5039370078740157,
          "string": 2,
          "fret": 3
        },
        {
          "duration": 0.25,
          "midi": 69,
          "name": "A4",
          "time": 51.0,
          "velocity": 0.5039370078740157,
          "string": 1,
          "fret": 5
        },
        {
          "duration": 2.5,
          "midi": 45,
          "name": "A2",
          "time": 51.0,
          "velocity": 0.5039370078740157,
          "string": 5,
          "fret": 0
        },
        {
          "duration": 0.25,
          "midi": 64,
          "name": "E4",
          "time": 51.25,
          "velocity": 0.5039370078740157,
          "string": 1,
          "fret": 0
        },
        {
          "duration": 0.25,
          "midi": 61,
          "name": "C#4",
          "time": 51.5,
          "velocity": 0.5039370078740157,
          "string": 2,
          "fret": 2
        },
        {
          "duration": 0.25,
          "midi": 69,
          "name": "A4",
          "time": 51.75,
          "velocity": 0.5039370078740157,
          "string": 1,
          "fret": 5
        },
        {
          "duration": 0.25,
          "midi": 64,
          "name": "E4",
          "time": 52.0,
          "velocity": 0.5039370078740157,
          "string": 1,
          "fret": 0
        },
        {
          "duration": 0.25,
          "midi": 61,
          "name": "C#4",
          "time": 52.25,
          "velocity": 0.5039370078740157,
          "string": 2,
          "fret": 2
        },
        {
          "duration": 1.0,
          "midi": 69,
          "name": "A4",
          "time": 52.5,
          "velocity": 0.5039370078740157,
          "string": 1,
          "fret": 5
        },
        {
          "duration": 0.25,
          "midi": 67,
          "name": "G4",
          "time": 54.0,
          "velocity": 0.5039370078740157,
          "string": 1,
          "fret": 3
        },
        {
          "duration": 2.875,
          "midi": 45,
          "name": "A2",
          "time": 54.0,
          "velocity": 0.5039370078740157,
          "string": 5,
          "fret": 0
        },
        {
          "duration": 0.25,
          "midi": 60,
          "name": "C4",
          "time": 54.25,
          "velocity": 0.5039370078740157,
          "string": 2,
          "fret": 1
        },
        {
          "duration": 0.25,
          "midi": 55,
          "name": "G3",
          "time": 54.5,
          "velocity": 0.5039370078740157,
          "string": 3,
          "fret": 0
        },
        {
          "duration": 0.25,
          "midi": 66,
          "name": "F#4",
          "time": 54.75,
          "velocity": 0.5039370078740157,
          "string": 1,
          "fret": 2
        },
        {
          "duration": 0.25,
          "midi": 60,
          "name": "C4",
          "time": 55.0,
          "velocity": 0.5039370078740157,
          "string": 2,
          "fret": 1
        },
        {
          "duration": 0.25,
          "midi": 55,
          "name": "G3",
          "time": 55.25,
          "velocity": 0.5039370078740157,
          "string": 3,
          "fret": 0
        },
        {
          "duration": 0.25,
          "midi": 64,
          "name": "E4",
          "time": 55.5,
          "velocity": 0.5039370078740157,
          "string": 1,
          "fret": 0
        },
        {
          "duration": 0.25,
          "midi": 60,
          "name": "C4",
          "time": 55.75,
          "velocity": 0.5039370078740157,
          "string": 2,
          "fret": 1
        },
        {
          "duration": 0.25,
          "midi": 55,
          "name": "G3",
          "time": 56.0,
          "velocity": 0.5039370078740157,
          "string": 3,
          "fret": 0
        },
        {
          "duration": 0.25,
          "midi": 62,
          "name": "D4",
          "time": 56.25,
          "velocity": 0.5039370078740157,
          "string": 2,
          "fret": 3
        },
        {
          "duration": 0.25,
          "midi": 55,
          "name": "G3",
          "time": 56.5,
          "velocity": 0.5039370078740157,
          "string": 3,
          "fret": 0
        },
        {
          "duration": 0.125,
          "midi": 50,
          "name": "D3",
          "time": 56.75,
          "velocity": 0.5039370078740157,
          "string": 4,
          "fret": 0
        },
        {
          "duration": 2.0,
          "midi": 66,
          "name": "F#4",
          "time": 57.0,
          "velocity": 0.5039370078740157,
          "string": 1,
          "fret": 2
        },
        {
          "duration": 2.0,
          "midi": 45,
          "name": "A2",
          "time": 57.0,
          "velocity": 0.5039370078740157,
          "string": 5,
          "fret": 0
        },
        {
          "duration": 0.25,
          "midi": 67,
          "name": "G4",
          "time": 60.0,
          "velocity": 0.5039370078740157,
          "string": 1,
          "fret": 3
        },
        {
          "duration": 2.75,
          "midi": 40,
          "name": "E2",
          "time": 60.0,
          "velocity": 0.5039370078740157,
          "string": 6,
          "fret": 0
        },
        {
          "duration": 0.25,
          "midi": 59,
          "name": "B3",
          "time": 60.25,
          "velocity": 0.5039370078740157,
          "string": 2,
          "fret": 0
        },
        {
          "duration": 0.25,
          "midi": 55,
          "name": "G3",
          "time": 60.5,
          "velocity": 0.5039370078740157,
          "string": 3,
          "fret": 0
        },
        {
          "duration": 2.0,
          "midi": 64,
          "name": "E4",
          "time": 60.75,
          "velocity": 0.5039370078740157,
          "string": 1,
          "fret": 0
        },
        {
          "duration": 0.25,
          "midi": 67,
          "name": "G4",
          "time": 63.0,
          "velocity": 0.5039370078740157,
          "string": 1,
          "fret": 3
        },
        {
          "duration": 2.75,
          "midi": 40,
          "name": "E2",
          "time": 63.0,
          "velocity": 0.5039370078740157,
          "string": 6,
          "fret": 0
        },
        {
          "duration": 0.25,
          "midi": 59,
          "name": "B3",
          "time": 63.25,
          "velocity": 0.5039370078740157,
          "string": 2,
          "fret": 0
        },
        {
          "duration": 0.25,
          "midi": 55,
          "name": "G3",
          "time": 63.5,
          "velocity": 0.5039370078740157,
          "string": 3,
          "fret": 0
        },
        {
          "duration": 2.0,
          "midi": 64,
          "name": "E4",
          "time": 63.75,
          "velocity": 0.5039370078740157,
          "string": 1,
          "fret": 0
        },
        {
          "duration": 0.25,
          "midi": 67,
          "name": "G4",
          "time": 66.0,
          "velocity": 0.5039370078740157,
          "string": 1,
          "fret": 3
        },
        {
          "duration": 2.875,
          "midi": 40,
          "name": "E2",
          "time": 66.0,
          "velocity": 0.5039370078740157,
          "string": 6,
          "fret": 0
        },
        {
          "duration": 0.25,
          "midi": 59,
          "name": "B3",
          "time": 66.25,
          "velocity": 0.5039370078740157,
          "string": 2,
          "fret": 0
        },
        {
          "duration": 0.25,
          "midi": 55,
          "name": "G3",
          "time": 66.5,
          "velocity": 0.5039370078740157,
          "string": 3,
          "fret": 0
        },
        {
          "duration": 0.25,
          "midi": 64,
          "name": "E4",
          "time": 66.75,
          "velocity": 0.5039370078740157,
          "string": 1,
          "fret": 0
        },
        {
          "duration": 0.25,
          "midi": 59,
          "name": "B3",
          "time": 67.0,
          "velocity": 0.5039370078740157,
          "string": 2,
          "fret": 0
        },
        {
          "duration": 0.25,
          "midi": 55,
          "name": "G3",
          "time": 67.25,
          "velocity": 0.5039370078740157,
          "string": 3,
          "fret": 0
        },
        {
          "duration": 0.25,
          "midi": 69,
          "name": "A4",
          "time": 67.5,
          "velocity": 0.5039370078740157,
          "string": 1,
          "fret": 5
        },
        {
          "duration": 0.25,
          "midi": 59,
          "name": "B3",
          "time": 67.75,
          "velocity": 0.5039370078740157,
          "string": 2,
          "fret": 0
        },
        {
          "duration": 0.25,
          "midi": 55,
          "name": "G3",
          "time": 68.0,
          "velocity": 0.5039370078740157,
          "string": 3,
          "fret": 0
        },
        {
          "duration": 0.25,
          "midi": 66,
          "name": "F#4",
          "time": 68.25,
          "velocity": 0.5039370078740157,
          "string": 1,
          "fret": 2
        },
        {
          "duration": 0.25,
          "midi": 59,
          "name": "B3",
          "time": 68.5,
          "velocity": 0.5039370078740157,
          "string": 2,
          "fret": 0
        },
        {
          "duration": 0.125,
          "midi": 55,
          "name": "G3",
          "time": 68.75,
          "velocity": 0.5039370078740157,
          "string": 3,
          "fret": 0
        },
        {
          "duration": 0.25,
          "midi": 67,
          "name": "G4",
          "time": 69.0,
          "velocity": 0.5039370078740157,
          "string": 1,
          "fret": 3
        },
        {
          "duration": 2.875,
          "midi": 40,
          "name": "E2",
          "time": 69.0,
          "velocity": 0.5039370078740157,
          "string": 6,
          "fret": 0
        },
        {
          "duration": 0.25,
          "midi": 59,
          "name": "B3",
          "time": 69.25,
          "velocity": 0.5039370078740157,
          "string": 2,
          "fret": 0
        },
        {
          "duration": 0.25,
          "midi": 55,
          "name": "G3",
          "time": 69.5,
          "velocity": 0.5039370078740157,
          "string": 3,
          "fret": 0
        },
        {
          "duration": 0.25,
          "midi": 67,
          "name": "G4",
          "time": 69.75,
          "velocity": 0.5039370078740157,
          "string": 1,
          "fret": 3
        },
        {
          "duration": 0.25,
          "midi": 59,
          "name": "B3",
          "time": 70.0,
          "velocity": 0.5039370078740157,
          "string": 2,
          "fret": 0
        },
        {
          "duration": 0.25,
          "midi": 55,
          "name": "G3",
          "time": 70.25,
          "velocity": 0.5039370078740157,
          "string": 3,
          "fret": 0
        },
        {
          "duration": 0.25,
          "midi": 67,
          "name": "G4",
          "time": 70.5,
          "velocity": 0.5039370078740157,
          "string": 1,
          "fret": 3
        },
        {
          "duration": 0.25,
          "midi": 59,
          "name": "B3",
          "time": 70.75,
          "velocity": 0.5039370078740157,
          "string": 2,
          "fret": 0
        },
        {
          "duration": 0.25,
          "midi": 55,
          "name": "G3",
          "time": 71.0,
          "velocity": 0.5039370078740157,
          "string": 3,
          "fret": 0
        },
        {
          "duration": 0.25,
          "midi": 67,
          "name": "G4",
          "time": 71.25,
          "velocity": 0.5039370078740157,
          "string": 1,
          "fret": 3
        },
        {
          "duration": 0.25,
          "midi": 59,
          "name": "B3",
          "time": 71.5,
          "velocity": 0.5039370078740157,
          "string": 2,
          "fret": 0
        },
        {
          "duration": 0.125,
          "midi": 55,
          "name": "G3",
          "time": 71.75,
          "velocity": 0.5039370078740157,
          "string": 3,
          "fret": 0
        },
        {
          "duration": 0.25,
          "midi": 67,
          "name": "G4",
          "time": 72.0,
          "velocity": 0.5039370078740157,
          "string": 1,
          "fret": 3
        },
        {
          "duration": 2.875,
          "midi": 40,
          "name": "E2",
          "time": 72.0,
          "velocity": 0.5039370078740157,
          "string": 6,
          "fret": 0
        },
        {
          "duration": 0.25,
          "midi": 59,
          "name": "B3",
          "time": 72.25,
          "velocity": 0.5039370078740157,
          "string": 2,
          "fret": 0
        },
        {
          "duration": 0.25,
          "midi": 55,
          "name": "G3",
          "time": 72.5,
          "velocity": 0.5039370078740157,
          "string": 3,
          "fret": 0
        },
        {
          "duration": 0.25,
          "midi": 64,
          "name": "E4",
          "time": 72.75,
          "velocity": 0.5039370078740157,
          "string": 1,
          "fret": 0
        },
        {
          "duration": 0.25,
          "midi": 59,
          "name": "B3",
          "time": 73.0,
          "velocity": 0.5039370078740157,
          "string": 2,
          "fret": 0
        },
        {
          "duration": 0.25,
          "midi": 55,
          "name": "G3",
          "time": 73.25,
          "velocity": 0.5039370078740157,
          "string": 3,
          "fret": 0
        },
        {
          "duration": 0.25,
          "midi": 69,
          "name": "A4",
          "time": 73.5,
          "velocity": 0.5039370078740157,
          "string": 1,
          "fret": 5
        },
        {
          "duration": 0.25,
          "midi": 59,
          "name": "B3",
          "time": 73.75,
          "velocity": 0.5039370078740157,
          "string": 2,
          "fret": 0
        },
        {
          "duration": 0.25,
          "midi": 55,
          "name": "G3",
          "time": 74.0,
          "velocity": 0.5039370078740157,
          "string": 3,
          "fret": 0
        },
        {
          "duration": 0.25,
          "midi": 66,
          "name": "F#4",
          "time": 74.25,
          "velocity": 0.5039370078740157,
          "string": 1,
          "fret": 2
        },
        {
          "duration": 0.25,
          "midi": 59,
          "name": "B3",
          "time": 74.5,
          "velocity": 0.5039370078740157,
          "string": 2,
          "fret": 0
        },
        {
          "duration": 0.125,
          "midi": 55,
          "name": "G3",
          "time": 74.75,
          "velocity": 0.5039370078740157,
          "string": 3,
          "fret": 0
        },
        {
          "duration": 0.25,
          "midi": 71,
          "name": "B4",
          "time": 75.0,
          "velocity": 0.5039370078740157,
          "string": 1,
          "fret": 7
        },
        {
          "duration": 2.875,
          "midi": 40,
          "name": "E2",
          "time": 75.0,
          "velocity": 0.5039370078740157,
          "string": 6,
          "fret": 0
        },
        {
          "duration": 0.25,
          "midi": 59,
          "name": "B3",
          "time": 75.25,
          "velocity": 0.5039370078740157,
          "string": 2,
          "fret": 0
        },
        {
          "duration": 0.25,
          "midi": 55,
          "name": "G3",
          "time": 75.5,
          "velocity": 0.5039370078740157,
          "string": 3,
          "fret": 0
        },
        {
          "duration": 0.25,
          "midi": 71,
          "name": "B4",
          "time": 75.75,
          "velocity": 0.5039370078740157,
          "string": 1,
          "fret": 7
        },
        {
          "duration": 0.25,
          "midi": 59,
          "name": "B3",
          "time": 76.0,
          "velocity": 0.5039370078740157,
          "string": 2,
          "fret": 0
        },
        {
          "duration": 0.25,
          "midi": 55,
          "name": "G3",
          "time": 76.25,
          "velocity": 0.5039370078740157,
          "string": 3,
          "fret": 0
        },
        {
          "duration": 0.25,
          "midi": 71,
          "name": "B4",
          "time": 76.5,
          "velocity": 0.5039370078740157,
          "string": 1,
          "fret": 7
        },
        {
          "duration": 0.25,
          "midi": 59,
          "name": "B3",
          "time": 76.75,
          "velocity": 0.5039370078740157,
          "string": 2,
          "fret": 0
        },
        {
          "duration": 0.25,
          "midi": 55,
          "name": "G3",
          "time": 77.0,
          "velocity": 0.5039370078740157,
          "string": 3,
          "fret": 0
        },
        {
          "duration": 0.25,
          "midi": 71,
          "name": "B4",
          "time": 77.25,
          "velocity": 0.5039370078740157,
          "string": 1,
          "fret": 7
        },
        {
          "duration": 0.25,
          "midi": 59,
          "name": "B3",
          "time": 77.5,
          "velocity": 0.5039370078740157,
          "string": 2,
          "fret": 0
        },
        {
          "duration": 0.125,
          "midi": 55,
          "name": "G3",
          "time": 77.75,
          "velocity": 0.5039370078740157,
          "string": 3,
          "fret": 0
        },
        {
          "duration": 0.25,
          "midi": 67,
          "name": "G4",
          "time": 78.0,
          "velocity": 0.5039370078740157,
          "string": 1,
          "fret": 3
        },
        {
          "duration": 2.875,
          "midi": 40,
          "name": "E2",
          "time": 78.0,
          "velocity": 0.5039370078740157,
          "string": 6,
          "fret": 0
        },
        {
          "duration": 0.25,
          "midi": 59,
          "name": "B3",
          "time": 78.25,
          "velocity": 0.5039370078740157,
          "string": 2,
          "fret": 0
        },
        {
          "duration": 0.25,
          "midi": 55,
          "name": "G3",
          "time": 78.5,
          "velocity": 0.5039370078740157,
          "string": 3,
          "fret": 0
        },
        {
          "duration": 0.25,
          "midi": 64,
          "name": "E4",
          "time": 78.75,
          "velocity": 0.5039370078740157,
          "string": 1,
          "fret": 0
        },
        {
          "duration": 0.25,
          "midi": 59,
          "name": "B3",
          "time": 79.0,
          "velocity": 0.5039370078740157,
          "string": 2,
          "fret": 0
        },
        {
          "duration": 0.25,
          "midi": 55,
          "name": "G3",
          "time": 79.25,
          "velocity": 0.5039370078740157,
          "string": 3,
          "fret": 0
        },
        {
          "duration": 0.25,
          "midi": 69,
          "name": "A4",
          "time": 79.5,
          "velocity": 0.5039370078740157,
          "string": 1,
          "fret": 5
        },
        {
          "duration": 0.25,
          "midi": 59,
          "name": "B3",
          "time": 79.75,
          "velocity": 0.5039370078740157,
          "string": 2,
          "fret": 0
        },
        {
          "duration": 0.25,
          "midi": 55,
          "name": "G3",
          "time": 80.0,
          "velocity": 0.5039370078740157,
          "string": 3,
          "fret": 0
        },
        {
          "duration": 0.25,
          "midi": 66,
          "name": "F#4",
          "time": 80.25,
          "velocity": 0.5039370078740157,
          "string": 1,
          "fret": 2
        },
        {
          "duration": 0.25,
          "midi": 59,
          "name": "B3",
          "time": 80.5,
          "velocity": 0.5039370078740157,
          "string": 2,
          "fret": 0
        },
        {
          "duration": 0.125,
          "midi": 55,
          "name": "G3",
          "time": 80.75,
          "velocity": 0.5039370078740157,
          "string": 3,
          "fret": 0
        },
        {
          "duration": 0.25,
          "midi": 67,
          "name": "G4",
          "time": 81.0,
          "velocity": 0.5039370078740157,
          "string": 1,
          "fret": 3
        },
        {
          "duration": 2.875,
          "midi": 40,
          "name": "E2",
          "time": 81.0,
          "velocity": 0.5039370078740157,
          "string": 6,
          "fret": 0
        },
        {
          "duration": 0.25,
          "midi": 59,
          "name": "B3",
          "time": 81.25,
          "velocity": 0.5039370078740157,
          "string": 2,
          "fret": 0
        },
        {
          "duration": 0.25,
          "midi": 55,
          "name": "G3",
          "time": 81.5,
          "velocity": 0.5039370078740157,
          "string": 3,
          "fret": 0
        },
        {
          "duration": 0.25,
          "midi": 67,
          "name": "G4",
          "time": 81.75,
          "velocity": 0.5039370078740157,
          "string": 1,
          "fret": 3
        },
        {
          "duration": 0.25,
          "midi": 59,
          "name": "B3",
          "time": 82.0,
          "velocity": 0.5039370078740157,
          "string": 2,
          "fret": 0
        },
        {
          "duration": 0.25,
          "midi": 55,
          "name": "G3",
          "time": 82.25,
          "velocity": 0.5039370078740157,
          "string": 3,
          "fret": 0
        },
        {
          "duration": 0.25,
          "midi": 67,
          "name": "G4",
          "time": 82.5,
          "velocity": 0.5039370078740157,
          "string": 1,
          "fret": 3
        },
        {
          "duration": 0.25,
          "midi": 59,
          "name": "B3",
          "time": 82.75,
          "velocity": 0.5039370078740157,
          "string": 2,
          "fret": 0
        },
        {
          "duration": 0.25,
          "midi": 55,
          "name": "G3",
          "time": 83.0,
          "velocity": 0.5039370078740157,
          "string": 3,
          "fret": 0
        },
        {
          "duration": 0.25,
          "midi": 67,
          "name": "G4",
          "time": 83.25,
          "velocity": 0.5039370078740157,
          "string": 1,
          "fret": 3
        },
        {
          "duration": 0.25,
          "midi": 59,
          "name": "B3",
          "time": 83.5,
          "velocity": 0.5039370078740157,
          "string": 2,
          "fret": 0
        },
        {
          "duration": 0.125,
          "midi": 55,
          "name": "G3",
          "time": 83.75,
          "velocity": 0.5039370078740157,
          "string": 3,
          "fret": 0
        },
        {
          "duration": 0.25,
          "midi": 70,
          "name": "A#4",
          "time": 84.0,
          "velocity": 0.5039370078740157,
          "string": 1,
          "fret": 6
        },
        {
          "duration": 2.875,
          "midi": 40,
          "name": "E2",
          "time": 84.0,
          "velocity": 0.5039370078740157,
          "string": 6,
          "fret": 0
        },
        {
          "duration": 0.25,
          "midi": 59,
          "name": "B3",
          "time": 84.25,
          "velocity": 0.5039370078740157,
          "string": 2,
          "fret": 0
        },
        {
          "duration": 0.25,
          "midi": 55,
          "name": "G3",
          "time": 84.5,
          "velocity": 0.5039370078740157,
          "string": 3,
          "fret": 0
        },
        {
          "duration": 0.25,
          "midi": 69,
          "name": "A4",
          "time": 84.75,
          "velocity": 0.5039370078740157,
          "string": 1,
          "fret": 5
        },
        {
          "duration": 0.25,
          "midi": 59,
          "name": "B3",
          "time": 85.0,
          "velocity": 0.5039370078740157,
          "string": 2,
          "fret": 0
        },
        {
          "duration": 0.25,
          "midi": 55,
          "name": "G3",
          "time": 85.25,
          "velocity": 0.5039370078740157,
          "string": 3,
          "fret": 0
        },
        {
          "duration": 0.25,
          "midi": 67,
          "name": "G4",
          "time": 85.5,
          "velocity": 0.5039370078740157,
          "string": 1,
          "fret": 3
        },
        {
          "duration": 0.25,
          "midi": 59,
          "name": "B3",
          "time": 85.75,
          "velocity": 0.5039370078740157,
          "string": 2,
          "fret": 0
        },
        {
          "duration": 0.25,
          "midi": 55,
          "name": "G3",
          "time": 86.0,
          "velocity": 0.5039370078740157,
          "string": 3,
          "fret": 0
        },
        {
          "duration": 0.25,
          "midi": 64,
          "name": "E4",
          "time": 86.25,
          "velocity": 0.5039370078740157,
          "string": 1,
          "fret": 0
        },
        {
          "duration": 0.25,
          "midi": 59,
          "name": "B3",
          "time": 86.5,
          "velocity": 0.5039370078740157,
          "string": 2,
          "fret": 0
        },
        {
          "duration": 0.125,
          "midi": 62,
          "name": "D4",
          "time": 86.75,
          "velocity": 0.5039370078740157,
          "string": 2,
          "fret": 3
        },
        {
          "duration": 0.25,
          "midi": 64,
          "name": "E4",
          "time": 87.0,
          "velocity": 0.5039370078740157,
          "string": 1,
          "fret": 0
        },
        {
          "duration": 2.875,
          "midi": 40,
          "name": "E2",
          "time": 87.0,
          "velocity": 0.5039370078740157,
          "string": 6,
          "fret": 0
        },
        {
          "duration": 0.25,
          "midi": 59,
          "name": "B3",
          "time": 87.25,
          "velocity": 0.5039370078740157,
          "string": 2,
          "fret": 0
        },
        {
          "duration": 0.25,
          "midi": 55,
          "name": "G3",
          "time": 87.5,
          "velocity": 0.5039370078740157,
          "string": 3,
          "fret": 0
        },
        {
          "duration": 0.25,
          "midi": 64,
          "name": "E4",
          "time": 87.75,
          "velocity": 0.5039370078740157,
          "string": 1,
          "fret": 0
        },
        {
          "duration": 0.25,
          "midi": 59,
          "name": "B3",
          "time": 88.0,
          "velocity": 0.5039370078740157,
          "string": 2,
          "fret": 0
        },
        {
          "duration": 0.25,
          "midi": 55,
          "name": "G3",
          "time": 88.25,
          "velocity": 0.5039370078740157,
          "string": 3,
          "fret": 0
        },
        {
          "duration": 0.25,
          "midi": 64,
          "name": "E4",
          "time": 88.5,
          "velocity": 0.5039370078740157,
          "string": 1,
          "fret": 0
        },
        {
          "duration": 0.25,
          "midi": 59,
          "name": "B3",
          "time": 88.75,
          "velocity": 0.5039370078740157,
          "string": 2,
          "fret": 0
        },
        {
          "duration": 0.25,
          "midi": 55,
          "name": "G3",
          "time": 89.0,
          "velocity": 0.5039370078740157,
          "string": 3,
          "fret": 0
        },
        {
          "duration": 0.25,
          "midi": 64,
          "name": "E4",
          "time": 89.25,
          "velocity": 0.5039370078740157,
          "string": 1,
          "fret": 0
        },
        {
          "duration": 0.25,
          "midi": 59,
          "name": "B3",
          "time": 89.5,
          "velocity": 0.5039370078740157,
          "string": 2,
          "fret": 0
        },
        {
          "duration": 0.125,
          "midi": 55,
          "name": "G3",
          "time": 89.75,
          "velocity": 0.5039370078740157,
          "string": 3,
          "fret": 0
        },
        {
          "duration": 0.25,
          "midi": 70,
          "name": "A#4",
          "time": 90.0,
          "velocity": 0.5039370078740157,
          "string": 1,
          "fret": 6
        },
        {
          "duration": 2.875,
          "midi": 40,
          "name": "E2",
          "time": 90.0,
          "velocity": 0.5039370078740157,
          "string": 6,
          "fret": 0
        },
        {
          "duration": 0.25,
          "midi": 59,
          "name": "B3",
          "time": 90.25,
          "velocity": 0.5039370078740157,
          "string": 2,
          "fret": 0
        },
        {
          "duration": 0.25,
          "midi": 55,
          "name": "G3",
          "time": 90.5,
          "velocity": 0.5039370078740157,
          "string": 3,
          "fret": 0
        },
        {
          "duration": 0.25,
          "midi": 69,
          "name": "A4",
          "time": 90.75,
          "velocity": 0.5039370078740157,
          "string": 1,
          "fret": 5
        },
        {
          "duration": 0.25,
          "midi": 59,
          "name": "B3",
          "time": 91.0,
          "velocity": 0.5039370078740157,
          "string": 2,
          "fret": 0
        },
        {
          "duration": 0.25,
          "midi": 55,
          "name": "G3",
          "time": 91.25,
          "velocity": 0.5039370078740157,
          "string": 3,
          "fret": 0
        },
        {
          "duration": 0.25,
          "midi": 67,
          "name": "G4",
          "time": 91.5,
          "velocity": 0.5039370078740157,
          "string": 1,
          "fret": 3
        },
        {
          "duration": 0.25,
          "midi": 59,
          "name": "B3",
          "time": 91.75,
          "velocity": 0.5039370078740157,
          "string": 2,
          "fret": 0
        },
        {
          "duration": 0.25,
          "midi": 55,
          "name": "G3",
          "time": 92.0,
          "velocity": 0.5039370078740157,
          "string": 3,
          "fret": 0
        },
        {
          "duration": 0.25,
          "midi": 64,
          "name": "E4",
          "time": 92.25,
          "velocity": 0.5039370078740157,
          "string": 1,
          "fret": 0
        },
        {
          "duration": 0.25,
          "midi": 59,
          "name": "B3",
          "time": 92.5,
          "velocity": 0.5039370078740157,
          "string": 2,
          "fret": 0
        },
        {
          "duration": 0.125,
          "midi": 62,
          "name": "D4",
          "time": 92.75,
          "velocity": 0.5039370078740157,
          "string": 2,
          "fret": 3
        },
        {
          "duration": 0.25,
          "midi": 64,
          "name": "E4",
          "time": 93.0,
          "velocity": 0.5039370078740157,
          "string": 1,
          "fret": 0
        },
        {
          "duration": 2.875,
          "midi": 40,
          "name": "E2",
          "time": 93.0,
          "velocity": 0.5039370078740157,
          "string": 6,
          "fret": 0
        },
        {
          "duration": 0.25,
          "midi": 59,
          "name": "B3",
          "time": 93.25,
          "velocity": 0.5039370078740157,
          "string": 2,
          "fret": 0
        },
        {
          "duration": 0.25,
          "midi": 55,
          "name": "G3",
          "time": 93.5,
          "velocity": 0.5039370078740157,
          "string": 3,
          "fret": 0
        },
        {
          "duration": 0.25,
          "midi": 64,
          "name": "E4",
          "time": 93.75,
          "velocity": 0.5039370078740157,
          "string": 1,
          "fret": 0
        },
        {
          "duration": 0.25,
          "midi": 59,
          "name": "B3",
          "time": 94.0,
          "velocity": 0.5039370078740157,
          "string": 2,
          "fret": 0
        },
        {
          "duration": 0.25,
          "midi": 55,
          "name": "G3",
          "time": 94.25,
          "velocity": 0.5039370078740157,
          "string": 3,
          "fret": 0
        },
        {
          "duration": 0.25,
          "midi": 64,
          "name": "E4",
          "time": 94.5,
          "velocity": 0.5039370078740157,
          "string": 1,
          "fret": 0
        },
        {
          "duration": 0.25,
          "midi": 59,
          "name": "B3",
          "time": 94.75,
          "velocity": 0.5039370078740157,
          "string": 2,
          "fret": 0
        },
        {
          "duration": 0.25,
          "midi": 55,
          "name": "G3",
          "time": 95.0,
          "velocity": 0.5039370078740157,
          "string": 3,
          "fret": 0
        },
        {
          "duration": 0.25,
          "midi": 64,
          "name": "E4",
          "time": 95.25,
          "velocity": 0.5039370078740157,
          "string": 1,
          "fret": 0
        },
        {
          "duration": 0.25,
          "midi": 59,
          "name": "B3",
          "time": 95.5,
          "velocity": 0.5039370078740157,
          "string": 2,
          "fret": 0
        },
        {
          "duration": 0.125,
          "midi": 55,
          "name": "G3",
          "time": 95.75,
          "velocity": 0.5039370078740157,
          "string": 3,
          "fret": 0
        },
        {
          "duration": 0.25,
          "midi": 70,
          "name": "A#4",
          "time": 96.0,
          "velocity": 0.5039370078740157,
          "string": 1,
          "fret": 6
        },
        {
          "duration": 2.5,
          "midi": 40,
          "name": "E2",
          "time": 96.0,
          "velocity": 0.5039370078740157,
          "string": 6,
          "fret": 0
        },
        {
          "duration": 0.25,
          "midi": 59,
          "name": "B3",
          "time": 96.25,
          "velocity": 0.5039370078740157,
          "string": 2,
          "fret": 0
        },
        {
          "duration": 0.25,
          "midi": 55,
          "name": "G3",
          "time": 96.5,
          "velocity": 0.5039370078740157,
          "string": 3,
          "fret": 0
        },
        {
          "duration": 0.25,
          "midi": 69,
          "name": "A4",
          "time": 96.75,
          "velocity": 0.5039370078740157,
          "string": 1,
          "fret": 5
        },
        {
          "duration": 0.25,
          "midi": 59,
          "name": "B3",
          "time": 97.0,
          "velocity": 0.5039370078740157,
          "string": 2,
          "fret": 0
        },
        {
          "duration": 0.25,
          "midi": 55,
          "name": "G3",
          "time": 97.25,
          "velocity": 0.5039370078740157,
          "string": 3,
          "fret": 0
        },
        {
          "duration": 1.0,
          "midi": 67,
          "name": "G4",
          "time": 97.5,
          "velocity": 0.5039370078740157,
          "string": 1,
          "fret": 3
        },
        {
          "duration": 0.5,
          "midi": 64,
          "name": "E4",
          "time": 99.0,
          "velocity": 0.5039370078740157,
          "string": 1,
          "fret": 0
        },
        {
          "duration": 0.5,
          "midi": 59,
          "name": "B3",
          "time": 99.0,
          "velocity": 0.5039370078740157,
          "string": 2,
          "fret": 0
        },
        {
          "duration": 0.5,
          "midi": 55,
          "name": "G3",
          "time": 99.0,
          "velocity": 0.5039370078740157,
          "string": 3,
          "fret": 0
        },
        {
          "duration": 0.5,
          "midi": 52,
          "name": "E3",
          "time": 99.0,
          "velocity": 0.5039370078740157,
          "string": 4,
          "fret": 2
        },
        {
          "duration": 0.5,
          "midi": 47,
          "name": "B2",
          "time": 99.0,
          "velocity": 0.5039370078740157,
          "string": 5,
          "fret": 2
        },
        {
          "duration": 0.5,
          "midi": 40,
          "name": "E2",
          "time": 99.0,
          "velocity": 0.5039370078740157,
          "string": 6,
          "fret": 0
        },
        {
          "duration": 0.25,
          "midi": 64,
          "name": "E4",
          "time": 99.5,
          "velocity": 0.5039370078740157,
          "string": 1,
          "fret": 0
        },
        {
          "duration": 0.25,
          "midi": 59,
          "name": "B3",
          "time": 99.5,
          "velocity": 0.5039370078740157,
          "string": 2,
          "fret": 0
        },
        {
          "duration": 0.25,
          "midi": 55,
          "name": "G3",
          "time": 99.5,
          "velocity": 0.5039370078740157,
          "string": 3,
          "fret": 0
        },
        {
          "duration": 0.25,
          "midi": 52,
          "name": "E3",
          "time": 99.5,
          "velocity": 0.5039370078740157,
          "string": 4,
          "fret": 2
        },
        {
          "duration": 0.25,
          "midi": 47,
          "name": "B2",
          "time": 99.5,
          "velocity": 0.5039370078740157,
          "string": 5,
          "fret": 2
        },
        {
          "duration": 0.25,
          "midi": 40,
          "name": "E2",
          "time": 99.5,
          "velocity": 0.5039370078740157,
          "string": 6,
          "fret": 0
        },
        {
          "duration": 0.25,
          "midi": 64,
          "name": "E4",
          "time": 99.75,
          "velocity": 0.5039370078740157,
          "string": 1,
          "fret": 0
        },
        {
          "duration": 0.25,
          "midi": 59,
          "name": "B3",
          "time": 99.75,
          "velocity": 0.5039370078740157,
          "string": 2,
          "fret": 0
        },
        {
          "duration": 0.25,
          "midi": 55,
          "name": "G3",
          "time": 99.75,
          "velocity": 0.5039370078740157,
          "string": 3,
          "fret": 0
        },
        {
          "duration": 0.25,
          "midi": 52,
          "name": "E3",
          "time": 99.75,
          "velocity": 0.5039370078740157,
          "string": 4,
          "fret": 2
        },
        {
          "duration": 0.25,
          "midi": 47,
          "name": "B2",
          "time": 99.75,
          "velocity": 0.5039370078740157,
          "string": 5,
          "fret": 2
        },
        {
          "duration": 0.25,
          "midi": 40,
          "name": "E2",
          "time": 99.75,
          "velocity": 0.5039370078740157,
          "string": 6,
          "fret": 0
        },
        {
          "duration": 0.25,
          "midi": 64,
          "name": "E4",
          "time": 100.0,
          "velocity": 0.5039370078740157,
          "string": 1,
          "fret": 0
        },
        {
          "duration": 0.25,
          "midi": 59,
          "name": "B3",
          "time": 100.0,
          "velocity": 0.5039370078740157,
          "string": 2,
          "fret": 0
        },
        {
          "duration": 0.25,
          "midi": 55,
          "name": "G3",
          "time": 100.0,
          "velocity": 0.5039370078740157,
          "string": 3,
          "fret": 0
        },
        {
          "duration": 0.25,
          "midi": 52,
          "name": "E3",
          "time": 100.0,
          "velocity": 0.5039370078740157,
          "string": 4,
          "fret": 2
        },
        {
          "duration": 0.25,
          "midi": 47,
          "name": "B2",
          "time": 100.0,
          "velocity": 0.5039370078740157,
          "string": 5,
          "fret": 2
        },
        {
          "duration": 0.25,
          "midi": 40,
          "name": "E2",
          "time": 100.0,
          "velocity": 0.5039370078740157,
          "string": 6,
          "fret": 0
        },
        {
          "duration": 0.25,
          "midi": 64,
          "name": "E4",
          "time": 100.25,
          "velocity": 0.5039370078740157,
          "string": 1,
          "fret": 0
        },
        {
          "duration": 0.25,
          "midi": 59,
          "name": "B3",
          "time": 100.25,
          "velocity": 0.5039370078740157,
          "string": 2,
          "fret": 0
        },
        {
          "duration": 0.25,
          "midi": 55,
          "name": "G3",
          "time": 100.25,
          "velocity": 0.5039370078740157,
          "string": 3,
          "fret": 0
        },
        {
          "duration": 0.25,
          "midi": 52,
          "name": "E3",
          "time": 100.25,
          "velocity": 0.5039370078740157,
          "string": 4,
          "fret": 2
        },
        {
          "duration": 0.25,
          "midi": 47,
          "name": "B2",
          "time": 100.25,
          "velocity": 0.5039370078740157,
          "string": 5,
          "fret": 2
        },
        {
          "duration": 0.25,
          "midi": 40,
          "name": "E2",
          "time": 100.25,
          "velocity": 0.5039370078740157,
          "string": 6,
          "fret": 0
        },
        {
          "duration": 0.5,
          "midi": 64,
          "name": "E4",
          "time": 100.5,
          "velocity": 0.5039370078740157,
          "string": 1,
          "fret": 0
        },
        {
          "duration": 0.5,
          "midi": 59,
          "name": "B3",
          "time": 100.5,
          "velocity": 0.5039370078740157,
          "string": 2,
          "fret": 0
        },
        {
          "duration": 0.5,
          "midi": 55,
          "name": "G3",
          "time": 100.5,
          "velocity": 0.5039370078740157,
          "string": 3,
          "fret": 0
        },
        {
          "duration": 0.5,
          "midi": 52,
          "name": "E3",
          "time": 100.5,
          "velocity": 0.5039370078740157,
          "string": 4,
          "fret": 2
        },
        {
          "duration": 0.5,
          "midi": 47,
          "name": "B2",
          "time": 100.5,
          "velocity": 0.5039370078740157,
          "string": 5,
          "fret": 2
        },
        {
          "duration": 0.5,
          "midi": 40,
          "name": "E2",
          "time": 100.5,
          "velocity": 0.5039370078740157,
          "string": 6,
          "fret": 0
        },
        {
          "duration": 0.25,
          "midi": 64,
          "name": "E4",
          "time": 101.0,
          "velocity": 0.5039370078740157,
          "string": 1,
          "fret": 0
        },
        {
          "duration": 0.25,
          "midi": 59,
          "name": "B3",
          "time": 101.0,
          "velocity": 0.5039370078740157,
          "string": 2,
          "fret": 0
        },
        {
          "duration": 0.25,
          "midi": 55,
          "name": "G3",
          "time": 101.0,
          "velocity": 0.5039370078740157,
          "string": 3,
          "fret": 0
        },
        {
          "duration": 0.25,
          "midi": 52,
          "name": "E3",
          "time": 101.0,
          "velocity": 0.5039370078740157,
          "string": 4,
          "fret": 2
        },
        {
          "duration": 0.25,
          "midi": 47,
          "name": "B2",
          "time": 101.0,
          "velocity": 0.5039370078740157,
          "string": 5,
          "fret": 2
        },
        {
          "duration": 0.25,
          "midi": 40,
          "name": "E2",
          "time": 101.0,
          "velocity": 0.5039370078740157,
          "string": 6,
          "fret": 0
        },
        {
          "duration": 0.25,
          "midi": 64,
          "name": "E4",
          "time": 101.25,
          "velocity": 0.5039370078740157,
          "string": 1,
          "fret": 0
        },
        {
          "duration": 0.25,
          "midi": 59,
          "name": "B3",
          "time": 101.25,
          "velocity": 0.5039370078740157,
          "string": 2,
          "fret": 0
        },
        {
          "duration": 0.25,
          "midi": 55,
          "name": "G3",
          "time": 101.25,
          "velocity": 0.5039370078740157,
          "string": 3,
          "fret": 0
        },
        {
          "duration": 0.25,
          "midi": 52,
          "name": "E3",
          "time": 101.25,
          "velocity": 0.5039370078740157,
          "string": 4,
          "fret": 2
        },
        {
          "duration": 0.25,
          "midi": 47,
          "name": "B2",
          "time": 101.25,
          "velocity": 0.5039370078740157,
          "string": 5,
          "fret": 2
        },
        {
          "duration": 0.25,
          "midi": 40,
          "name": "E2",
          "time": 101.25,
          "velocity": 0.5039370078740157,
          "string": 6,
          "fret": 0
        },
        {
          "duration": 0.25,
          "midi": 64,
          "name": "E4",
          "time": 101.5,
          "velocity": 0.5039370078740157,
          "string": 1,
          "fret": 0
        },
        {
          "duration": 0.25,
          "midi": 59,
          "name": "B3",
          "time": 101.5,
          "velocity": 0.5039370078740157,
          "string": 2,
          "fret": 0
        },
        {
          "duration": 0.25,
          "midi": 55,
          "name": "G3",
          "time": 101.5,
          "velocity": 0.5039370078740157,
          "string": 3,
          "fret": 0
        },
        {
          "duration": 0.25,
          "midi": 52,
          "name": "E3",
          "time": 101.5,
          "velocity": 0.5039370078740157,
          "string": 4,
          "fret": 2
        },
        {
          "duration": 0.25,
          "midi": 47,
          "name": "B2",
          "time": 101.5,
          "velocity": 0.5039370078740157,
          "string": 5,
          "fret": 2
        },
        {
          "duration": 0.25,
          "midi": 40,
          "name": "E2",
          "time": 101.5,
          "velocity": 0.5039370078740157,
          "string": 6,
          "fret": 0
        },
        {
          "duration": 0.125,
          "midi": 64,
          "name": "E4",
          "time": 101.75,
          "velocity": 0.5039370078740157,
          "string": 1,
          "fret": 0
        },
        {
          "duration": 0.125,
          "midi": 59,
          "name": "B3",
          "time": 101.75,
          "velocity": 0.5039370078740157,
          "string": 2,
          "fret": 0
        },
        {
          "duration": 0.125,
          "midi": 55,
          "name": "G3",
          "time": 101.75,
          "velocity": 0.5039370078740157,
          "string": 3,
          "fret": 0
        },
        {
          "duration": 0.125,
          "midi": 52,
          "name": "E3",
          "time": 101.75,
          "velocity": 0.5039370078740157,
          "string": 4,
          "fret": 2
        },
        {
          "duration": 0.125,
          "midi": 47,
          "name": "B2",
          "time": 101.75,
          "velocity": 0.5039370078740157,
          "string": 5,
          "fret": 2
        },
        {
          "duration": 0.125,
          "midi": 40,
          "name": "E2",
          "time": 101.75,
          "velocity": 0.5039370078740157,
          "string": 6,
          "fret": 0
        },
        {
          "duration": 2.0,
          "midi": 64,
          "name": "E4",
          "time": 102.0,
          "velocity": 0.5039370078740157,
          "string": 1,
          "fret": 0
        },
        {
          "duration": 2.0,
          "midi": 59,
          "name": "B3",
          "time": 102.0,
          "velocity": 0.5039370078740157,
          "string": 2,
          "fret": 0
        },
        {
          "duration": 2.0,
          "midi": 55,
          "name": "G3",
          "time": 102.0,
          "velocity": 0.5039370078740157,
          "string": 3,
          "fret": 0
        },
        {
          "duration": 2.0,
          "midi": 52,
          "name": "E3",
          "time": 102.0,
          "velocity": 0.5039370078740157,
          "string": 4,
          "fret": 2
        },
        {
          "duration": 2.0,
          "midi": 47,
          "name": "B2",
          "time": 102.0,
          "velocity": 0.5039370078740157,
          "string": 5,
          "fret": 2
        },
        {
          "duration": 2.0,
          "midi": 40,
          "name": "E2",
          "time": 102.0,
          "velocity": 0.5039370078740157,
          "string": 6,
          "fret": 0
        }
      ]
    }
  ]
}