<svg width="1264" height="592" viewBox="0 0 1264 592" fill="none" xmlns="http://www.w3.org/2000/svg">
<g id="Guitar">
<g id="Fret markers">
<circle id="Ellipse 9" cx="1072.6" cy="295.6" r="4" transform="rotate(180 1072.6 295.6)" fill="white" fill-opacity="0.3"/>
<circle id="Ellipse 10" cx="975.6" cy="295.6" r="4" transform="rotate(180 975.6 295.6)" fill="white" fill-opacity="0.3"/>
<circle id="Ellipse 11" cx="895.6" cy="295.6" r="4" transform="rotate(180 895.6 295.6)" fill="white" fill-opacity="0.3"/>
<circle id="Ellipse 12" cx="821.6" cy="295.6" r="4" transform="rotate(180 821.6 295.6)" fill="white" fill-opacity="0.3"/>
<circle id="Ellipse 15" cx="688.6" cy="295.6" r="4" transform="rotate(180 688.6 295.6)" fill="white" fill-opacity="0.3"/>
<circle id="Ellipse 16" cx="642.6" cy="295.6" r="4" transform="rotate(180 642.6 295.6)" fill="white" fill-opacity="0.3"/>
<circle id="Ellipse 13" cx="737.6" cy="254.6" r="4" transform="rotate(180 737.6 254.6)" fill="white" fill-opacity="0.3"/>
<circle id="Ellipse 14" cx="737.6" cy="336.6" r="4" transform="rotate(180 737.6 336.6)" fill="white" fill-opacity="0.3"/>
</g>
<g id="Frets">
<rect id="Rectangle 15" x="1152.6" y="238.6" width="2" height="115" rx="1" fill="white" fill-opacity="0.25"/>
<rect id="Rectangle 16" x="1097.6" y="238.6" width="2" height="115" rx="1" fill="white" fill-opacity="0.25"/>
<rect id="Rectangle 17" x="1044.6" y="238.6" width="2" height="115" rx="1" fill="white" fill-opacity="0.25"/>
<rect id="Rectangle 18" x="995.6" y="238.6" width="2" height="115" rx="1" fill="white" fill-opacity="0.25"/>
<rect id="Rectangle 19" x="953.6" y="238.6" width="2" height="115" rx="1" fill="white" fill-opacity="0.25"/>
<rect id="Rectangle 20" x="913.6" y="238.6" width="2" height="115" rx="1" fill="white" fill-opacity="0.25"/>
<rect id="Rectangle 31" x="874.6" y="238.6" width="2" height="115" rx="1" fill="white" fill-opacity="0.25"/>
<rect id="Rectangle 21" x="837.6" y="238.6" width="2" height="115" rx="1" fill="white" fill-opacity="0.25"/>
<rect id="Rectangle 30" x="803.6" y="238.6" width="2" height="115" rx="1" fill="white" fill-opacity="0.25"/>
<rect id="Rectangle 22" x="774.6" y="238.6" width="2" height="115" rx="1" fill="white" fill-opacity="0.25"/>
<rect id="Rectangle 23" x="723.6" y="238.6" width="2" height="115" rx="1" fill="white" fill-opacity="0.25"/>
<rect id="Rectangle 29" x="748.6" y="238.6" width="2" height="115" rx="1" fill="white" fill-opacity="0.25"/>
<rect id="Rectangle 24" x="675.6" y="238.6" width="2" height="115" rx="1" fill="white" fill-opacity="0.25"/>
<rect id="Rectangle 28" x="699.6" y="238.6" width="2" height="115" rx="1" fill="white" fill-opacity="0.25"/>
<rect id="Rectangle 25" x="652.6" y="238.6" width="2" height="115" rx="1" fill="white" fill-opacity="0.25"/>
<rect id="Rectangle 26" x="629.6" y="238.6" width="2" height="115" rx="1" fill="white" fill-opacity="0.25"/>
<rect id="Rectangle 27" x="608.6" y="238.6" width="2" height="115" rx="1" fill="white" fill-opacity="0.25"/>
</g>
<g id="Guitar Outline" filter="url(#filter0_d_15_605)">
<path d="M552.57 485.853C534.505 485.853 517.309 480.15 501.703 469.854C472.625 450.668 435.194 454.835 410.867 480.339C353.203 540.803 272.632 577.065 198.429 577.065C67.1755 577.065 17.6294 463.629 14.7382 303.432H14.6001C14.6001 300.888 14.6102 298.355 14.6338 295.832C14.6135 293.31 14.6001 290.777 14.6001 288.233H14.7382C17.6294 128.036 67.1755 14.6 198.429 14.6C272.632 14.6 353.203 50.8617 410.871 111.333C435.197 136.837 472.625 141.008 501.707 121.818C517.312 111.522 534.508 105.819 552.574 105.819C660.747 105.819 678.109 168.178 680.899 221.128C680.899 221.128 1252.44 233.749 1285.59 233.749C1318.74 233.749 1331.24 249.702 1331.24 302.138C1331.24 354.574 1323.24 370.542 1285.6 370.542H680.896C678.105 423.492 660.744 485.853 552.57 485.853Z" stroke="url(#paint0_linear_15_605)" stroke-miterlimit="10" stroke-linecap="round" stroke-linejoin="round" shape-rendering="crispEdges"/>
</g>
<g id="Left Connector" filter="url(#filter1_d_15_605)">
<rect x="225.1" y="231.1" width="22" height="129" rx="6.5" stroke="white" stroke-opacity="0.02" shape-rendering="crispEdges"/>
</g>
<g id="Circle">
<circle id="Ellipse 1" cx="112" cy="112" r="115" transform="matrix(-1 0 0 1 592.741 183.6)" stroke="url(#paint1_radial_15_605)" stroke-width="6"/>
<circle id="Ellipse 2" cx="112" cy="112" r="109" transform="matrix(-1 0 0 1 592.741 183.6)" stroke="url(#paint2_radial_15_605)" stroke-width="6"/>
</g>
<g id="Strings">
<g id="Right Circles Color">
<g id="Ellipse 3">
<g filter="url(#filter2_i_15_605)">
<circle cx="4.99738" cy="4.99738" r="4.99738" transform="matrix(-1 0 0 1 1210.59 238.87)" fill="#2B2222"/>
</g>
<circle cx="4.99738" cy="4.99738" r="4.99738" transform="matrix(-1 0 0 1 1210.59 238.87)" stroke="url(#paint3_radial_15_605)" stroke-width="3"/>
</g>
<g id="Ellipse 3_2">
<g filter="url(#filter3_i_15_605)">
<circle cx="4.99738" cy="4.99738" r="4.99738" transform="matrix(-1 0 0 1 1210.59 259.448)" fill="#801110"/>
</g>
<circle cx="4.99738" cy="4.99738" r="4.99738" transform="matrix(-1 0 0 1 1210.59 259.448)" stroke="url(#paint4_radial_15_605)" stroke-width="3"/>
</g>
<g id="Ellipse 3_3">
<g filter="url(#filter4_i_15_605)">
<circle cx="4.99738" cy="4.99738" r="4.99738" transform="matrix(-1 0 0 1 1210.59 280.025)" fill="#8C3C24"/>
</g>
<circle cx="4.99738" cy="4.99738" r="4.99738" transform="matrix(-1 0 0 1 1210.59 280.025)" stroke="url(#paint5_radial_15_605)" stroke-width="3"/>
</g>
<g id="Ellipse 3_4">
<g filter="url(#filter5_i_15_605)">
<circle cx="4.99738" cy="4.99738" r="4.99738" transform="matrix(-1 0 0 1 1210.59 300.602)" fill="#FE8601"/>
</g>
<circle cx="4.99738" cy="4.99738" r="4.99738" transform="matrix(-1 0 0 1 1210.59 300.602)" stroke="url(#paint6_radial_15_605)" stroke-width="3"/>
</g>
<g id="Ellipse 3_5">
<g filter="url(#filter6_i_15_605)">
<circle cx="4.99738" cy="4.99738" r="4.99738" transform="matrix(-1 0 0 1 1210.59 321.18)" fill="#E7A85D"/>
</g>
<circle cx="4.99738" cy="4.99738" r="4.99738" transform="matrix(-1 0 0 1 1210.59 321.18)" stroke="url(#paint7_radial_15_605)" stroke-width="3"/>
</g>
<g id="Ellipse 3_6">
<g filter="url(#filter7_i_15_605)">
<circle cx="4.99738" cy="4.99738" r="4.99738" transform="matrix(-1 0 0 1 1210.59 341.757)" fill="#EAE5D5"/>
</g>
<circle cx="4.99738" cy="4.99738" r="4.99738" transform="matrix(-1 0 0 1 1210.59 341.757)" stroke="url(#paint8_radial_15_605)" stroke-width="3"/>
</g>
</g>
<g id="Left Circles">
<g id="Ellipse 3_7">
<g filter="url(#filter8_i_15_605)">
<circle cx="4.99738" cy="4.99738" r="4.99738" transform="matrix(-1 0 0 1 241.595 238.865)" fill="#2B2222"/>
</g>
<circle cx="4.99738" cy="4.99738" r="4.99738" transform="matrix(-1 0 0 1 241.595 238.865)" stroke="url(#paint9_radial_15_605)" stroke-width="3"/>
</g>
<g id="Ellipse 3_8">
<g filter="url(#filter9_i_15_605)">
<circle cx="4.99738" cy="4.99738" r="4.99738" transform="matrix(-1 0 0 1 241.595 259.443)" fill="#801110"/>
</g>
<circle cx="4.99738" cy="4.99738" r="4.99738" transform="matrix(-1 0 0 1 241.595 259.443)" stroke="url(#paint10_radial_15_605)" stroke-width="3"/>
</g>
<g id="Ellipse 3_9">
<g filter="url(#filter10_i_15_605)">
<circle cx="4.99738" cy="4.99738" r="4.99738" transform="matrix(-1 0 0 1 241.595 280.02)" fill="#8C3C24"/>
</g>
<circle cx="4.99738" cy="4.99738" r="4.99738" transform="matrix(-1 0 0 1 241.595 280.02)" stroke="url(#paint11_radial_15_605)" stroke-width="3"/>
</g>
<g id="Ellipse 3_10">
<g filter="url(#filter11_i_15_605)">
<circle cx="4.99738" cy="4.99738" r="4.99738" transform="matrix(-1 0 0 1 241.595 300.597)" fill="#FE8601"/>
</g>
<circle cx="4.99738" cy="4.99738" r="4.99738" transform="matrix(-1 0 0 1 241.595 300.597)" stroke="url(#paint12_radial_15_605)" stroke-width="3"/>
</g>
<g id="Ellipse 3_11">
<g filter="url(#filter12_i_15_605)">
<circle cx="4.99738" cy="4.99738" r="4.99738" transform="matrix(-1 0 0 1 241.595 321.175)" fill="#E7A85D"/>
</g>
<circle cx="4.99738" cy="4.99738" r="4.99738" transform="matrix(-1 0 0 1 241.595 321.175)" stroke="url(#paint13_radial_15_605)" stroke-width="3"/>
</g>
<g id="Ellipse 3_12">
<g filter="url(#filter13_i_15_605)">
<circle cx="4.99738" cy="4.99738" r="4.99738" transform="matrix(-1 0 0 1 241.595 341.752)" fill="#EAE5D5"/>
</g>
<circle cx="4.99738" cy="4.99738" r="4.99738" transform="matrix(-1 0 0 1 241.595 341.752)" stroke="url(#paint14_radial_15_605)" stroke-width="3"/>
</g>
</g>
<g id="Strings_2">
<g id="Group 1">
<rect id="Rectangle 1" width="972.611" height="4.70341" rx="2.35171" transform="matrix(-1 0 0 1 1207.16 241.805)" fill="url(#paint15_radial_15_605)"/>
<g id="Rectangle 2">
<mask id="path-43-inside-1_15_605" fill="white">
<path d="M1207.16 244.156C1207.16 242.858 1206.11 241.805 1204.81 241.805H236.9C235.602 241.805 234.549 242.858 234.549 244.156C234.549 245.455 235.602 246.508 236.9 246.508H1204.81C1206.11 246.508 1207.16 245.455 1207.16 244.156Z"/>
</mask>
<path d="M1207.16 244.156C1207.16 242.305 1205.66 240.805 1203.81 240.805H237.9C236.049 240.805 234.549 242.305 234.549 244.156C234.549 243.41 235.602 242.805 236.9 242.805H1204.81C1206.11 242.805 1207.16 243.41 1207.16 244.156ZM1207.16 244.156M234.549 246.508H1207.16H234.549M234.549 246.508M1207.16 246.508V241.805V246.508M1207.16 246.508M234.549 241.805V246.508V241.805" fill="white" fill-opacity="0.28" mask="url(#path-43-inside-1_15_605)"/>
</g>
<g id="Rectangle 3">
<mask id="path-45-inside-2_15_605" fill="white">
<path d="M1207.16 244.156C1207.16 242.858 1206.11 241.805 1204.81 241.805H236.9C235.602 241.805 234.549 242.858 234.549 244.156C234.549 245.455 235.602 246.508 236.9 246.508H1204.81C1206.11 246.508 1207.16 245.455 1207.16 244.156Z"/>
</mask>
<path d="M1207.16 241.805H234.549H1207.16M234.549 244.156C234.549 246.008 236.049 247.508 237.9 247.508H1203.81C1205.66 247.508 1207.16 246.008 1207.16 244.156C1207.16 244.903 1206.11 245.508 1204.81 245.508H236.9C235.602 245.508 234.549 244.903 234.549 244.156ZM234.549 244.156M1207.16 246.508V241.805V246.508M1207.16 246.508M234.549 241.805V246.508V241.805" fill="black" fill-opacity="0.23" mask="url(#path-45-inside-2_15_605)"/>
</g>
</g>
<g id="Group 1_2">
<rect id="Rectangle 1_2" width="973.063" height="4.78849" rx="2.39425" transform="matrix(-1 0 0 1 1207.6 262.34)" fill="url(#paint16_radial_15_605)"/>
<g id="Rectangle 2_2">
<mask id="path-48-inside-3_15_605" fill="white">
<path d="M1207.6 264.734C1207.6 263.412 1206.53 262.34 1205.21 262.34H236.932C235.609 262.34 234.537 263.412 234.537 264.734C234.537 266.056 235.609 267.128 236.932 267.128H1205.21C1206.53 267.128 1207.6 266.056 1207.6 264.734Z"/>
</mask>
<path d="M1207.6 264.734C1207.6 262.859 1206.08 261.34 1204.21 261.34H237.932C236.057 261.34 234.537 262.859 234.537 264.734C234.537 263.964 235.609 263.34 236.932 263.34H1205.21C1206.53 263.34 1207.6 263.964 1207.6 264.734ZM1207.6 264.734M234.537 267.128H1207.6H234.537M234.537 267.128M1207.6 267.128V262.34V267.128M1207.6 267.128M234.537 262.34V267.128V262.34" fill="white" fill-opacity="0.28" mask="url(#path-48-inside-3_15_605)"/>
</g>
<g id="Rectangle 3_2">
<mask id="path-50-inside-4_15_605" fill="white">
<path d="M1207.6 264.734C1207.6 263.412 1206.53 262.34 1205.21 262.34H236.932C235.609 262.34 234.537 263.412 234.537 264.734C234.537 266.056 235.609 267.128 236.932 267.128H1205.21C1206.53 267.128 1207.6 266.056 1207.6 264.734Z"/>
</mask>
<path d="M1207.6 262.34H234.537H1207.6M234.537 264.734C234.537 266.609 236.057 268.128 237.932 268.128H1204.21C1206.08 268.128 1207.6 266.609 1207.6 264.734C1207.6 265.504 1206.53 266.128 1205.21 266.128H236.932C235.609 266.128 234.537 265.504 234.537 264.734ZM234.537 264.734M1207.6 267.128V262.34V267.128M1207.6 267.128M234.537 262.34V267.128V262.34" fill="black" fill-opacity="0.23" mask="url(#path-50-inside-4_15_605)"/>
</g>
</g>
<g id="Group 1_3">
<rect id="Rectangle 1_3" width="973.063" height="4.87105" rx="2.43552" transform="matrix(-1 0 0 1 1207.6 282.876)" fill="url(#paint17_radial_15_605)"/>
<g id="Rectangle 2_3">
<mask id="path-53-inside-5_15_605" fill="white">
<path d="M1207.6 285.311C1207.6 283.966 1206.51 282.876 1205.16 282.876H236.973C235.628 282.876 234.537 283.966 234.537 285.311C234.537 286.656 235.628 287.747 236.973 287.747H1205.16C1206.51 287.747 1207.6 286.656 1207.6 285.311Z"/>
</mask>
<path d="M1207.6 285.311C1207.6 283.414 1206.06 281.876 1204.16 281.876H237.973C236.075 281.876 234.537 283.414 234.537 285.311C234.537 284.519 235.628 283.876 236.973 283.876H1205.16C1206.51 283.876 1207.6 284.519 1207.6 285.311ZM1207.6 285.311M234.537 287.747H1207.6H234.537M234.537 287.747M1207.6 287.747V282.876V287.747M1207.6 287.747M234.537 282.876V287.747V282.876" fill="white" fill-opacity="0.28" mask="url(#path-53-inside-5_15_605)"/>
</g>
<g id="Rectangle 3_3">
<mask id="path-55-inside-6_15_605" fill="white">
<path d="M1207.6 285.311C1207.6 283.966 1206.51 282.876 1205.16 282.876H236.973C235.628 282.876 234.537 283.966 234.537 285.311C234.537 286.656 235.628 287.747 236.973 287.747H1205.16C1206.51 287.747 1207.6 286.656 1207.6 285.311Z"/>
</mask>
<path d="M1207.6 282.876H234.537H1207.6M234.537 285.311C234.537 287.209 236.075 288.747 237.973 288.747H1204.16C1206.06 288.747 1207.6 287.209 1207.6 285.311C1207.6 286.104 1206.51 286.747 1205.16 286.747H236.973C235.628 286.747 234.537 286.104 234.537 285.311ZM234.537 285.311M1207.6 287.747V282.876V287.747M1207.6 287.747M234.537 282.876V287.747V282.876" fill="black" fill-opacity="0.23" mask="url(#path-55-inside-6_15_605)"/>
</g>
</g>
<g id="Group 1_4">
<rect id="Rectangle 1_4" width="973.063" height="4.70341" rx="2.35171" transform="matrix(-1 0 0 1 1207.6 303.537)" fill="url(#paint18_radial_15_605)"/>
<g id="Rectangle 2_4">
<mask id="path-58-inside-7_15_605" fill="white">
<path d="M1207.6 305.889C1207.6 304.59 1206.55 303.537 1205.25 303.537H236.889C235.59 303.537 234.537 304.59 234.537 305.889C234.537 307.187 235.59 308.24 236.889 308.24H1205.25C1206.55 308.24 1207.6 307.187 1207.6 305.889Z"/>
</mask>
<path d="M1207.6 305.889C1207.6 304.038 1206.1 302.537 1204.25 302.537H237.889C236.038 302.537 234.537 304.038 234.537 305.889C234.537 305.142 235.59 304.537 236.889 304.537H1205.25C1206.55 304.537 1207.6 305.142 1207.6 305.889ZM1207.6 305.889M234.537 308.24H1207.6H234.537M234.537 308.24M1207.6 308.24V303.537V308.24M1207.6 308.24M234.537 303.537V308.24V303.537" fill="white" fill-opacity="0.28" mask="url(#path-58-inside-7_15_605)"/>
</g>
<g id="Rectangle 3_4">
<mask id="path-60-inside-8_15_605" fill="white">
<path d="M1207.6 305.889C1207.6 304.59 1206.55 303.537 1205.25 303.537H236.889C235.59 303.537 234.537 304.59 234.537 305.889C234.537 307.187 235.59 308.24 236.889 308.24H1205.25C1206.55 308.24 1207.6 307.187 1207.6 305.889Z"/>
</mask>
<path d="M1207.6 303.537H234.537H1207.6M234.537 305.889C234.537 307.74 236.038 309.24 237.889 309.24H1204.25C1206.1 309.24 1207.6 307.74 1207.6 305.889C1207.6 306.635 1206.55 307.24 1205.25 307.24H236.889C235.59 307.24 234.537 306.635 234.537 305.889ZM234.537 305.889M1207.6 308.24V303.537V308.24M1207.6 308.24M234.537 303.537V308.24V303.537" fill="black" fill-opacity="0.23" mask="url(#path-60-inside-8_15_605)"/>
</g>
</g>
<g id="Group 1_5">
<rect id="Rectangle 1_5" width="973.14" height="4.70341" rx="2.35171" transform="matrix(-1 0 0 1 1207.6 324.114)" fill="url(#paint19_radial_15_605)"/>
<g id="Rectangle 2_5">
<mask id="path-63-inside-9_15_605" fill="white">
<path d="M1207.6 326.466C1207.6 325.167 1206.55 324.114 1205.25 324.114H236.812C235.513 324.114 234.46 325.167 234.46 326.466C234.46 327.765 235.513 328.818 236.812 328.818H1205.25C1206.55 328.818 1207.6 327.765 1207.6 326.466Z"/>
</mask>
<path d="M1207.6 326.466C1207.6 324.615 1206.1 323.114 1204.25 323.114H237.812C235.961 323.114 234.46 324.615 234.46 326.466C234.46 325.72 235.513 325.114 236.812 325.114H1205.25C1206.55 325.114 1207.6 325.72 1207.6 326.466ZM1207.6 326.466M234.46 328.818H1207.6H234.46M234.46 328.818M1207.6 328.818V324.114V328.818M1207.6 328.818M234.46 324.114V328.818V324.114" fill="white" fill-opacity="0.28" mask="url(#path-63-inside-9_15_605)"/>
</g>
<g id="Rectangle 3_5">
<mask id="path-65-inside-10_15_605" fill="white">
<path d="M1207.6 326.466C1207.6 325.167 1206.55 324.114 1205.25 324.114H236.812C235.513 324.114 234.46 325.167 234.46 326.466C234.46 327.765 235.513 328.818 236.812 328.818H1205.25C1206.55 328.818 1207.6 327.765 1207.6 326.466Z"/>
</mask>
<path d="M1207.6 324.114H234.46H1207.6M234.46 326.466C234.46 328.317 235.961 329.818 237.812 329.818H1204.25C1206.1 329.818 1207.6 328.317 1207.6 326.466C1207.6 327.213 1206.55 327.818 1205.25 327.818H236.812C235.513 327.818 234.46 327.213 234.46 326.466ZM234.46 326.466M1207.6 328.818V324.114V328.818M1207.6 328.818M234.46 324.114V328.818V324.114" fill="black" fill-opacity="0.23" mask="url(#path-65-inside-10_15_605)"/>
</g>
</g>
<g id="Group 1_6">
<rect id="Rectangle 1_6" width="972.611" height="4.70341" rx="2.35171" transform="matrix(-1 0 0 1 1207.23 344.692)" fill="url(#paint20_radial_15_605)"/>
<g id="Rectangle 2_6">
<mask id="path-68-inside-11_15_605" fill="white">
<path d="M1207.23 347.044C1207.23 345.745 1206.17 344.692 1204.87 344.692H236.966C235.667 344.692 234.615 345.745 234.615 347.044C234.615 348.342 235.667 349.395 236.966 349.395H1204.87C1206.17 349.395 1207.23 348.342 1207.23 347.044Z"/>
</mask>
<path d="M1207.23 347.044C1207.23 345.192 1205.72 343.692 1203.87 343.692H237.966C236.115 343.692 234.615 345.192 234.615 347.044C234.615 346.297 235.667 345.692 236.966 345.692H1204.87C1206.17 345.692 1207.23 346.297 1207.23 347.044ZM1207.23 347.044M234.615 349.395H1207.23H234.615M234.615 349.395M1207.23 349.395V344.692V349.395M1207.23 349.395M234.615 344.692V349.395V344.692" fill="white" fill-opacity="0.28" mask="url(#path-68-inside-11_15_605)"/>
</g>
<g id="Rectangle 3_6">
<mask id="path-70-inside-12_15_605" fill="white">
<path d="M1207.23 347.044C1207.23 345.745 1206.17 344.692 1204.87 344.692H236.966C235.667 344.692 234.615 345.745 234.615 347.044C234.615 348.342 235.667 349.395 236.966 349.395H1204.87C1206.17 349.395 1207.23 348.342 1207.23 347.044Z"/>
</mask>
<path d="M1207.23 344.692H234.615H1207.23M234.615 347.044C234.615 348.895 236.115 350.395 237.966 350.395H1203.87C1205.72 350.395 1207.23 348.895 1207.23 347.044C1207.23 347.79 1206.17 348.395 1204.87 348.395H236.966C235.667 348.395 234.615 347.79 234.615 347.044ZM234.615 347.044M1207.23 349.395V344.692V349.395M1207.23 349.395M234.615 344.692V349.395V344.692" fill="black" fill-opacity="0.23" mask="url(#path-70-inside-12_15_605)"/>
</g>
</g>
</g>
</g>
<path id="Strum" d="M481.083 271.453C474.462 271.453 469.058 276.666 468.751 283.212H468.737V345.532L468.741 345.85C468.91 352.522 474.371 357.878 481.083 357.878C487.796 357.878 493.257 352.522 493.426 345.85L493.43 345.532V283.212H493.416C493.109 276.666 487.705 271.453 481.083 271.453Z" fill="url(#paint21_linear_15_605)" fill-opacity="0.53"/>
<g id="Fingers" filter="url(#filter14_d_15_605)">
<circle id="Finger 4" cx="1126.24" cy="346.243" r="7.44304" transform="rotate(180 1126.24 346.243)" fill="#EAE5D5" fill-opacity="0.53" stroke="url(#paint22_linear_15_605)" stroke-width="0.4"/>
<circle id="Finger 3" cx="1126.24" cy="326.243" r="7.44304" transform="rotate(180 1126.24 326.243)" fill="#E7A85D" fill-opacity="0.53" stroke="url(#paint23_linear_15_605)" stroke-width="0.4"/>
<circle id="Finger 2" cx="1020.24" cy="305.243" r="7.44304" transform="rotate(180 1020.24 305.243)" fill="#FE8601" fill-opacity="0.53" stroke="url(#paint24_linear_15_605)" stroke-width="0.4"/>
<circle id="Finger 1" cx="1072.24" cy="285.243" r="7.44304" transform="rotate(180 1072.24 285.243)" fill="#8C3C24" fill-opacity="0.6" stroke="url(#paint25_linear_15_605)" stroke-width="0.4"/>
</g>
</g>
<defs>
<filter id="filter0_d_15_605" x="9.72748e-05" y="0" width="1345.84" height="591.665" filterUnits="userSpaceOnUse" color-interpolation-filters="sRGB">
<feFlood flood-opacity="0" result="BackgroundImageFix"/>
<feColorMatrix in="SourceAlpha" type="matrix" values="0 0 0 0 0 0 0 0 0 0 0 0 0 0 0 0 0 0 127 0" result="hardAlpha"/>
<feOffset/>
<feGaussianBlur stdDeviation="7.05"/>
<feComposite in2="hardAlpha" operator="out"/>
<feColorMatrix type="matrix" values="0 0 0 0 1 0 0 0 0 1 0 0 0 0 1 0 0 0 0.23 0"/>
<feBlend mode="normal" in2="BackgroundImageFix" result="effect1_dropShadow_15_605"/>
<feBlend mode="normal" in="SourceGraphic" in2="effect1_dropShadow_15_605" result="shape"/>
</filter>
<filter id="filter1_d_15_605" x="220.6" y="226.6" width="31" height="138" filterUnits="userSpaceOnUse" color-interpolation-filters="sRGB">
<feFlood flood-opacity="0" result="BackgroundImageFix"/>
<feColorMatrix in="SourceAlpha" type="matrix" values="0 0 0 0 0 0 0 0 0 0 0 0 0 0 0 0 0 0 127 0" result="hardAlpha"/>
<feOffset/>
<feGaussianBlur stdDeviation="2"/>
<feComposite in2="hardAlpha" operator="out"/>
<feColorMatrix type="matrix" values="0 0 0 0 1 0 0 0 0 1 0 0 0 0 1 0 0 0 0.53 0"/>
<feBlend mode="normal" in2="BackgroundImageFix" result="effect1_dropShadow_15_605"/>
<feBlend mode="normal" in="SourceGraphic" in2="effect1_dropShadow_15_605" result="shape"/>
</filter>
<filter id="filter2_i_15_605" x="1199.1" y="237.37" width="12.9946" height="16.9948" filterUnits="userSpaceOnUse" color-interpolation-filters="sRGB">
<feFlood flood-opacity="0" result="BackgroundImageFix"/>
<feBlend mode="normal" in="SourceGraphic" in2="BackgroundImageFix" result="shape"/>
<feColorMatrix in="SourceAlpha" type="matrix" values="0 0 0 0 0 0 0 0 0 0 0 0 0 0 0 0 0 0 127 0" result="hardAlpha"/>
<feOffset dy="4"/>
<feGaussianBlur stdDeviation="2"/>
<feComposite in2="hardAlpha" operator="arithmetic" k2="-1" k3="1"/>
<feColorMatrix type="matrix" values="0 0 0 0 0 0 0 0 0 0 0 0 0 0 0 0 0 0 0.25 0"/>
<feBlend mode="normal" in2="shape" result="effect1_innerShadow_15_605"/>
</filter>
<filter id="filter3_i_15_605" x="1199.1" y="257.948" width="12.9946" height="16.9947" filterUnits="userSpaceOnUse" color-interpolation-filters="sRGB">
<feFlood flood-opacity="0" result="BackgroundImageFix"/>
<feBlend mode="normal" in="SourceGraphic" in2="BackgroundImageFix" result="shape"/>
<feColorMatrix in="SourceAlpha" type="matrix" values="0 0 0 0 0 0 0 0 0 0 0 0 0 0 0 0 0 0 127 0" result="hardAlpha"/>
<feOffset dy="4"/>
<feGaussianBlur stdDeviation="2"/>
<feComposite in2="hardAlpha" operator="arithmetic" k2="-1" k3="1"/>
<feColorMatrix type="matrix" values="0 0 0 0 0 0 0 0 0 0 0 0 0 0 0 0 0 0 0.25 0"/>
<feBlend mode="normal" in2="shape" result="effect1_innerShadow_15_605"/>
</filter>
<filter id="filter4_i_15_605" x="1199.1" y="278.525" width="12.9946" height="16.9948" filterUnits="userSpaceOnUse" color-interpolation-filters="sRGB">
<feFlood flood-opacity="0" result="BackgroundImageFix"/>
<feBlend mode="normal" in="SourceGraphic" in2="BackgroundImageFix" result="shape"/>
<feColorMatrix in="SourceAlpha" type="matrix" values="0 0 0 0 0 0 0 0 0 0 0 0 0 0 0 0 0 0 127 0" result="hardAlpha"/>
<feOffset dy="4"/>
<feGaussianBlur stdDeviation="2"/>
<feComposite in2="hardAlpha" operator="arithmetic" k2="-1" k3="1"/>
<feColorMatrix type="matrix" values="0 0 0 0 0 0 0 0 0 0 0 0 0 0 0 0 0 0 0.25 0"/>
<feBlend mode="normal" in2="shape" result="effect1_innerShadow_15_605"/>
</filter>
<filter id="filter5_i_15_605" x="1199.1" y="299.102" width="12.9946" height="16.9948" filterUnits="userSpaceOnUse" color-interpolation-filters="sRGB">
<feFlood flood-opacity="0" result="BackgroundImageFix"/>
<feBlend mode="normal" in="SourceGraphic" in2="BackgroundImageFix" result="shape"/>
<feColorMatrix in="SourceAlpha" type="matrix" values="0 0 0 0 0 0 0 0 0 0 0 0 0 0 0 0 0 0 127 0" result="hardAlpha"/>
<feOffset dy="4"/>
<feGaussianBlur stdDeviation="2"/>
<feComposite in2="hardAlpha" operator="arithmetic" k2="-1" k3="1"/>
<feColorMatrix type="matrix" values="0 0 0 0 0 0 0 0 0 0 0 0 0 0 0 0 0 0 0.25 0"/>
<feBlend mode="normal" in2="shape" result="effect1_innerShadow_15_605"/>
</filter>
<filter id="filter6_i_15_605" x="1199.1" y="319.68" width="12.9946" height="16.9948" filterUnits="userSpaceOnUse" color-interpolation-filters="sRGB">
<feFlood flood-opacity="0" result="BackgroundImageFix"/>
<feBlend mode="normal" in="SourceGraphic" in2="BackgroundImageFix" result="shape"/>
<feColorMatrix in="SourceAlpha" type="matrix" values="0 0 0 0 0 0 0 0 0 0 0 0 0 0 0 0 0 0 127 0" result="hardAlpha"/>
<feOffset dy="4"/>
<feGaussianBlur stdDeviation="2"/>
<feComposite in2="hardAlpha" operator="arithmetic" k2="-1" k3="1"/>
<feColorMatrix type="matrix" values="0 0 0 0 0 0 0 0 0 0 0 0 0 0 0 0 0 0 0.25 0"/>
<feBlend mode="normal" in2="shape" result="effect1_innerShadow_15_605"/>
</filter>
<filter id="filter7_i_15_605" x="1199.1" y="340.257" width="12.9946" height="12.9948" filterUnits="userSpaceOnUse" color-interpolation-filters="sRGB">
<feFlood flood-opacity="0" result="BackgroundImageFix"/>
<feBlend mode="normal" in="SourceGraphic" in2="BackgroundImageFix" result="shape"/>
<feColorMatrix in="SourceAlpha" type="matrix" values="0 0 0 0 0 0 0 0 0 0 0 0 0 0 0 0 0 0 127 0" result="hardAlpha"/>
<feOffset/>
<feGaussianBlur stdDeviation="4.4"/>
<feComposite in2="hardAlpha" operator="arithmetic" k2="-1" k3="1"/>
<feColorMatrix type="matrix" values="0 0 0 0 0 0 0 0 0 0 0 0 0 0 0 0 0 0 0.65 0"/>
<feBlend mode="normal" in2="shape" result="effect1_innerShadow_15_605"/>
</filter>
<filter id="filter8_i_15_605" x="230.1" y="237.365" width="12.9946" height="16.9948" filterUnits="userSpaceOnUse" color-interpolation-filters="sRGB">
<feFlood flood-opacity="0" result="BackgroundImageFix"/>
<feBlend mode="normal" in="SourceGraphic" in2="BackgroundImageFix" result="shape"/>
<feColorMatrix in="SourceAlpha" type="matrix" values="0 0 0 0 0 0 0 0 0 0 0 0 0 0 0 0 0 0 127 0" result="hardAlpha"/>
<feOffset dy="4"/>
<feGaussianBlur stdDeviation="2"/>
<feComposite in2="hardAlpha" operator="arithmetic" k2="-1" k3="1"/>
<feColorMatrix type="matrix" values="0 0 0 0 0 0 0 0 0 0 0 0 0 0 0 0 0 0 0.25 0"/>
<feBlend mode="normal" in2="shape" result="effect1_innerShadow_15_605"/>
</filter>
<filter id="filter9_i_15_605" x="230.1" y="257.943" width="12.9946" height="16.9948" filterUnits="userSpaceOnUse" color-interpolation-filters="sRGB">
<feFlood flood-opacity="0" result="BackgroundImageFix"/>
<feBlend mode="normal" in="SourceGraphic" in2="BackgroundImageFix" result="shape"/>
<feColorMatrix in="SourceAlpha" type="matrix" values="0 0 0 0 0 0 0 0 0 0 0 0 0 0 0 0 0 0 127 0" result="hardAlpha"/>
<feOffset dy="4"/>
<feGaussianBlur stdDeviation="2"/>
<feComposite in2="hardAlpha" operator="arithmetic" k2="-1" k3="1"/>
<feColorMatrix type="matrix" values="0 0 0 0 0 0 0 0 0 0 0 0 0 0 0 0 0 0 0.25 0"/>
<feBlend mode="normal" in2="shape" result="effect1_innerShadow_15_605"/>
</filter>
<filter id="filter10_i_15_605" x="230.1" y="278.52" width="12.9946" height="16.9948" filterUnits="userSpaceOnUse" color-interpolation-filters="sRGB">
<feFlood flood-opacity="0" result="BackgroundImageFix"/>
<feBlend mode="normal" in="SourceGraphic" in2="BackgroundImageFix" result="shape"/>
<feColorMatrix in="SourceAlpha" type="matrix" values="0 0 0 0 0 0 0 0 0 0 0 0 0 0 0 0 0 0 127 0" result="hardAlpha"/>
<feOffset dy="4"/>
<feGaussianBlur stdDeviation="2"/>
<feComposite in2="hardAlpha" operator="arithmetic" k2="-1" k3="1"/>
<feColorMatrix type="matrix" values="0 0 0 0 0 0 0 0 0 0 0 0 0 0 0 0 0 0 0.25 0"/>
<feBlend mode="normal" in2="shape" result="effect1_innerShadow_15_605"/>
</filter>
<filter id="filter11_i_15_605" x="230.1" y="299.097" width="12.9946" height="16.9948" filterUnits="userSpaceOnUse" color-interpolation-filters="sRGB">
<feFlood flood-opacity="0" result="BackgroundImageFix"/>
<feBlend mode="normal" in="SourceGraphic" in2="BackgroundImageFix" result="shape"/>
<feColorMatrix in="SourceAlpha" type="matrix" values="0 0 0 0 0 0 0 0 0 0 0 0 0 0 0 0 0 0 127 0" result="hardAlpha"/>
<feOffset dy="4"/>
<feGaussianBlur stdDeviation="2"/>
<feComposite in2="hardAlpha" operator="arithmetic" k2="-1" k3="1"/>
<feColorMatrix type="matrix" values="0 0 0 0 0 0 0 0 0 0 0 0 0 0 0 0 0 0 0.25 0"/>
<feBlend mode="normal" in2="shape" result="effect1_innerShadow_15_605"/>
</filter>
<filter id="filter12_i_15_605" x="230.1" y="319.675" width="12.9946" height="16.9948" filterUnits="userSpaceOnUse" color-interpolation-filters="sRGB">
<feFlood flood-opacity="0" result="BackgroundImageFix"/>
<feBlend mode="normal" in="SourceGraphic" in2="BackgroundImageFix" result="shape"/>
<feColorMatrix in="SourceAlpha" type="matrix" values="0 0 0 0 0 0 0 0 0 0 0 0 0 0 0 0 0 0 127 0" result="hardAlpha"/>
<feOffset dy="4"/>
<feGaussianBlur stdDeviation="2"/>
<feComposite in2="hardAlpha" operator="arithmetic" k2="-1" k3="1"/>
<feColorMatrix type="matrix" values="0 0 0 0 0 0 0 0 0 0 0 0 0 0 0 0 0 0 0.25 0"/>
<feBlend mode="normal" in2="shape" result="effect1_innerShadow_15_605"/>
</filter>
<filter id="filter13_i_15_605" x="230.1" y="340.252" width="12.9946" height="12.9948" filterUnits="userSpaceOnUse" color-interpolation-filters="sRGB">
<feFlood flood-opacity="0" result="BackgroundImageFix"/>
<feBlend mode="normal" in="SourceGraphic" in2="BackgroundImageFix" result="shape"/>
<feColorMatrix in="SourceAlpha" type="matrix" values="0 0 0 0 0 0 0 0 0 0 0 0 0 0 0 0 0 0 127 0" result="hardAlpha"/>
<feOffset/>
<feGaussianBlur stdDeviation="4.4"/>
<feComposite in2="hardAlpha" operator="arithmetic" k2="-1" k3="1"/>
<feColorMatrix type="matrix" values="0 0 0 0 0 0 0 0 0 0 0 0 0 0 0 0 0 0 0.65 0"/>
<feBlend mode="normal" in2="shape" result="effect1_innerShadow_15_605"/>
</filter>
<filter id="filter14_d_15_605" x="1008.6" y="273.6" width="129.286" height="84.2861" filterUnits="userSpaceOnUse" color-interpolation-filters="sRGB">
<feFlood flood-opacity="0" result="BackgroundImageFix"/>
<feColorMatrix in="SourceAlpha" type="matrix" values="0 0 0 0 0 0 0 0 0 0 0 0 0 0 0 0 0 0 127 0" result="hardAlpha"/>
<feOffset/>
<feGaussianBlur stdDeviation="2"/>
<feComposite in2="hardAlpha" operator="out"/>
<feColorMatrix type="matrix" values="0 0 0 0 0 0 0 0 0 0 0 0 0 0 0 0 0 0 0.25 0"/>
<feBlend mode="normal" in2="BackgroundImageFix" result="effect1_dropShadow_15_605"/>
<feBlend mode="normal" in="SourceGraphic" in2="effect1_dropShadow_15_605" result="shape"/>
</filter>
<linearGradient id="paint0_linear_15_605" x1="-37.3998" y1="295.6" x2="972.1" y2="295.6" gradientUnits="userSpaceOnUse">
<stop stop-color="white"/>
<stop offset="1" stop-opacity="0"/>
</linearGradient>
<radialGradient id="paint1_radial_15_605" cx="0" cy="0" r="1" gradientUnits="userSpaceOnUse" gradientTransform="translate(170.205 229.879) rotate(-116.973) scale(295.539)">
<stop/>
<stop offset="1" stop-color="white" stop-opacity="0.57"/>
</radialGradient>
<radialGradient id="paint2_radial_15_605" cx="0" cy="0" r="1" gradientUnits="userSpaceOnUse" gradientTransform="translate(170.205 229.879) rotate(-116.973) scale(295.539)">
<stop stop-color="white" stop-opacity="0.57"/>
<stop offset="1"/>
</radialGradient>
<radialGradient id="paint3_radial_15_605" cx="0" cy="0" r="1" gradientUnits="userSpaceOnUse" gradientTransform="translate(9.40682 12.0525) rotate(-119.604) scale(14.8764)">
<stop/>
<stop offset="1" stop-color="#666666"/>
</radialGradient>
<radialGradient id="paint4_radial_15_605" cx="0" cy="0" r="1" gradientUnits="userSpaceOnUse" gradientTransform="translate(9.40682 12.0525) rotate(-119.604) scale(14.8764)">
<stop/>
<stop offset="1" stop-color="#666666"/>
</radialGradient>
<radialGradient id="paint5_radial_15_605" cx="0" cy="0" r="1" gradientUnits="userSpaceOnUse" gradientTransform="translate(9.40682 12.0525) rotate(-119.604) scale(14.8764)">
<stop/>
<stop offset="1" stop-color="#666666"/>
</radialGradient>
<radialGradient id="paint6_radial_15_605" cx="0" cy="0" r="1" gradientUnits="userSpaceOnUse" gradientTransform="translate(9.40682 12.0525) rotate(-119.604) scale(14.8764)">
<stop/>
<stop offset="1" stop-color="#666666"/>
</radialGradient>
<radialGradient id="paint7_radial_15_605" cx="0" cy="0" r="1" gradientUnits="userSpaceOnUse" gradientTransform="translate(9.40682 12.0525) rotate(-119.604) scale(14.8764)">
<stop/>
<stop offset="1" stop-color="#666666"/>
</radialGradient>
<radialGradient id="paint8_radial_15_605" cx="0" cy="0" r="1" gradientUnits="userSpaceOnUse" gradientTransform="translate(9.40682 12.0525) rotate(-119.604) scale(14.8764)">
<stop/>
<stop offset="1" stop-color="#666666"/>
</radialGradient>
<radialGradient id="paint9_radial_15_605" cx="0" cy="0" r="1" gradientUnits="userSpaceOnUse" gradientTransform="translate(9.40682 12.0525) rotate(-119.604) scale(14.8764)">
<stop/>
<stop offset="1" stop-color="#666666"/>
</radialGradient>
<radialGradient id="paint10_radial_15_605" cx="0" cy="0" r="1" gradientUnits="userSpaceOnUse" gradientTransform="translate(9.40682 12.0525) rotate(-119.604) scale(14.8764)">
<stop/>
<stop offset="1" stop-color="#666666"/>
</radialGradient>
<radialGradient id="paint11_radial_15_605" cx="0" cy="0" r="1" gradientUnits="userSpaceOnUse" gradientTransform="translate(9.40682 12.0525) rotate(-119.604) scale(14.8764)">
<stop/>
<stop offset="1" stop-color="#666666"/>
</radialGradient>
<radialGradient id="paint12_radial_15_605" cx="0" cy="0" r="1" gradientUnits="userSpaceOnUse" gradientTransform="translate(9.40682 12.0525) rotate(-119.604) scale(14.8764)">
<stop/>
<stop offset="1" stop-color="#666666"/>
</radialGradient>
<radialGradient id="paint13_radial_15_605" cx="0" cy="0" r="1" gradientUnits="userSpaceOnUse" gradientTransform="translate(9.40682 12.0525) rotate(-119.604) scale(14.8764)">
<stop/>
<stop offset="1" stop-color="#666666"/>
</radialGradient>
<radialGradient id="paint14_radial_15_605" cx="0" cy="0" r="1" gradientUnits="userSpaceOnUse" gradientTransform="translate(9.40682 12.0525) rotate(-119.604) scale(14.8764)">
<stop/>
<stop offset="1" stop-color="#666666"/>
</radialGradient>
<radialGradient id="paint15_radial_15_605" cx="0" cy="0" r="1" gradientTransform="matrix(500.286 146.982 -161.426 190.464 369.972 -91.7166)" gradientUnits="userSpaceOnUse">
<stop stop-color="white"/>
<stop offset="1" stop-color="#1C1C1C"/>
</radialGradient>
<radialGradient id="paint16_radial_15_605" cx="0" cy="0" r="1" gradientTransform="matrix(500.518 149.64 -161.501 193.91 370.144 -93.3756)" gradientUnits="userSpaceOnUse">
<stop stop-color="white"/>
<stop offset="1" stop-color="#1C1C1C"/>
</radialGradient>
<radialGradient id="paint17_radial_15_605" cx="0" cy="0" r="1" gradientTransform="matrix(500.518 152.22 -161.501 197.253 370.144 -94.9854)" gradientUnits="userSpaceOnUse">
<stop stop-color="white"/>
<stop offset="1" stop-color="#1C1C1C"/>
</radialGradient>
<radialGradient id="paint18_radial_15_605" cx="0" cy="0" r="1" gradientTransform="matrix(500.518 146.982 -161.501 190.464 370.144 -91.7166)" gradientUnits="userSpaceOnUse">
<stop stop-color="white"/>
<stop offset="1" stop-color="#1C1C1C"/>
</radialGradient>
<radialGradient id="paint19_radial_15_605" cx="0" cy="0" r="1" gradientTransform="matrix(500.558 146.982 -161.514 190.464 370.173 -91.7166)" gradientUnits="userSpaceOnUse">
<stop stop-color="white"/>
<stop offset="1" stop-color="#1C1C1C"/>
</radialGradient>
<radialGradient id="paint20_radial_15_605" cx="0" cy="0" r="1" gradientTransform="matrix(500.286 146.982 -161.426 190.464 369.972 -91.7166)" gradientUnits="userSpaceOnUse">
<stop stop-color="white"/>
<stop offset="1" stop-color="#1C1C1C"/>
</radialGradient>
<linearGradient id="paint21_linear_15_605" x1="481.083" y1="271.453" x2="481.083" y2="357.878" gradientUnits="userSpaceOnUse">
<stop stop-color="white"/>
<stop offset="1" stop-color="#999999"/>
</linearGradient>
<linearGradient id="paint22_linear_15_605" x1="1126.24" y1="353.886" x2="1126.24" y2="338.6" gradientUnits="userSpaceOnUse">
<stop stop-color="white"/>
<stop offset="1" stop-color="#999999"/>
</linearGradient>
<linearGradient id="paint23_linear_15_605" x1="1126.24" y1="333.886" x2="1126.24" y2="318.6" gradientUnits="userSpaceOnUse">
<stop stop-color="white"/>
<stop offset="1" stop-color="#999999"/>
</linearGradient>
<linearGradient id="paint24_linear_15_605" x1="1020.24" y1="312.886" x2="1020.24" y2="297.6" gradientUnits="userSpaceOnUse">
<stop stop-color="white"/>
<stop offset="1" stop-color="#999999"/>
</linearGradient>
<linearGradient id="paint25_linear_15_605" x1="1072.24" y1="292.886" x2="1072.24" y2="277.6" gradientUnits="userSpaceOnUse">
<stop stop-color="white"/>
<stop offset="1" stop-color="#999999"/>
</linearGradient>
</defs>
</svg>
