{
  "meta": {
    "title": "the-last-of-us-tab",
    "tempo": 140.00014000014,
    "timeSignature": [
      12,
      8
    ],
    "tuning": [
      40,
      45,
      50,
      55,
      59,
      64
    ]
  },
  "tracks": [
    {
      "name": "Guitarra cl\u00c3\u00a1sica",
      "notes": [
        {
          "duration": 0.21339264375,
          "durationTicks": 239,
          "midi": 67,
          "name": "G4",
          "ticks": 0,
          "time": 0.0,
          "velocity": 0.6299212598425197,
          "string": 1,
          "fret": 3
        },
        {
          "duration": 2.5705331437499996,
          "durationTicks": 2879,
          "midi": 40,
          "name": "E2",
          "ticks": 0,
          "time": 0.0,
          "velocity": 0.6299212598425197,
          "string": 6,
          "fret": 0
        },
        {
          "duration": 0.21339264375000003,
          "durationTicks": 239,
          "midi": 59,
          "name": "B3",
          "ticks": 240,
          "time": 0.2142855,
          "velocity": 0.6299212598425197,
          "string": 2,
          "fret": 0
        },
        {
          "duration": 0.21339264375,
          "durationTicks": 239,
          "midi": 55,
          "name": "G3",
          "ticks": 480,
          "time": 0.42857100000000004,
          "velocity": 0.6299212598425197,
          "string": 3,
          "fret": 0
        },
        {
          "duration": 0.21339264375,
          "durationTicks": 239,
          "midi": 64,
          "name": "E4",
          "ticks": 720,
          "time": 0.6428565,
          "velocity": 0.6299212598425197,
          "string": 1,
          "fret": 0
        },
        {
          "duration": 0.21339264375,
          "durationTicks": 239,
          "midi": 59,
          "name": "B3",
          "ticks": 960,
          "time": 0.8571420000000001,
          "velocity": 0.6299212598425197,
          "string": 2,
          "fret": 0
        },
        {
          "duration": 0.21339264375,
          "durationTicks": 239,
          "midi": 55,
          "name": "G3",
          "ticks": 1200,
          "time": 1.0714275,
          "velocity": 0.6299212598425197,
          "string": 3,
          "fret": 0
        },
        {
          "duration": 0.21339264375,
          "durationTicks": 239,
          "midi": 69,
          "name": "A4",
          "ticks": 1440,
          "time": 1.2857129999999999,
          "velocity": 0.6299212598425197,
          "string": 1,
          "fret": 5
        },
        {
          "duration": 0.21339264375,
          "durationTicks": 239,
          "midi": 59,
          "name": "B3",
          "ticks": 1680,
          "time": 1.4999984999999998,
          "velocity": 0.6299212598425197,
          "string": 2,
          "fret": 0
        },
        {
          "duration": 0.21339264375,
          "durationTicks": 239,
          "midi": 55,
          "name": "G3",
          "ticks": 1920,
          "time": 1.7142839999999997,
          "velocity": 0.6299212598425197,
          "string": 3,
          "fret": 0
        },
        {
          "duration": 0.21339264375000022,
          "durationTicks": 239,
          "midi": 66,
          "name": "F#4",
          "ticks": 2160,
          "time": 1.9285694999999996,
          "velocity": 0.6299212598425197,
          "string": 1,
          "fret": 2
        },
        {
          "duration": 0.21339264374999978,
          "durationTicks": 239,
          "midi": 59,
          "name": "B3",
          "ticks": 2400,
          "time": 2.142855,
          "velocity": 0.6299212598425197,
          "string": 2,
          "fret": 0
        },
        {
          "duration": 0.21339264374999978,
          "durationTicks": 239,
          "midi": 55,
          "name": "G3",
          "ticks": 2640,
          "time": 2.3571405,
          "velocity": 0.6299212598425197,
          "string": 3,
          "fret": 0
        },
        {
          "duration": 0.21339264374999978,
          "durationTicks": 239,
          "midi": 67,
          "name": "G4",
          "ticks": 2880,
          "time": 2.5714259999999998,
          "velocity": 0.6299212598425197,
          "string": 1,
          "fret": 3
        },
        {
          "duration": 2.5705331437499988,
          "durationTicks": 2879,
          "midi": 40,
          "name": "E2",
          "ticks": 2880,
          "time": 2.5714259999999998,
          "velocity": 0.6299212598425197,
          "string": 6,
          "fret": 0
        },
        {
          "duration": 0.21339264374999978,
          "durationTicks": 239,
          "midi": 59,
          "name": "B3",
          "ticks": 3120,
          "time": 2.7857114999999997,
          "velocity": 0.6299212598425197,
          "string": 2,
          "fret": 0
        },
        {
          "duration": 0.21339264374999978,
          "durationTicks": 239,
          "midi": 55,
          "name": "G3",
          "ticks": 3360,
          "time": 2.9999969999999996,
          "velocity": 0.6299212598425197,
          "string": 3,
          "fret": 0
        },
        {
          "duration": 0.21339264374999978,
          "durationTicks": 239,
          "midi": 67,
          "name": "G4",
          "ticks": 3600,
          "time": 3.2142824999999995,
          "velocity": 0.6299212598425197,
          "string": 1,
          "fret": 3
        },
        {
          "duration": 0.21339264374999978,
          "durationTicks": 239,
          "midi": 59,
          "name": "B3",
          "ticks": 3840,
          "time": 3.4285679999999994,
          "velocity": 0.6299212598425197,
          "string": 2,
          "fret": 0
        },
        {
          "duration": 0.21339264374999978,
          "durationTicks": 239,
          "midi": 55,
          "name": "G3",
          "ticks": 4080,
          "time": 3.6428534999999993,
          "velocity": 0.6299212598425197,
          "string": 3,
          "fret": 0
        },
        {
          "duration": 0.21339264374999978,
          "durationTicks": 239,
          "midi": 67,
          "name": "G4",
          "ticks": 4320,
          "time": 3.857138999999999,
          "velocity": 0.6299212598425197,
          "string": 1,
          "fret": 3
        },
        {
          "duration": 0.21339264374999978,
          "durationTicks": 239,
          "midi": 59,
          "name": "B3",
          "ticks": 4560,
          "time": 4.071424499999999,
          "velocity": 0.6299212598425197,
          "string": 2,
          "fret": 0
        },
        {
          "duration": 0.21339264374999978,
          "durationTicks": 239,
          "midi": 55,
          "name": "G3",
          "ticks": 4800,
          "time": 4.285709999999999,
          "velocity": 0.6299212598425197,
          "string": 3,
          "fret": 0
        },
        {
          "duration": 0.21339264374999978,
          "durationTicks": 239,
          "midi": 67,
          "name": "G4",
          "ticks": 5040,
          "time": 4.499995499999999,
          "velocity": 0.6299212598425197,
          "string": 1,
          "fret": 3
        },
        {
          "duration": 0.21339264374999978,
          "durationTicks": 239,
          "midi": 59,
          "name": "B3",
          "ticks": 5280,
          "time": 4.714280999999999,
          "velocity": 0.6299212598425197,
          "string": 2,
          "fret": 0
        },
        {
          "duration": 0.21339264374999978,
          "durationTicks": 239,
          "midi": 55,
          "name": "G3",
          "ticks": 5520,
          "time": 4.928566499999999,
          "velocity": 0.6299212598425197,
          "string": 3,
          "fret": 0
        },
        {
          "duration": 0.21339264374999978,
          "durationTicks": 239,
          "midi": 67,
          "name": "G4",
          "ticks": 5760,
          "time": 5.142851999999999,
          "velocity": 0.6299212598425197,
          "string": 1,
          "fret": 3
        },
        {
          "duration": 2.5705331437499988,
          "durationTicks": 2879,
          "midi": 40,
          "name": "E2",
          "ticks": 5760,
          "time": 5.142851999999999,
          "velocity": 0.6299212598425197,
          "string": 6,
          "fret": 0
        },
        {
          "duration": 0.21339264374999978,
          "durationTicks": 239,
          "midi": 59,
          "name": "B3",
          "ticks": 6000,
          "time": 5.3571374999999986,
          "velocity": 0.6299212598425197,
          "string": 2,
          "fret": 0
        },
        {
          "duration": 0.21339264374999978,
          "durationTicks": 239,
          "midi": 55,
          "name": "G3",
          "ticks": 6240,
          "time": 5.5714229999999985,
          "velocity": 0.6299212598425197,
          "string": 3,
          "fret": 0
        },
        {
          "duration": 0.21339264374999978,
          "durationTicks": 239,
          "midi": 64,
          "name": "E4",
          "ticks": 6480,
          "time": 5.785708499999998,
          "velocity": 0.6299212598425197,
          "string": 1,
          "fret": 0
        },
        {
          "duration": 0.21339264374999978,
          "durationTicks": 239,
          "midi": 59,
          "name": "B3",
          "ticks": 6720,
          "time": 5.999993999999998,
          "velocity": 0.6299212598425197,
          "string": 2,
          "fret": 0
        },
        {
          "duration": 0.21339264374999978,
          "durationTicks": 239,
          "midi": 55,
          "name": "G3",
          "ticks": 6960,
          "time": 6.214279499999998,
          "velocity": 0.6299212598425197,
          "string": 3,
          "fret": 0
        },
        {
          "duration": 0.21339264374999978,
          "durationTicks": 239,
          "midi": 69,
          "name": "A4",
          "ticks": 7200,
          "time": 6.428564999999998,
          "velocity": 0.6299212598425197,
          "string": 1,
          "fret": 5
        },
        {
          "duration": 0.21339264374999978,
          "durationTicks": 239,
          "midi": 59,
          "name": "B3",
          "ticks": 7440,
          "time": 6.642850499999998,
          "velocity": 0.6299212598425197,
          "string": 2,
          "fret": 0
        },
        {
          "duration": 0.21339264374999978,
          "durationTicks": 239,
          "midi": 55,
          "name": "G3",
          "ticks": 7680,
          "time": 6.857135999999998,
          "velocity": 0.6299212598425197,
          "string": 3,
          "fret": 0
        },
        {
          "duration": 0.21339264374999978,
          "durationTicks": 239,
          "midi": 66,
          "name": "F#4",
          "ticks": 7920,
          "time": 7.071421499999998,
          "velocity": 0.6299212598425197,
          "string": 1,
          "fret": 2
        },
        {
          "duration": 0.21339264374999978,
          "durationTicks": 239,
          "midi": 59,
          "name": "B3",
          "ticks": 8160,
          "time": 7.285706999999998,
          "velocity": 0.6299212598425197,
          "string": 2,
          "fret": 0
        },
        {
          "duration": 0.21339264374999978,
          "durationTicks": 239,
          "midi": 55,
          "name": "G3",
          "ticks": 8400,
          "time": 7.499992499999998,
          "velocity": 0.6299212598425197,
          "string": 3,
          "fret": 0
        },
        {
          "duration": 0.21339264374999978,
          "durationTicks": 239,
          "midi": 71,
          "name": "B4",
          "ticks": 8640,
          "time": 7.7142779999999975,
          "velocity": 0.6299212598425197,
          "string": 1,
          "fret": 7
        },
        {
          "duration": 2.57053314374999,
          "durationTicks": 2879,
          "midi": 40,
          "name": "E2",
          "ticks": 8640,
          "time": 7.7142779999999975,
          "velocity": 0.6299212598425197,
          "string": 6,
          "fret": 0
        },
        {
          "duration": 0.21339264374999978,
          "durationTicks": 239,
          "midi": 59,
          "name": "B3",
          "ticks": 8880,
          "time": 7.928563499999997,
          "velocity": 0.6299212598425197,
          "string": 2,
          "fret": 0
        },
        {
          "duration": 0.21339264374999978,
          "durationTicks": 239,
          "midi": 55,
          "name": "G3",
          "ticks": 9120,
          "time": 8.142848999999996,
          "velocity": 0.6299212598425197,
          "string": 3,
          "fret": 0
        },
        {
          "duration": 0.21339264374999978,
          "durationTicks": 239,
          "midi": 71,
          "name": "B4",
          "ticks": 9360,
          "time": 8.357134499999995,
          "velocity": 0.6299212598425197,
          "string": 1,
          "fret": 7
        },
        {
          "duration": 0.21339264374999978,
          "durationTicks": 239,
          "midi": 59,
          "name": "B3",
          "ticks": 9600,
          "time": 8.571419999999994,
          "velocity": 0.6299212598425197,
          "string": 2,
          "fret": 0
        },
        {
          "duration": 0.21339264374999978,
          "durationTicks": 239,
          "midi": 55,
          "name": "G3",
          "ticks": 9840,
          "time": 8.785705499999994,
          "velocity": 0.6299212598425197,
          "string": 3,
          "fret": 0
        },
        {
          "duration": 0.21339264374999978,
          "durationTicks": 239,
          "midi": 71,
          "name": "B4",
          "ticks": 10080,
          "time": 8.999990999999993,
          "velocity": 0.6299212598425197,
          "string": 1,
          "fret": 7
        },
        {
          "duration": 0.21339264374999978,
          "durationTicks": 239,
          "midi": 59,
          "name": "B3",
          "ticks": 10320,
          "time": 9.214276499999992,
          "velocity": 0.6299212598425197,
          "string": 2,
          "fret": 0
        },
        {
          "duration": 0.21339264374999978,
          "durationTicks": 239,
          "midi": 55,
          "name": "G3",
          "ticks": 10560,
          "time": 9.42856199999999,
          "velocity": 0.6299212598425197,
          "string": 3,
          "fret": 0
        },
        {
          "duration": 0.21339264374999978,
          "durationTicks": 239,
          "midi": 71,
          "name": "B4",
          "ticks": 10800,
          "time": 9.64284749999999,
          "velocity": 0.6299212598425197,
          "string": 1,
          "fret": 7
        },
        {
          "duration": 0.21339264374999978,
          "durationTicks": 239,
          "midi": 59,
          "name": "B3",
          "ticks": 11040,
          "time": 9.857132999999989,
          "velocity": 0.6299212598425197,
          "string": 2,
          "fret": 0
        },
        {
          "duration": 0.21339264374999978,
          "durationTicks": 239,
          "midi": 55,
          "name": "G3",
          "ticks": 11280,
          "time": 10.071418499999988,
          "velocity": 0.6299212598425197,
          "string": 3,
          "fret": 0
        },
        {
          "duration": 0.21339264374999978,
          "durationTicks": 239,
          "midi": 67,
          "name": "G4",
          "ticks": 11520,
          "time": 10.285703999999987,
          "velocity": 0.6299212598425197,
          "string": 1,
          "fret": 3
        },
        {
          "duration": 2.570533143749989,
          "durationTicks": 2879,
          "midi": 40,
          "name": "E2",
          "ticks": 11520,
          "time": 10.285703999999987,
          "velocity": 0.6299212598425197,
          "string": 6,
          "fret": 0
        },
        {
          "duration": 0.21339264374999978,
          "durationTicks": 239,
          "midi": 59,
          "name": "B3",
          "ticks": 11760,
          "time": 10.499989499999986,
          "velocity": 0.6299212598425197,
          "string": 2,
          "fret": 0
        },
        {
          "duration": 0.21339264374999978,
          "durationTicks": 239,
          "midi": 55,
          "name": "G3",
          "ticks": 12000,
          "time": 10.714274999999985,
          "velocity": 0.6299212598425197,
          "string": 3,
          "fret": 0
        },
        {
          "duration": 0.21339264374999978,
          "durationTicks": 239,
          "midi": 64,
          "name": "E4",
          "ticks": 12240,
          "time": 10.928560499999984,
          "velocity": 0.6299212598425197,
          "string": 1,
          "fret": 0
        },
        {
          "duration": 0.21339264374999978,
          "durationTicks": 239,
          "midi": 59,
          "name": "B3",
          "ticks": 12480,
          "time": 11.142845999999983,
          "velocity": 0.6299212598425197,
          "string": 2,
          "fret": 0
        },
        {
          "duration": 0.21339264374999978,
          "durationTicks": 239,
          "midi": 55,
          "name": "G3",
          "ticks": 12720,
          "time": 11.357131499999982,
          "velocity": 0.6299212598425197,
          "string": 3,
          "fret": 0
        },
        {
          "duration": 0.21339264374999978,
          "durationTicks": 239,
          "midi": 69,
          "name": "A4",
          "ticks": 12960,
          "time": 11.57141699999998,
          "velocity": 0.6299212598425197,
          "string": 1,
          "fret": 5
        },
        {
          "duration": 0.21339264374999978,
          "durationTicks": 239,
          "midi": 59,
          "name": "B3",
          "ticks": 13200,
          "time": 11.78570249999998,
          "velocity": 0.6299212598425197,
          "string": 2,
          "fret": 0
        },
        {
          "duration": 0.21339264374999978,
          "durationTicks": 239,
          "midi": 55,
          "name": "G3",
          "ticks": 13440,
          "time": 11.999987999999979,
          "velocity": 0.6299212598425197,
          "string": 3,
          "fret": 0
        },
        {
          "duration": 0.21339264374999978,
          "durationTicks": 239,
          "midi": 66,
          "name": "F#4",
          "ticks": 13680,
          "time": 12.214273499999978,
          "velocity": 0.6299212598425197,
          "string": 1,
          "fret": 2
        },
        {
          "duration": 0.21339264374999978,
          "durationTicks": 239,
          "midi": 59,
          "name": "B3",
          "ticks": 13920,
          "time": 12.428558999999977,
          "velocity": 0.6299212598425197,
          "string": 2,
          "fret": 0
        },
        {
          "duration": 0.21339264374999978,
          "durationTicks": 239,
          "midi": 55,
          "name": "G3",
          "ticks": 14160,
          "time": 12.642844499999976,
          "velocity": 0.6299212598425197,
          "string": 3,
          "fret": 0
        },
        {
          "duration": 0.21339264374999978,
          "durationTicks": 239,
          "midi": 67,
          "name": "G4",
          "ticks": 14400,
          "time": 12.857129999999975,
          "velocity": 0.6299212598425197,
          "string": 1,
          "fret": 3
        },
        {
          "duration": 2.570533143749989,
          "durationTicks": 2879,
          "midi": 40,
          "name": "E2",
          "ticks": 14400,
          "time": 12.857129999999975,
          "velocity": 0.6299212598425197,
          "string": 6,
          "fret": 0
        },
        {
          "duration": 0.21339264374999978,
          "durationTicks": 239,
          "midi": 59,
          "name": "B3",
          "ticks": 14640,
          "time": 13.071415499999974,
          "velocity": 0.6299212598425197,
          "string": 2,
          "fret": 0
        },
        {
          "duration": 0.21339264374999978,
          "durationTicks": 239,
          "midi": 55,
          "name": "G3",
          "ticks": 14880,
          "time": 13.285700999999973,
          "velocity": 0.6299212598425197,
          "string": 3,
          "fret": 0
        },
        {
          "duration": 0.21339264374999978,
          "durationTicks": 239,
          "midi": 67,
          "name": "G4",
          "ticks": 15120,
          "time": 13.499986499999972,
          "velocity": 0.6299212598425197,
          "string": 1,
          "fret": 3
        },
        {
          "duration": 0.21339264374999978,
          "durationTicks": 239,
          "midi": 59,
          "name": "B3",
          "ticks": 15360,
          "time": 13.714271999999971,
          "velocity": 0.6299212598425197,
          "string": 2,
          "fret": 0
        },
        {
          "duration": 0.21339264374999978,
          "durationTicks": 239,
          "midi": 55,
          "name": "G3",
          "ticks": 15600,
          "time": 13.92855749999997,
          "velocity": 0.6299212598425197,
          "string": 3,
          "fret": 0
        },
        {
          "duration": 0.21339264374999978,
          "durationTicks": 239,
          "midi": 67,
          "name": "G4",
          "ticks": 15840,
          "time": 14.142842999999969,
          "velocity": 0.6299212598425197,
          "string": 1,
          "fret": 3
        },
        {
          "duration": 0.21339264374999978,
          "durationTicks": 239,
          "midi": 59,
          "name": "B3",
          "ticks": 16080,
          "time": 14.357128499999968,
          "velocity": 0.6299212598425197,
          "string": 2,
          "fret": 0
        },
        {
          "duration": 0.21339264374999978,
          "durationTicks": 239,
          "midi": 55,
          "name": "G3",
          "ticks": 16320,
          "time": 14.571413999999967,
          "velocity": 0.6299212598425197,
          "string": 3,
          "fret": 0
        },
        {
          "duration": 0.21339264374999978,
          "durationTicks": 239,
          "midi": 67,
          "name": "G4",
          "ticks": 16560,
          "time": 14.785699499999966,
          "velocity": 0.6299212598425197,
          "string": 1,
          "fret": 3
        },
        {
          "duration": 0.21339264374999978,
          "durationTicks": 239,
          "midi": 59,
          "name": "B3",
          "ticks": 16800,
          "time": 14.999984999999965,
          "velocity": 0.6299212598425197,
          "string": 2,
          "fret": 0
        },
        {
          "duration": 0.21339264374999978,
          "durationTicks": 239,
          "midi": 55,
          "name": "G3",
          "ticks": 17040,
          "time": 15.214270499999964,
          "velocity": 0.6299212598425197,
          "string": 3,
          "fret": 0
        },
        {
          "duration": 0.21339264374999978,
          "durationTicks": 239,
          "midi": 70,
          "name": "A#4",
          "ticks": 17280,
          "time": 15.428555999999963,
          "velocity": 0.6299212598425197,
          "string": 1,
          "fret": 6
        },
        {
          "duration": 2.570533143750021,
          "durationTicks": 2879,
          "midi": 40,
          "name": "E2",
          "ticks": 17280,
          "time": 15.428555999999963,
          "velocity": 0.6299212598425197,
          "string": 6,
          "fret": 0
        },
        {
          "duration": 0.21339264374999978,
          "durationTicks": 239,
          "midi": 59,
          "name": "B3",
          "ticks": 17520,
          "time": 15.642841499999962,
          "velocity": 0.6299212598425197,
          "string": 2,
          "fret": 0
        },
        {
          "duration": 0.21339264374999978,
          "durationTicks": 239,
          "midi": 55,
          "name": "G3",
          "ticks": 17760,
          "time": 15.857126999999961,
          "velocity": 0.6299212598425197,
          "string": 3,
          "fret": 0
        },
        {
          "duration": 0.21339264375000155,
          "durationTicks": 239,
          "midi": 69,
          "name": "A4",
          "ticks": 18000,
          "time": 16.071412499999962,
          "velocity": 0.6299212598425197,
          "string": 1,
          "fret": 5
        },
        {
          "duration": 0.21339264375000155,
          "durationTicks": 239,
          "midi": 59,
          "name": "B3",
          "ticks": 18240,
          "time": 16.285697999999964,
          "velocity": 0.6299212598425197,
          "string": 2,
          "fret": 0
        },
        {
          "duration": 0.21339264375000155,
          "durationTicks": 239,
          "midi": 55,
          "name": "G3",
          "ticks": 18480,
          "time": 16.499983499999967,
          "velocity": 0.6299212598425197,
          "string": 3,
          "fret": 0
        },
        {
          "duration": 0.21339264375000155,
          "durationTicks": 239,
          "midi": 67,
          "name": "G4",
          "ticks": 18720,
          "time": 16.71426899999997,
          "velocity": 0.6299212598425197,
          "string": 1,
          "fret": 3
        },
        {
          "duration": 0.21339264375000155,
          "durationTicks": 239,
          "midi": 59,
          "name": "B3",
          "ticks": 18960,
          "time": 16.928554499999972,
          "velocity": 0.6299212598425197,
          "string": 2,
          "fret": 0
        },
        {
          "duration": 0.21339264375000155,
          "durationTicks": 239,
          "midi": 55,
          "name": "G3",
          "ticks": 19200,
          "time": 17.142839999999975,
          "velocity": 0.6299212598425197,
          "string": 3,
          "fret": 0
        },
        {
          "duration": 0.21339264375000155,
          "durationTicks": 239,
          "midi": 64,
          "name": "E4",
          "ticks": 19440,
          "time": 17.357125499999977,
          "velocity": 0.6299212598425197,
          "string": 1,
          "fret": 0
        },
        {
          "duration": 0.21339264375000155,
          "durationTicks": 239,
          "midi": 59,
          "name": "B3",
          "ticks": 19680,
          "time": 17.57141099999998,
          "velocity": 0.6299212598425197,
          "string": 2,
          "fret": 0
        },
        {
          "duration": 0.21339264375000155,
          "durationTicks": 239,
          "midi": 62,
          "name": "D4",
          "ticks": 19920,
          "time": 17.785696499999982,
          "velocity": 0.6299212598425197,
          "string": 2,
          "fret": 3
        },
        {
          "duration": 0.21339264375000155,
          "durationTicks": 239,
          "midi": 64,
          "name": "E4",
          "ticks": 20160,
          "time": 17.999981999999985,
          "velocity": 0.6299212598425197,
          "string": 1,
          "fret": 0
        },
        {
          "duration": 2.57053314375003,
          "durationTicks": 2879,
          "midi": 40,
          "name": "E2",
          "ticks": 20160,
          "time": 17.999981999999985,
          "velocity": 0.6299212598425197,
          "string": 6,
          "fret": 0
        },
        {
          "duration": 0.21339264375000155,
          "durationTicks": 239,
          "midi": 59,
          "name": "B3",
          "ticks": 20400,
          "time": 18.214267499999988,
          "velocity": 0.6299212598425197,
          "string": 2,
          "fret": 0
        },
        {
          "duration": 0.21339264375000155,
          "durationTicks": 239,
          "midi": 55,
          "name": "G3",
          "ticks": 20640,
          "time": 18.42855299999999,
          "velocity": 0.6299212598425197,
          "string": 3,
          "fret": 0
        },
        {
          "duration": 0.21339264375000155,
          "durationTicks": 239,
          "midi": 64,
          "name": "E4",
          "ticks": 20880,
          "time": 18.642838499999993,
          "velocity": 0.6299212598425197,
          "string": 1,
          "fret": 0
        },
        {
          "duration": 0.21339264375000155,
          "durationTicks": 239,
          "midi": 59,
          "name": "B3",
          "ticks": 21120,
          "time": 18.857123999999995,
          "velocity": 0.6299212598425197,
          "string": 2,
          "fret": 0
        },
        {
          "duration": 0.21339264375000155,
          "durationTicks": 239,
          "midi": 55,
          "name": "G3",
          "ticks": 21360,
          "time": 19.071409499999998,
          "velocity": 0.6299212598425197,
          "string": 3,
          "fret": 0
        },
        {
          "duration": 0.21339264375000155,
          "durationTicks": 239,
          "midi": 64,
          "name": "E4",
          "ticks": 21600,
          "time": 19.285695,
          "velocity": 0.6299212598425197,
          "string": 1,
          "fret": 0
        },
        {
          "duration": 0.21339264375000155,
          "durationTicks": 239,
          "midi": 59,
          "name": "B3",
          "ticks": 21840,
          "time": 19.499980500000003,
          "velocity": 0.6299212598425197,
          "string": 2,
          "fret": 0
        },
        {
          "duration": 0.21339264375000155,
          "durationTicks": 239,
          "midi": 55,
          "name": "G3",
          "ticks": 22080,
          "time": 19.714266000000006,
          "velocity": 0.6299212598425197,
          "string": 3,
          "fret": 0
        },
        {
          "duration": 0.21339264375000155,
          "durationTicks": 239,
          "midi": 64,
          "name": "E4",
          "ticks": 22320,
          "time": 19.928551500000008,
          "velocity": 0.6299212598425197,
          "string": 1,
          "fret": 0
        },
        {
          "duration": 0.21339264375000155,
          "durationTicks": 239,
          "midi": 59,
          "name": "B3",
          "ticks": 22560,
          "time": 20.14283700000001,
          "velocity": 0.6299212598425197,
          "string": 2,
          "fret": 0
        },
        {
          "duration": 0.21339264375000155,
          "durationTicks": 239,
          "midi": 55,
          "name": "G3",
          "ticks": 22800,
          "time": 20.357122500000013,
          "velocity": 0.6299212598425197,
          "string": 3,
          "fret": 0
        },
        {
          "duration": 0.21339264375000155,
          "durationTicks": 239,
          "midi": 74,
          "name": "D5",
          "ticks": 23040,
          "time": 20.571408000000016,
          "velocity": 0.6299212598425197,
          "string": 1,
          "fret": 10
        },
        {
          "duration": 2.57053314375003,
          "durationTicks": 2879,
          "midi": 40,
          "name": "E2",
          "ticks": 23040,
          "time": 20.571408000000016,
          "velocity": 0.6299212598425197,
          "string": 6,
          "fret": 0
        },
        {
          "duration": 0.21339264375000155,
          "durationTicks": 239,
          "midi": 59,
          "name": "B3",
          "ticks": 23280,
          "time": 20.78569350000002,
          "velocity": 0.6299212598425197,
          "string": 2,
          "fret": 0
        },
        {
          "duration": 0.21339264375000155,
          "durationTicks": 239,
          "midi": 55,
          "name": "G3",
          "ticks": 23520,
          "time": 20.99997900000002,
          "velocity": 0.6299212598425197,
          "string": 3,
          "fret": 0
        },
        {
          "duration": 0.21339264375000155,
          "durationTicks": 239,
          "midi": 74,
          "name": "D5",
          "ticks": 23760,
          "time": 21.214264500000024,
          "velocity": 0.6299212598425197,
          "string": 1,
          "fret": 10
        },
        {
          "duration": 0.21339264375000155,
          "durationTicks": 239,
          "midi": 59,
          "name": "B3",
          "ticks": 24000,
          "time": 21.428550000000026,
          "velocity": 0.6299212598425197,
          "string": 2,
          "fret": 0
        },
        {
          "duration": 0.21339264375000155,
          "durationTicks": 239,
          "midi": 55,
          "name": "G3",
          "ticks": 24240,
          "time": 21.64283550000003,
          "velocity": 0.6299212598425197,
          "string": 3,
          "fret": 0
        },
        {
          "duration": 0.21339264375000155,
          "durationTicks": 239,
          "midi": 74,
          "name": "D5",
          "ticks": 24480,
          "time": 21.85712100000003,
          "velocity": 0.6299212598425197,
          "string": 1,
          "fret": 10
        },
        {
          "duration": 0.21339264375000155,
          "durationTicks": 239,
          "midi": 59,
          "name": "B3",
          "ticks": 24720,
          "time": 22.071406500000034,
          "velocity": 0.6299212598425197,
          "string": 2,
          "fret": 0
        },
        {
          "duration": 0.21339264375000155,
          "durationTicks": 239,
          "midi": 55,
          "name": "G3",
          "ticks": 24960,
          "time": 22.285692000000036,
          "velocity": 0.6299212598425197,
          "string": 3,
          "fret": 0
        },
        {
          "duration": 0.21339264375000155,
          "durationTicks": 239,
          "midi": 74,
          "name": "D5",
          "ticks": 25200,
          "time": 22.49997750000004,
          "velocity": 0.6299212598425197,
          "string": 1,
          "fret": 10
        },
        {
          "duration": 0.21339264375000155,
          "durationTicks": 239,
          "midi": 59,
          "name": "B3",
          "ticks": 25440,
          "time": 22.71426300000004,
          "velocity": 0.6299212598425197,
          "string": 2,
          "fret": 0
        },
        {
          "duration": 0.21339264375000155,
          "durationTicks": 239,
          "midi": 55,
          "name": "G3",
          "ticks": 25680,
          "time": 22.928548500000044,
          "velocity": 0.6299212598425197,
          "string": 3,
          "fret": 0
        },
        {
          "duration": 0.21339264375000155,
          "durationTicks": 239,
          "midi": 73,
          "name": "C#5",
          "ticks": 25920,
          "time": 23.142834000000047,
          "velocity": 0.6299212598425197,
          "string": 1,
          "fret": 9
        },
        {
          "duration": 2.57053314375003,
          "durationTicks": 2879,
          "midi": 45,
          "name": "A2",
          "ticks": 25920,
          "time": 23.142834000000047,
          "velocity": 0.6299212598425197,
          "string": 5,
          "fret": 0
        },
        {
          "duration": 0.21339264375000155,
          "durationTicks": 239,
          "midi": 59,
          "name": "B3",
          "ticks": 26160,
          "time": 23.35711950000005,
          "velocity": 0.6299212598425197,
          "string": 2,
          "fret": 0
        },
        {
          "duration": 0.21339264375000155,
          "durationTicks": 239,
          "midi": 55,
          "name": "G3",
          "ticks": 26400,
          "time": 23.571405000000052,
          "velocity": 0.6299212598425197,
          "string": 3,
          "fret": 0
        },
        {
          "duration": 0.21339264375000155,
          "durationTicks": 239,
          "midi": 73,
          "name": "C#5",
          "ticks": 26640,
          "time": 23.785690500000054,
          "velocity": 0.6299212598425197,
          "string": 1,
          "fret": 9
        },
        {
          "duration": 0.21339264375000155,
          "durationTicks": 239,
          "midi": 59,
          "name": "B3",
          "ticks": 26880,
          "time": 23.999976000000057,
          "velocity": 0.6299212598425197,
          "string": 2,
          "fret": 0
        },
        {
          "duration": 0.21339264375000155,
          "durationTicks": 239,
          "midi": 55,
          "name": "G3",
          "ticks": 27120,
          "time": 24.21426150000006,
          "velocity": 0.6299212598425197,
          "string": 3,
          "fret": 0
        },
        {
          "duration": 0.21339264375000155,
          "durationTicks": 239,
          "midi": 73,
          "name": "C#5",
          "ticks": 27360,
          "time": 24.428547000000062,
          "velocity": 0.6299212598425197,
          "string": 1,
          "fret": 9
        },
        {
          "duration": 0.21339264375000155,
          "durationTicks": 239,
          "midi": 59,
          "name": "B3",
          "ticks": 27600,
          "time": 24.642832500000065,
          "velocity": 0.6299212598425197,
          "string": 2,
          "fret": 0
        },
        {
          "duration": 0.21339264375000155,
          "durationTicks": 239,
          "midi": 55,
          "name": "G3",
          "ticks": 27840,
          "time": 24.857118000000067,
          "velocity": 0.6299212598425197,
          "string": 3,
          "fret": 0
        },
        {
          "duration": 0.21339264375000155,
          "durationTicks": 239,
          "midi": 73,
          "name": "C#5",
          "ticks": 28080,
          "time": 25.07140350000007,
          "velocity": 0.6299212598425197,
          "string": 1,
          "fret": 9
        },
        {
          "duration": 0.21339264375000155,
          "durationTicks": 239,
          "midi": 59,
          "name": "B3",
          "ticks": 28320,
          "time": 25.285689000000072,
          "velocity": 0.6299212598425197,
          "string": 2,
          "fret": 0
        },
        {
          "duration": 0.21339264375000155,
          "durationTicks": 239,
          "midi": 55,
          "name": "G3",
          "ticks": 28560,
          "time": 25.499974500000075,
          "velocity": 0.6299212598425197,
          "string": 3,
          "fret": 0
        },
        {
          "duration": 0.21339264375000155,
          "durationTicks": 239,
          "midi": 72,
          "name": "C5",
          "ticks": 28800,
          "time": 25.714260000000078,
          "velocity": 0.6299212598425197,
          "string": 1,
          "fret": 8
        },
        {
          "duration": 2.57053314375003,
          "durationTicks": 2879,
          "midi": 45,
          "name": "A2",
          "ticks": 28800,
          "time": 25.714260000000078,
          "velocity": 0.6299212598425197,
          "string": 5,
          "fret": 0
        },
        {
          "duration": 0.21339264375000155,
          "durationTicks": 239,
          "midi": 59,
          "name": "B3",
          "ticks": 29040,
          "time": 25.92854550000008,
          "velocity": 0.6299212598425197,
          "string": 2,
          "fret": 0
        },
        {
          "duration": 0.21339264375000155,
          "durationTicks": 239,
          "midi": 55,
          "name": "G3",
          "ticks": 29280,
          "time": 26.142831000000083,
          "velocity": 0.6299212598425197,
          "string": 3,
          "fret": 0
        },
        {
          "duration": 0.21339264375000155,
          "durationTicks": 239,
          "midi": 72,
          "name": "C5",
          "ticks": 29520,
          "time": 26.357116500000085,
          "velocity": 0.6299212598425197,
          "string": 1,
          "fret": 8
        },
        {
          "duration": 0.21339264375000155,
          "durationTicks": 239,
          "midi": 59,
          "name": "B3",
          "ticks": 29760,
          "time": 26.571402000000088,
          "velocity": 0.6299212598425197,
          "string": 2,
          "fret": 0
        },
        {
          "duration": 0.21339264375000155,
          "durationTicks": 239,
          "midi": 55,
          "name": "G3",
          "ticks": 30000,
          "time": 26.78568750000009,
          "velocity": 0.6299212598425197,
          "string": 3,
          "fret": 0
        },
        {
          "duration": 0.21339264375000155,
          "durationTicks": 239,
          "midi": 72,
          "name": "C5",
          "ticks": 30240,
          "time": 26.999973000000093,
          "velocity": 0.6299212598425197,
          "string": 1,
          "fret": 8
        },
        {
          "duration": 0.21339264375000155,
          "durationTicks": 239,
          "midi": 59,
          "name": "B3",
          "ticks": 30480,
          "time": 27.214258500000096,
          "velocity": 0.6299212598425197,
          "string": 2,
          "fret": 0
        },
        {
          "duration": 0.21339264375000155,
          "durationTicks": 239,
          "midi": 55,
          "name": "G3",
          "ticks": 30720,
          "time": 27.428544000000098,
          "velocity": 0.6299212598425197,
          "string": 3,
          "fret": 0
        },
        {
          "duration": 0.21339264375000155,
          "durationTicks": 239,
          "midi": 72,
          "name": "C5",
          "ticks": 30960,
          "time": 27.6428295000001,
          "velocity": 0.6299212598425197,
          "string": 1,
          "fret": 8
        },
        {
          "duration": 0.21339264375000155,
          "durationTicks": 239,
          "midi": 59,
          "name": "B3",
          "ticks": 31200,
          "time": 27.857115000000103,
          "velocity": 0.6299212598425197,
          "string": 2,
          "fret": 0
        },
        {
          "duration": 0.21339264375000155,
          "durationTicks": 239,
          "midi": 55,
          "name": "G3",
          "ticks": 31440,
          "time": 28.071400500000106,
          "velocity": 0.6299212598425197,
          "string": 3,
          "fret": 0
        },
        {
          "duration": 0.21339264375000155,
          "durationTicks": 239,
          "midi": 71,
          "name": "B4",
          "ticks": 31680,
          "time": 28.28568600000011,
          "velocity": 0.6299212598425197,
          "string": 1,
          "fret": 7
        },
        {
          "duration": 2.57053314375003,
          "durationTicks": 2879,
          "midi": 40,
          "name": "E2",
          "ticks": 31680,
          "time": 28.28568600000011,
          "velocity": 0.6299212598425197,
          "string": 6,
          "fret": 0
        },
        {
          "duration": 0.21339264375000155,
          "durationTicks": 239,
          "midi": 59,
          "name": "B3",
          "ticks": 31920,
          "time": 28.49997150000011,
          "velocity": 0.6299212598425197,
          "string": 2,
          "fret": 0
        },
        {
          "duration": 0.21339264375000155,
          "durationTicks": 239,
          "midi": 55,
          "name": "G3",
          "ticks": 32160,
          "time": 28.714257000000114,
          "velocity": 0.6299212598425197,
          "string": 3,
          "fret": 0
        },
        {
          "duration": 0.21339264375000155,
          "durationTicks": 239,
          "midi": 71,
          "name": "B4",
          "ticks": 32400,
          "time": 28.928542500000116,
          "velocity": 0.6299212598425197,
          "string": 1,
          "fret": 7
        },
        {
          "duration": 0.21339264375000155,
          "durationTicks": 239,
          "midi": 59,
          "name": "B3",
          "ticks": 32640,
          "time": 29.14282800000012,
          "velocity": 0.6299212598425197,
          "string": 2,
          "fret": 0
        },
        {
          "duration": 0.21339264375000155,
          "durationTicks": 239,
          "midi": 55,
          "name": "G3",
          "ticks": 32880,
          "time": 29.35711350000012,
          "velocity": 0.6299212598425197,
          "string": 3,
          "fret": 0
        },
        {
          "duration": 0.21339264375000155,
          "durationTicks": 239,
          "midi": 71,
          "name": "B4",
          "ticks": 33120,
          "time": 29.571399000000124,
          "velocity": 0.6299212598425197,
          "string": 1,
          "fret": 7
        },
        {
          "duration": 0.21339264375000155,
          "durationTicks": 239,
          "midi": 59,
          "name": "B3",
          "ticks": 33360,
          "time": 29.785684500000126,
          "velocity": 0.6299212598425197,
          "string": 2,
          "fret": 0
        },
        {
          "duration": 0.21339264375000155,
          "durationTicks": 239,
          "midi": 55,
          "name": "G3",
          "ticks": 33600,
          "time": 29.99997000000013,
          "velocity": 0.6299212598425197,
          "string": 3,
          "fret": 0
        },
        {
          "duration": 0.21339264375000155,
          "durationTicks": 239,
          "midi": 71,
          "name": "B4",
          "ticks": 33840,
          "time": 30.21425550000013,
          "velocity": 0.6299212598425197,
          "string": 1,
          "fret": 7
        },
        {
          "duration": 0.21339264375000155,
          "durationTicks": 239,
          "midi": 59,
          "name": "B3",
          "ticks": 34080,
          "time": 30.428541000000134,
          "velocity": 0.6299212598425197,
          "string": 2,
          "fret": 0
        },
        {
          "duration": 0.21339264375000155,
          "durationTicks": 239,
          "midi": 55,
          "name": "G3",
          "ticks": 34320,
          "time": 30.642826500000137,
          "velocity": 0.6299212598425197,
          "string": 3,
          "fret": 0
        },
        {
          "duration": 0.21339264375000155,
          "durationTicks": 239,
          "midi": 74,
          "name": "D5",
          "ticks": 34560,
          "time": 30.85711200000014,
          "velocity": 0.6299212598425197,
          "string": 1,
          "fret": 10
        },
        {
          "duration": 2.570533143749987,
          "durationTicks": 2879,
          "midi": 40,
          "name": "E2",
          "ticks": 34560,
          "time": 30.85711200000014,
          "velocity": 0.6299212598425197,
          "string": 6,
          "fret": 0
        },
        {
          "duration": 0.21339264375000155,
          "durationTicks": 239,
          "midi": 59,
          "name": "B3",
          "ticks": 34800,
          "time": 31.071397500000142,
          "velocity": 0.6299212598425197,
          "string": 2,
          "fret": 0
        },
        {
          "duration": 0.21339264375000155,
          "durationTicks": 239,
          "midi": 55,
          "name": "G3",
          "ticks": 35040,
          "time": 31.285683000000144,
          "velocity": 0.6299212598425197,
          "string": 3,
          "fret": 0
        },
        {
          "duration": 0.21339264375000155,
          "durationTicks": 239,
          "midi": 74,
          "name": "D5",
          "ticks": 35280,
          "time": 31.499968500000147,
          "velocity": 0.6299212598425197,
          "string": 1,
          "fret": 10
        },
        {
          "duration": 0.21339264375000155,
          "durationTicks": 239,
          "midi": 59,
          "name": "B3",
          "ticks": 35520,
          "time": 31.71425400000015,
          "velocity": 0.6299212598425197,
          "string": 2,
          "fret": 0
        },
        {
          "duration": 0.21339264375000155,
          "durationTicks": 239,
          "midi": 55,
          "name": "G3",
          "ticks": 35760,
          "time": 31.928539500000152,
          "velocity": 0.6299212598425197,
          "string": 3,
          "fret": 0
        },
        {
          "duration": 0.213392643749998,
          "durationTicks": 239,
          "midi": 74,
          "name": "D5",
          "ticks": 36000,
          "time": 32.14282500000015,
          "velocity": 0.6299212598425197,
          "string": 1,
          "fret": 10
        },
        {
          "duration": 0.213392643749998,
          "durationTicks": 239,
          "midi": 59,
          "name": "B3",
          "ticks": 36240,
          "time": 32.35711050000015,
          "velocity": 0.6299212598425197,
          "string": 2,
          "fret": 0
        },
        {
          "duration": 0.213392643749998,
          "durationTicks": 239,
          "midi": 55,
          "name": "G3",
          "ticks": 36480,
          "time": 32.57139600000014,
          "velocity": 0.6299212598425197,
          "string": 3,
          "fret": 0
        },
        {
          "duration": 0.213392643749998,
          "durationTicks": 239,
          "midi": 74,
          "name": "D5",
          "ticks": 36720,
          "time": 32.78568150000014,
          "velocity": 0.6299212598425197,
          "string": 1,
          "fret": 10
        },
        {
          "duration": 0.213392643749998,
          "durationTicks": 239,
          "midi": 59,
          "name": "B3",
          "ticks": 36960,
          "time": 32.99996700000013,
          "velocity": 0.6299212598425197,
          "string": 2,
          "fret": 0
        },
        {
          "duration": 0.213392643749998,
          "durationTicks": 239,
          "midi": 55,
          "name": "G3",
          "ticks": 37200,
          "time": 33.21425250000013,
          "velocity": 0.6299212598425197,
          "string": 3,
          "fret": 0
        },
        {
          "duration": 0.213392643749998,
          "durationTicks": 239,
          "midi": 73,
          "name": "C#5",
          "ticks": 37440,
          "time": 33.428538000000124,
          "velocity": 0.6299212598425197,
          "string": 1,
          "fret": 9
        },
        {
          "duration": 2.570533143749948,
          "durationTicks": 2879,
          "midi": 45,
          "name": "A2",
          "ticks": 37440,
          "time": 33.428538000000124,
          "velocity": 0.6299212598425197,
          "string": 5,
          "fret": 0
        },
        {
          "duration": 0.213392643749998,
          "durationTicks": 239,
          "midi": 59,
          "name": "B3",
          "ticks": 37680,
          "time": 33.64282350000012,
          "velocity": 0.6299212598425197,
          "string": 2,
          "fret": 0
        },
        {
          "duration": 0.213392643749998,
          "durationTicks": 239,
          "midi": 55,
          "name": "G3",
          "ticks": 37920,
          "time": 33.857109000000115,
          "velocity": 0.6299212598425197,
          "string": 3,
          "fret": 0
        },
        {
          "duration": 0.213392643749998,
          "durationTicks": 239,
          "midi": 73,
          "name": "C#5",
          "ticks": 38160,
          "time": 34.07139450000011,
          "velocity": 0.6299212598425197,
          "string": 1,
          "fret": 9
        },
        {
          "duration": 0.213392643749998,
          "durationTicks": 239,
          "midi": 59,
          "name": "B3",
          "ticks": 38400,
          "time": 34.285680000000106,
          "velocity": 0.6299212598425197,
          "string": 2,
          "fret": 0
        },
        {
          "duration": 0.213392643749998,
          "durationTicks": 239,
          "midi": 55,
          "name": "G3",
          "ticks": 38640,
          "time": 34.4999655000001,
          "velocity": 0.6299212598425197,
          "string": 3,
          "fret": 0
        },
        {
          "duration": 0.213392643749998,
          "durationTicks": 239,
          "midi": 73,
          "name": "C#5",
          "ticks": 38880,
          "time": 34.7142510000001,
          "velocity": 0.6299212598425197,
          "string": 1,
          "fret": 9
        },
        {
          "duration": 0.213392643749998,
          "durationTicks": 239,
          "midi": 59,
          "name": "B3",
          "ticks": 39120,
          "time": 34.92853650000009,
          "velocity": 0.6299212598425197,
          "string": 2,
          "fret": 0
        },
        {
          "duration": 0.213392643749998,
          "durationTicks": 239,
          "midi": 55,
          "name": "G3",
          "ticks": 39360,
          "time": 35.14282200000009,
          "velocity": 0.6299212598425197,
          "string": 3,
          "fret": 0
        },
        {
          "duration": 0.213392643749998,
          "durationTicks": 239,
          "midi": 73,
          "name": "C#5",
          "ticks": 39600,
          "time": 35.35710750000008,
          "velocity": 0.6299212598425197,
          "string": 1,
          "fret": 9
        },
        {
          "duration": 0.213392643749998,
          "durationTicks": 239,
          "midi": 59,
          "name": "B3",
          "ticks": 39840,
          "time": 35.57139300000008,
          "velocity": 0.6299212598425197,
          "string": 2,
          "fret": 0
        },
        {
          "duration": 0.213392643749998,
          "durationTicks": 239,
          "midi": 55,
          "name": "G3",
          "ticks": 40080,
          "time": 35.785678500000074,
          "velocity": 0.6299212598425197,
          "string": 3,
          "fret": 0
        },
        {
          "duration": 0.213392643749998,
          "durationTicks": 239,
          "midi": 72,
          "name": "C5",
          "ticks": 40320,
          "time": 35.99996400000007,
          "velocity": 0.6299212598425197,
          "string": 1,
          "fret": 8
        },
        {
          "duration": 2.570533143749948,
          "durationTicks": 2879,
          "midi": 45,
          "name": "A2",
          "ticks": 40320,
          "time": 35.99996400000007,
          "velocity": 0.6299212598425197,
          "string": 5,
          "fret": 0
        },
        {
          "duration": 0.213392643749998,
          "durationTicks": 239,
          "midi": 59,
          "name": "B3",
          "ticks": 40560,
          "time": 36.214249500000065,
          "velocity": 0.6299212598425197,
          "string": 2,
          "fret": 0
        },
        {
          "duration": 0.213392643749998,
          "durationTicks": 239,
          "midi": 55,
          "name": "G3",
          "ticks": 40800,
          "time": 36.42853500000006,
          "velocity": 0.6299212598425197,
          "string": 3,
          "fret": 0
        },
        {
          "duration": 0.213392643749998,
          "durationTicks": 239,
          "midi": 72,
          "name": "C5",
          "ticks": 41040,
          "time": 36.642820500000056,
          "velocity": 0.6299212598425197,
          "string": 1,
          "fret": 8
        },
        {
          "duration": 0.213392643749998,
          "durationTicks": 239,
          "midi": 59,
          "name": "B3",
          "ticks": 41280,
          "time": 36.85710600000005,
          "velocity": 0.6299212598425197,
          "string": 2,
          "fret": 0
        },
        {
          "duration": 0.213392643749998,
          "durationTicks": 239,
          "midi": 55,
          "name": "G3",
          "ticks": 41520,
          "time": 37.07139150000005,
          "velocity": 0.6299212598425197,
          "string": 3,
          "fret": 0
        },
        {
          "duration": 0.213392643749998,
          "durationTicks": 239,
          "midi": 72,
          "name": "C5",
          "ticks": 41760,
          "time": 37.28567700000004,
          "velocity": 0.6299212598425197,
          "string": 1,
          "fret": 8
        },
        {
          "duration": 0.213392643749998,
          "durationTicks": 239,
          "midi": 59,
          "name": "B3",
          "ticks": 42000,
          "time": 37.49996250000004,
          "velocity": 0.6299212598425197,
          "string": 2,
          "fret": 0
        },
        {
          "duration": 0.213392643749998,
          "durationTicks": 239,
          "midi": 55,
          "name": "G3",
          "ticks": 42240,
          "time": 37.71424800000003,
          "velocity": 0.6299212598425197,
          "string": 3,
          "fret": 0
        },
        {
          "duration": 0.213392643749998,
          "durationTicks": 239,
          "midi": 72,
          "name": "C5",
          "ticks": 42480,
          "time": 37.92853350000003,
          "velocity": 0.6299212598425197,
          "string": 1,
          "fret": 8
        },
        {
          "duration": 0.213392643749998,
          "durationTicks": 239,
          "midi": 59,
          "name": "B3",
          "ticks": 42720,
          "time": 38.142819000000024,
          "velocity": 0.6299212598425197,
          "string": 2,
          "fret": 0
        },
        {
          "duration": 0.213392643749998,
          "durationTicks": 239,
          "midi": 55,
          "name": "G3",
          "ticks": 42960,
          "time": 38.35710450000002,
          "velocity": 0.6299212598425197,
          "string": 3,
          "fret": 0
        },
        {
          "duration": 0.213392643749998,
          "durationTicks": 239,
          "midi": 71,
          "name": "B4",
          "ticks": 43200,
          "time": 38.571390000000015,
          "velocity": 0.6299212598425197,
          "string": 1,
          "fret": 7
        },
        {
          "duration": 2.570533143749948,
          "durationTicks": 2879,
          "midi": 40,
          "name": "E2",
          "ticks": 43200,
          "time": 38.571390000000015,
          "velocity": 0.6299212598425197,
          "string": 6,
          "fret": 0
        },
        {
          "duration": 0.213392643749998,
          "durationTicks": 239,
          "midi": 59,
          "name": "B3",
          "ticks": 43440,
          "time": 38.78567550000001,
          "velocity": 0.6299212598425197,
          "string": 2,
          "fret": 0
        },
        {
          "duration": 0.213392643749998,
          "durationTicks": 239,
          "midi": 55,
          "name": "G3",
          "ticks": 43680,
          "time": 38.999961000000006,
          "velocity": 0.6299212598425197,
          "string": 3,
          "fret": 0
        },
        {
          "duration": 0.213392643749998,
          "durationTicks": 239,
          "midi": 71,
          "name": "B4",
          "ticks": 43920,
          "time": 39.2142465,
          "velocity": 0.6299212598425197,
          "string": 1,
          "fret": 7
        },
        {
          "duration": 0.213392643749998,
          "durationTicks": 239,
          "midi": 59,
          "name": "B3",
          "ticks": 44160,
          "time": 39.428532,
          "velocity": 0.6299212598425197,
          "string": 2,
          "fret": 0
        },
        {
          "duration": 0.213392643749998,
          "durationTicks": 239,
          "midi": 55,
          "name": "G3",
          "ticks": 44400,
          "time": 39.64281749999999,
          "velocity": 0.6299212598425197,
          "string": 3,
          "fret": 0
        },
        {
          "duration": 0.213392643749998,
          "durationTicks": 239,
          "midi": 71,
          "name": "B4",
          "ticks": 44640,
          "time": 39.85710299999999,
          "velocity": 0.6299212598425197,
          "string": 1,
          "fret": 7
        },
        {
          "duration": 0.213392643749998,
          "durationTicks": 239,
          "midi": 59,
          "name": "B3",
          "ticks": 44880,
          "time": 40.07138849999998,
          "velocity": 0.6299212598425197,
          "string": 2,
          "fret": 0
        },
        {
          "duration": 0.213392643749998,
          "durationTicks": 239,
          "midi": 55,
          "name": "G3",
          "ticks": 45120,
          "time": 40.28567399999998,
          "velocity": 0.6299212598425197,
          "string": 3,
          "fret": 0
        },
        {
          "duration": 0.213392643749998,
          "durationTicks": 239,
          "midi": 71,
          "name": "B4",
          "ticks": 45360,
          "time": 40.499959499999974,
          "velocity": 0.6299212598425197,
          "string": 1,
          "fret": 7
        },
        {
          "duration": 0.213392643749998,
          "durationTicks": 239,
          "midi": 59,
          "name": "B3",
          "ticks": 45600,
          "time": 40.71424499999997,
          "velocity": 0.6299212598425197,
          "string": 2,
          "fret": 0
        },
        {
          "duration": 0.213392643749998,
          "durationTicks": 239,
          "midi": 55,
          "name": "G3",
          "ticks": 45840,
          "time": 40.928530499999965,
          "velocity": 0.6299212598425197,
          "string": 3,
          "fret": 0
        },
        {
          "duration": 0.213392643749998,
          "durationTicks": 239,
          "midi": 69,
          "name": "A4",
          "ticks": 46080,
          "time": 41.14281599999996,
          "velocity": 0.6299212598425197,
          "string": 1,
          "fret": 5
        },
        {
          "duration": 2.570533143749948,
          "durationTicks": 2879,
          "midi": 45,
          "name": "A2",
          "ticks": 46080,
          "time": 41.14281599999996,
          "velocity": 0.6299212598425197,
          "string": 5,
          "fret": 0
        },
        {
          "duration": 0.213392643749998,
          "durationTicks": 239,
          "midi": 64,
          "name": "E4",
          "ticks": 46320,
          "time": 41.357101499999956,
          "velocity": 0.6299212598425197,
          "string": 1,
          "fret": 0
        },
        {
          "duration": 0.213392643749998,
          "durationTicks": 239,
          "midi": 62,
          "name": "D4",
          "ticks": 46560,
          "time": 41.57138699999995,
          "velocity": 0.6299212598425197,
          "string": 2,
          "fret": 3
        },
        {
          "duration": 0.213392643749998,
          "durationTicks": 239,
          "midi": 69,
          "name": "A4",
          "ticks": 46800,
          "time": 41.78567249999995,
          "velocity": 0.6299212598425197,
          "string": 1,
          "fret": 5
        },
        {
          "duration": 0.213392643749998,
          "durationTicks": 239,
          "midi": 64,
          "name": "E4",
          "ticks": 47040,
          "time": 41.99995799999994,
          "velocity": 0.6299212598425197,
          "string": 1,
          "fret": 0
        },
        {
          "duration": 0.213392643749998,
          "durationTicks": 239,
          "midi": 62,
          "name": "D4",
          "ticks": 47280,
          "time": 42.21424349999994,
          "velocity": 0.6299212598425197,
          "string": 2,
          "fret": 3
        },
        {
          "duration": 0.213392643749998,
          "durationTicks": 239,
          "midi": 69,
          "name": "A4",
          "ticks": 47520,
          "time": 42.42852899999993,
          "velocity": 0.6299212598425197,
          "string": 1,
          "fret": 5
        },
        {
          "duration": 0.213392643749998,
          "durationTicks": 239,
          "midi": 64,
          "name": "E4",
          "ticks": 47760,
          "time": 42.64281449999993,
          "velocity": 0.6299212598425197,
          "string": 1,
          "fret": 0
        },
        {
          "duration": 0.213392643749998,
          "durationTicks": 239,
          "midi": 62,
          "name": "D4",
          "ticks": 48000,
          "time": 42.857099999999924,
          "velocity": 0.6299212598425197,
          "string": 2,
          "fret": 3
        },
        {
          "duration": 0.213392643749998,
          "durationTicks": 239,
          "midi": 69,
          "name": "A4",
          "ticks": 48240,
          "time": 43.07138549999992,
          "velocity": 0.6299212598425197,
          "string": 1,
          "fret": 5
        },
        {
          "duration": 0.213392643749998,
          "durationTicks": 239,
          "midi": 64,
          "name": "E4",
          "ticks": 48480,
          "time": 43.285670999999915,
          "velocity": 0.6299212598425197,
          "string": 1,
          "fret": 0
        },
        {
          "duration": 0.213392643749998,
          "durationTicks": 239,
          "midi": 62,
          "name": "D4",
          "ticks": 48720,
          "time": 43.49995649999991,
          "velocity": 0.6299212598425197,
          "string": 2,
          "fret": 3
        },
        {
          "duration": 0.213392643749998,
          "durationTicks": 239,
          "midi": 69,
          "name": "A4",
          "ticks": 48960,
          "time": 43.714241999999906,
          "velocity": 0.6299212598425197,
          "string": 1,
          "fret": 5
        },
        {
          "duration": 2.5705331437499694,
          "durationTicks": 2879,
          "midi": 45,
          "name": "A2",
          "ticks": 48960,
          "time": 43.714241999999906,
          "velocity": 0.6299212598425197,
          "string": 5,
          "fret": 0
        },
        {
          "duration": 0.213392643749998,
          "durationTicks": 239,
          "midi": 64,
          "name": "E4",
          "ticks": 49200,
          "time": 43.9285274999999,
          "velocity": 0.6299212598425197,
          "string": 1,
          "fret": 0
        },
        {
          "duration": 0.213392643749998,
          "durationTicks": 239,
          "midi": 61,
          "name": "C#4",
          "ticks": 49440,
          "time": 44.1428129999999,
          "velocity": 0.6299212598425197,
          "string": 2,
          "fret": 2
        },
        {
          "duration": 0.213392643749998,
          "durationTicks": 239,
          "midi": 69,
          "name": "A4",
          "ticks": 49680,
          "time": 44.35709849999989,
          "velocity": 0.6299212598425197,
          "string": 1,
          "fret": 5
        },
        {
          "duration": 0.213392643749998,
          "durationTicks": 239,
          "midi": 64,
          "name": "E4",
          "ticks": 49920,
          "time": 44.57138399999989,
          "velocity": 0.6299212598425197,
          "string": 1,
          "fret": 0
        },
        {
          "duration": 0.213392643749998,
          "durationTicks": 239,
          "midi": 61,
          "name": "C#4",
          "ticks": 50160,
          "time": 44.785669499999884,
          "velocity": 0.6299212598425197,
          "string": 2,
          "fret": 2
        },
        {
          "duration": 1.2848201437499966,
          "durationTicks": 1439,
          "midi": 69,
          "name": "A4",
          "ticks": 50400,
          "time": 44.99995499999988,
          "velocity": 0.6299212598425197,
          "string": 1,
          "fret": 5
        },
        {
          "duration": 0.213392643749998,
          "durationTicks": 239,
          "midi": 67,
          "name": "G4",
          "ticks": 51840,
          "time": 46.28566799999987,
          "velocity": 0.6299212598425197,
          "string": 1,
          "fret": 3
        },
        {
          "duration": 2.570533143749948,
          "durationTicks": 2879,
          "midi": 45,
          "name": "A2",
          "ticks": 51840,
          "time": 46.28566799999987,
          "velocity": 0.6299212598425197,
          "string": 5,
          "fret": 0
        },
        {
          "duration": 0.213392643749998,
          "durationTicks": 239,
          "midi": 60,
          "name": "C4",
          "ticks": 52080,
          "time": 46.49995349999987,
          "velocity": 0.6299212598425197,
          "string": 2,
          "fret": 1
        },
        {
          "duration": 0.213392643749998,
          "durationTicks": 239,
          "midi": 55,
          "name": "G3",
          "ticks": 52320,
          "time": 46.714238999999864,
          "velocity": 0.6299212598425197,
          "string": 3,
          "fret": 0
        },
        {
          "duration": 0.213392643749998,
          "durationTicks": 239,
          "midi": 66,
          "name": "F#4",
          "ticks": 52560,
          "time": 46.92852449999986,
          "velocity": 0.6299212598425197,
          "string": 1,
          "fret": 2
        },
        {
          "duration": 0.213392643749998,
          "durationTicks": 239,
          "midi": 60,
          "name": "C4",
          "ticks": 52800,
          "time": 47.142809999999855,
          "velocity": 0.6299212598425197,
          "string": 2,
          "fret": 1
        },
        {
          "duration": 0.213392643749998,
          "durationTicks": 239,
          "midi": 55,
          "name": "G3",
          "ticks": 53040,
          "time": 47.35709549999985,
          "velocity": 0.6299212598425197,
          "string": 3,
          "fret": 0
        },
        {
          "duration": 0.213392643749998,
          "durationTicks": 239,
          "midi": 64,
          "name": "E4",
          "ticks": 53280,
          "time": 47.571380999999846,
          "velocity": 0.6299212598425197,
          "string": 1,
          "fret": 0
        },
        {
          "duration": 0.213392643749998,
          "durationTicks": 239,
          "midi": 60,
          "name": "C4",
          "ticks": 53520,
          "time": 47.78566649999984,
          "velocity": 0.6299212598425197,
          "string": 2,
          "fret": 1
        },
        {
          "duration": 0.213392643749998,
          "durationTicks": 239,
          "midi": 55,
          "name": "G3",
          "ticks": 53760,
          "time": 47.99995199999984,
          "velocity": 0.6299212598425197,
          "string": 3,
          "fret": 0
        },
        {
          "duration": 0.213392643749998,
          "durationTicks": 239,
          "midi": 62,
          "name": "D4",
          "ticks": 54000,
          "time": 48.21423749999983,
          "velocity": 0.6299212598425197,
          "string": 2,
          "fret": 3
        },
        {
          "duration": 0.213392643749998,
          "durationTicks": 239,
          "midi": 55,
          "name": "G3",
          "ticks": 54240,
          "time": 48.42852299999983,
          "velocity": 0.6299212598425197,
          "string": 3,
          "fret": 0
        },
        {
          "duration": 0.213392643749998,
          "durationTicks": 239,
          "midi": 50,
          "name": "D3",
          "ticks": 54480,
          "time": 48.64280849999982,
          "velocity": 0.6299212598425197,
          "string": 4,
          "fret": 0
        },
        {
          "duration": 2.570533143749998,
          "durationTicks": 2879,
          "midi": 66,
          "name": "F#4",
          "ticks": 54720,
          "time": 48.85709399999982,
          "velocity": 0.6299212598425197,
          "string": 1,
          "fret": 2
        },
        {
          "duration": 2.570533143749998,
          "durationTicks": 2879,
          "midi": 45,
          "name": "A2",
          "ticks": 54720,
          "time": 48.85709399999982,
          "velocity": 0.6299212598425197,
          "string": 5,
          "fret": 0
        },
        {
          "duration": 0.213392643749998,
          "durationTicks": 239,
          "midi": 67,
          "name": "G4",
          "ticks": 57600,
          "time": 51.428519999999814,
          "velocity": 0.6299212598425197,
          "string": 1,
          "fret": 3
        },
        {
          "duration": 2.5705331437499908,
          "durationTicks": 2879,
          "midi": 40,
          "name": "E2",
          "ticks": 57600,
          "time": 51.428519999999814,
          "velocity": 0.6299212598425197,
          "string": 6,
          "fret": 0
        },
        {
          "duration": 0.213392643749998,
          "durationTicks": 239,
          "midi": 59,
          "name": "B3",
          "ticks": 57840,
          "time": 51.64280549999981,
          "velocity": 0.6299212598425197,
          "string": 2,
          "fret": 0
        },
        {
          "duration": 0.213392643749998,
          "durationTicks": 239,
          "midi": 55,
          "name": "G3",
          "ticks": 58080,
          "time": 51.857090999999805,
          "velocity": 0.6299212598425197,
          "string": 3,
          "fret": 0
        },
        {
          "duration": 1.7133911437500018,
          "durationTicks": 1919,
          "midi": 64,
          "name": "E4",
          "ticks": 58320,
          "time": 52.0713764999998,
          "velocity": 0.6299212598425197,
          "string": 1,
          "fret": 0
        },
        {
          "duration": 0.213392643749998,
          "durationTicks": 239,
          "midi": 67,
          "name": "G4",
          "ticks": 60480,
          "time": 53.9999459999998,
          "velocity": 0.6299212598425197,
          "string": 1,
          "fret": 3
        },
        {
          "duration": 2.5705331437499908,
          "durationTicks": 2879,
          "midi": 40,
          "name": "E2",
          "ticks": 60480,
          "time": 53.9999459999998,
          "velocity": 0.6299212598425197,
          "string": 6,
          "fret": 0
        },
        {
          "duration": 0.213392643749998,
          "durationTicks": 239,
          "midi": 59,
          "name": "B3",
          "ticks": 60720,
          "time": 54.2142314999998,
          "velocity": 0.6299212598425197,
          "string": 2,
          "fret": 0
        },
        {
          "duration": 0.213392643749998,
          "durationTicks": 239,
          "midi": 55,
          "name": "G3",
          "ticks": 60960,
          "time": 54.42851699999979,
          "velocity": 0.6299212598425197,
          "string": 3,
          "fret": 0
        },
        {
          "duration": 1.7133911437500018,
          "durationTicks": 1919,
          "midi": 64,
          "name": "E4",
          "ticks": 61200,
          "time": 54.64280249999979,
          "velocity": 0.6299212598425197,
          "string": 1,
          "fret": 0
        },
        {
          "duration": 0.213392643749998,
          "durationTicks": 239,
          "midi": 67,
          "name": "G4",
          "ticks": 63360,
          "time": 56.57137199999979,
          "velocity": 0.6299212598425197,
          "string": 1,
          "fret": 3
        },
        {
          "duration": 2.570533143749948,
          "durationTicks": 2879,
          "midi": 40,
          "name": "E2",
          "ticks": 63360,
          "time": 56.57137199999979,
          "velocity": 0.6299212598425197,
          "string": 6,
          "fret": 0
        },
        {
          "duration": 0.213392643749998,
          "durationTicks": 239,
          "midi": 59,
          "name": "B3",
          "ticks": 63600,
          "time": 56.785657499999786,
          "velocity": 0.6299212598425197,
          "string": 2,
          "fret": 0
        },
        {
          "duration": 0.213392643749998,
          "durationTicks": 239,
          "midi": 55,
          "name": "G3",
          "ticks": 63840,
          "time": 56.99994299999978,
          "velocity": 0.6299212598425197,
          "string": 3,
          "fret": 0
        },
        {
          "duration": 0.213392643749998,
          "durationTicks": 239,
          "midi": 64,
          "name": "E4",
          "ticks": 64080,
          "time": 57.21422849999978,
          "velocity": 0.6299212598425197,
          "string": 1,
          "fret": 0
        },
        {
          "duration": 0.213392643749998,
          "durationTicks": 239,
          "midi": 59,
          "name": "B3",
          "ticks": 64320,
          "time": 57.42851399999977,
          "velocity": 0.6299212598425197,
          "string": 2,
          "fret": 0
        },
        {
          "duration": 0.213392643749998,
          "durationTicks": 239,
          "midi": 55,
          "name": "G3",
          "ticks": 64560,
          "time": 57.64279949999977,
          "velocity": 0.6299212598425197,
          "string": 3,
          "fret": 0
        },
        {
          "duration": 0.213392643749998,
          "durationTicks": 239,
          "midi": 69,
          "name": "A4",
          "ticks": 64800,
          "time": 57.85708499999976,
          "velocity": 0.6299212598425197,
          "string": 1,
          "fret": 5
        },
        {
          "duration": 0.213392643749998,
          "durationTicks": 239,
          "midi": 59,
          "name": "B3",
          "ticks": 65040,
          "time": 58.07137049999976,
          "velocity": 0.6299212598425197,
          "string": 2,
          "fret": 0
        },
        {
          "duration": 0.213392643749998,
          "durationTicks": 239,
          "midi": 55,
          "name": "G3",
          "ticks": 65280,
          "time": 58.285655999999754,
          "velocity": 0.6299212598425197,
          "string": 3,
          "fret": 0
        },
        {
          "duration": 0.213392643749998,
          "durationTicks": 239,
          "midi": 66,
          "name": "F#4",
          "ticks": 65520,
          "time": 58.49994149999975,
          "velocity": 0.6299212598425197,
          "string": 1,
          "fret": 2
        },
        {
          "duration": 0.213392643749998,
          "durationTicks": 239,
          "midi": 59,
          "name": "B3",
          "ticks": 65760,
          "time": 58.714226999999745,
          "velocity": 0.6299212598425197,
          "string": 2,
          "fret": 0
        },
        {
          "duration": 0.213392643749998,
          "durationTicks": 239,
          "midi": 55,
          "name": "G3",
          "ticks": 66000,
          "time": 58.92851249999974,
          "velocity": 0.6299212598425197,
          "string": 3,
          "fret": 0
        },
        {
          "duration": 0.213392643749998,
          "durationTicks": 239,
          "midi": 67,
          "name": "G4",
          "ticks": 66240,
          "time": 59.142797999999736,
          "velocity": 0.6299212598425197,
          "string": 1,
          "fret": 3
        },
        {
          "duration": 2.570533143749948,
          "durationTicks": 2879,
          "midi": 40,
          "name": "E2",
          "ticks": 66240,
          "time": 59.142797999999736,
          "velocity": 0.6299212598425197,
          "string": 6,
          "fret": 0
        },
        {
          "duration": 0.213392643749998,
          "durationTicks": 239,
          "midi": 59,
          "name": "B3",
          "ticks": 66480,
          "time": 59.35708349999973,
          "velocity": 0.6299212598425197,
          "string": 2,
          "fret": 0
        },
        {
          "duration": 0.213392643749998,
          "durationTicks": 239,
          "midi": 55,
          "name": "G3",
          "ticks": 66720,
          "time": 59.57136899999973,
          "velocity": 0.6299212598425197,
          "string": 3,
          "fret": 0
        },
        {
          "duration": 0.213392643749998,
          "durationTicks": 239,
          "midi": 67,
          "name": "G4",
          "ticks": 66960,
          "time": 59.78565449999972,
          "velocity": 0.6299212598425197,
          "string": 1,
          "fret": 3
        },
        {
          "duration": 0.213392643749998,
          "durationTicks": 239,
          "midi": 59,
          "name": "B3",
          "ticks": 67200,
          "time": 59.99993999999972,
          "velocity": 0.6299212598425197,
          "string": 2,
          "fret": 0
        },
        {
          "duration": 0.213392643749998,
          "durationTicks": 239,
          "midi": 55,
          "name": "G3",
          "ticks": 67440,
          "time": 60.21422549999971,
          "velocity": 0.6299212598425197,
          "string": 3,
          "fret": 0
        },
        {
          "duration": 0.213392643749998,
          "durationTicks": 239,
          "midi": 67,
          "name": "G4",
          "ticks": 67680,
          "time": 60.42851099999971,
          "velocity": 0.6299212598425197,
          "string": 1,
          "fret": 3
        },
        {
          "duration": 0.213392643749998,
          "durationTicks": 239,
          "midi": 59,
          "name": "B3",
          "ticks": 67920,
          "time": 60.642796499999704,
          "velocity": 0.6299212598425197,
          "string": 2,
          "fret": 0
        },
        {
          "duration": 0.213392643749998,
          "durationTicks": 239,
          "midi": 55,
          "name": "G3",
          "ticks": 68160,
          "time": 60.8570819999997,
          "velocity": 0.6299212598425197,
          "string": 3,
          "fret": 0
        },
        {
          "duration": 0.213392643749998,
          "durationTicks": 239,
          "midi": 67,
          "name": "G4",
          "ticks": 68400,
          "time": 61.071367499999695,
          "velocity": 0.6299212598425197,
          "string": 1,
          "fret": 3
        },
        {
          "duration": 0.213392643749998,
          "durationTicks": 239,
          "midi": 59,
          "name": "B3",
          "ticks": 68640,
          "time": 61.28565299999969,
          "velocity": 0.6299212598425197,
          "string": 2,
          "fret": 0
        },
        {
          "duration": 0.213392643749998,
          "durationTicks": 239,
          "midi": 55,
          "name": "G3",
          "ticks": 68880,
          "time": 61.499938499999686,
          "velocity": 0.6299212598425197,
          "string": 3,
          "fret": 0
        },
        {
          "duration": 0.213392643749998,
          "durationTicks": 239,
          "midi": 67,
          "name": "G4",
          "ticks": 69120,
          "time": 61.71422399999968,
          "velocity": 0.6299212598425197,
          "string": 1,
          "fret": 3
        },
        {
          "duration": 2.5705331437499623,
          "durationTicks": 2879,
          "midi": 40,
          "name": "E2",
          "ticks": 69120,
          "time": 61.71422399999968,
          "velocity": 0.6299212598425197,
          "string": 6,
          "fret": 0
        },
        {
          "duration": 0.213392643749998,
          "durationTicks": 239,
          "midi": 59,
          "name": "B3",
          "ticks": 69360,
          "time": 61.92850949999968,
          "velocity": 0.6299212598425197,
          "string": 2,
          "fret": 0
        },
        {
          "duration": 0.213392643749998,
          "durationTicks": 239,
          "midi": 55,
          "name": "G3",
          "ticks": 69600,
          "time": 62.14279499999967,
          "velocity": 0.6299212598425197,
          "string": 3,
          "fret": 0
        },
        {
          "duration": 0.213392643749998,
          "durationTicks": 239,
          "midi": 64,
          "name": "E4",
          "ticks": 69840,
          "time": 62.35708049999967,
          "velocity": 0.6299212598425197,
          "string": 1,
          "fret": 0
        },
        {
          "duration": 0.213392643749998,
          "durationTicks": 239,
          "midi": 59,
          "name": "B3",
          "ticks": 70080,
          "time": 62.571365999999664,
          "velocity": 0.6299212598425197,
          "string": 2,
          "fret": 0
        },
        {
          "duration": 0.213392643749998,
          "durationTicks": 239,
          "midi": 55,
          "name": "G3",
          "ticks": 70320,
          "time": 62.78565149999966,
          "velocity": 0.6299212598425197,
          "string": 3,
          "fret": 0
        },
        {
          "duration": 0.213392643749998,
          "durationTicks": 239,
          "midi": 69,
          "name": "A4",
          "ticks": 70560,
          "time": 62.999936999999655,
          "velocity": 0.6299212598425197,
          "string": 1,
          "fret": 5
        },
        {
          "duration": 0.213392643749998,
          "durationTicks": 239,
          "midi": 59,
          "name": "B3",
          "ticks": 70800,
          "time": 63.21422249999965,
          "velocity": 0.6299212598425197,
          "string": 2,
          "fret": 0
        },
        {
          "duration": 0.213392643749998,
          "durationTicks": 239,
          "midi": 55,
          "name": "G3",
          "ticks": 71040,
          "time": 63.428507999999646,
          "velocity": 0.6299212598425197,
          "string": 3,
          "fret": 0
        },
        {
          "duration": 0.213392643749998,
          "durationTicks": 239,
          "midi": 66,
          "name": "F#4",
          "ticks": 71280,
          "time": 63.64279349999964,
          "velocity": 0.6299212598425197,
          "string": 1,
          "fret": 2
        },
        {
          "duration": 0.2133926437500051,
          "durationTicks": 239,
          "midi": 59,
          "name": "B3",
          "ticks": 71520,
          "time": 63.857078999999636,
          "velocity": 0.6299212598425197,
          "string": 2,
          "fret": 0
        },
        {
          "duration": 0.213392643749998,
          "durationTicks": 239,
          "midi": 55,
          "name": "G3",
          "ticks": 71760,
          "time": 64.07136449999965,
          "velocity": 0.6299212598425197,
          "string": 3,
          "fret": 0
        },
        {
          "duration": 0.213392643749998,
          "durationTicks": 239,
          "midi": 71,
          "name": "B4",
          "ticks": 72000,
          "time": 64.28564999999965,
          "velocity": 0.6299212598425197,
          "string": 1,
          "fret": 7
        },
        {
          "duration": 2.5705331437500263,
          "durationTicks": 2879,
          "midi": 40,
          "name": "E2",
          "ticks": 72000,
          "time": 64.28564999999965,
          "velocity": 0.6299212598425197,
          "string": 6,
          "fret": 0
        },
        {
          "duration": 0.213392643749998,
          "durationTicks": 239,
          "midi": 59,
          "name": "B3",
          "ticks": 72240,
          "time": 64.49993549999965,
          "velocity": 0.6299212598425197,
          "string": 2,
          "fret": 0
        },
        {
          "duration": 0.213392643749998,
          "durationTicks": 239,
          "midi": 55,
          "name": "G3",
          "ticks": 72480,
          "time": 64.71422099999965,
          "velocity": 0.6299212598425197,
          "string": 3,
          "fret": 0
        },
        {
          "duration": 0.213392643749998,
          "durationTicks": 239,
          "midi": 71,
          "name": "B4",
          "ticks": 72720,
          "time": 64.92850649999966,
          "velocity": 0.6299212598425197,
          "string": 1,
          "fret": 7
        },
        {
          "duration": 0.213392643749998,
          "durationTicks": 239,
          "midi": 59,
          "name": "B3",
          "ticks": 72960,
          "time": 65.14279199999966,
          "velocity": 0.6299212598425197,
          "string": 2,
          "fret": 0
        },
        {
          "duration": 0.213392643749998,
          "durationTicks": 239,
          "midi": 55,
          "name": "G3",
          "ticks": 73200,
          "time": 65.35707749999966,
          "velocity": 0.6299212598425197,
          "string": 3,
          "fret": 0
        },
        {
          "duration": 0.213392643749998,
          "durationTicks": 239,
          "midi": 71,
          "name": "B4",
          "ticks": 73440,
          "time": 65.57136299999966,
          "velocity": 0.6299212598425197,
          "string": 1,
          "fret": 7
        },
        {
          "duration": 0.213392643749998,
          "durationTicks": 239,
          "midi": 59,
          "name": "B3",
          "ticks": 73680,
          "time": 65.78564849999967,
          "velocity": 0.6299212598425197,
          "string": 2,
          "fret": 0
        },
        {
          "duration": 0.213392643749998,
          "durationTicks": 239,
          "midi": 55,
          "name": "G3",
          "ticks": 73920,
          "time": 65.99993399999967,
          "velocity": 0.6299212598425197,
          "string": 3,
          "fret": 0
        },
        {
          "duration": 0.213392643749998,
          "durationTicks": 239,
          "midi": 71,
          "name": "B4",
          "ticks": 74160,
          "time": 66.21421949999967,
          "velocity": 0.6299212598425197,
          "string": 1,
          "fret": 7
        },
        {
          "duration": 0.213392643749998,
          "durationTicks": 239,
          "midi": 59,
          "name": "B3",
          "ticks": 74400,
          "time": 66.42850499999967,
          "velocity": 0.6299212598425197,
          "string": 2,
          "fret": 0
        },
        {
          "duration": 0.213392643749998,
          "durationTicks": 239,
          "midi": 55,
          "name": "G3",
          "ticks": 74640,
          "time": 66.64279049999968,
          "velocity": 0.6299212598425197,
          "string": 3,
          "fret": 0
        },
        {
          "duration": 0.213392643749998,
          "durationTicks": 239,
          "midi": 67,
          "name": "G4",
          "ticks": 74880,
          "time": 66.85707599999968,
          "velocity": 0.6299212598425197,
          "string": 1,
          "fret": 3
        },
        {
          "duration": 2.5705331437500263,
          "durationTicks": 2879,
          "midi": 40,
          "name": "E2",
          "ticks": 74880,
          "time": 66.85707599999968,
          "velocity": 0.6299212598425197,
          "string": 6,
          "fret": 0
        },
        {
          "duration": 0.213392643749998,
          "durationTicks": 239,
          "midi": 59,
          "name": "B3",
          "ticks": 75120,
          "time": 67.07136149999968,
          "velocity": 0.6299212598425197,
          "string": 2,
          "fret": 0
        },
        {
          "duration": 0.213392643749998,
          "durationTicks": 239,
          "midi": 55,
          "name": "G3",
          "ticks": 75360,
          "time": 67.28564699999968,
          "velocity": 0.6299212598425197,
          "string": 3,
          "fret": 0
        },
        {
          "duration": 0.213392643749998,
          "durationTicks": 239,
          "midi": 64,
          "name": "E4",
          "ticks": 75600,
          "time": 67.49993249999969,
          "velocity": 0.6299212598425197,
          "string": 1,
          "fret": 0
        },
        {
          "duration": 0.213392643749998,
          "durationTicks": 239,
          "midi": 59,
          "name": "B3",
          "ticks": 75840,
          "time": 67.71421799999969,
          "velocity": 0.6299212598425197,
          "string": 2,
          "fret": 0
        },
        {
          "duration": 0.213392643749998,
          "durationTicks": 239,
          "midi": 55,
          "name": "G3",
          "ticks": 76080,
          "time": 67.92850349999969,
          "velocity": 0.6299212598425197,
          "string": 3,
          "fret": 0
        },
        {
          "duration": 0.213392643749998,
          "durationTicks": 239,
          "midi": 69,
          "name": "A4",
          "ticks": 76320,
          "time": 68.1427889999997,
          "velocity": 0.6299212598425197,
          "string": 1,
          "fret": 5
        },
        {
          "duration": 0.213392643749998,
          "durationTicks": 239,
          "midi": 59,
          "name": "B3",
          "ticks": 76560,
          "time": 68.3570744999997,
          "velocity": 0.6299212598425197,
          "string": 2,
          "fret": 0
        },
        {
          "duration": 0.213392643749998,
          "durationTicks": 239,
          "midi": 55,
          "name": "G3",
          "ticks": 76800,
          "time": 68.5713599999997,
          "velocity": 0.6299212598425197,
          "string": 3,
          "fret": 0
        },
        {
          "duration": 0.213392643749998,
          "durationTicks": 239,
          "midi": 66,
          "name": "F#4",
          "ticks": 77040,
          "time": 68.7856454999997,
          "velocity": 0.6299212598425197,
          "string": 1,
          "fret": 2
        },
        {
          "duration": 0.213392643749998,
          "durationTicks": 239,
          "midi": 59,
          "name": "B3",
          "ticks": 77280,
          "time": 68.9999309999997,
          "velocity": 0.6299212598425197,
          "string": 2,
          "fret": 0
        },
        {
          "duration": 0.213392643749998,
          "durationTicks": 239,
          "midi": 55,
          "name": "G3",
          "ticks": 77520,
          "time": 69.21421649999971,
          "velocity": 0.6299212598425197,
          "string": 3,
          "fret": 0
        },
        {
          "duration": 0.213392643749998,
          "durationTicks": 239,
          "midi": 67,
          "name": "G4",
          "ticks": 77760,
          "time": 69.42850199999971,
          "velocity": 0.6299212598425197,
          "string": 1,
          "fret": 3
        },
        {
          "duration": 2.5705331437500263,
          "durationTicks": 2879,
          "midi": 40,
          "name": "E2",
          "ticks": 77760,
          "time": 69.42850199999971,
          "velocity": 0.6299212598425197,
          "string": 6,
          "fret": 0
        },
        {
          "duration": 0.213392643749998,
          "durationTicks": 239,
          "midi": 59,
          "name": "B3",
          "ticks": 78000,
          "time": 69.64278749999971,
          "velocity": 0.6299212598425197,
          "string": 2,
          "fret": 0
        },
        {
          "duration": 0.213392643749998,
          "durationTicks": 239,
          "midi": 55,
          "name": "G3",
          "ticks": 78240,
          "time": 69.85707299999972,
          "velocity": 0.6299212598425197,
          "string": 3,
          "fret": 0
        },
        {
          "duration": 0.213392643749998,
          "durationTicks": 239,
          "midi": 67,
          "name": "G4",
          "ticks": 78480,
          "time": 70.07135849999972,
          "velocity": 0.6299212598425197,
          "string": 1,
          "fret": 3
        },
        {
          "duration": 0.213392643749998,
          "durationTicks": 239,
          "midi": 59,
          "name": "B3",
          "ticks": 78720,
          "time": 70.28564399999972,
          "velocity": 0.6299212598425197,
          "string": 2,
          "fret": 0
        },
        {
          "duration": 0.213392643749998,
          "durationTicks": 239,
          "midi": 55,
          "name": "G3",
          "ticks": 78960,
          "time": 70.49992949999972,
          "velocity": 0.6299212598425197,
          "string": 3,
          "fret": 0
        },
        {
          "duration": 0.213392643749998,
          "durationTicks": 239,
          "midi": 67,
          "name": "G4",
          "ticks": 79200,
          "time": 70.71421499999973,
          "velocity": 0.6299212598425197,
          "string": 1,
          "fret": 3
        },
        {
          "duration": 0.213392643749998,
          "durationTicks": 239,
          "midi": 59,
          "name": "B3",
          "ticks": 79440,
          "time": 70.92850049999973,
          "velocity": 0.6299212598425197,
          "string": 2,
          "fret": 0
        },
        {
          "duration": 0.213392643749998,
          "durationTicks": 239,
          "midi": 55,
          "name": "G3",
          "ticks": 79680,
          "time": 71.14278599999973,
          "velocity": 0.6299212598425197,
          "string": 3,
          "fret": 0
        },
        {
          "duration": 0.213392643749998,
          "durationTicks": 239,
          "midi": 67,
          "name": "G4",
          "ticks": 79920,
          "time": 71.35707149999973,
          "velocity": 0.6299212598425197,
          "string": 1,
          "fret": 3
        },
        {
          "duration": 0.213392643749998,
          "durationTicks": 239,
          "midi": 59,
          "name": "B3",
          "ticks": 80160,
          "time": 71.57135699999974,
          "velocity": 0.6299212598425197,
          "string": 2,
          "fret": 0
        },
        {
          "duration": 0.213392643749998,
          "durationTicks": 239,
          "midi": 55,
          "name": "G3",
          "ticks": 80400,
          "time": 71.78564249999974,
          "velocity": 0.6299212598425197,
          "string": 3,
          "fret": 0
        },
        {
          "duration": 0.213392643749998,
          "durationTicks": 239,
          "midi": 70,
          "name": "A#4",
          "ticks": 80640,
          "time": 71.99992799999974,
          "velocity": 0.6299212598425197,
          "string": 1,
          "fret": 6
        },
        {
          "duration": 2.5705331437500263,
          "durationTicks": 2879,
          "midi": 40,
          "name": "E2",
          "ticks": 80640,
          "time": 71.99992799999974,
          "velocity": 0.6299212598425197,
          "string": 6,
          "fret": 0
        },
        {
          "duration": 0.213392643749998,
          "durationTicks": 239,
          "midi": 59,
          "name": "B3",
          "ticks": 80880,
          "time": 72.21421349999974,
          "velocity": 0.6299212598425197,
          "string": 2,
          "fret": 0
        },
        {
          "duration": 0.213392643749998,
          "durationTicks": 239,
          "midi": 55,
          "name": "G3",
          "ticks": 81120,
          "time": 72.42849899999975,
          "velocity": 0.6299212598425197,
          "string": 3,
          "fret": 0
        },
        {
          "duration": 0.213392643749998,
          "durationTicks": 239,
          "midi": 69,
          "name": "A4",
          "ticks": 81360,
          "time": 72.64278449999975,
          "velocity": 0.6299212598425197,
          "string": 1,
          "fret": 5
        },
        {
          "duration": 0.213392643749998,
          "durationTicks": 239,
          "midi": 59,
          "name": "B3",
          "ticks": 81600,
          "time": 72.85706999999975,
          "velocity": 0.6299212598425197,
          "string": 2,
          "fret": 0
        },
        {
          "duration": 0.213392643749998,
          "durationTicks": 239,
          "midi": 55,
          "name": "G3",
          "ticks": 81840,
          "time": 73.07135549999975,
          "velocity": 0.6299212598425197,
          "string": 3,
          "fret": 0
        },
        {
          "duration": 0.213392643749998,
          "durationTicks": 239,
          "midi": 67,
          "name": "G4",
          "ticks": 82080,
          "time": 73.28564099999976,
          "velocity": 0.6299212598425197,
          "string": 1,
          "fret": 3
        },
        {
          "duration": 0.213392643749998,
          "durationTicks": 239,
          "midi": 59,
          "name": "B3",
          "ticks": 82320,
          "time": 73.49992649999976,
          "velocity": 0.6299212598425197,
          "string": 2,
          "fret": 0
        },
        {
          "duration": 0.213392643749998,
          "durationTicks": 239,
          "midi": 55,
          "name": "G3",
          "ticks": 82560,
          "time": 73.71421199999976,
          "velocity": 0.6299212598425197,
          "string": 3,
          "fret": 0
        },
        {
          "duration": 0.213392643749998,
          "durationTicks": 239,
          "midi": 64,
          "name": "E4",
          "ticks": 82800,
          "time": 73.92849749999976,
          "velocity": 0.6299212598425197,
          "string": 1,
          "fret": 0
        },
        {
          "duration": 0.213392643749998,
          "durationTicks": 239,
          "midi": 59,
          "name": "B3",
          "ticks": 83040,
          "time": 74.14278299999977,
          "velocity": 0.6299212598425197,
          "string": 2,
          "fret": 0
        },
        {
          "duration": 0.213392643749998,
          "durationTicks": 239,
          "midi": 62,
          "name": "D4",
          "ticks": 83280,
          "time": 74.35706849999977,
          "velocity": 0.6299212598425197,
          "string": 2,
          "fret": 3
        },
        {
          "duration": 0.213392643749998,
          "durationTicks": 239,
          "midi": 64,
          "name": "E4",
          "ticks": 83520,
          "time": 74.57135399999977,
          "velocity": 0.6299212598425197,
          "string": 1,
          "fret": 0
        },
        {
          "duration": 2.5705331437500263,
          "durationTicks": 2879,
          "midi": 40,
          "name": "E2",
          "ticks": 83520,
          "time": 74.57135399999977,
          "velocity": 0.6299212598425197,
          "string": 6,
          "fret": 0
        },
        {
          "duration": 0.213392643749998,
          "durationTicks": 239,
          "midi": 59,
          "name": "B3",
          "ticks": 83760,
          "time": 74.78563949999977,
          "velocity": 0.6299212598425197,
          "string": 2,
          "fret": 0
        },
        {
          "duration": 0.213392643749998,
          "durationTicks": 239,
          "midi": 55,
          "name": "G3",
          "ticks": 84000,
          "time": 74.99992499999978,
          "velocity": 0.6299212598425197,
          "string": 3,
          "fret": 0
        },
        {
          "duration": 0.213392643749998,
          "durationTicks": 239,
          "midi": 64,
          "name": "E4",
          "ticks": 84240,
          "time": 75.21421049999978,
          "velocity": 0.6299212598425197,
          "string": 1,
          "fret": 0
        },
        {
          "duration": 0.213392643749998,
          "durationTicks": 239,
          "midi": 59,
          "name": "B3",
          "ticks": 84480,
          "time": 75.42849599999978,
          "velocity": 0.6299212598425197,
          "string": 2,
          "fret": 0
        },
        {
          "duration": 0.213392643749998,
          "durationTicks": 239,
          "midi": 55,
          "name": "G3",
          "ticks": 84720,
          "time": 75.64278149999978,
          "velocity": 0.6299212598425197,
          "string": 3,
          "fret": 0
        },
        {
          "duration": 0.213392643749998,
          "durationTicks": 239,
          "midi": 64,
          "name": "E4",
          "ticks": 84960,
          "time": 75.85706699999979,
          "velocity": 0.6299212598425197,
          "string": 1,
          "fret": 0
        },
        {
          "duration": 0.213392643749998,
          "durationTicks": 239,
          "midi": 59,
          "name": "B3",
          "ticks": 85200,
          "time": 76.07135249999979,
          "velocity": 0.6299212598425197,
          "string": 2,
          "fret": 0
        },
        {
          "duration": 0.213392643749998,
          "durationTicks": 239,
          "midi": 55,
          "name": "G3",
          "ticks": 85440,
          "time": 76.28563799999979,
          "velocity": 0.6299212598425197,
          "string": 3,
          "fret": 0
        },
        {
          "duration": 0.213392643749998,
          "durationTicks": 239,
          "midi": 64,
          "name": "E4",
          "ticks": 85680,
          "time": 76.4999234999998,
          "velocity": 0.6299212598425197,
          "string": 1,
          "fret": 0
        },
        {
          "duration": 0.213392643749998,
          "durationTicks": 239,
          "midi": 59,
          "name": "B3",
          "ticks": 85920,
          "time": 76.7142089999998,
          "velocity": 0.6299212598425197,
          "string": 2,
          "fret": 0
        },
        {
          "duration": 0.213392643749998,
          "durationTicks": 239,
          "midi": 55,
          "name": "G3",
          "ticks": 86160,
          "time": 76.9284944999998,
          "velocity": 0.6299212598425197,
          "string": 3,
          "fret": 0
        },
        {
          "duration": 0.213392643749998,
          "durationTicks": 239,
          "midi": 70,
          "name": "A#4",
          "ticks": 86400,
          "time": 77.1427799999998,
          "velocity": 0.6299212598425197,
          "string": 1,
          "fret": 6
        },
        {
          "duration": 2.5705331437500263,
          "durationTicks": 2879,
          "midi": 40,
          "name": "E2",
          "ticks": 86400,
          "time": 77.1427799999998,
          "velocity": 0.6299212598425197,
          "string": 6,
          "fret": 0
        },
        {
          "duration": 0.213392643749998,
          "durationTicks": 239,
          "midi": 59,
          "name": "B3",
          "ticks": 86640,
          "time": 77.3570654999998,
          "velocity": 0.6299212598425197,
          "string": 2,
          "fret": 0
        },
        {
          "duration": 0.213392643749998,
          "durationTicks": 239,
          "midi": 55,
          "name": "G3",
          "ticks": 86880,
          "time": 77.57135099999981,
          "velocity": 0.6299212598425197,
          "string": 3,
          "fret": 0
        },
        {
          "duration": 0.213392643749998,
          "durationTicks": 239,
          "midi": 69,
          "name": "A4",
          "ticks": 87120,
          "time": 77.78563649999981,
          "velocity": 0.6299212598425197,
          "string": 1,
          "fret": 5
        },
        {
          "duration": 0.213392643749998,
          "durationTicks": 239,
          "midi": 59,
          "name": "B3",
          "ticks": 87360,
          "time": 77.99992199999981,
          "velocity": 0.6299212598425197,
          "string": 2,
          "fret": 0
        },
        {
          "duration": 0.213392643749998,
          "durationTicks": 239,
          "midi": 55,
          "name": "G3",
          "ticks": 87600,
          "time": 78.21420749999982,
          "velocity": 0.6299212598425197,
          "string": 3,
          "fret": 0
        },
        {
          "duration": 0.213392643749998,
          "durationTicks": 239,
          "midi": 67,
          "name": "G4",
          "ticks": 87840,
          "time": 78.42849299999982,
          "velocity": 0.6299212598425197,
          "string": 1,
          "fret": 3
        },
        {
          "duration": 0.213392643749998,
          "durationTicks": 239,
          "midi": 59,
          "name": "B3",
          "ticks": 88080,
          "time": 78.64277849999982,
          "velocity": 0.6299212598425197,
          "string": 2,
          "fret": 0
        },
        {
          "duration": 0.213392643749998,
          "durationTicks": 239,
          "midi": 55,
          "name": "G3",
          "ticks": 88320,
          "time": 78.85706399999982,
          "velocity": 0.6299212598425197,
          "string": 3,
          "fret": 0
        },
        {
          "duration": 0.213392643749998,
          "durationTicks": 239,
          "midi": 64,
          "name": "E4",
          "ticks": 88560,
          "time": 79.07134949999983,
          "velocity": 0.6299212598425197,
          "string": 1,
          "fret": 0
        },
        {
          "duration": 0.213392643749998,
          "durationTicks": 239,
          "midi": 59,
          "name": "B3",
          "ticks": 88800,
          "time": 79.28563499999983,
          "velocity": 0.6299212598425197,
          "string": 2,
          "fret": 0
        },
        {
          "duration": 0.213392643749998,
          "durationTicks": 239,
          "midi": 62,
          "name": "D4",
          "ticks": 89040,
          "time": 79.49992049999983,
          "velocity": 0.6299212598425197,
          "string": 2,
          "fret": 3
        },
        {
          "duration": 0.213392643749998,
          "durationTicks": 239,
          "midi": 64,
          "name": "E4",
          "ticks": 89280,
          "time": 79.71420599999983,
          "velocity": 0.6299212598425197,
          "string": 1,
          "fret": 0
        },
        {
          "duration": 2.5705331437500263,
          "durationTicks": 2879,
          "midi": 40,
          "name": "E2",
          "ticks": 89280,
          "time": 79.71420599999983,
          "velocity": 0.6299212598425197,
          "string": 6,
          "fret": 0
        },
        {
          "duration": 0.213392643749998,
          "durationTicks": 239,
          "midi": 59,
          "name": "B3",
          "ticks": 89520,
          "time": 79.92849149999984,
          "velocity": 0.6299212598425197,
          "string": 2,
          "fret": 0
        },
        {
          "duration": 0.213392643749998,
          "durationTicks": 239,
          "midi": 55,
          "name": "G3",
          "ticks": 89760,
          "time": 80.14277699999984,
          "velocity": 0.6299212598425197,
          "string": 3,
          "fret": 0
        },
        {
          "duration": 0.213392643749998,
          "durationTicks": 239,
          "midi": 64,
          "name": "E4",
          "ticks": 90000,
          "time": 80.35706249999984,
          "velocity": 0.6299212598425197,
          "string": 1,
          "fret": 0
        },
        {
          "duration": 0.213392643749998,
          "durationTicks": 239,
          "midi": 59,
          "name": "B3",
          "ticks": 90240,
          "time": 80.57134799999984,
          "velocity": 0.6299212598425197,
          "string": 2,
          "fret": 0
        },
        {
          "duration": 0.213392643749998,
          "durationTicks": 239,
          "midi": 55,
          "name": "G3",
          "ticks": 90480,
          "time": 80.78563349999985,
          "velocity": 0.6299212598425197,
          "string": 3,
          "fret": 0
        },
        {
          "duration": 0.213392643749998,
          "durationTicks": 239,
          "midi": 64,
          "name": "E4",
          "ticks": 90720,
          "time": 80.99991899999985,
          "velocity": 0.6299212598425197,
          "string": 1,
          "fret": 0
        },
        {
          "duration": 0.213392643749998,
          "durationTicks": 239,
          "midi": 59,
          "name": "B3",
          "ticks": 90960,
          "time": 81.21420449999985,
          "velocity": 0.6299212598425197,
          "string": 2,
          "fret": 0
        },
        {
          "duration": 0.213392643749998,
          "durationTicks": 239,
          "midi": 55,
          "name": "G3",
          "ticks": 91200,
          "time": 81.42848999999985,
          "velocity": 0.6299212598425197,
          "string": 3,
          "fret": 0
        },
        {
          "duration": 0.213392643749998,
          "durationTicks": 239,
          "midi": 64,
          "name": "E4",
          "ticks": 91440,
          "time": 81.64277549999986,
          "velocity": 0.6299212598425197,
          "string": 1,
          "fret": 0
        },
        {
          "duration": 0.213392643749998,
          "durationTicks": 239,
          "midi": 59,
          "name": "B3",
          "ticks": 91680,
          "time": 81.85706099999986,
          "velocity": 0.6299212598425197,
          "string": 2,
          "fret": 0
        },
        {
          "duration": 0.213392643749998,
          "durationTicks": 239,
          "midi": 55,
          "name": "G3",
          "ticks": 91920,
          "time": 82.07134649999986,
          "velocity": 0.6299212598425197,
          "string": 3,
          "fret": 0
        },
        {
          "duration": 0.213392643749998,
          "durationTicks": 239,
          "midi": 70,
          "name": "A#4",
          "ticks": 92160,
          "time": 82.28563199999986,
          "velocity": 0.6299212598425197,
          "string": 1,
          "fret": 6
        },
        {
          "duration": 2.570533143750012,
          "durationTicks": 2879,
          "midi": 40,
          "name": "E2",
          "ticks": 92160,
          "time": 82.28563199999986,
          "velocity": 0.6299212598425197,
          "string": 6,
          "fret": 0
        },
        {
          "duration": 0.213392643749998,
          "durationTicks": 239,
          "midi": 59,
          "name": "B3",
          "ticks": 92400,
          "time": 82.49991749999987,
          "velocity": 0.6299212598425197,
          "string": 2,
          "fret": 0
        },
        {
          "duration": 0.213392643749998,
          "durationTicks": 239,
          "midi": 55,
          "name": "G3",
          "ticks": 92640,
          "time": 82.71420299999987,
          "velocity": 0.6299212598425197,
          "string": 3,
          "fret": 0
        },
        {
          "duration": 0.213392643749998,
          "durationTicks": 239,
          "midi": 69,
          "name": "A4",
          "ticks": 92880,
          "time": 82.92848849999987,
          "velocity": 0.6299212598425197,
          "string": 1,
          "fret": 5
        },
        {
          "duration": 0.213392643749998,
          "durationTicks": 239,
          "midi": 59,
          "name": "B3",
          "ticks": 93120,
          "time": 83.14277399999987,
          "velocity": 0.6299212598425197,
          "string": 2,
          "fret": 0
        },
        {
          "duration": 0.213392643749998,
          "durationTicks": 239,
          "midi": 55,
          "name": "G3",
          "ticks": 93360,
          "time": 83.35705949999988,
          "velocity": 0.6299212598425197,
          "string": 3,
          "fret": 0
        },
        {
          "duration": 1.2848201437499966,
          "durationTicks": 1439,
          "midi": 67,
          "name": "G4",
          "ticks": 93600,
          "time": 83.57134499999988,
          "velocity": 0.6299212598425197,
          "string": 1,
          "fret": 3
        },
        {
          "duration": 0.4276781437500006,
          "durationTicks": 479,
          "midi": 47,
          "name": "B2",
          "ticks": 95040,
          "time": 84.85705799999988,
          "velocity": 0.6299212598425197,
          "string": 5,
          "fret": 2
        },
        {
          "duration": 0.4276781437500006,
          "durationTicks": 479,
          "midi": 52,
          "name": "E3",
          "ticks": 95040,
          "time": 84.85705799999988,
          "velocity": 0.6299212598425197,
          "string": 4,
          "fret": 2
        },
        {
          "duration": 0.4276781437500006,
          "durationTicks": 479,
          "midi": 55,
          "name": "G3",
          "ticks": 95040,
          "time": 84.85705799999988,
          "velocity": 0.6299212598425197,
          "string": 3,
          "fret": 0
        },
        {
          "duration": 0.4276781437500006,
          "durationTicks": 479,
          "midi": 59,
          "name": "B3",
          "ticks": 95040,
          "time": 84.85705799999988,
          "velocity": 0.6299212598425197,
          "string": 2,
          "fret": 0
        },
        {
          "duration": 0.4276781437500006,
          "durationTicks": 479,
          "midi": 64,
          "name": "E4",
          "ticks": 95040,
          "time": 84.85705799999988,
          "velocity": 0.6299212598425197,
          "string": 1,
          "fret": 0
        },
        {
          "duration": 0.42857100000000514,
          "durationTicks": 480,
          "midi": 40,
          "name": "E2",
          "ticks": 95040,
          "time": 84.85705799999988,
          "velocity": 0.6299212598425197,
          "string": 6,
          "fret": 0
        },
        {
          "duration": 0.0,
          "durationTicks": 0,
          "midi": 40,
          "name": "E2",
          "ticks": 95520,
          "time": 85.28562899999989,
          "velocity": 0.6299212598425197,
          "string": 6,
          "fret": 0
        },
        {
          "duration": 0.213392643749998,
          "durationTicks": 239,
          "midi": 47,
          "name": "B2",
          "ticks": 95520,
          "time": 85.28562899999989,
          "velocity": 0.6299212598425197,
          "string": 5,
          "fret": 2
        },
        {
          "duration": 0.213392643749998,
          "durationTicks": 239,
          "midi": 52,
          "name": "E3",
          "ticks": 95520,
          "time": 85.28562899999989,
          "velocity": 0.6299212598425197,
          "string": 4,
          "fret": 2
        },
        {
          "duration": 0.213392643749998,
          "durationTicks": 239,
          "midi": 55,
          "name": "G3",
          "ticks": 95520,
          "time": 85.28562899999989,
          "velocity": 0.6299212598425197,
          "string": 3,
          "fret": 0
        },
        {
          "duration": 0.213392643749998,
          "durationTicks": 239,
          "midi": 59,
          "name": "B3",
          "ticks": 95520,
          "time": 85.28562899999989,
          "velocity": 0.6299212598425197,
          "string": 2,
          "fret": 0
        },
        {
          "duration": 0.213392643749998,
          "durationTicks": 239,
          "midi": 64,
          "name": "E4",
          "ticks": 95520,
          "time": 85.28562899999989,
          "velocity": 0.6299212598425197,
          "string": 1,
          "fret": 0
        },
        {
          "duration": 0.0,
          "durationTicks": 0,
          "midi": 40,
          "name": "E2",
          "ticks": 95760,
          "time": 85.49991449999989,
          "velocity": 0.6299212598425197,
          "string": 6,
          "fret": 0
        },
        {
          "duration": 0.213392643749998,
          "durationTicks": 239,
          "midi": 47,
          "name": "B2",
          "ticks": 95760,
          "time": 85.49991449999989,
          "velocity": 0.6299212598425197,
          "string": 5,
          "fret": 2
        },
        {
          "duration": 0.213392643749998,
          "durationTicks": 239,
          "midi": 52,
          "name": "E3",
          "ticks": 95760,
          "time": 85.49991449999989,
          "velocity": 0.6299212598425197,
          "string": 4,
          "fret": 2
        },
        {
          "duration": 0.213392643749998,
          "durationTicks": 239,
          "midi": 55,
          "name": "G3",
          "ticks": 95760,
          "time": 85.49991449999989,
          "velocity": 0.6299212598425197,
          "string": 3,
          "fret": 0
        },
        {
          "duration": 0.213392643749998,
          "durationTicks": 239,
          "midi": 59,
          "name": "B3",
          "ticks": 95760,
          "time": 85.49991449999989,
          "velocity": 0.6299212598425197,
          "string": 2,
          "fret": 0
        },
        {
          "duration": 0.213392643749998,
          "durationTicks": 239,
          "midi": 64,
          "name": "E4",
          "ticks": 95760,
          "time": 85.49991449999989,
          "velocity": 0.6299212598425197,
          "string": 1,
          "fret": 0
        },
        {
          "duration": 0.0,
          "durationTicks": 0,
          "midi": 40,
          "name": "E2",
          "ticks": 96000,
          "time": 85.71419999999989,
          "velocity": 0.6299212598425197,
          "string": 6,
          "fret": 0
        },
        {
          "duration": 0.213392643749998,
          "durationTicks": 239,
          "midi": 47,
          "name": "B2",
          "ticks": 96000,
          "time": 85.71419999999989,
          "velocity": 0.6299212598425197,
          "string": 5,
          "fret": 2
        },
        {
          "duration": 0.213392643749998,
          "durationTicks": 239,
          "midi": 52,
          "name": "E3",
          "ticks": 96000,
          "time": 85.71419999999989,
          "velocity": 0.6299212598425197,
          "string": 4,
          "fret": 2
        },
        {
          "duration": 0.213392643749998,
          "durationTicks": 239,
          "midi": 55,
          "name": "G3",
          "ticks": 96000,
          "time": 85.71419999999989,
          "velocity": 0.6299212598425197,
          "string": 3,
          "fret": 0
        },
        {
          "duration": 0.213392643749998,
          "durationTicks": 239,
          "midi": 59,
          "name": "B3",
          "ticks": 96000,
          "time": 85.71419999999989,
          "velocity": 0.6299212598425197,
          "string": 2,
          "fret": 0
        },
        {
          "duration": 0.213392643749998,
          "durationTicks": 239,
          "midi": 64,
          "name": "E4",
          "ticks": 96000,
          "time": 85.71419999999989,
          "velocity": 0.6299212598425197,
          "string": 1,
          "fret": 0
        },
        {
          "duration": 0.0,
          "durationTicks": 0,
          "midi": 40,
          "name": "E2",
          "ticks": 96240,
          "time": 85.9284854999999,
          "velocity": 0.6299212598425197,
          "string": 6,
          "fret": 0
        },
        {
          "duration": 0.213392643749998,
          "durationTicks": 239,
          "midi": 47,
          "name": "B2",
          "ticks": 96240,
          "time": 85.9284854999999,
          "velocity": 0.6299212598425197,
          "string": 5,
          "fret": 2
        },
        {
          "duration": 0.213392643749998,
          "durationTicks": 239,
          "midi": 52,
          "name": "E3",
          "ticks": 96240,
          "time": 85.9284854999999,
          "velocity": 0.6299212598425197,
          "string": 4,
          "fret": 2
        },
        {
          "duration": 0.213392643749998,
          "durationTicks": 239,
          "midi": 55,
          "name": "G3",
          "ticks": 96240,
          "time": 85.9284854999999,
          "velocity": 0.6299212598425197,
          "string": 3,
          "fret": 0
        },
        {
          "duration": 0.213392643749998,
          "durationTicks": 239,
          "midi": 59,
          "name": "B3",
          "ticks": 96240,
          "time": 85.9284854999999,
          "velocity": 0.6299212598425197,
          "string": 2,
          "fret": 0
        },
        {
          "duration": 0.213392643749998,
          "durationTicks": 239,
          "midi": 64,
          "name": "E4",
          "ticks": 96240,
          "time": 85.9284854999999,
          "velocity": 0.6299212598425197,
          "string": 1,
          "fret": 0
        },
        {
          "duration": 0.0,
          "durationTicks": 0,
          "midi": 40,
          "name": "E2",
          "ticks": 96480,
          "time": 86.1427709999999,
          "velocity": 0.6299212598425197,
          "string": 6,
          "fret": 0
        },
        {
          "duration": 0.4276781437500006,
          "durationTicks": 479,
          "midi": 47,
          "name": "B2",
          "ticks": 96480,
          "time": 86.1427709999999,
          "velocity": 0.6299212598425197,
          "string": 5,
          "fret": 2
        },
        {
          "duration": 0.4276781437500006,
          "durationTicks": 479,
          "midi": 52,
          "name": "E3",
          "ticks": 96480,
          "time": 86.1427709999999,
          "velocity": 0.6299212598425197,
          "string": 4,
          "fret": 2
        },
        {
          "duration": 0.4276781437500006,
          "durationTicks": 479,
          "midi": 55,
          "name": "G3",
          "ticks": 96480,
          "time": 86.1427709999999,
          "velocity": 0.6299212598425197,
          "string": 3,
          "fret": 0
        },
        {
          "duration": 0.4276781437500006,
          "durationTicks": 479,
          "midi": 59,
          "name": "B3",
          "ticks": 96480,
          "time": 86.1427709999999,
          "velocity": 0.6299212598425197,
          "string": 2,
          "fret": 0
        },
        {
          "duration": 0.4276781437500006,
          "durationTicks": 479,
          "midi": 64,
          "name": "E4",
          "ticks": 96480,
          "time": 86.1427709999999,
          "velocity": 0.6299212598425197,
          "string": 1,
          "fret": 0
        },
        {
          "duration": 0.0,
          "durationTicks": 0,
          "midi": 40,
          "name": "E2",
          "ticks": 96960,
          "time": 86.5713419999999,
          "velocity": 0.6299212598425197,
          "string": 6,
          "fret": 0
        },
        {
          "duration": 0.213392643749998,
          "durationTicks": 239,
          "midi": 47,
          "name": "B2",
          "ticks": 96960,
          "time": 86.5713419999999,
          "velocity": 0.6299212598425197,
          "string": 5,
          "fret": 2
        },
        {
          "duration": 0.213392643749998,
          "durationTicks": 239,
          "midi": 52,
          "name": "E3",
          "ticks": 96960,
          "time": 86.5713419999999,
          "velocity": 0.6299212598425197,
          "string": 4,
          "fret": 2
        },
        {
          "duration": 0.213392643749998,
          "durationTicks": 239,
          "midi": 55,
          "name": "G3",
          "ticks": 96960,
          "time": 86.5713419999999,
          "velocity": 0.6299212598425197,
          "string": 3,
          "fret": 0
        },
        {
          "duration": 0.213392643749998,
          "durationTicks": 239,
          "midi": 59,
          "name": "B3",
          "ticks": 96960,
          "time": 86.5713419999999,
          "velocity": 0.6299212598425197,
          "string": 2,
          "fret": 0
        },
        {
          "duration": 0.213392643749998,
          "durationTicks": 239,
          "midi": 64,
          "name": "E4",
          "ticks": 96960,
          "time": 86.5713419999999,
          "velocity": 0.6299212598425197,
          "string": 1,
          "fret": 0
        },
        {
          "duration": 0.0,
          "durationTicks": 0,
          "midi": 40,
          "name": "E2",
          "ticks": 97200,
          "time": 86.7856274999999,
          "velocity": 0.6299212598425197,
          "string": 6,
          "fret": 0
        },
        {
          "duration": 0.213392643749998,
          "durationTicks": 239,
          "midi": 47,
          "name": "B2",
          "ticks": 97200,
          "time": 86.7856274999999,
          "velocity": 0.6299212598425197,
          "string": 5,
          "fret": 2
        },
        {
          "duration": 0.213392643749998,
          "durationTicks": 239,
          "midi": 52,
          "name": "E3",
          "ticks": 97200,
          "time": 86.7856274999999,
          "velocity": 0.6299212598425197,
          "string": 4,
          "fret": 2
        },
        {
          "duration": 0.213392643749998,
          "durationTicks": 239,
          "midi": 55,
          "name": "G3",
          "ticks": 97200,
          "time": 86.7856274999999,
          "velocity": 0.6299212598425197,
          "string": 3,
          "fret": 0
        },
        {
          "duration": 0.213392643749998,
          "durationTicks": 239,
          "midi": 59,
          "name": "B3",
          "ticks": 97200,
          "time": 86.7856274999999,
          "velocity": 0.6299212598425197,
          "string": 2,
          "fret": 0
        },
        {
          "duration": 0.213392643749998,
          "durationTicks": 239,
          "midi": 64,
          "name": "E4",
          "ticks": 97200,
          "time": 86.7856274999999,
          "velocity": 0.6299212598425197,
          "string": 1,
          "fret": 0
        },
        {
          "duration": 0.0,
          "durationTicks": 0,
          "midi": 40,
          "name": "E2",
          "ticks": 97440,
          "time": 86.9999129999999,
          "velocity": 0.6299212598425197,
          "string": 6,
          "fret": 0
        },
        {
          "duration": 0.213392643749998,
          "durationTicks": 239,
          "midi": 47,
          "name": "B2",
          "ticks": 97440,
          "time": 86.9999129999999,
          "velocity": 0.6299212598425197,
          "string": 5,
          "fret": 2
        },
        {
          "duration": 0.213392643749998,
          "durationTicks": 239,
          "midi": 52,
          "name": "E3",
          "ticks": 97440,
          "time": 86.9999129999999,
          "velocity": 0.6299212598425197,
          "string": 4,
          "fret": 2
        },
        {
          "duration": 0.213392643749998,
          "durationTicks": 239,
          "midi": 55,
          "name": "G3",
          "ticks": 97440,
          "time": 86.9999129999999,
          "velocity": 0.6299212598425197,
          "string": 3,
          "fret": 0
        },
        {
          "duration": 0.213392643749998,
          "durationTicks": 239,
          "midi": 59,
          "name": "B3",
          "ticks": 97440,
          "time": 86.9999129999999,
          "velocity": 0.6299212598425197,
          "string": 2,
          "fret": 0
        },
        {
          "duration": 0.213392643749998,
          "durationTicks": 239,
          "midi": 64,
          "name": "E4",
          "ticks": 97440,
          "time": 86.9999129999999,
          "velocity": 0.6299212598425197,
          "string": 1,
          "fret": 0
        },
        {
          "duration": 0.0,
          "durationTicks": 0,
          "midi": 40,
          "name": "E2",
          "ticks": 97680,
          "time": 87.21419849999991,
          "velocity": 0.6299212598425197,
          "string": 6,
          "fret": 0
        },
        {
          "duration": 0.213392643749998,
          "durationTicks": 239,
          "midi": 47,
          "name": "B2",
          "ticks": 97680,
          "time": 87.21419849999991,
          "velocity": 0.6299212598425197,
          "string": 5,
          "fret": 2
        },
        {
          "duration": 0.213392643749998,
          "durationTicks": 239,
          "midi": 52,
          "name": "E3",
          "ticks": 97680,
          "time": 87.21419849999991,
          "velocity": 0.6299212598425197,
          "string": 4,
          "fret": 2
        },
        {
          "duration": 0.213392643749998,
          "durationTicks": 239,
          "midi": 55,
          "name": "G3",
          "ticks": 97680,
          "time": 87.21419849999991,
          "velocity": 0.6299212598425197,
          "string": 3,
          "fret": 0
        },
        {
          "duration": 0.213392643749998,
          "durationTicks": 239,
          "midi": 59,
          "name": "B3",
          "ticks": 97680,
          "time": 87.21419849999991,
          "velocity": 0.6299212598425197,
          "string": 2,
          "fret": 0
        },
        {
          "duration": 0.213392643749998,
          "durationTicks": 239,
          "midi": 64,
          "name": "E4",
          "ticks": 97680,
          "time": 87.21419849999991,
          "velocity": 0.6299212598425197,
          "string": 1,
          "fret": 0
        },
        {
          "duration": 2.570533143749998,
          "durationTicks": 2879,
          "midi": 40,
          "name": "E2",
          "ticks": 97920,
          "time": 87.42848399999991,
          "velocity": 0.6299212598425197,
          "string": 6,
          "fret": 0
        },
        {
          "duration": 2.570533143749998,
          "durationTicks": 2879,
          "midi": 47,
          "name": "B2",
          "ticks": 97920,
          "time": 87.42848399999991,
          "velocity": 0.6299212598425197,
          "string": 5,
          "fret": 2
        },
        {
          "duration": 2.570533143749998,
          "durationTicks": 2879,
          "midi": 52,
          "name": "E3",
          "ticks": 97920,
          "time": 87.42848399999991,
          "velocity": 0.6299212598425197,
          "string": 4,
          "fret": 2
        },
        {
          "duration": 2.570533143749998,
          "durationTicks": 2879,
          "midi": 55,
          "name": "G3",
          "ticks": 97920,
          "time": 87.42848399999991,
          "velocity": 0.6299212598425197,
          "string": 3,
          "fret": 0
        },
        {
          "duration": 2.570533143749998,
          "durationTicks": 2879,
          "midi": 59,
          "name": "B3",
          "ticks": 97920,
          "time": 87.42848399999991,
          "velocity": 0.6299212598425197,
          "string": 2,
          "fret": 0
        },
        {
          "duration": 2.570533143749998,
          "durationTicks": 2879,
          "midi": 64,
          "name": "E4",
          "ticks": 97920,
          "time": 87.42848399999991,
          "velocity": 0.6299212598425197,
          "string": 1,
          "fret": 0
        }
      ]
    }
  ]
}