<svg width="1264" height="592" viewBox="0 0 1264 592" fill="none" xmlns="http://www.w3.org/2000/svg">
<g filter="url(#filter0_d_16_690)">
<path d="M552.57 485.853C534.505 485.853 517.309 480.15 501.703 469.854C472.625 450.668 435.194 454.835 410.867 480.339C353.203 540.803 272.632 577.065 198.429 577.065C67.1755 577.065 17.6294 463.629 14.7382 303.432H14.6001C14.6001 300.888 14.6102 298.355 14.6338 295.832C14.6135 293.31 14.6001 290.777 14.6001 288.233H14.7382C17.6294 128.036 67.1755 14.6 198.429 14.6C272.632 14.6 353.203 50.8617 410.871 111.333C435.197 136.837 472.625 141.008 501.707 121.818C517.312 111.522 534.508 105.819 552.574 105.819C660.747 105.819 678.109 168.178 680.899 221.128C680.899 221.128 1252.44 233.749 1285.59 233.749C1318.74 233.749 1331.24 249.702 1331.24 302.138C1331.24 354.574 1323.24 370.542 1285.6 370.542H680.896C678.105 423.492 660.744 485.853 552.57 485.853Z" stroke="url(#paint0_linear_16_690)" stroke-miterlimit="10" stroke-linecap="round" stroke-linejoin="round" shape-rendering="crispEdges"/>
</g>
<defs>
<filter id="filter0_d_16_690" x="9.72748e-05" y="0" width="1345.84" height="591.665" filterUnits="userSpaceOnUse" color-interpolation-filters="sRGB">
<feFlood flood-opacity="0" result="BackgroundImageFix"/>
<feColorMatrix in="SourceAlpha" type="matrix" values="0 0 0 0 0 0 0 0 0 0 0 0 0 0 0 0 0 0 127 0" result="hardAlpha"/>
<feOffset/>
<feGaussianBlur stdDeviation="7.05"/>
<feComposite in2="hardAlpha" operator="out"/>
<feColorMatrix type="matrix" values="0 0 0 0 1 0 0 0 0 1 0 0 0 0 1 0 0 0 0.23 0"/>
<feBlend mode="normal" in2="BackgroundImageFix" result="effect1_dropShadow_16_690"/>
<feBlend mode="normal" in="SourceGraphic" in2="effect1_dropShadow_16_690" result="shape"/>
</filter>
<linearGradient id="paint0_linear_16_690" x1="-37.3998" y1="295.6" x2="972.1" y2="295.6" gradientUnits="userSpaceOnUse">
<stop stop-color="white"/>
<stop offset="1" stop-opacity="0"/>
</linearGradient>
</defs>
</svg>
