<svg width="317" height="70" viewBox="0 0 317 70" fill="none" xmlns="http://www.w3.org/2000/svg">
<g filter="url(#filter0_i_15_681)">
<rect id="selector-pill" x="4" y="4" width="261.458" height="57.6093" rx="28.8047" fill="#343434"/>
</g>
<rect x="2" y="2" width="265.458" height="61.6093" rx="30.8047" stroke="url(#paint0_radial_15_681)" stroke-width="4"/>
<rect x="6" y="6" width="257.458" height="53.6093" rx="26.8047" stroke="url(#paint1_radial_15_681)" stroke-width="4"/>
<g id="selector-label-group" filter="url(#filter1_di_15_681)">
<path d="M40.2829 42.324C38.8789 42.324 37.6999 41.982 36.7459 41.298C35.8099 40.614 35.1079 39.624 34.6399 38.328C34.1719 37.032 33.9379 35.448 33.9379 33.576C33.9379 31.74 34.1719 30.183 34.6399 28.905C35.1079 27.609 35.8099 26.619 36.7459 25.935C37.6999 25.251 38.8789 24.909 40.2829 24.909C41.6869 24.909 42.8569 25.251 43.7929 25.935C44.7469 26.619 45.4579 27.609 45.9259 28.905C46.4119 30.183 46.6549 31.74 46.6549 33.576C46.6549 35.448 46.4119 37.041 45.9259 38.355C45.4579 39.651 44.7469 40.641 43.7929 41.325C42.8569 41.991 41.6869 42.324 40.2829 42.324ZM40.2829 39.57C40.9129 39.57 41.4439 39.354 41.8759 38.922C42.3079 38.49 42.6499 37.833 42.9019 36.951C43.1539 36.051 43.2799 34.908 43.2799 33.522C43.2799 32.244 43.1539 31.173 42.9019 30.309C42.6499 29.427 42.3079 28.761 41.8759 28.311C41.4439 27.861 40.9129 27.636 40.2829 27.636C39.6529 27.636 39.1129 27.861 38.6629 28.311C38.2309 28.761 37.8979 29.427 37.6639 30.309C37.4299 31.173 37.3129 32.244 37.3129 33.522C37.3129 34.908 37.4299 36.051 37.6639 36.951C37.8979 37.833 38.2309 38.49 38.6629 38.922C39.1129 39.354 39.6529 39.57 40.2829 39.57ZM47.8429 25.179H51.4879L56.7529 35.79L56.5369 25.179H59.5609H59.8039V25.449C59.7139 25.557 59.6509 25.674 59.6149 25.8C59.5969 25.926 59.5879 26.142 59.5879 26.448V42H56.3209L50.9209 30.687V42H47.8429V25.179ZM61.8019 42V25.179H72.9529V27.933H65.1499V31.875H71.5489V34.629H65.1499V39.246H72.8989V42H61.8019ZM94.2829 42.324C92.8789 42.324 91.6999 41.982 90.7459 41.298C89.8099 40.614 89.1079 39.624 88.6399 38.328C88.1719 37.032 87.9379 35.448 87.9379 33.576C87.9379 31.74 88.1719 30.183 88.6399 28.905C89.1079 27.609 89.8099 26.619 90.7459 25.935C91.6999 25.251 92.8789 24.909 94.2829 24.909C95.6869 24.909 96.8569 25.251 97.7929 25.935C98.7469 26.619 99.4579 27.609 99.9259 28.905C100.412 30.183 100.655 31.74 100.655 33.576C100.655 35.448 100.412 37.041 99.9259 38.355C99.4579 39.651 98.7469 40.641 97.7929 41.325C96.8569 41.991 95.6869 42.324 94.2829 42.324ZM94.2829 39.57C94.9129 39.57 95.4439 39.354 95.8759 38.922C96.3079 38.49 96.6499 37.833 96.9019 36.951C97.1539 36.051 97.2799 34.908 97.2799 33.522C97.2799 32.244 97.1539 31.173 96.9019 30.309C96.6499 29.427 96.3079 28.761 95.8759 28.311C95.4439 27.861 94.9129 27.636 94.2829 27.636C93.6529 27.636 93.1129 27.861 92.6629 28.311C92.2309 28.761 91.8979 29.427 91.6639 30.309C91.4299 31.173 91.3129 32.244 91.3129 33.522C91.3129 34.908 91.4299 36.051 91.6639 36.951C91.8979 37.833 92.2309 38.49 92.6629 38.922C93.1129 39.354 93.6529 39.57 94.2829 39.57ZM102.167 42V25.179H108.026C109.34 25.179 110.42 25.404 111.266 25.854C112.13 26.304 112.769 26.907 113.183 27.663C113.615 28.419 113.831 29.256 113.831 30.174C113.831 30.84 113.714 31.47 113.48 32.064C113.246 32.658 112.895 33.18 112.427 33.63C111.959 34.08 111.365 34.431 110.645 34.683C109.943 34.935 109.115 35.061 108.161 35.061H105.65V42H102.167ZM105.65 32.253H107.945C108.431 32.253 108.845 32.163 109.187 31.983C109.547 31.803 109.826 31.56 110.024 31.254C110.222 30.93 110.321 30.561 110.321 30.147C110.321 29.733 110.222 29.373 110.024 29.067C109.826 28.761 109.556 28.527 109.214 28.365C108.872 28.185 108.458 28.095 107.972 28.095H105.65V32.253ZM115.802 42V25.179H126.953V27.933H119.15V31.875H125.549V34.629H119.15V39.246H126.899V42H115.802ZM128.843 25.179H132.488L137.753 35.79L137.537 25.179H140.561H140.804V25.449C140.714 25.557 140.651 25.674 140.615 25.8C140.597 25.926 140.588 26.142 140.588 26.448V42H137.321L131.921 30.687V42H128.843V25.179ZM161.486 42.324C160.352 42.324 159.272 42.162 158.246 41.838C157.238 41.514 156.41 41.01 155.762 40.326L157.409 37.545L157.544 37.329L157.814 37.491C157.85 37.617 157.895 37.752 157.949 37.896C158.003 38.022 158.147 38.184 158.381 38.382C158.813 38.688 159.29 38.949 159.812 39.165C160.352 39.363 160.919 39.471 161.513 39.489C161.909 39.489 162.269 39.453 162.593 39.381C162.917 39.309 163.196 39.201 163.43 39.057C163.664 38.895 163.844 38.688 163.97 38.436C164.096 38.184 164.159 37.887 164.159 37.545C164.159 37.365 164.132 37.185 164.078 37.005C164.042 36.807 163.961 36.618 163.835 36.438C163.727 36.258 163.547 36.078 163.295 35.898C163.061 35.7 162.764 35.493 162.404 35.277C162.044 35.061 161.594 34.836 161.054 34.602C159.884 34.062 158.957 33.54 158.273 33.036C157.607 32.514 157.13 31.956 156.842 31.362C156.554 30.75 156.41 30.048 156.41 29.256C156.41 28.428 156.644 27.69 157.112 27.042C157.598 26.376 158.255 25.854 159.083 25.476C159.911 25.08 160.838 24.882 161.864 24.882C162.602 24.882 163.277 24.963 163.889 25.125C164.519 25.287 165.104 25.53 165.644 25.854C166.184 26.178 166.679 26.583 167.129 27.069L165.077 29.337L164.915 29.526L164.699 29.337C164.681 29.193 164.654 29.058 164.618 28.932C164.582 28.788 164.465 28.608 164.267 28.392C163.943 28.104 163.601 27.915 163.241 27.825C162.881 27.717 162.467 27.663 161.999 27.663C161.657 27.663 161.351 27.708 161.081 27.798C160.811 27.87 160.577 27.978 160.379 28.122C160.181 28.248 160.028 28.401 159.92 28.581C159.83 28.761 159.785 28.95 159.785 29.148C159.785 29.328 159.803 29.499 159.839 29.661C159.875 29.823 159.956 29.985 160.082 30.147C160.208 30.309 160.388 30.48 160.622 30.66C160.874 30.822 161.189 31.011 161.567 31.227C161.963 31.443 162.458 31.686 163.052 31.956C163.898 32.37 164.609 32.775 165.185 33.171C165.779 33.549 166.247 33.945 166.589 34.359C166.949 34.755 167.201 35.205 167.345 35.709C167.489 36.195 167.561 36.744 167.561 37.356C167.561 38.202 167.345 39.003 166.913 39.759C166.499 40.497 165.842 41.109 164.942 41.595C164.042 42.081 162.89 42.324 161.486 42.324ZM173.474 42V28.041H169.046V25.179H181.439V28.041H176.741V42H173.474ZM183.086 42V25.179H188.54C189.926 25.179 191.06 25.386 191.942 25.8C192.842 26.214 193.508 26.799 193.94 27.555C194.372 28.293 194.588 29.157 194.588 30.147C194.588 30.777 194.462 31.398 194.21 32.01C193.958 32.604 193.598 33.153 193.13 33.657C192.68 34.143 192.14 34.512 191.51 34.764L195.047 42H191.483L188.162 35.169H186.569V42H183.086ZM186.569 32.334H188.729C189.485 32.334 190.061 32.154 190.457 31.794C190.871 31.416 191.078 30.903 191.078 30.255C191.078 29.859 190.988 29.499 190.808 29.175C190.628 28.851 190.367 28.59 190.025 28.392C189.683 28.194 189.251 28.095 188.729 28.095H186.569V32.334ZM197.288 42V39.246H200.555V27.933H197.45V25.179H207.062V27.933H203.795V39.246H207.197V42H197.288ZM209.843 25.179H213.488L218.753 35.79L218.537 25.179H221.561H221.804V25.449C221.714 25.557 221.651 25.674 221.615 25.8C221.597 25.926 221.588 26.142 221.588 26.448V42H218.321L212.921 30.687V42H209.843V25.179ZM229.931 42.324C228.509 42.324 227.276 41.964 226.232 41.244C225.206 40.506 224.423 39.489 223.883 38.193C223.343 36.879 223.073 35.358 223.073 33.63C223.055 32.19 223.199 30.975 223.505 29.985C223.829 28.977 224.243 28.14 224.747 27.474C225.251 26.808 225.809 26.286 226.421 25.908C227.033 25.53 227.645 25.269 228.257 25.125C228.869 24.963 229.427 24.882 229.931 24.882C230.669 24.882 231.38 24.999 232.064 25.233C232.766 25.449 233.396 25.782 233.954 26.232C234.512 26.664 234.971 27.204 235.331 27.852L233.387 29.85L233.225 30.039L233.009 29.823C232.991 29.679 232.964 29.544 232.928 29.418C232.892 29.274 232.784 29.085 232.604 28.851C232.424 28.635 232.217 28.446 231.983 28.284C231.749 28.104 231.47 27.96 231.146 27.852C230.84 27.744 230.462 27.69 230.012 27.69C229.652 27.69 229.292 27.762 228.932 27.906C228.59 28.032 228.266 28.239 227.96 28.527C227.672 28.797 227.411 29.157 227.177 29.607C226.943 30.057 226.763 30.597 226.637 31.227C226.511 31.839 226.448 32.559 226.448 33.387C226.448 34.449 226.538 35.367 226.718 36.141C226.898 36.897 227.132 37.536 227.42 38.058C227.726 38.562 228.095 38.94 228.527 39.192C228.959 39.444 229.427 39.57 229.931 39.57C230.147 39.57 230.354 39.552 230.552 39.516C230.75 39.48 230.948 39.444 231.146 39.408C231.344 39.354 231.533 39.273 231.713 39.165C231.911 39.057 232.1 38.931 232.28 38.787V35.952H229.607V33.144H235.358V40.569C234.548 41.217 233.684 41.676 232.766 41.946C231.848 42.198 230.903 42.324 229.931 42.324Z" fill="#E7A85D"/>
</g>
<path id="selector-prev" d="M290.274 22.6122L298.234 5.89601C298.596 5.13592 299.678 5.13592 300.04 5.89601L308 22.6122" stroke="url(#paint2_radial_15_681)" stroke-opacity="0.33" stroke-width="4" stroke-linecap="round"/>
<g id="selector-next-group" filter="url(#filter2_d_15_681)">
<path id="selector-next" d="M308 42.9971L300.04 59.7133C299.678 60.4734 298.596 60.4734 298.234 59.7133L290.274 42.9971" stroke="url(#paint3_radial_15_681)" stroke-width="4" stroke-linecap="round"/>
</g>
<defs>
<filter id="filter0_i_15_681" x="0" y="0" width="269.458" height="65.6093" filterUnits="userSpaceOnUse" color-interpolation-filters="sRGB">
<feFlood flood-opacity="0" result="BackgroundImageFix"/>
<feBlend mode="normal" in="SourceGraphic" in2="BackgroundImageFix" result="shape"/>
<feColorMatrix in="SourceAlpha" type="matrix" values="0 0 0 0 0 0 0 0 0 0 0 0 0 0 0 0 0 0 127 0" result="hardAlpha"/>
<feOffset/>
<feGaussianBlur stdDeviation="11.65"/>
<feComposite in2="hardAlpha" operator="arithmetic" k2="-1" k3="1"/>
<feColorMatrix type="matrix" values="0 0 0 0 0 0 0 0 0 0 0 0 0 0 0 0 0 0 0.7 0"/>
<feBlend mode="normal" in2="shape" result="effect1_innerShadow_15_681"/>
</filter>
<filter id="filter1_di_15_681" x="12.538" y="3.482" width="244.22" height="60.242" filterUnits="userSpaceOnUse" color-interpolation-filters="sRGB">
<feFlood flood-opacity="0" result="BackgroundImageFix"/>
<feColorMatrix in="SourceAlpha" type="matrix" values="0 0 0 0 0 0 0 0 0 0 0 0 0 0 0 0 0 0 127 0" result="hardAlpha"/>
<feOffset/>
<feGaussianBlur stdDeviation="10.7"/>
<feComposite in2="hardAlpha" operator="out"/>
<feColorMatrix type="matrix" values="0 0 0 0 0.907752 0 0 0 0 0.477198 0 0 0 0 0 0 0 0 0.38 0"/>
<feBlend mode="normal" in2="BackgroundImageFix" result="effect1_dropShadow_15_681"/>
<feBlend mode="normal" in="SourceGraphic" in2="effect1_dropShadow_15_681" result="shape"/>
<feColorMatrix in="SourceAlpha" type="matrix" values="0 0 0 0 0 0 0 0 0 0 0 0 0 0 0 0 0 0 127 0" result="hardAlpha"/>
<feOffset/>
<feGaussianBlur stdDeviation="1.1"/>
<feComposite in2="hardAlpha" operator="arithmetic" k2="-1" k3="1"/>
<feColorMatrix type="matrix" values="0 0 0 0 0 0 0 0 0 0 0 0 0 0 0 0 0 0 0.59 0"/>
<feBlend mode="normal" in2="shape" result="effect2_innerShadow_15_681"/>
</filter>
<filter id="filter2_d_15_681" x="281.273" y="33.9966" width="35.7271" height="35.2868" filterUnits="userSpaceOnUse" color-interpolation-filters="sRGB">
<feFlood flood-opacity="0" result="BackgroundImageFix"/>
<feColorMatrix in="SourceAlpha" type="matrix" values="0 0 0 0 0 0 0 0 0 0 0 0 0 0 0 0 0 0 127 0" result="hardAlpha"/>
<feOffset/>
<feGaussianBlur stdDeviation="3.5"/>
<feComposite in2="hardAlpha" operator="out"/>
<feColorMatrix type="matrix" values="0 0 0 0 0.905882 0 0 0 0 0.658824 0 0 0 0 0.364706 0 0 0 0.71 0"/>
<feBlend mode="normal" in2="BackgroundImageFix" result="effect1_dropShadow_15_681"/>
<feBlend mode="normal" in="SourceGraphic" in2="effect1_dropShadow_15_681" result="shape"/>
</filter>
<radialGradient id="paint0_radial_15_681" cx="0" cy="0" r="1" gradientUnits="userSpaceOnUse" gradientTransform="translate(24.3849 -53.1662) rotate(39.3467) scale(311.736 150.221)">
<stop stop-color="white"/>
<stop offset="1" stop-color="#242424"/>
</radialGradient>
<radialGradient id="paint1_radial_15_681" cx="0" cy="0" r="1" gradientUnits="userSpaceOnUse" gradientTransform="translate(24.3849 -53.1662) rotate(39.3467) scale(311.736 150.221)">
<stop/>
<stop offset="1" stop-color="white" stop-opacity="0.43"/>
</radialGradient>
<radialGradient id="paint2_radial_15_681" cx="0" cy="0" r="1" gradientTransform="matrix(33.2362 32.4213 -30.8775 20.917 280.303 -1.40356)" gradientUnits="userSpaceOnUse">
<stop stop-color="white"/>
<stop offset="1"/>
</radialGradient>
<radialGradient id="paint3_radial_15_681" cx="0" cy="0" r="1" gradientTransform="matrix(-33.2362 -32.4213 30.8775 -20.917 317.971 67.0129)" gradientUnits="userSpaceOnUse">
<stop/>
<stop offset="1" stop-color="white"/>
</radialGradient>
</defs>
</svg>
